<?xml version="1.0" encoding="UTF-8" standalone="no"?>
<!-- Created with Inkscape (http://www.inkscape.org/) -->

<svg
   width="70mm"
   height="240mm"
   viewBox="0 0 70 240"
   version="1.1"
   id="svg5"
   xml:space="preserve"
   inkscape:version="1.2.1 (9c6d41e410, 2022-07-14)"
   sodipodi:docname="conditional_generator.svg"
   xmlns:inkscape="http://www.inkscape.org/namespaces/inkscape"
   xmlns:sodipodi="http://sodipodi.sourceforge.net/DTD/sodipodi-0.dtd"
   xmlns="http://www.w3.org/2000/svg"
   xmlns:svg="http://www.w3.org/2000/svg"><sodipodi:namedview
     id="namedview7"
     pagecolor="#ffffff"
     bordercolor="#000000"
     borderopacity="0.25"
     inkscape:showpageshadow="2"
     inkscape:pageopacity="0.0"
     inkscape:pagecheckerboard="0"
     inkscape:deskcolor="#d1d1d1"
     inkscape:document-units="mm"
     showgrid="false"
     inkscape:zoom="0.25323113"
     inkscape:cx="-1488.7585"
     inkscape:cy="851.00121"
     inkscape:window-width="1920"
     inkscape:window-height="991"
     inkscape:window-x="-9"
     inkscape:window-y="-9"
     inkscape:window-maximized="1"
     inkscape:current-layer="svg5" /><defs
     id="defs2" /><g
     inkscape:label="Layer 1"
     inkscape:groupmode="layer"
     id="layer1" /><path
     d="m 12.55434,114.60311 c 2.438657,0 4.415636,1.97698 4.415636,4.41564 0,2.43866 -1.976979,4.41563 -4.415636,4.41563 -2.438658,0 -4.4156366,-1.97697 -4.4156366,-4.41563 0,-2.43866 1.9769786,-4.41564 4.4156366,-4.41564"
     style="fill:#2ecc71;fill-opacity:1;fill-rule:nonzero;stroke:#2ecc71;stroke-width:0.245313;stroke-linecap:butt;stroke-linejoin:miter;stroke-miterlimit:10;stroke-dasharray:none;stroke-opacity:1"
     id="path204" /><text
     xml:space="preserve"
     style="font-variant:normal;font-weight:normal;font-size:3.43438px;font-family:'Times New Roman';-inkscape-font-specification:TimesNewRomanPSMT;writing-mode:lr-tb;fill:#2ecc71;fill-opacity:1;fill-rule:nonzero;stroke:none;stroke-width:0.245313"
     id="text208"
     x="-119.87734"
     y="13.461805"
     transform="rotate(-90)"><tspan
       x="-119.87734"
       y="13.461805"
       id="tspan206"
       style="stroke-width:0.245313">1</tspan></text><path
     d="m 57.078675,222.54089 c 2.437675,0 4.415636,1.97697 4.415636,4.41563 0,2.43866 -1.977961,4.41564 -4.415636,4.41564 -2.438662,0 -4.415636,-1.97698 -4.415636,-4.41564 0,-2.43866 1.976974,-4.41563 4.415636,-4.41563"
     style="fill:#3498db;fill-opacity:1;fill-rule:nonzero;stroke:#3498db;stroke-width:0.245313;stroke-linecap:butt;stroke-linejoin:miter;stroke-miterlimit:10;stroke-dasharray:none;stroke-opacity:1"
     id="path210" /><text
     xml:space="preserve"
     style="font-variant:normal;font-weight:normal;font-size:3.43438px;font-family:'Times New Roman';-inkscape-font-specification:TimesNewRomanPSMT;writing-mode:lr-tb;fill:#3498db;fill-opacity:1;fill-rule:nonzero;stroke:none;stroke-width:0.245313"
     id="text214"
     x="-227.81511"
     y="57.986137"
     transform="rotate(-90)"><tspan
       x="-227.81511"
       y="57.986137"
       id="tspan212"
       style="stroke-width:0.245313">4</tspan></text><path
     d="m 14.471707,123.11818 c 6.975234,17.09808 33.708724,82.62931 40.687634,99.73499"
     style="fill:none;stroke:#707070;stroke-width:0.245313;stroke-linecap:butt;stroke-linejoin:miter;stroke-miterlimit:10;stroke-dasharray:none;stroke-opacity:1"
     id="path216" /><path
     d="m 57.078675,8.627844 c 2.437675,0 4.415636,1.976981 4.415636,4.415636 0,2.438656 -1.977961,4.415637 -4.415636,4.415637 -2.438662,0 -4.415636,-1.976981 -4.415636,-4.415637 0,-2.438655 1.976974,-4.415636 4.415636,-4.415636"
     style="fill:#3498db;fill-opacity:1;fill-rule:nonzero;stroke:#3498db;stroke-width:0.245313;stroke-linecap:butt;stroke-linejoin:miter;stroke-miterlimit:10;stroke-dasharray:none;stroke-opacity:1"
     id="path218" /><text
     xml:space="preserve"
     style="font-variant:normal;font-weight:normal;font-size:3.43438px;font-family:'Times New Roman';-inkscape-font-specification:TimesNewRomanPSMT;writing-mode:lr-tb;fill:#3498db;fill-opacity:1;fill-rule:nonzero;stroke:none;stroke-width:0.245313"
     id="text222"
     x="-13.902074"
     y="57.986137"
     transform="rotate(-90)"><tspan
       x="-13.902074"
       y="57.986137"
       id="tspan220"
       style="stroke-width:0.245313">5</tspan></text><path
     d="M 14.498691,114.92889 C 21.515874,98.039572 48.19858,33.823215 55.162039,17.064408"
     style="fill:none;stroke:#707070;stroke-width:0.245313;stroke-linecap:butt;stroke-linejoin:miter;stroke-miterlimit:10;stroke-dasharray:none;stroke-opacity:1"
     id="path224" /><path
     d="m 57.078675,35.121662 c 2.437675,0 4.415636,1.976975 4.415636,4.415637 0,2.438655 -1.977961,4.415636 -4.415636,4.415636 -2.438662,0 -4.415636,-1.976981 -4.415636,-4.415636 0,-2.438662 1.976974,-4.415637 4.415636,-4.415637"
     style="fill:#3498db;fill-opacity:1;fill-rule:nonzero;stroke:#3498db;stroke-width:0.245313;stroke-linecap:butt;stroke-linejoin:miter;stroke-miterlimit:10;stroke-dasharray:none;stroke-opacity:1"
     id="path226" /><text
     xml:space="preserve"
     style="font-variant:normal;font-weight:normal;font-size:3.43438px;font-family:'Times New Roman';-inkscape-font-specification:TimesNewRomanPSMT;writing-mode:lr-tb;fill:#3498db;fill-opacity:1;fill-rule:nonzero;stroke:none;stroke-width:0.245313"
     id="text230"
     x="-40.395874"
     y="57.986137"
     transform="rotate(-90)"><tspan
       x="-40.395874"
       y="57.986137"
       id="tspan228"
       style="stroke-width:0.245313">6</tspan></text><path
     d="M 14.923083,115.18475 C 22.379376,101.72711 47.308339,56.730313 54.730043,43.332048"
     style="fill:none;stroke:#707070;stroke-width:0.245313;stroke-linecap:butt;stroke-linejoin:miter;stroke-miterlimit:10;stroke-dasharray:none;stroke-opacity:1"
     id="path232" /><path
     d="m 57.078675,61.615481 c 2.437675,0 4.415636,1.976974 4.415636,4.415636 0,2.438655 -1.977961,4.41563 -4.415636,4.41563 -2.438662,0 -4.415636,-1.976975 -4.415636,-4.41563 0,-2.438662 1.976974,-4.415636 4.415636,-4.415636"
     style="fill:#3498db;fill-opacity:1;fill-rule:nonzero;stroke:#3498db;stroke-width:0.245313;stroke-linecap:butt;stroke-linejoin:miter;stroke-miterlimit:10;stroke-dasharray:none;stroke-opacity:1"
     id="path234" /><text
     xml:space="preserve"
     style="font-variant:normal;font-weight:normal;font-size:3.43438px;font-family:'Times New Roman';-inkscape-font-specification:TimesNewRomanPSMT;writing-mode:lr-tb;fill:#3498db;fill-opacity:1;fill-rule:nonzero;stroke:none;stroke-width:0.245313"
     id="text238"
     x="-66.889694"
     y="57.986137"
     transform="rotate(-90)"><tspan
       x="-66.889694"
       y="57.986137"
       id="tspan236"
       style="stroke-width:0.245313">7</tspan></text><path
     d="M 15.553783,115.70408 C 23.462188,106.18863 46.17279,78.85829 54.079227,69.344805"
     style="fill:none;stroke:#707070;stroke-width:0.245313;stroke-linecap:butt;stroke-linejoin:miter;stroke-miterlimit:10;stroke-dasharray:none;stroke-opacity:1"
     id="path240" /><path
     d="m 57.078675,88.109292 c 2.437675,0 4.415636,1.976981 4.415636,4.415636 0,2.438663 -1.977961,4.415637 -4.415636,4.415637 -2.438662,0 -4.415636,-1.976974 -4.415636,-4.415637 0,-2.438655 1.976974,-4.415636 4.415636,-4.415636"
     style="fill:#3498db;fill-opacity:1;fill-rule:nonzero;stroke:#3498db;stroke-width:0.245313;stroke-linecap:butt;stroke-linejoin:miter;stroke-miterlimit:10;stroke-dasharray:none;stroke-opacity:1"
     id="path242" /><text
     xml:space="preserve"
     style="font-variant:normal;font-weight:normal;font-size:3.43438px;font-family:'Times New Roman';-inkscape-font-specification:TimesNewRomanPSMT;writing-mode:lr-tb;fill:#3498db;fill-opacity:1;fill-rule:nonzero;stroke:none;stroke-width:0.245313"
     id="text246"
     x="-93.383522"
     y="57.986137"
     transform="rotate(-90)"><tspan
       x="-93.383522"
       y="57.986137"
       id="tspan244"
       style="stroke-width:0.245313">8</tspan></text><path
     d="M 16.478368,116.80529 C 24.78737,111.80605 44.926107,99.688808 53.195857,94.713617"
     style="fill:none;stroke:#707070;stroke-width:0.245313;stroke-linecap:butt;stroke-linejoin:miter;stroke-miterlimit:10;stroke-dasharray:none;stroke-opacity:1"
     id="path248" /><path
     d="m 57.078675,114.60311 c 2.437675,0 4.415636,1.97698 4.415636,4.41564 0,2.43866 -1.977961,4.41563 -4.415636,4.41563 -2.438662,0 -4.415636,-1.97697 -4.415636,-4.41563 0,-2.43866 1.976974,-4.41564 4.415636,-4.41564"
     style="fill:#3498db;fill-opacity:1;fill-rule:nonzero;stroke:#3498db;stroke-width:0.245313;stroke-linecap:butt;stroke-linejoin:miter;stroke-miterlimit:10;stroke-dasharray:none;stroke-opacity:1"
     id="path250" /><text
     xml:space="preserve"
     style="font-variant:normal;font-weight:normal;font-size:3.43438px;font-family:'Times New Roman';-inkscape-font-specification:TimesNewRomanPSMT;writing-mode:lr-tb;fill:#3498db;fill-opacity:1;fill-rule:nonzero;stroke:none;stroke-width:0.245313"
     id="text254"
     x="-119.87734"
     y="57.986137"
     transform="rotate(-90)"><tspan
       x="-119.87734"
       y="57.986137"
       id="tspan252"
       style="stroke-width:0.245313">9</tspan></text><path
     d="m 17.021737,119.01875 c 8.395352,0 27.0995,0 35.536794,0"
     style="fill:none;stroke:#707070;stroke-width:0.245313;stroke-linecap:butt;stroke-linejoin:miter;stroke-miterlimit:10;stroke-dasharray:none;stroke-opacity:1"
     id="path256" /><path
     d="m 57.078675,140.97525 c 2.641037,0 4.782621,2.14061 4.782621,4.78263 0,2.64202 -2.141584,4.78262 -4.782621,4.78262 -2.642025,0 -4.783608,-2.1406 -4.783608,-4.78262 0,-2.64202 2.141583,-4.78263 4.783608,-4.78263"
     style="fill:#3498db;fill-opacity:1;fill-rule:nonzero;stroke:#3498db;stroke-width:0.245313;stroke-linecap:butt;stroke-linejoin:miter;stroke-miterlimit:10;stroke-dasharray:none;stroke-opacity:1"
     id="path258" /><text
     xml:space="preserve"
     style="font-variant:normal;font-weight:normal;font-size:3.43438px;font-family:'Times New Roman';-inkscape-font-specification:TimesNewRomanPSMT;writing-mode:lr-tb;fill:#3498db;fill-opacity:1;fill-rule:nonzero;stroke:none;stroke-width:0.245313"
     id="text262"
     x="-147.47507"
     y="57.986137"
     transform="rotate(-90)"><tspan
       x="-147.47507 -145.81969"
       y="57.986137"
       sodipodi:role="line"
       id="tspan260"
       style="stroke-width:0.245313">10</tspan></text><path
     d="m 16.478368,121.25232 c 8.20548,4.98305 27.948528,16.97175 36.403241,22.10615"
     style="fill:none;stroke:#707070;stroke-width:0.245313;stroke-linecap:butt;stroke-linejoin:miter;stroke-miterlimit:10;stroke-dasharray:none;stroke-opacity:1"
     id="path264" /><path
     d="m 57.078675,168.20501 c 2.641037,0 4.782621,2.1406 4.782621,4.78263 0,2.64202 -2.141584,4.78262 -4.782621,4.78262 -2.642025,0 -4.783608,-2.1406 -4.783608,-4.78262 0,-2.64203 2.141583,-4.78263 4.783608,-4.78263"
     style="fill:#3498db;fill-opacity:1;fill-rule:nonzero;stroke:#3498db;stroke-width:0.245313;stroke-linecap:butt;stroke-linejoin:miter;stroke-miterlimit:10;stroke-dasharray:none;stroke-opacity:1"
     id="path266" /><text
     xml:space="preserve"
     style="font-variant:normal;font-weight:normal;font-size:3.43438px;font-family:'Times New Roman';-inkscape-font-specification:TimesNewRomanPSMT;writing-mode:lr-tb;fill:#3498db;fill-opacity:1;fill-rule:nonzero;stroke:none;stroke-width:0.245313"
     id="text270"
     x="-174.70482"
     y="57.986137"
     transform="rotate(-90)"><tspan
       x="-174.70482 -173.04944"
       y="57.986137"
       sodipodi:role="line"
       id="tspan268"
       style="stroke-width:0.245313">11</tspan></text><path
     d="m 15.553783,122.39475 c 7.832603,9.59983 30.187742,36.9991 38.295588,46.93624"
     style="fill:none;stroke:#707070;stroke-width:0.245313;stroke-linecap:butt;stroke-linejoin:miter;stroke-miterlimit:10;stroke-dasharray:none;stroke-opacity:1"
     id="path272" /><path
     d="m 57.078675,195.43476 c 2.641037,0 4.782621,2.14061 4.782621,4.78263 0,2.64203 -2.141584,4.78263 -4.782621,4.78263 -2.642025,0 -4.783608,-2.1406 -4.783608,-4.78263 0,-2.64202 2.141583,-4.78263 4.783608,-4.78263"
     style="fill:#3498db;fill-opacity:1;fill-rule:nonzero;stroke:#3498db;stroke-width:0.245313;stroke-linecap:butt;stroke-linejoin:miter;stroke-miterlimit:10;stroke-dasharray:none;stroke-opacity:1"
     id="path274" /><text
     xml:space="preserve"
     style="font-variant:normal;font-weight:normal;font-size:3.43438px;font-family:'Times New Roman';-inkscape-font-specification:TimesNewRomanPSMT;writing-mode:lr-tb;fill:#3498db;fill-opacity:1;fill-rule:nonzero;stroke:none;stroke-width:0.245313"
     id="text278"
     x="-201.93457"
     y="57.986137"
     transform="rotate(-90)"><tspan
       x="-201.93457 -200.27919"
       y="57.986137"
       sodipodi:role="line"
       id="tspan276"
       style="stroke-width:0.245313">12</tspan></text><path
     d="m 14.864699,122.82601 c 7.327748,13.51405 32.058499,59.11752 39.699518,73.20757"
     style="fill:none;stroke:#707070;stroke-width:0.245313;stroke-linecap:butt;stroke-linejoin:miter;stroke-miterlimit:10;stroke-dasharray:none;stroke-opacity:1"
     id="path280" /><path
     d="m 12.55434,141.09693 c 2.438657,0 4.415636,1.97698 4.415636,4.41564 0,2.43865 -1.976979,4.41563 -4.415636,4.41563 -2.438658,0 -4.4156366,-1.97698 -4.4156366,-4.41563 0,-2.43866 1.9769786,-4.41564 4.4156366,-4.41564"
     style="fill:#2ecc71;fill-opacity:1;fill-rule:nonzero;stroke:#2ecc71;stroke-width:0.245313;stroke-linecap:butt;stroke-linejoin:miter;stroke-miterlimit:10;stroke-dasharray:none;stroke-opacity:1"
     id="path282" /><text
     xml:space="preserve"
     style="font-variant:normal;font-weight:normal;font-size:3.43438px;font-family:'Times New Roman';-inkscape-font-specification:TimesNewRomanPSMT;writing-mode:lr-tb;fill:#2ecc71;fill-opacity:1;fill-rule:nonzero;stroke:none;stroke-width:0.245313"
     id="text286"
     x="-146.37114"
     y="13.461805"
     transform="rotate(-90)"><tspan
       x="-146.37114"
       y="13.461805"
       id="tspan284"
       style="stroke-width:0.245313">2</tspan></text><path
     d="m 14.864699,149.33111 c 7.3957,13.68111 32.518462,60.14783 39.90852,73.81447"
     style="fill:none;stroke:#707070;stroke-width:0.245313;stroke-linecap:butt;stroke-linejoin:miter;stroke-miterlimit:10;stroke-dasharray:none;stroke-opacity:1"
     id="path288" /><path
     d="M 14.190088,141.32875 C 20.782878,121.49494 48.848172,37.064049 55.441941,17.228273"
     style="fill:none;stroke:#707070;stroke-width:0.245313;stroke-linecap:butt;stroke-linejoin:miter;stroke-miterlimit:10;stroke-dasharray:none;stroke-opacity:1"
     id="path290" /><path
     d="M 14.498691,141.42271 C 21.515874,124.53339 48.19858,60.317033 55.162039,43.558226"
     style="fill:none;stroke:#707070;stroke-width:0.245313;stroke-linecap:butt;stroke-linejoin:miter;stroke-miterlimit:10;stroke-dasharray:none;stroke-opacity:1"
     id="path292" /><path
     d="M 14.923083,141.67857 C 22.379376,128.22093 47.308339,83.224131 54.730043,69.825859"
     style="fill:none;stroke:#707070;stroke-width:0.245313;stroke-linecap:butt;stroke-linejoin:miter;stroke-miterlimit:10;stroke-dasharray:none;stroke-opacity:1"
     id="path294" /><path
     d="M 15.553783,142.1979 C 23.462188,132.68244 46.17279,105.35211 54.079227,95.838624"
     style="fill:none;stroke:#707070;stroke-width:0.245313;stroke-linecap:butt;stroke-linejoin:miter;stroke-miterlimit:10;stroke-dasharray:none;stroke-opacity:1"
     id="path296" /><path
     d="m 16.478368,143.29911 c 8.309002,-4.99924 28.447739,-17.11648 36.717489,-22.09168"
     style="fill:none;stroke:#707070;stroke-width:0.245313;stroke-linecap:butt;stroke-linejoin:miter;stroke-miterlimit:10;stroke-dasharray:none;stroke-opacity:1"
     id="path298" /><path
     d="m 17.021737,145.5366 c 8.286923,0.0459 26.622118,0.14744 35.207095,0.19552"
     style="fill:none;stroke:#707070;stroke-width:0.245313;stroke-linecap:butt;stroke-linejoin:miter;stroke-miterlimit:10;stroke-dasharray:none;stroke-opacity:1"
     id="path300" /><path
     d="m 16.402567,147.76061 c 8.154944,5.08829 27.971585,17.45281 36.46163,22.75083"
     style="fill:none;stroke:#707070;stroke-width:0.245313;stroke-linecap:butt;stroke-linejoin:miter;stroke-miterlimit:10;stroke-dasharray:none;stroke-opacity:1"
     id="path302" /><path
     d="m 15.487548,148.85201 c 7.78673,9.67368 30.315309,37.66244 38.407697,47.71537"
     style="fill:none;stroke:#707070;stroke-width:0.245313;stroke-linecap:butt;stroke-linejoin:miter;stroke-miterlimit:10;stroke-dasharray:none;stroke-opacity:1"
     id="path304" /><path
     d="m 12.55434,88.109292 c 2.438657,0 4.415636,1.976981 4.415636,4.415636 0,2.438663 -1.976979,4.415637 -4.415636,4.415637 -2.438658,0 -4.4156366,-1.976974 -4.4156366,-4.415637 0,-2.438655 1.9769786,-4.415636 4.4156366,-4.415636"
     style="fill:#ff0000;fill-opacity:1;fill-rule:nonzero;stroke:#ff2a2a;stroke-width:0.245313;stroke-linecap:butt;stroke-linejoin:miter;stroke-miterlimit:10;stroke-dasharray:none;stroke-opacity:1"
     id="path306" /><text
     xml:space="preserve"
     style="font-variant:normal;font-weight:normal;font-size:3.43438px;font-family:'Times New Roman';-inkscape-font-specification:TimesNewRomanPSMT;writing-mode:lr-tb;fill:#ff0000;fill-opacity:1;fill-rule:nonzero;stroke:none;stroke-width:0.245313"
     id="text310"
     x="-93.383522"
     y="13.461805"
     transform="rotate(-90)"><tspan
       x="-93.383522"
       y="13.461805"
       id="tspan308"
       style="stroke-width:0.245313;fill:#ff0000">3</tspan></text><path
     d="M 14.166047,96.695257 C 20.719587,116.70447 48.89429,202.71934 55.461078,222.76805"
     style="fill:none;stroke:#707070;stroke-width:0.245313;stroke-linecap:butt;stroke-linejoin:miter;stroke-miterlimit:10;stroke-dasharray:none;stroke-opacity:1"
     id="path312" /><path
     d="M 14.923083,88.690932 C 22.379376,75.233296 47.308339,30.236494 54.730043,16.83823"
     style="fill:none;stroke:#707070;stroke-width:0.245313;stroke-linecap:butt;stroke-linejoin:miter;stroke-miterlimit:10;stroke-dasharray:none;stroke-opacity:1"
     id="path314" /><path
     d="M 15.553783,89.21026 C 23.462188,79.694807 46.17279,52.364472 54.079227,42.850987"
     style="fill:none;stroke:#707070;stroke-width:0.245313;stroke-linecap:butt;stroke-linejoin:miter;stroke-miterlimit:10;stroke-dasharray:none;stroke-opacity:1"
     id="path316" /><path
     d="M 16.478368,90.311471 C 24.78737,85.312233 44.926107,73.19499 53.195857,68.219799"
     style="fill:none;stroke:#707070;stroke-width:0.245313;stroke-linecap:butt;stroke-linejoin:miter;stroke-miterlimit:10;stroke-dasharray:none;stroke-opacity:1"
     id="path318" /><path
     d="m 17.021737,92.524928 c 8.395352,0 27.0995,0 35.536794,0"
     style="fill:none;stroke:#707070;stroke-width:0.245313;stroke-linecap:butt;stroke-linejoin:miter;stroke-miterlimit:10;stroke-dasharray:none;stroke-opacity:1"
     id="path320" /><path
     d="m 16.478368,94.738393 c 8.309002,4.999231 28.447739,17.116477 36.717489,22.091677"
     style="fill:none;stroke:#707070;stroke-width:0.245313;stroke-linecap:butt;stroke-linejoin:miter;stroke-miterlimit:10;stroke-dasharray:none;stroke-opacity:1"
     id="path322" /><path
     d="m 15.553783,95.854812 c 7.832603,9.468588 30.187742,36.494248 38.295588,46.296228"
     style="fill:none;stroke:#707070;stroke-width:0.245313;stroke-linecap:butt;stroke-linejoin:miter;stroke-miterlimit:10;stroke-dasharray:none;stroke-opacity:1"
     id="path324" /><path
     d="m 14.864699,96.2976 c 7.327748,13.39164 32.058499,58.58102 39.699518,72.54473"
     style="fill:none;stroke:#707070;stroke-width:0.245313;stroke-linecap:butt;stroke-linejoin:miter;stroke-miterlimit:10;stroke-dasharray:none;stroke-opacity:1"
     id="path326" /><path
     d="m 14.471707,96.614788 c 6.928379,16.943782 33.348359,81.560722 40.542905,99.156302"
     style="fill:none;stroke:#707070;stroke-width:0.245313;stroke-linecap:butt;stroke-linejoin:miter;stroke-miterlimit:10;stroke-dasharray:none;stroke-opacity:1"
     id="path328" /></svg>
