<?xml version="1.0" encoding="UTF-8" standalone="no"?>
<!-- Created with Inkscape (http://www.inkscape.org/) -->

<svg
   width="297mm"
   height="210mm"
   viewBox="0 0 297 210"
   version="1.1"
   id="svg951"
   xml:space="preserve"
   inkscape:version="1.2.1 (9c6d41e410, 2022-07-14)"
   sodipodi:docname="deep_network.svg"
   xmlns:inkscape="http://www.inkscape.org/namespaces/inkscape"
   xmlns:sodipodi="http://sodipodi.sourceforge.net/DTD/sodipodi-0.dtd"
   xmlns="http://www.w3.org/2000/svg"
   xmlns:svg="http://www.w3.org/2000/svg"><sodipodi:namedview
     id="namedview953"
     pagecolor="#ffffff"
     bordercolor="#000000"
     borderopacity="0.25"
     inkscape:showpageshadow="2"
     inkscape:pageopacity="0.0"
     inkscape:pagecheckerboard="0"
     inkscape:deskcolor="#d1d1d1"
     inkscape:document-units="mm"
     showgrid="false"
     inkscape:zoom="0.50646226"
     inkscape:cx="654.54038"
     inkscape:cy="618.99973"
     inkscape:window-width="1920"
     inkscape:window-height="991"
     inkscape:window-x="-9"
     inkscape:window-y="-9"
     inkscape:window-maximized="1"
     inkscape:current-layer="svg951" /><defs
     id="defs948" /><g
     inkscape:label="Layer 1"
     inkscape:groupmode="layer"
     id="layer1" /><g
     id="g1369"
     transform="matrix(0,0.71252903,-0.71252903,0,325.20819,-84.559438)"><path
       d="m 237.63889,174.27224 h 56.44444 v 18.34445 h -56.44444 z"
       style="fill:none;stroke:#ffffff;stroke-width:0.352778;stroke-linecap:butt;stroke-linejoin:miter;stroke-miterlimit:10;stroke-dasharray:none;stroke-opacity:1"
       id="path1092"
       sodipodi:nodetypes="ccccc" /><path
       d="m 237.63889,237.77225 h 56.44444 v 18.34444 h -56.44444 z"
       style="fill:none;stroke:#ffffff;stroke-width:0.352778;stroke-linecap:butt;stroke-linejoin:miter;stroke-miterlimit:10;stroke-dasharray:none;stroke-opacity:1"
       id="path1094"
       sodipodi:nodetypes="ccccc" /><path
       d="m 237.63889,301.27225 h 56.44444 v 18.34444 h -56.44444 z"
       style="fill:none;stroke:#ffffff;stroke-width:0.352778;stroke-linecap:butt;stroke-linejoin:miter;stroke-miterlimit:10;stroke-dasharray:none;stroke-opacity:1"
       id="path1102"
       sodipodi:nodetypes="ccccc" /><path
       d="m 236.93333,364.77225 h 58.20833 v 19.40136 h -58.20833 z"
       style="fill:none;stroke:#ffffff;stroke-width:0.352778;stroke-linecap:butt;stroke-linejoin:miter;stroke-miterlimit:10;stroke-dasharray:none;stroke-opacity:1"
       id="path1104"
       sodipodi:nodetypes="ccccc" /><path
       d="m 237.63889,110.77224 h 56.44444 v 18.34445 h -56.44444 z"
       style="fill:none;stroke:#ffffff;stroke-width:0.352778;stroke-linecap:butt;stroke-linejoin:miter;stroke-miterlimit:10;stroke-dasharray:none;stroke-opacity:1"
       id="path1106"
       sodipodi:nodetypes="ccccc" /><path
       d="m 267.625,56.444466 c 0,3.506964 -2.84304,6.35 -6.35,6.35 -3.50697,0 -6.35,-2.843036 -6.35,-6.35 0,-3.506964 2.84303,-6.35 6.35,-6.35 3.50696,0 6.35,2.843036 6.35,6.35"
       style="fill:#2ecc71;fill-opacity:1;fill-rule:nonzero;stroke:#2ecc71;stroke-width:0.352778;stroke-linecap:butt;stroke-linejoin:miter;stroke-miterlimit:10;stroke-dasharray:none;stroke-opacity:1"
       id="path1108"
       sodipodi:nodetypes="csssc" /><path
       d="m 291.26111,119.94447 c 0,3.50696 -2.84304,6.35 -6.35,6.35 -3.50697,0 -6.35,-2.84304 -6.35,-6.35 0,-3.50697 2.84303,-6.35 6.35,-6.35 3.50696,0 6.35,2.84303 6.35,6.35"
       style="fill:#3498db;fill-opacity:1;fill-rule:nonzero;stroke:#3498db;stroke-width:0.352778;stroke-linecap:butt;stroke-linejoin:miter;stroke-miterlimit:10;stroke-dasharray:none;stroke-opacity:1"
       id="path1114"
       sodipodi:nodetypes="csssc" /><path
       d="m 263.45658,62.591972 c 4.50179,11.962694 14.78068,39.268398 19.27859,51.218748"
       style="fill:none;stroke:#707070;stroke-width:0.352778;stroke-linecap:butt;stroke-linejoin:miter;stroke-miterlimit:10;stroke-dasharray:none;stroke-opacity:1"
       id="path1120"
       sodipodi:nodetypes="cc" /><path
       d="m 253.16111,119.94447 c 0,3.50696 -2.84304,6.35 -6.35,6.35 -3.50696,0 -6.35,-2.84304 -6.35,-6.35 0,-3.50697 2.84304,-6.35 6.35,-6.35 3.50696,0 6.35,2.84303 6.35,6.35"
       style="fill:#3498db;fill-opacity:1;fill-rule:nonzero;stroke:#3498db;stroke-width:0.352778;stroke-linecap:butt;stroke-linejoin:miter;stroke-miterlimit:10;stroke-dasharray:none;stroke-opacity:1"
       id="path1122"
       sodipodi:nodetypes="csssc" /><path
       d="m 259.88858,62.81775 c -2.76578,12.002911 -8.93374,38.78368 -11.69529,50.77107"
       style="fill:none;stroke:#707070;stroke-width:0.352778;stroke-linecap:butt;stroke-linejoin:miter;stroke-miterlimit:10;stroke-dasharray:none;stroke-opacity:1"
       id="path1128"
       sodipodi:nodetypes="cc" /><path
       d="m 291.26111,183.44447 c 0,3.50696 -2.84304,6.35 -6.35,6.35 -3.50697,0 -6.35,-2.84304 -6.35,-6.35 0,-3.50697 2.84303,-6.35 6.35,-6.35 3.50696,0 6.35,2.84303 6.35,6.35"
       style="fill:#3498db;fill-opacity:1;fill-rule:nonzero;stroke:#3498db;stroke-width:0.352778;stroke-linecap:butt;stroke-linejoin:miter;stroke-miterlimit:10;stroke-dasharray:none;stroke-opacity:1"
       id="path1130"
       sodipodi:nodetypes="csssc" /><path
       d="m 284.91111,126.4324 v 50.49944"
       style="fill:none;stroke:#707070;stroke-width:0.352778;stroke-linecap:butt;stroke-linejoin:miter;stroke-miterlimit:10;stroke-dasharray:none;stroke-opacity:1"
       id="path1136"
       sodipodi:nodetypes="cc" /><path
       d="m 253.16111,183.44447 c 0,3.50696 -2.84304,6.35 -6.35,6.35 -3.50696,0 -6.35,-2.84304 -6.35,-6.35 0,-3.50697 2.84304,-6.35 6.35,-6.35 3.50696,0 6.35,2.84303 6.35,6.35"
       style="fill:#3498db;fill-opacity:1;fill-rule:nonzero;stroke:#3498db;stroke-width:0.352778;stroke-linecap:butt;stroke-linejoin:miter;stroke-miterlimit:10;stroke-dasharray:none;stroke-opacity:1"
       id="path1138"
       sodipodi:nodetypes="csssc" /><path
       d="m 281.72799,125.5434 c -7.18925,11.84981 -24.61471,40.56804 -31.7694,52.3614"
       style="fill:none;stroke:#707070;stroke-width:0.352778;stroke-linecap:butt;stroke-linejoin:miter;stroke-miterlimit:10;stroke-dasharray:none;stroke-opacity:1"
       id="path1144"
       sodipodi:nodetypes="cc" /><path
       d="m 249.99422,125.5434 c 7.18926,11.84981 24.61472,40.56804 31.7694,52.3614"
       style="fill:none;stroke:#707070;stroke-width:0.352778;stroke-linecap:butt;stroke-linejoin:miter;stroke-miterlimit:10;stroke-dasharray:none;stroke-opacity:1"
       id="path1146"
       sodipodi:nodetypes="cc" /><path
       d="m 246.81111,126.4324 v 50.49944"
       style="fill:none;stroke:#707070;stroke-width:0.352778;stroke-linecap:butt;stroke-linejoin:miter;stroke-miterlimit:10;stroke-dasharray:none;stroke-opacity:1"
       id="path1148"
       sodipodi:nodetypes="cc" /><path
       d="m 291.26111,246.94447 c 0,3.50696 -2.84304,6.35 -6.35,6.35 -3.50697,0 -6.35,-2.84304 -6.35,-6.35 0,-3.50697 2.84303,-6.35 6.35,-6.35 3.50696,0 6.35,2.84303 6.35,6.35"
       style="fill:#3498db;fill-opacity:1;fill-rule:nonzero;stroke:#3498db;stroke-width:0.352778;stroke-linecap:butt;stroke-linejoin:miter;stroke-miterlimit:10;stroke-dasharray:none;stroke-opacity:1"
       id="path1150"
       sodipodi:nodetypes="csssc" /><path
       d="m 284.91111,189.9324 v 50.49944"
       style="fill:none;stroke:#707070;stroke-width:0.352778;stroke-linecap:butt;stroke-linejoin:miter;stroke-miterlimit:10;stroke-dasharray:none;stroke-opacity:1"
       id="path1156"
       sodipodi:nodetypes="cc" /><path
       d="m 253.16111,246.94447 c 0,3.50696 -2.84304,6.35 -6.35,6.35 -3.50696,0 -6.35,-2.84304 -6.35,-6.35 0,-3.50697 2.84304,-6.35 6.35,-6.35 3.50696,0 6.35,2.84303 6.35,6.35"
       style="fill:#3498db;fill-opacity:1;fill-rule:nonzero;stroke:#3498db;stroke-width:0.352778;stroke-linecap:butt;stroke-linejoin:miter;stroke-miterlimit:10;stroke-dasharray:none;stroke-opacity:1"
       id="path1158"
       sodipodi:nodetypes="csssc" /><path
       d="m 281.72799,189.0434 c -7.18925,11.84981 -24.61471,40.56804 -31.7694,52.3614"
       style="fill:none;stroke:#707070;stroke-width:0.352778;stroke-linecap:butt;stroke-linejoin:miter;stroke-miterlimit:10;stroke-dasharray:none;stroke-opacity:1"
       id="path1164"
       sodipodi:nodetypes="cc" /><path
       d="m 249.99422,189.0434 c 7.18926,11.84981 24.61472,40.56804 31.7694,52.3614"
       style="fill:none;stroke:#707070;stroke-width:0.352778;stroke-linecap:butt;stroke-linejoin:miter;stroke-miterlimit:10;stroke-dasharray:none;stroke-opacity:1"
       id="path1166"
       sodipodi:nodetypes="cc" /><path
       d="m 246.81111,189.9324 v 50.49944"
       style="fill:none;stroke:#707070;stroke-width:0.352778;stroke-linecap:butt;stroke-linejoin:miter;stroke-miterlimit:10;stroke-dasharray:none;stroke-opacity:1"
       id="path1168"
       sodipodi:nodetypes="cc" /><path
       d="m 291.26111,310.44447 c 0,3.50696 -2.84304,6.35 -6.35,6.35 -3.50697,0 -6.35,-2.84304 -6.35,-6.35 0,-3.50697 2.84303,-6.35 6.35,-6.35 3.50696,0 6.35,2.84303 6.35,6.35"
       style="fill:#3498db;fill-opacity:1;fill-rule:nonzero;stroke:#3498db;stroke-width:0.352778;stroke-linecap:butt;stroke-linejoin:miter;stroke-miterlimit:10;stroke-dasharray:none;stroke-opacity:1"
       id="path1170"
       sodipodi:nodetypes="csssc" /><path
       d="m 284.91111,253.4324 v 50.49944"
       style="fill:none;stroke:#707070;stroke-width:0.352778;stroke-linecap:butt;stroke-linejoin:miter;stroke-miterlimit:10;stroke-dasharray:none;stroke-opacity:1"
       id="path1176"
       sodipodi:nodetypes="cc" /><path
       d="m 253.16111,310.44447 c 0,3.50696 -2.84304,6.35 -6.35,6.35 -3.50696,0 -6.35,-2.84304 -6.35,-6.35 0,-3.50697 2.84304,-6.35 6.35,-6.35 3.50696,0 6.35,2.84303 6.35,6.35"
       style="fill:#3498db;fill-opacity:1;fill-rule:nonzero;stroke:#3498db;stroke-width:0.352778;stroke-linecap:butt;stroke-linejoin:miter;stroke-miterlimit:10;stroke-dasharray:none;stroke-opacity:1"
       id="path1178"
       sodipodi:nodetypes="csssc" /><path
       d="m 281.72799,252.5434 c -7.18925,11.84981 -24.61471,40.56804 -31.7694,52.3614"
       style="fill:none;stroke:#707070;stroke-width:0.352778;stroke-linecap:butt;stroke-linejoin:miter;stroke-miterlimit:10;stroke-dasharray:none;stroke-opacity:1"
       id="path1184"
       sodipodi:nodetypes="cc" /><path
       d="m 249.99422,252.5434 c 7.18926,11.84981 24.61472,40.56804 31.7694,52.3614"
       style="fill:none;stroke:#707070;stroke-width:0.352778;stroke-linecap:butt;stroke-linejoin:miter;stroke-miterlimit:10;stroke-dasharray:none;stroke-opacity:1"
       id="path1186"
       sodipodi:nodetypes="cc" /><path
       d="m 246.81111,253.4324 v 50.49944"
       style="fill:none;stroke:#707070;stroke-width:0.352778;stroke-linecap:butt;stroke-linejoin:miter;stroke-miterlimit:10;stroke-dasharray:none;stroke-opacity:1"
       id="path1188"
       sodipodi:nodetypes="cc" /><path
       d="m 292.49442,374.47363 c 0,3.79801 -3.07834,6.87776 -6.87776,6.87776 -3.79941,0 -6.87775,-3.07975 -6.87775,-6.87776 0,-3.79941 3.07834,-6.87916 6.87775,-6.87916 3.79942,0 6.87776,3.07975 6.87776,6.87916"
       style="fill:#3498db;fill-opacity:1;fill-rule:nonzero;stroke:#3498db;stroke-width:0.352778;stroke-linecap:butt;stroke-linejoin:miter;stroke-miterlimit:10;stroke-dasharray:none;stroke-opacity:1"
       id="path1190"
       sodipodi:nodetypes="csssc" /><path
       d="m 284.97849,316.8689 c 0.13229,11.91719 0.42721,38.28451 0.56374,50.63032"
       style="fill:none;stroke:#707070;stroke-width:0.352778;stroke-linecap:butt;stroke-linejoin:miter;stroke-miterlimit:10;stroke-dasharray:none;stroke-opacity:1"
       id="path1196"
       sodipodi:nodetypes="cc" /><path
       d="m 253.33609,374.47363 c 0,3.79801 -3.07834,6.87776 -6.87776,6.87776 -3.79941,0 -6.87775,-3.07975 -6.87775,-6.87776 0,-3.79941 3.07834,-6.87916 6.87775,-6.87916 3.79942,0 6.87776,3.07975 6.87776,6.87916"
       style="fill:#3498db;fill-opacity:1;fill-rule:nonzero;stroke:#3498db;stroke-width:0.352778;stroke-linecap:butt;stroke-linejoin:miter;stroke-miterlimit:10;stroke-dasharray:none;stroke-opacity:1"
       id="path1198"
       sodipodi:nodetypes="csssc" /><path
       d="m 281.69907,316.0875 c -7.16598,11.80007 -24.40658,40.19197 -31.79022,52.35046"
       style="fill:none;stroke:#707070;stroke-width:0.352778;stroke-linecap:butt;stroke-linejoin:miter;stroke-miterlimit:10;stroke-dasharray:none;stroke-opacity:1"
       id="path1204"
       sodipodi:nodetypes="cc" /><path
       d="m 250.05243,316.0875 c 7.23195,11.80007 24.63095,40.19197 32.08196,52.35046"
       style="fill:none;stroke:#707070;stroke-width:0.352778;stroke-linecap:butt;stroke-linejoin:miter;stroke-miterlimit:10;stroke-dasharray:none;stroke-opacity:1"
       id="path1206"
       sodipodi:nodetypes="cc" /><path
       d="m 246.77654,316.8689 c -0.066,11.91719 -0.21202,38.28451 -0.28117,50.63032"
       style="fill:none;stroke:#707070;stroke-width:0.352778;stroke-linecap:butt;stroke-linejoin:miter;stroke-miterlimit:10;stroke-dasharray:none;stroke-opacity:1"
       id="path1208"
       sodipodi:nodetypes="cc" /><path
       d="m 272.73886,439.03056 c 0,3.798 -3.07833,6.87775 -6.87775,6.87775 -3.79942,0 -6.87776,-3.07975 -6.87776,-6.87775 0,-3.79907 3.07834,-6.87776 6.87776,-6.87776 3.79942,0 6.87775,3.07869 6.87775,6.87776"
       style="fill:#e74c3c;fill-opacity:1;fill-rule:nonzero;stroke:#e74c3c;stroke-width:0.352778;stroke-linecap:butt;stroke-linejoin:miter;stroke-miterlimit:10;stroke-dasharray:none;stroke-opacity:1"
       id="path1210"
       sodipodi:nodetypes="csssc" /><path
       d="m 283.65028,381.18206 c -3.78707,12.23821 -12.04948,38.94596 -15.8309,51.16512"
       style="fill:none;stroke:#707070;stroke-width:0.352778;stroke-linecap:butt;stroke-linejoin:miter;stroke-miterlimit:10;stroke-dasharray:none;stroke-opacity:1"
       id="path1216"
       sodipodi:nodetypes="cc" /><path
       d="m 248.3905,381.18206 c 3.70804,12.20646 11.79159,38.80943 15.51798,51.06987"
       style="fill:none;stroke:#707070;stroke-width:0.352778;stroke-linecap:butt;stroke-linejoin:miter;stroke-miterlimit:10;stroke-dasharray:none;stroke-opacity:1"
       id="path1218"
       sodipodi:nodetypes="cc" /></g></svg>
