<?xml version="1.0" encoding="UTF-8" standalone="no"?>
<!-- Created with Inkscape (http://www.inkscape.org/) -->

<svg
   width="70mm"
   height="240mm"
   viewBox="0 0 70 240"
   version="1.1"
   id="svg5"
   xml:space="preserve"
   inkscape:version="1.2.1 (9c6d41e410, 2022-07-14)"
   sodipodi:docname="discriminator.svg"
   xmlns:inkscape="http://www.inkscape.org/namespaces/inkscape"
   xmlns:sodipodi="http://sodipodi.sourceforge.net/DTD/sodipodi-0.dtd"
   xmlns="http://www.w3.org/2000/svg"
   xmlns:svg="http://www.w3.org/2000/svg"><sodipodi:namedview
     id="namedview7"
     pagecolor="#ffffff"
     bordercolor="#000000"
     borderopacity="0.25"
     inkscape:showpageshadow="2"
     inkscape:pageopacity="0.0"
     inkscape:pagecheckerboard="0"
     inkscape:deskcolor="#d1d1d1"
     inkscape:document-units="mm"
     showgrid="false"
     inkscape:zoom="0.71624579"
     inkscape:cx="112.39159"
     inkscape:cy="507.50735"
     inkscape:window-width="1920"
     inkscape:window-height="991"
     inkscape:window-x="-9"
     inkscape:window-y="-9"
     inkscape:window-maximized="1"
     inkscape:current-layer="svg5" /><defs
     id="defs2" /><g
     inkscape:label="Layer 1"
     inkscape:groupmode="layer"
     id="layer1" /><path
     d="m 57.44566,114.60311 c -2.438657,0 -4.415636,1.97698 -4.415636,4.41564 0,2.43866 1.976979,4.41563 4.415636,4.41563 2.438658,0 4.415637,-1.97697 4.415637,-4.41563 0,-2.43866 -1.976979,-4.41564 -4.415637,-4.41564"
     style="fill:#ff00ff;fill-opacity:1;fill-rule:nonzero;stroke:#800080;stroke-width:0.245313;stroke-linecap:butt;stroke-linejoin:miter;stroke-miterlimit:10;stroke-dasharray:none;stroke-opacity:1"
     id="path204" /><path
     d="m 12.921325,222.54089 c -2.437675,0 -4.4156365,1.97697 -4.4156365,4.41563 0,2.43866 1.9779615,4.41564 4.4156365,4.41564 2.438662,0 4.415636,-1.97698 4.415636,-4.41564 0,-2.43866 -1.976974,-4.41563 -4.415636,-4.41563"
     style="fill:#3498db;fill-opacity:1;fill-rule:nonzero;stroke:#3498db;stroke-width:0.245313;stroke-linecap:butt;stroke-linejoin:miter;stroke-miterlimit:10;stroke-dasharray:none;stroke-opacity:1"
     id="path210" /><text
     xml:space="preserve"
     style="font-variant:normal;font-weight:normal;font-size:3.43438px;font-family:'Times New Roman';-inkscape-font-specification:TimesNewRomanPSMT;writing-mode:lr-tb;fill:#3498db;fill-opacity:1;fill-rule:nonzero;stroke:none;stroke-width:0.245313"
     id="text214"
     x="-227.81511"
     y="-12.013861"
     transform="matrix(0,-1,-1,0,0,0)"><tspan
       x="-227.81511"
       y="-12.013861"
       id="tspan212"
       style="stroke-width:0.245313">4</tspan></text><path
     d="m 55.528293,123.11818 c -6.975234,17.09808 -33.708724,82.62931 -40.687634,99.73499"
     style="fill:none;stroke:#707070;stroke-width:0.245313;stroke-linecap:butt;stroke-linejoin:miter;stroke-miterlimit:10;stroke-dasharray:none;stroke-opacity:1"
     id="path216" /><path
     d="m 12.921325,8.627844 c -2.437675,0 -4.4156365,1.976981 -4.4156365,4.415636 0,2.438656 1.9779615,4.415637 4.4156365,4.415637 2.438662,0 4.415636,-1.976981 4.415636,-4.415637 0,-2.438655 -1.976974,-4.415636 -4.415636,-4.415636"
     style="fill:#3498db;fill-opacity:1;fill-rule:nonzero;stroke:#3498db;stroke-width:0.245313;stroke-linecap:butt;stroke-linejoin:miter;stroke-miterlimit:10;stroke-dasharray:none;stroke-opacity:1"
     id="path218" /><text
     xml:space="preserve"
     style="font-variant:normal;font-weight:normal;font-size:3.43438px;font-family:'Times New Roman';-inkscape-font-specification:TimesNewRomanPSMT;writing-mode:lr-tb;fill:#3498db;fill-opacity:1;fill-rule:nonzero;stroke:none;stroke-width:0.245313"
     id="text222"
     x="-13.902074"
     y="-12.013861"
     transform="matrix(0,-1,-1,0,0,0)"><tspan
       x="-13.902074"
       y="-12.013861"
       id="tspan220"
       style="stroke-width:0.245313">5</tspan></text><path
     d="M 55.501309,114.92889 C 48.484126,98.039572 21.80142,33.823215 14.837961,17.064408"
     style="fill:none;stroke:#707070;stroke-width:0.245313;stroke-linecap:butt;stroke-linejoin:miter;stroke-miterlimit:10;stroke-dasharray:none;stroke-opacity:1"
     id="path224" /><path
     d="m 12.921325,35.121662 c -2.437675,0 -4.4156365,1.976975 -4.4156365,4.415637 0,2.438655 1.9779615,4.415636 4.4156365,4.415636 2.438662,0 4.415636,-1.976981 4.415636,-4.415636 0,-2.438662 -1.976974,-4.415637 -4.415636,-4.415637"
     style="fill:#3498db;fill-opacity:1;fill-rule:nonzero;stroke:#3498db;stroke-width:0.245313;stroke-linecap:butt;stroke-linejoin:miter;stroke-miterlimit:10;stroke-dasharray:none;stroke-opacity:1"
     id="path226" /><text
     xml:space="preserve"
     style="font-variant:normal;font-weight:normal;font-size:3.43438px;font-family:'Times New Roman';-inkscape-font-specification:TimesNewRomanPSMT;writing-mode:lr-tb;fill:#3498db;fill-opacity:1;fill-rule:nonzero;stroke:none;stroke-width:0.245313"
     id="text230"
     x="-40.395874"
     y="-12.013861"
     transform="matrix(0,-1,-1,0,0,0)"><tspan
       x="-40.395874"
       y="-12.013861"
       id="tspan228"
       style="stroke-width:0.245313">6</tspan></text><path
     d="M 55.076917,115.18475 C 47.620624,101.72711 22.691661,56.730313 15.269957,43.332048"
     style="fill:none;stroke:#707070;stroke-width:0.245313;stroke-linecap:butt;stroke-linejoin:miter;stroke-miterlimit:10;stroke-dasharray:none;stroke-opacity:1"
     id="path232" /><path
     d="m 12.921325,61.615481 c -2.437675,0 -4.4156365,1.976974 -4.4156365,4.415636 0,2.438655 1.9779615,4.41563 4.4156365,4.41563 2.438662,0 4.415636,-1.976975 4.415636,-4.41563 0,-2.438662 -1.976974,-4.415636 -4.415636,-4.415636"
     style="fill:#3498db;fill-opacity:1;fill-rule:nonzero;stroke:#3498db;stroke-width:0.245313;stroke-linecap:butt;stroke-linejoin:miter;stroke-miterlimit:10;stroke-dasharray:none;stroke-opacity:1"
     id="path234" /><text
     xml:space="preserve"
     style="font-variant:normal;font-weight:normal;font-size:3.43438px;font-family:'Times New Roman';-inkscape-font-specification:TimesNewRomanPSMT;writing-mode:lr-tb;fill:#3498db;fill-opacity:1;fill-rule:nonzero;stroke:none;stroke-width:0.245313"
     id="text238"
     x="-66.889694"
     y="-12.013861"
     transform="matrix(0,-1,-1,0,0,0)"><tspan
       x="-66.889694"
       y="-12.013861"
       id="tspan236"
       style="stroke-width:0.245313">7</tspan></text><path
     d="M 54.446217,115.70408 C 46.537812,106.18863 23.82721,78.85829 15.920773,69.344805"
     style="fill:none;stroke:#707070;stroke-width:0.245313;stroke-linecap:butt;stroke-linejoin:miter;stroke-miterlimit:10;stroke-dasharray:none;stroke-opacity:1"
     id="path240" /><path
     d="m 12.921325,88.109292 c -2.437675,0 -4.4156365,1.976981 -4.4156365,4.415636 0,2.438663 1.9779615,4.415637 4.4156365,4.415637 2.438662,0 4.415636,-1.976974 4.415636,-4.415637 0,-2.438655 -1.976974,-4.415636 -4.415636,-4.415636"
     style="fill:#3498db;fill-opacity:1;fill-rule:nonzero;stroke:#3498db;stroke-width:0.245313;stroke-linecap:butt;stroke-linejoin:miter;stroke-miterlimit:10;stroke-dasharray:none;stroke-opacity:1"
     id="path242" /><text
     xml:space="preserve"
     style="font-variant:normal;font-weight:normal;font-size:3.43438px;font-family:'Times New Roman';-inkscape-font-specification:TimesNewRomanPSMT;writing-mode:lr-tb;fill:#3498db;fill-opacity:1;fill-rule:nonzero;stroke:none;stroke-width:0.245313"
     id="text246"
     x="-93.383522"
     y="-12.013861"
     transform="matrix(0,-1,-1,0,0,0)"><tspan
       x="-93.383522"
       y="-12.013861"
       id="tspan244"
       style="stroke-width:0.245313">8</tspan></text><path
     d="M 53.521632,116.80529 C 45.21263,111.80605 25.073893,99.688808 16.804143,94.713617"
     style="fill:none;stroke:#707070;stroke-width:0.245313;stroke-linecap:butt;stroke-linejoin:miter;stroke-miterlimit:10;stroke-dasharray:none;stroke-opacity:1"
     id="path248" /><path
     d="m 12.921325,114.60311 c -2.437675,0 -4.4156365,1.97698 -4.4156365,4.41564 0,2.43866 1.9779615,4.41563 4.4156365,4.41563 2.438662,0 4.415636,-1.97697 4.415636,-4.41563 0,-2.43866 -1.976974,-4.41564 -4.415636,-4.41564"
     style="fill:#3498db;fill-opacity:1;fill-rule:nonzero;stroke:#3498db;stroke-width:0.245313;stroke-linecap:butt;stroke-linejoin:miter;stroke-miterlimit:10;stroke-dasharray:none;stroke-opacity:1"
     id="path250" /><text
     xml:space="preserve"
     style="font-variant:normal;font-weight:normal;font-size:3.43438px;font-family:'Times New Roman';-inkscape-font-specification:TimesNewRomanPSMT;writing-mode:lr-tb;fill:#3498db;fill-opacity:1;fill-rule:nonzero;stroke:none;stroke-width:0.245313"
     id="text254"
     x="-119.87734"
     y="-12.013861"
     transform="matrix(0,-1,-1,0,0,0)"><tspan
       x="-119.87734"
       y="-12.013861"
       id="tspan252"
       style="stroke-width:0.245313">9</tspan></text><path
     d="m 52.978263,119.01875 c -8.395352,0 -27.0995,0 -35.536794,0"
     style="fill:none;stroke:#707070;stroke-width:0.245313;stroke-linecap:butt;stroke-linejoin:miter;stroke-miterlimit:10;stroke-dasharray:none;stroke-opacity:1"
     id="path256" /><path
     d="m 12.921325,140.97525 c -2.641037,0 -4.7826211,2.14061 -4.7826211,4.78263 0,2.64202 2.1415841,4.78262 4.7826211,4.78262 2.642025,0 4.783608,-2.1406 4.783608,-4.78262 0,-2.64202 -2.141583,-4.78263 -4.783608,-4.78263"
     style="fill:#3498db;fill-opacity:1;fill-rule:nonzero;stroke:#3498db;stroke-width:0.245313;stroke-linecap:butt;stroke-linejoin:miter;stroke-miterlimit:10;stroke-dasharray:none;stroke-opacity:1"
     id="path258" /><text
     xml:space="preserve"
     style="font-variant:normal;font-weight:normal;font-size:3.43438px;font-family:'Times New Roman';-inkscape-font-specification:TimesNewRomanPSMT;writing-mode:lr-tb;fill:#3498db;fill-opacity:1;fill-rule:nonzero;stroke:none;stroke-width:0.245313"
     id="text262"
     x="-147.47507"
     y="-12.013861"
     transform="matrix(0,-1,-1,0,0,0)"><tspan
       x="-147.47507 -145.81969"
       y="-12.013861"
       sodipodi:role="line"
       id="tspan260"
       style="stroke-width:0.245313">10</tspan></text><path
     d="m 53.521632,121.25232 c -8.20548,4.98305 -27.948528,16.97175 -36.403241,22.10615"
     style="fill:none;stroke:#707070;stroke-width:0.245313;stroke-linecap:butt;stroke-linejoin:miter;stroke-miterlimit:10;stroke-dasharray:none;stroke-opacity:1"
     id="path264" /><path
     d="m 12.921325,168.20501 c -2.641037,0 -4.7826211,2.1406 -4.7826211,4.78263 0,2.64202 2.1415841,4.78262 4.7826211,4.78262 2.642025,0 4.783608,-2.1406 4.783608,-4.78262 0,-2.64203 -2.141583,-4.78263 -4.783608,-4.78263"
     style="fill:#3498db;fill-opacity:1;fill-rule:nonzero;stroke:#3498db;stroke-width:0.245313;stroke-linecap:butt;stroke-linejoin:miter;stroke-miterlimit:10;stroke-dasharray:none;stroke-opacity:1"
     id="path266" /><text
     xml:space="preserve"
     style="font-variant:normal;font-weight:normal;font-size:3.43438px;font-family:'Times New Roman';-inkscape-font-specification:TimesNewRomanPSMT;writing-mode:lr-tb;fill:#3498db;fill-opacity:1;fill-rule:nonzero;stroke:none;stroke-width:0.245313"
     id="text270"
     x="-174.70482"
     y="-12.013861"
     transform="matrix(0,-1,-1,0,0,0)"><tspan
       x="-174.70482 -173.04944"
       y="-12.013861"
       sodipodi:role="line"
       id="tspan268"
       style="stroke-width:0.245313">11</tspan></text><path
     d="m 54.446217,122.39475 c -7.832603,9.59983 -30.187742,36.9991 -38.295588,46.93624"
     style="fill:none;stroke:#707070;stroke-width:0.245313;stroke-linecap:butt;stroke-linejoin:miter;stroke-miterlimit:10;stroke-dasharray:none;stroke-opacity:1"
     id="path272" /><path
     d="m 12.921325,195.43476 c -2.641037,0 -4.7826211,2.14061 -4.7826211,4.78263 0,2.64203 2.1415841,4.78263 4.7826211,4.78263 2.642025,0 4.783608,-2.1406 4.783608,-4.78263 0,-2.64202 -2.141583,-4.78263 -4.783608,-4.78263"
     style="fill:#3498db;fill-opacity:1;fill-rule:nonzero;stroke:#3498db;stroke-width:0.245313;stroke-linecap:butt;stroke-linejoin:miter;stroke-miterlimit:10;stroke-dasharray:none;stroke-opacity:1"
     id="path274" /><text
     xml:space="preserve"
     style="font-variant:normal;font-weight:normal;font-size:3.43438px;font-family:'Times New Roman';-inkscape-font-specification:TimesNewRomanPSMT;writing-mode:lr-tb;fill:#3498db;fill-opacity:1;fill-rule:nonzero;stroke:none;stroke-width:0.245313"
     id="text278"
     x="-201.93457"
     y="-12.013861"
     transform="matrix(0,-1,-1,0,0,0)"><tspan
       x="-201.93457 -200.27919"
       y="-12.013861"
       sodipodi:role="line"
       id="tspan276"
       style="stroke-width:0.245313">12</tspan></text><path
     d="m 55.135301,122.82601 c -7.327748,13.51405 -32.058499,59.11752 -39.699518,73.20757"
     style="fill:none;stroke:#707070;stroke-width:0.245313;stroke-linecap:butt;stroke-linejoin:miter;stroke-miterlimit:10;stroke-dasharray:none;stroke-opacity:1"
     id="path280" /></svg>
