<?xml version="1.0" encoding="UTF-8" standalone="no"?>
<!-- Created with Inkscape (http://www.inkscape.org/) -->

<svg
   width="200mm"
   height="100mm"
   viewBox="0 0 199.99999 99.999998"
   version="1.1"
   id="svg5"
   xml:space="preserve"
   inkscape:version="1.2.1 (9c6d41e410, 2022-07-14)"
   sodipodi:docname="gaussienne.svg"
   xmlns:inkscape="http://www.inkscape.org/namespaces/inkscape"
   xmlns:sodipodi="http://sodipodi.sourceforge.net/DTD/sodipodi-0.dtd"
   xmlns="http://www.w3.org/2000/svg"
   xmlns:svg="http://www.w3.org/2000/svg"><sodipodi:namedview
     id="namedview7"
     pagecolor="#ffffff"
     bordercolor="#000000"
     borderopacity="0.25"
     inkscape:showpageshadow="2"
     inkscape:pageopacity="0.0"
     inkscape:pagecheckerboard="0"
     inkscape:deskcolor="#d1d1d1"
     inkscape:document-units="mm"
     showgrid="false"
     inkscape:zoom="1"
     inkscape:cx="377.5"
     inkscape:cy="291.5"
     inkscape:window-width="1920"
     inkscape:window-height="991"
     inkscape:window-x="-9"
     inkscape:window-y="-9"
     inkscape:window-maximized="1"
     inkscape:current-layer="layer1" /><defs
     id="defs2" /><g
     inkscape:label="Layer 1"
     inkscape:groupmode="layer"
     id="layer1"><g
       id="path1311"><path
         style="color:#000000;fill:#000000;stroke-linecap:round;stroke-linejoin:round;-inkscape-stroke:none"
         d="M 100,7.25 A 0.75,0.75 0 0 0 99.25,8 V 92 A 0.75,0.75 0 0 0 100,92.75 0.75,0.75 0 0 0 100.75,92 V 8 A 0.75,0.75 0 0 0 100,7.25 Z"
         id="path2146" /><g
         id="g2138"><path
           style="color:#000000;fill:#000000;stroke-linecap:round;-inkscape-stroke:none"
           d="M 100,6.5644531 94.96875,11.59375 a 0.75,0.75 0 0 0 0,1.0625 0.75,0.75 0 0 0 1.0625,0 L 100,8.6875 l 3.96875,3.96875 a 0.75,0.75 0 0 0 1.0625,0 0.75,0.75 0 0 0 0,-1.0625 z"
           id="path2140" /></g></g><g
       id="path1313"><path
         style="color:#000000;fill:#000000;stroke-linecap:round;stroke-linejoin:round;-inkscape-stroke:none"
         d="M 10,79.25 A 0.75,0.75 0 0 0 9.25,80 0.75,0.75 0 0 0 10,80.75 H 190 A 0.75,0.75 0 0 0 190.75,80 0.75,0.75 0 0 0 190,79.25 Z"
         id="path2164" /><g
         id="g2156"><path
           style="color:#000000;fill:#000000;stroke-linecap:round;-inkscape-stroke:none"
           d="m 185.875,74.75 a 0.75,0.75 0 0 0 -0.53125,0.21875 0.75,0.75 0 0 0 0,1.0625 L 189.3125,80 l -3.96875,3.96875 a 0.75,0.75 0 0 0 0,1.0625 0.75,0.75 0 0 0 1.0625,0 L 191.43555,80 186.40625,74.96875 A 0.75,0.75 0 0 0 185.875,74.75 Z"
           id="path2158" /></g></g><path
       id="path302"
       style="fill:#999999;stroke-width:0.11246"
       d="m 100.89062,19.609857 c -3.431318,-0.269138 -6.720102,1.337244 -9.769524,4.32417 -3.049423,2.986927 -6.099017,7.438892 -9.511719,13.584256 -0.587404,1.057754 -2.055341,3.619077 -3.232422,5.640298 -1.183092,2.031538 -2.699043,4.645443 -3.375,5.818578 -3.801519,6.597588 -8.872942,13.414911 -11.705078,15.992787 -4.179539,3.804313 -7.412323,5.89941 -12.265625,7.218603 -4.853302,1.319193 -11.470127,1.805865 -22.015625,1.9471 -2.262757,0.0303 -3.476613,0.04932 -4.298828,0.111862 -0.411107,0.03127 -0.706281,0.02173 -1.269531,0.246446 -0.281625,0.112358 -0.681541,0.341794 -0.958985,0.727104 -0.277443,0.385309 -0.339843,0.816884 -0.339843,1.045211 0,0.624755 0.461291,1.187932 0.767578,1.401772 0.306286,0.213841 0.500465,0.262585 0.644531,0.304126 0.288132,0.08308 0.421329,0.08851 0.570312,0.103122 0.297968,0.02923 0.600405,0.03915 1.0625,0.04894 0.924191,0.01958 2.433308,0.02447 4.955079,0.02447 16.700085,0 23.786138,-1.309737 31.3125,-5.937432 5.63565,-3.465167 12.404558,-11.644684 17.367187,-20.390367 0.55203,-0.972844 1.505896,-2.615696 2.099609,-3.614545 1.605402,-2.700887 4.315638,-7.406037 5.339844,-9.274069 3.032982,-5.53181 5.940273,-9.627652 8.488281,-12.138787 2.548009,-2.511136 4.521119,-3.232924 5.783199,-3.036008 1.77192,0.276461 3.79779,1.53381 6.81446,5.397347 3.01666,3.863538 6.849,10.15664 12.1621,19.776873 4.27816,7.7463 9.70683,15.251643 14.0879,19.263007 0.80901,0.740744 1.67425,1.543477 1.77929,1.644723 2.08513,2.009791 6.615,4.534036 9.64649,5.56514 4.54936,1.54738 9.81856,2.375741 16.47265,2.646238 1.95016,0.07927 5.51258,0.108268 8.64063,0.101375 1.56402,-0.0035 3.01022,-0.0157 4.08398,-0.03845 0.53688,-0.01138 0.97728,-0.02575 1.31836,-0.0437 0.17054,-0.009 0.30794,-0.01626 0.47266,-0.03495 0.0824,-0.0093 0.1601,-0.01555 0.33984,-0.05768 0.0899,-0.02107 0.19762,-0.03773 0.44531,-0.155559 0.12385,-0.05891 0.29421,-0.138896 0.51954,-0.354813 0.11266,-0.107958 0.34538,-0.459064 0.3457,-0.459683 3.2e-4,-6.18e-4 0.18359,-0.740464 0.18359,-0.741087 1e-5,-0.228512 -0.0616,-0.653655 -0.33398,-1.036472 -0.27243,-0.382817 -0.66962,-0.616226 -0.95117,-0.730599 -0.56312,-0.228747 -0.8575,-0.22024 -1.26172,-0.25169 -0.80845,-0.0629 -1.98879,-0.08052 -4.1836,-0.110114 -8.67889,-0.117036 -14.3979,-0.437692 -18.68164,-1.195527 -4.28373,-0.757835 -7.14569,-1.905008 -10.47851,-3.859243 -5.06333,-2.968931 -12.11554,-11.291831 -17.96875,-21.890018 -4.88903,-8.852381 -8.5917,-15.000516 -11.70703,-19.229797 -3.11533,-4.229282 -5.64648,-6.638258 -8.51758,-7.704504 -0.93265,-0.346361 -1.89634,-0.571536 -2.87696,-0.648451 z" /></g></svg>
