<?xml version="1.0" encoding="UTF-8" standalone="no"?>
<!-- Created with Inkscape (http://www.inkscape.org/) -->

<svg
   width="70mm"
   height="240mm"
   viewBox="0 0 70 240"
   version="1.1"
   id="svg5"
   xml:space="preserve"
   inkscape:version="1.2.1 (9c6d41e410, 2022-07-14)"
   sodipodi:docname="generator.svg"
   xmlns:inkscape="http://www.inkscape.org/namespaces/inkscape"
   xmlns:sodipodi="http://sodipodi.sourceforge.net/DTD/sodipodi-0.dtd"
   xmlns="http://www.w3.org/2000/svg"
   xmlns:svg="http://www.w3.org/2000/svg"><sodipodi:namedview
     id="namedview7"
     pagecolor="#ffffff"
     bordercolor="#000000"
     borderopacity="0.25"
     inkscape:showpageshadow="2"
     inkscape:pageopacity="0.0"
     inkscape:pagecheckerboard="0"
     inkscape:deskcolor="#d1d1d1"
     inkscape:document-units="mm"
     showgrid="false"
     inkscape:zoom="0.3581229"
     inkscape:cx="705.06522"
     inkscape:cy="534.73264"
     inkscape:window-width="1920"
     inkscape:window-height="991"
     inkscape:window-x="-9"
     inkscape:window-y="-9"
     inkscape:window-maximized="1"
     inkscape:current-layer="svg5" /><defs
     id="defs2" /><g
     inkscape:label="Layer 1"
     inkscape:groupmode="layer"
     id="layer1" /><g
     id="g642"
     transform="matrix(0,-0.69537581,0.69537581,0,-26.695766,398.09237)"><path
       d="m 407.67777,56.444451 c 0,3.506963 -2.84304,6.35 -6.35,6.35 -3.50697,0 -6.35,-2.843037 -6.35,-6.35 0,-3.506964 2.84303,-6.35 6.35,-6.35 3.50696,0 6.35,2.843036 6.35,6.35"
       style="fill:#2ecc71;fill-opacity:1;fill-rule:nonzero;stroke:#2ecc71;stroke-width:0.352778;stroke-linecap:butt;stroke-linejoin:miter;stroke-miterlimit:10;stroke-dasharray:none;stroke-opacity:1"
       id="path204" /><text
       xml:space="preserve"
       style="font-variant:normal;font-weight:normal;font-size:4.93889px;font-family:'Times New Roman';-inkscape-font-specification:TimesNewRomanPSMT;writing-mode:lr-tb;fill:#2ecc71;fill-opacity:1;fill-rule:nonzero;stroke:none;stroke-width:0.352778"
       id="text208"
       x="400.09305"
       y="57.749451"><tspan
         x="400.09305"
         y="57.749451"
         id="tspan206"
         style="stroke-width:0.352778">1</tspan></text><path
       d="m 252.45555,120.47362 c 0,3.50555 -2.84303,6.35 -6.35,6.35 -3.50696,0 -6.35,-2.84445 -6.35,-6.35 0,-3.50697 2.84304,-6.35 6.35,-6.35 3.50697,0 6.35,2.84303 6.35,6.35"
       style="fill:#3498db;fill-opacity:1;fill-rule:nonzero;stroke:#3498db;stroke-width:0.352778;stroke-linecap:butt;stroke-linejoin:miter;stroke-miterlimit:10;stroke-dasharray:none;stroke-opacity:1"
       id="path210" /><text
       xml:space="preserve"
       style="font-variant:normal;font-weight:normal;font-size:4.93889px;font-family:'Times New Roman';-inkscape-font-specification:TimesNewRomanPSMT;writing-mode:lr-tb;fill:#3498db;fill-opacity:1;fill-rule:nonzero;stroke:none;stroke-width:0.352778"
       id="text214"
       x="244.87083"
       y="121.77862"><tspan
         x="244.87083"
         y="121.77862"
         id="tspan212"
         style="stroke-width:0.352778">4</tspan></text><path
       d="M 395.4325,59.201762 C 370.84424,69.232645 276.60566,107.67731 252.00647,117.71348"
       style="fill:none;stroke:#707070;stroke-width:0.352778;stroke-linecap:butt;stroke-linejoin:miter;stroke-miterlimit:10;stroke-dasharray:none;stroke-opacity:1"
       id="path216" /><path
       d="m 560.07776,120.47362 c 0,3.50555 -2.84304,6.35 -6.35,6.35 -3.50696,0 -6.35,-2.84445 -6.35,-6.35 0,-3.50697 2.84304,-6.35 6.35,-6.35 3.50696,0 6.35,2.84303 6.35,6.35"
       style="fill:#3498db;fill-opacity:1;fill-rule:nonzero;stroke:#3498db;stroke-width:0.352778;stroke-linecap:butt;stroke-linejoin:miter;stroke-miterlimit:10;stroke-dasharray:none;stroke-opacity:1"
       id="path218" /><text
       xml:space="preserve"
       style="font-variant:normal;font-weight:normal;font-size:4.93889px;font-family:'Times New Roman';-inkscape-font-specification:TimesNewRomanPSMT;writing-mode:lr-tb;fill:#3498db;fill-opacity:1;fill-rule:nonzero;stroke:none;stroke-width:0.352778"
       id="text222"
       x="552.49304"
       y="121.77862"><tspan
         x="552.49304"
         y="121.77862"
         id="tspan220"
         style="stroke-width:0.352778">5</tspan></text><path
       d="m 407.20928,59.240567 c 24.28804,10.091209 116.63574,48.462843 140.7361,58.476793"
       style="fill:none;stroke:#707070;stroke-width:0.352778;stroke-linecap:butt;stroke-linejoin:miter;stroke-miterlimit:10;stroke-dasharray:none;stroke-opacity:1"
       id="path224" /><path
       d="m 521.97776,120.47362 c 0,3.50555 -2.84303,6.35 -6.35,6.35 -3.50696,0 -6.35,-2.84445 -6.35,-6.35 0,-3.50697 2.84304,-6.35 6.35,-6.35 3.50697,0 6.35,2.84303 6.35,6.35"
       style="fill:#3498db;fill-opacity:1;fill-rule:nonzero;stroke:#3498db;stroke-width:0.352778;stroke-linecap:butt;stroke-linejoin:miter;stroke-miterlimit:10;stroke-dasharray:none;stroke-opacity:1"
       id="path226" /><text
       xml:space="preserve"
       style="font-variant:normal;font-weight:normal;font-size:4.93889px;font-family:'Times New Roman';-inkscape-font-specification:TimesNewRomanPSMT;writing-mode:lr-tb;fill:#3498db;fill-opacity:1;fill-rule:nonzero;stroke:none;stroke-width:0.352778"
       id="text230"
       x="514.39307"
       y="121.77862"><tspan
         x="514.39307"
         y="121.77862"
         id="tspan228"
         style="stroke-width:0.352778">6</tspan></text><path
       d="m 406.84133,59.850873 c 19.35304,10.72268 84.06165,46.572307 103.32931,57.245247"
       style="fill:none;stroke:#707070;stroke-width:0.352778;stroke-linecap:butt;stroke-linejoin:miter;stroke-miterlimit:10;stroke-dasharray:none;stroke-opacity:1"
       id="path232" /><path
       d="m 483.87776,120.47362 c 0,3.50555 -2.84303,6.35 -6.35,6.35 -3.50696,0 -6.34999,-2.84445 -6.34999,-6.35 0,-3.50697 2.84303,-6.35 6.34999,-6.35 3.50697,0 6.35,2.84303 6.35,6.35"
       style="fill:#3498db;fill-opacity:1;fill-rule:nonzero;stroke:#3498db;stroke-width:0.352778;stroke-linecap:butt;stroke-linejoin:miter;stroke-miterlimit:10;stroke-dasharray:none;stroke-opacity:1"
       id="path234" /><text
       xml:space="preserve"
       style="font-variant:normal;font-weight:normal;font-size:4.93889px;font-family:'Times New Roman';-inkscape-font-specification:TimesNewRomanPSMT;writing-mode:lr-tb;fill:#3498db;fill-opacity:1;fill-rule:nonzero;stroke:none;stroke-width:0.352778"
       id="text238"
       x="476.29306"
       y="121.77862"><tspan
         x="476.29306"
         y="121.77862"
         id="tspan236"
         style="stroke-width:0.352778">7</tspan></text><path
       d="m 406.0945,60.757864 c 13.6839,11.372851 52.98687,44.032316 66.66794,55.402336"
       style="fill:none;stroke:#707070;stroke-width:0.352778;stroke-linecap:butt;stroke-linejoin:miter;stroke-miterlimit:10;stroke-dasharray:none;stroke-opacity:1"
       id="path240" /><path
       d="m 445.77777,120.47362 c 0,3.50555 -2.84304,6.35 -6.35,6.35 -3.50697,0 -6.35,-2.84445 -6.35,-6.35 0,-3.50697 2.84303,-6.35 6.35,-6.35 3.50696,0 6.35,2.84303 6.35,6.35"
       style="fill:#3498db;fill-opacity:1;fill-rule:nonzero;stroke:#3498db;stroke-width:0.352778;stroke-linecap:butt;stroke-linejoin:miter;stroke-miterlimit:10;stroke-dasharray:none;stroke-opacity:1"
       id="path242" /><text
       xml:space="preserve"
       style="font-variant:normal;font-weight:normal;font-size:4.93889px;font-family:'Times New Roman';-inkscape-font-specification:TimesNewRomanPSMT;writing-mode:lr-tb;fill:#3498db;fill-opacity:1;fill-rule:nonzero;stroke:none;stroke-width:0.352778"
       id="text246"
       x="438.19305"
       y="121.77862"><tspan
         x="438.19305"
         y="121.77862"
         id="tspan244"
         style="stroke-width:0.352778">8</tspan></text><path
       d="m 404.51088,62.087484 c 7.18926,11.948936 24.61472,40.909876 31.7694,52.802366"
       style="fill:none;stroke:#707070;stroke-width:0.352778;stroke-linecap:butt;stroke-linejoin:miter;stroke-miterlimit:10;stroke-dasharray:none;stroke-opacity:1"
       id="path248" /><path
       d="m 407.67777,120.47362 c 0,3.50555 -2.84304,6.35 -6.35,6.35 -3.50697,0 -6.35,-2.84445 -6.35,-6.35 0,-3.50697 2.84303,-6.35 6.35,-6.35 3.50696,0 6.35,2.84303 6.35,6.35"
       style="fill:#3498db;fill-opacity:1;fill-rule:nonzero;stroke:#3498db;stroke-width:0.352778;stroke-linecap:butt;stroke-linejoin:miter;stroke-miterlimit:10;stroke-dasharray:none;stroke-opacity:1"
       id="path250" /><text
       xml:space="preserve"
       style="font-variant:normal;font-weight:normal;font-size:4.93889px;font-family:'Times New Roman';-inkscape-font-specification:TimesNewRomanPSMT;writing-mode:lr-tb;fill:#3498db;fill-opacity:1;fill-rule:nonzero;stroke:none;stroke-width:0.352778"
       id="text254"
       x="400.09305"
       y="121.77862"><tspan
         x="400.09305"
         y="121.77862"
         id="tspan252"
         style="stroke-width:0.352778">9</tspan></text><path
       d="m 401.32777,62.868887 c 0,12.073114 0,38.971013 0,51.104443"
       style="fill:none;stroke:#707070;stroke-width:0.352778;stroke-linecap:butt;stroke-linejoin:miter;stroke-miterlimit:10;stroke-dasharray:none;stroke-opacity:1"
       id="path256" /><path
       d="m 369.75275,120.47362 c 0,3.798 -3.07834,6.87775 -6.87776,6.87775 -3.79941,0 -6.87775,-3.07975 -6.87775,-6.87775 0,-3.79942 3.07834,-6.87917 6.87775,-6.87917 3.79942,0 6.87776,3.07975 6.87776,6.87917"
       style="fill:#3498db;fill-opacity:1;fill-rule:nonzero;stroke:#3498db;stroke-width:0.352778;stroke-linecap:butt;stroke-linejoin:miter;stroke-miterlimit:10;stroke-dasharray:none;stroke-opacity:1"
       id="path258" /><text
       xml:space="preserve"
       style="font-variant:normal;font-weight:normal;font-size:4.93889px;font-family:'Times New Roman';-inkscape-font-specification:TimesNewRomanPSMT;writing-mode:lr-tb;fill:#3498db;fill-opacity:1;fill-rule:nonzero;stroke:none;stroke-width:0.352778"
       id="text262"
       x="360.40555"
       y="121.77862"><tspan
         x="360.40555 362.7861"
         y="121.77862"
         sodipodi:role="line"
         id="tspan260"
         style="stroke-width:0.352778">10</tspan></text><path
       d="m 398.11573,62.087484 c -7.16598,11.800064 -24.40658,40.191976 -31.79022,52.350456"
       style="fill:none;stroke:#707070;stroke-width:0.352778;stroke-linecap:butt;stroke-linejoin:miter;stroke-miterlimit:10;stroke-dasharray:none;stroke-opacity:1"
       id="path264" /><path
       d="m 330.59442,120.47362 c 0,3.798 -3.07834,6.87775 -6.87776,6.87775 -3.79942,0 -6.87775,-3.07975 -6.87775,-6.87775 0,-3.79942 3.07833,-6.87917 6.87775,-6.87917 3.79942,0 6.87776,3.07975 6.87776,6.87917"
       style="fill:#3498db;fill-opacity:1;fill-rule:nonzero;stroke:#3498db;stroke-width:0.352778;stroke-linecap:butt;stroke-linejoin:miter;stroke-miterlimit:10;stroke-dasharray:none;stroke-opacity:1"
       id="path266" /><text
       xml:space="preserve"
       style="font-variant:normal;font-weight:normal;font-size:4.93889px;font-family:'Times New Roman';-inkscape-font-specification:TimesNewRomanPSMT;writing-mode:lr-tb;fill:#3498db;fill-opacity:1;fill-rule:nonzero;stroke:none;stroke-width:0.352778"
       id="text270"
       x="321.24722"
       y="121.77862"><tspan
         x="321.24722 323.62778"
         y="121.77862"
         sodipodi:role="line"
         id="tspan268"
         style="stroke-width:0.352778">11</tspan></text><path
       d="M 396.47284,60.757864 C 382.66759,72.021706 343.26549,104.16999 328.97517,115.82965"
       style="fill:none;stroke:#707070;stroke-width:0.352778;stroke-linecap:butt;stroke-linejoin:miter;stroke-miterlimit:10;stroke-dasharray:none;stroke-opacity:1"
       id="path272" /><path
       d="m 291.43609,120.47362 c 0,3.798 -3.07834,6.87775 -6.87776,6.87775 -3.79942,0 -6.87776,-3.07975 -6.87776,-6.87775 0,-3.79942 3.07834,-6.87917 6.87776,-6.87917 3.79942,0 6.87776,3.07975 6.87776,6.87917"
       style="fill:#3498db;fill-opacity:1;fill-rule:nonzero;stroke:#3498db;stroke-width:0.352778;stroke-linecap:butt;stroke-linejoin:miter;stroke-miterlimit:10;stroke-dasharray:none;stroke-opacity:1"
       id="path274" /><text
       xml:space="preserve"
       style="font-variant:normal;font-weight:normal;font-size:4.93889px;font-family:'Times New Roman';-inkscape-font-specification:TimesNewRomanPSMT;writing-mode:lr-tb;fill:#3498db;fill-opacity:1;fill-rule:nonzero;stroke:none;stroke-width:0.352778"
       id="text278"
       x="282.0889"
       y="121.77862"><tspan
         x="282.0889 284.46945"
         y="121.77862"
         sodipodi:role="line"
         id="tspan276"
         style="stroke-width:0.352778">12</tspan></text><path
       d="M 395.85266,59.766912 C 376.41848,70.304737 310.83745,105.86932 290.57495,116.85765"
       style="fill:none;stroke:#707070;stroke-width:0.352778;stroke-linecap:butt;stroke-linejoin:miter;stroke-miterlimit:10;stroke-dasharray:none;stroke-opacity:1"
       id="path280" /><path
       d="m 369.57777,56.444451 c 0,3.506963 -2.84304,6.35 -6.35,6.35 -3.50696,0 -6.35,-2.843037 -6.35,-6.35 0,-3.506964 2.84304,-6.35 6.35,-6.35 3.50696,0 6.35,2.843036 6.35,6.35"
       style="fill:#2ecc71;fill-opacity:1;fill-rule:nonzero;stroke:#2ecc71;stroke-width:0.352778;stroke-linecap:butt;stroke-linejoin:miter;stroke-miterlimit:10;stroke-dasharray:none;stroke-opacity:1"
       id="path282" /><text
       xml:space="preserve"
       style="font-variant:normal;font-weight:normal;font-size:4.93889px;font-family:'Times New Roman';-inkscape-font-specification:TimesNewRomanPSMT;writing-mode:lr-tb;fill:#2ecc71;fill-opacity:1;fill-rule:nonzero;stroke:none;stroke-width:0.352778"
       id="text286"
       x="361.99307"
       y="57.749451"><tspan
         x="361.99307"
         y="57.749451"
         id="tspan284"
         style="stroke-width:0.352778">2</tspan></text><path
       d="M 357.73643,59.766912 C 338.06202,70.402456 271.23956,106.53078 251.58596,117.15821"
       style="fill:none;stroke:#707070;stroke-width:0.352778;stroke-linecap:butt;stroke-linejoin:miter;stroke-miterlimit:10;stroke-dasharray:none;stroke-opacity:1"
       id="path288" /><path
       d="m 369.2444,58.796773 c 28.52243,9.480903 149.94007,49.840797 178.46533,59.323107"
       style="fill:none;stroke:#707070;stroke-width:0.352778;stroke-linecap:butt;stroke-linejoin:miter;stroke-miterlimit:10;stroke-dasharray:none;stroke-opacity:1"
       id="path290" /><path
       d="m 369.10928,59.240567 c 24.28804,10.091209 116.63574,48.462843 140.7361,58.476793"
       style="fill:none;stroke:#707070;stroke-width:0.352778;stroke-linecap:butt;stroke-linejoin:miter;stroke-miterlimit:10;stroke-dasharray:none;stroke-opacity:1"
       id="path292" /><path
       d="m 368.74133,59.850873 c 19.35304,10.72268 84.06165,46.572307 103.32932,57.245247"
       style="fill:none;stroke:#707070;stroke-width:0.352778;stroke-linecap:butt;stroke-linejoin:miter;stroke-miterlimit:10;stroke-dasharray:none;stroke-opacity:1"
       id="path294" /><path
       d="m 367.9945,60.757864 c 13.6839,11.372851 52.98687,44.032316 66.66794,55.402336"
       style="fill:none;stroke:#707070;stroke-width:0.352778;stroke-linecap:butt;stroke-linejoin:miter;stroke-miterlimit:10;stroke-dasharray:none;stroke-opacity:1"
       id="path296" /><path
       d="m 366.41088,62.087484 c 7.18926,11.948936 24.61472,40.909876 31.76941,52.802366"
       style="fill:none;stroke:#707070;stroke-width:0.352778;stroke-linecap:butt;stroke-linejoin:miter;stroke-miterlimit:10;stroke-dasharray:none;stroke-opacity:1"
       id="path298" /><path
       d="m 363.1932,62.868887 c -0.066,11.917186 -0.21202,38.284503 -0.28117,50.630313"
       style="fill:none;stroke:#707070;stroke-width:0.352778;stroke-linecap:butt;stroke-linejoin:miter;stroke-miterlimit:10;stroke-dasharray:none;stroke-opacity:1"
       id="path300" /><path
       d="M 359.99492,61.978476 C 352.6776,73.705867 334.89654,102.20361 327.2776,114.4129"
       style="fill:none;stroke:#707070;stroke-width:0.352778;stroke-linecap:butt;stroke-linejoin:miter;stroke-miterlimit:10;stroke-dasharray:none;stroke-opacity:1"
       id="path302" /><path
       d="m 358.42541,60.662614 c -13.91144,11.197873 -54.16127,43.595576 -68.6181,55.233006"
       style="fill:none;stroke:#707070;stroke-width:0.352778;stroke-linecap:butt;stroke-linejoin:miter;stroke-miterlimit:10;stroke-dasharray:none;stroke-opacity:1"
       id="path304" /><path
       d="m 445.77777,56.444451 c 0,3.506963 -2.84304,6.35 -6.35,6.35 -3.50697,0 -6.35,-2.843037 -6.35,-6.35 0,-3.506964 2.84303,-6.35 6.35,-6.35 3.50696,0 6.35,2.843036 6.35,6.35"
       style="fill:#2ecc71;fill-opacity:1;fill-rule:nonzero;stroke:#2ecc71;stroke-width:0.352778;stroke-linecap:butt;stroke-linejoin:miter;stroke-miterlimit:10;stroke-dasharray:none;stroke-opacity:1"
       id="path306" /><text
       xml:space="preserve"
       style="font-variant:normal;font-weight:normal;font-size:4.93889px;font-family:'Times New Roman';-inkscape-font-specification:TimesNewRomanPSMT;writing-mode:lr-tb;fill:#2ecc71;fill-opacity:1;fill-rule:nonzero;stroke:none;stroke-width:0.352778"
       id="text310"
       x="438.19305"
       y="57.749451"><tspan
         x="438.19305"
         y="57.749451"
         id="tspan308"
         style="stroke-width:0.352778">3</tspan></text><path
       d="M 433.43054,58.762201 C 404.65587,68.186659 280.96035,108.70389 252.12888,118.1474"
       style="fill:none;stroke:#707070;stroke-width:0.352778;stroke-linecap:butt;stroke-linejoin:miter;stroke-miterlimit:10;stroke-dasharray:none;stroke-opacity:1"
       id="path312" /><path
       d="m 444.94133,59.850873 c 19.35304,10.72268 84.06165,46.572307 103.32931,57.245247"
       style="fill:none;stroke:#707070;stroke-width:0.352778;stroke-linecap:butt;stroke-linejoin:miter;stroke-miterlimit:10;stroke-dasharray:none;stroke-opacity:1"
       id="path314" /><path
       d="m 444.1945,60.757864 c 13.6839,11.372851 52.98687,44.032316 66.66794,55.402336"
       style="fill:none;stroke:#707070;stroke-width:0.352778;stroke-linecap:butt;stroke-linejoin:miter;stroke-miterlimit:10;stroke-dasharray:none;stroke-opacity:1"
       id="path316" /><path
       d="m 442.61088,62.087484 c 7.18926,11.948936 24.61472,40.909876 31.7694,52.802366"
       style="fill:none;stroke:#707070;stroke-width:0.352778;stroke-linecap:butt;stroke-linejoin:miter;stroke-miterlimit:10;stroke-dasharray:none;stroke-opacity:1"
       id="path318" /><path
       d="m 439.42777,62.868887 c 0,12.073114 0,38.971013 0,51.104443"
       style="fill:none;stroke:#707070;stroke-width:0.352778;stroke-linecap:butt;stroke-linejoin:miter;stroke-miterlimit:10;stroke-dasharray:none;stroke-opacity:1"
       id="path320" /><path
       d="M 436.24465,62.087484 C 429.0554,74.03642 411.62994,102.99736 404.47525,114.88985"
       style="fill:none;stroke:#707070;stroke-width:0.352778;stroke-linecap:butt;stroke-linejoin:miter;stroke-miterlimit:10;stroke-dasharray:none;stroke-opacity:1"
       id="path322" /><path
       d="M 434.63916,60.757864 C 421.02265,72.021706 382.15783,104.16999 368.06188,115.82965"
       style="fill:none;stroke:#707070;stroke-width:0.352778;stroke-linecap:butt;stroke-linejoin:miter;stroke-miterlimit:10;stroke-dasharray:none;stroke-opacity:1"
       id="path324" /><path
       d="M 434.0024,59.766912 C 414.74426,70.304737 349.75872,105.86932 329.6779,116.85765"
       style="fill:none;stroke:#707070;stroke-width:0.352778;stroke-linecap:butt;stroke-linejoin:miter;stroke-miterlimit:10;stroke-dasharray:none;stroke-opacity:1"
       id="path326" /><path
       d="M 433.54626,59.201762 C 409.1799,69.165265 316.25612,107.15908 290.95243,117.50535"
       style="fill:none;stroke:#707070;stroke-width:0.352778;stroke-linecap:butt;stroke-linejoin:miter;stroke-miterlimit:10;stroke-dasharray:none;stroke-opacity:1"
       id="path328" /></g></svg>
