<svg width="1652" height="993" xmlns="http://www.w3.org/2000/svg" xmlns:xlink="http://www.w3.org/1999/xlink" xml:space="preserve" overflow="hidden"><defs><clipPath id="clip0"><rect x="1732" y="425" width="1652" height="993"/></clipPath><clipPath id="clip1"><rect x="1732" y="426" width="1650" height="990"/></clipPath><clipPath id="clip2"><rect x="1863" y="596" width="1472" height="717"/></clipPath><clipPath id="clip3"><rect x="1732" y="426" width="1650" height="990"/></clipPath><clipPath id="clip4"><rect x="1732" y="426" width="1650" height="990"/></clipPath><clipPath id="clip5"><rect x="1732" y="426" width="1650" height="990"/></clipPath><clipPath id="clip6"><rect x="1732" y="426" width="1650" height="990"/></clipPath><clipPath id="clip7"><rect x="1732" y="426" width="1650" height="990"/></clipPath><clipPath id="clip8"><rect x="1732" y="426" width="1650" height="990"/></clipPath><clipPath id="clip9"><rect x="1732" y="426" width="1650" height="990"/></clipPath><clipPath id="clip10"><rect x="1732" y="426" width="1650" height="990"/></clipPath><clipPath id="clip11"><rect x="1732" y="426" width="1650" height="990"/></clipPath><clipPath id="clip12"><rect x="1732" y="426" width="1650" height="990"/></clipPath><clipPath id="clip13"><rect x="1732" y="426" width="1650" height="990"/></clipPath><clipPath id="clip14"><rect x="1732" y="426" width="1650" height="990"/></clipPath><clipPath id="clip15"><rect x="1732" y="426" width="1650" height="990"/></clipPath><clipPath id="clip16"><rect x="1732" y="426" width="1650" height="990"/></clipPath><clipPath id="clip17"><rect x="1732" y="426" width="1650" height="990"/></clipPath><clipPath id="clip18"><rect x="1732" y="426" width="1650" height="990"/></clipPath><clipPath id="clip19"><rect x="1732" y="426" width="1650" height="990"/></clipPath></defs><g clip-path="url(#clip0)" transform="translate(-1732 -425)"><rect x="1733" y="426" width="1649" height="990" fill="#FFFFFF"/><g clip-path="url(#clip1)"><path d="M1863.5 1207.54 3332.5 1207.54M1863.5 1105.54 3332.5 1105.54M1863.5 1004.53 3332.5 1004.53M1863.5 902.53 3332.5 902.53M1863.5 800.526 3332.5 800.526M1863.5 698.523 3332.5 698.523M1863.5 596.5 3332.5 596.5" stroke="#D9D9D9" stroke-width="3.4375" stroke-linejoin="round" stroke-miterlimit="10" fill="none"/></g><g clip-path="url(#clip2)"><path d="M1935.06 1298.04 2001.07 1298.04 2001.07 1310 1935.06 1310ZM2145.07 1303.04 2211.07 1303.04 2211.07 1310 2145.07 1310ZM2355.08 670.022 2421.08 670.022 2421.08 1310 2355.08 1310ZM2565.08 1000.03 2630.09 1000.03 2630.09 1310 2565.08 1310ZM2775.09 1282.04 2840.09 1282.04 2840.09 1310 2775.09 1310ZM2984.1 1307.04 3050.1 1307.04 3050.1 1310 2984.1 1310ZM3194.1 1291.04 3260.11 1291.04 3260.11 1310 3194.1 1310Z" fill="#4472C4"/></g><g clip-path="url(#clip3)"><path d="M1863.5 1309.5 3332.5 1309.5" stroke="#D9D9D9" stroke-width="3.4375" stroke-linejoin="round" stroke-miterlimit="10" fill="none" fill-rule="evenodd"/></g><g clip-path="url(#clip4)"><text fill="#595959" font-family="Calibri,Calibri_MSFontService,sans-serif" font-weight="400" font-size="41" transform="matrix(1 0 0 1 1804.09 1321)">0</text></g><g clip-path="url(#clip5)"><text fill="#595959" font-family="Calibri,Calibri_MSFontService,sans-serif" font-weight="400" font-size="41" transform="matrix(1 0 0 1 1762.29 1220)">100</text></g><g clip-path="url(#clip6)"><text fill="#595959" font-family="Calibri,Calibri_MSFontService,sans-serif" font-weight="400" font-size="41" transform="matrix(1 0 0 1 1762.29 1118)">200</text></g><g clip-path="url(#clip7)"><text fill="#595959" font-family="Calibri,Calibri_MSFontService,sans-serif" font-weight="400" font-size="41" transform="matrix(1 0 0 1 1762.29 1016)">300</text></g><g clip-path="url(#clip8)"><text fill="#595959" font-family="Calibri,Calibri_MSFontService,sans-serif" font-weight="400" font-size="41" transform="matrix(1 0 0 1 1762.29 914)">400</text></g><g clip-path="url(#clip9)"><text fill="#595959" font-family="Calibri,Calibri_MSFontService,sans-serif" font-weight="400" font-size="41" transform="matrix(1 0 0 1 1762.29 812)">500</text></g><g clip-path="url(#clip10)"><text fill="#595959" font-family="Calibri,Calibri_MSFontService,sans-serif" font-weight="400" font-size="41" transform="matrix(1 0 0 1 1762.29 710)">600</text></g><g clip-path="url(#clip11)"><text fill="#595959" font-family="Calibri,Calibri_MSFontService,sans-serif" font-weight="400" font-size="41" transform="matrix(1 0 0 1 1762.29 608)">700</text></g><g clip-path="url(#clip12)"><text fill="#595959" font-family="Calibri,Calibri_MSFontService,sans-serif" font-weight="400" font-size="41" transform="matrix(1 0 0 1 1956.24 1375)">A</text></g><g clip-path="url(#clip13)"><text fill="#595959" font-family="Calibri,Calibri_MSFontService,sans-serif" font-weight="400" font-size="41" transform="matrix(1 0 0 1 2166.79 1375)">B</text></g><g clip-path="url(#clip14)"><text fill="#595959" font-family="Calibri,Calibri_MSFontService,sans-serif" font-weight="400" font-size="41" transform="matrix(1 0 0 1 2376.84 1375)">C</text></g><g clip-path="url(#clip15)"><text fill="#595959" font-family="Calibri,Calibri_MSFontService,sans-serif" font-weight="400" font-size="41" transform="matrix(1 0 0 1 2584.99 1375)">D</text></g><g clip-path="url(#clip16)"><text fill="#595959" font-family="Calibri,Calibri_MSFontService,sans-serif" font-weight="400" font-size="41" transform="matrix(1 0 0 1 2797.43 1375)">E</text></g><g clip-path="url(#clip17)"><text fill="#595959" font-family="Calibri,Calibri_MSFontService,sans-serif" font-weight="400" font-size="41" transform="matrix(1 0 0 1 3007.86 1375)">F</text></g><g clip-path="url(#clip18)"><text fill="#595959" font-family="Calibri,Calibri_MSFontService,sans-serif" font-weight="400" font-size="41" transform="matrix(1 0 0 1 3214.15 1375)">G</text></g><g clip-path="url(#clip19)"><text fill="#595959" font-family="Calibri,Calibri_MSFontService,sans-serif" font-weight="400" font-size="64" transform="matrix(1 0 0 1 2304.9 522)">Imbalanced Classes</text></g><rect x="1733.5" y="426.5" width="1649" height="990" stroke="#D9D9D9" stroke-width="3.4375" stroke-linejoin="round" stroke-miterlimit="10" fill="none"/></g></svg>