<?xml version="1.0" standalone="no"?>
<svg xmlns:xlink="http://www.w3.org/1999/xlink" xmlns="http://www.w3.org/2000/svg" id="svg" width="800" height="400"><g stroke="#a9a9a9" fill="none" stroke-width="2" stroke-linejoin="miter" stroke-linecap="butt"><path d=" M 50,400 L 50,2 L 42,10 L 50,2 L 58,10 L 50,2"/><path d=" M 0,350 L 798,350 L 790,342 L 798,350 L 790,358 L 798,350"/></g><g stroke="#808080" fill="none" stroke-width="3" stroke-linejoin="miter" stroke-linecap="butt"><path d=" M 150,0 L 150,400"/><path d=" M 650,0 L 650,400"/></g><rect x="140" y="380" width="20" height="20" fill="#ffffff" stroke="none" style="fill: rgb(255, 255, 255); fill-opacity: 0.75;"/><rect x="640" y="380" width="20" height="20" fill="#ffffff" stroke="none" style="fill: rgb(255, 255, 255); fill-opacity: 0.75;"/><path d=" M -3,404.64129638671875 L -2,403.09429931640625 L -1,401.54718017578125 L 0,400 L 1,398.45281982421875 L 2,396.90570068359375 L 3,395.35870361328125 L 4,393.8118896484375 L 5,392.2653503417969 L 6,390.7191467285156 L 7,389.1733093261719 L 8,387.6279296875 L 9,386.08306884765625 L 10,384.5387878417969 L 11,382.9951477050781 L 12,381.4522399902344 L 13,379.9100646972656 L 14,378.3687438964844 L 15,376.8283386230469 L 16,375.2889099121094 L 17,373.75048828125 L 18,372.2131652832031 L 19,370.677001953125 L 20,369.1420593261719 L 21,367.6084289550781 L 22,366.07611083984375 L 23,364.54522705078125 L 24,363.0158386230469 L 25,361.4879455566406 L 26,359.9617004394531 L 27,358.4371032714844 L 28,356.91424560546875 L 29,355.3931579589844 L 30,353.87396240234375 L 31,352.3566589355469 L 32,350.8413391113281 L 33,349.3280944824219 L 34,347.8169250488281 L 35,346.3079528808594 L 36,344.8011779785156 L 37,343.2967224121094 L 38,341.79461669921875 L 39,340.2949523925781 L 40,338.7977294921875 L 41,337.3030700683594 L 42,335.8110046386719 L 43,334.3216247558594 L 44,332.8349304199219 L 45,331.35107421875 L 46,329.8700256347656 L 47,328.3918762207031 L 48,326.9167175292969 L 49,325.444580078125 L 50,323.9755554199219 L 51,322.5096435546875 L 52,321.04693603515625 L 53,319.5875244140625 L 54,318.13140869140625 L 55,316.6787109375 L 56,315.22943115234375 L 57,313.7836608886719 L 58,312.3414306640625 L 59,310.9028625488281 L 60,309.4679260253906 L 61,308.0367431640625 L 62,306.6093444824219 L 63,305.1858215332031 L 64,303.76617431640625 L 65,302.3504943847656 L 66,300.9388427734375 L 67,299.53125 L 68,298.1278076171875 L 69,296.7285461425781 L 70,295.3335266113281 L 71,293.94281005859375 L 72,292.5564270019531 L 73,291.1744689941406 L 74,289.7969665527344 L 75,288.4239807128906 L 76,287.0555419921875 L 77,285.6917419433594 L 78,284.3326416015625 L 79,282.9782409667969 L 80,281.6286315917969 L 81,280.2838439941406 L 82,278.9439697265625 L 83,277.6090087890625 L 84,276.279052734375 L 85,274.9541320800781 L 86,273.6343078613281 L 87,272.31964111328125 L 88,271.0101318359375 L 89,269.70587158203125 L 90,268.40692138671875 L 91,267.1133117675781 L 92,265.8250732421875 L 93,264.54229736328125 L 94,263.2649841308594 L 95,261.99322509765625 L 96,260.72705078125 L 97,259.46649169921875 L 98,258.2116394042969 L 99,256.96246337890625 L 100,255.71910095214844 L 101,254.48153686523438 L 102,253.2498321533203 L 103,252.02403259277344 L 104,250.80418395996094 L 105,249.59033203125 L 106,248.3825225830078 L 107,247.1807861328125 L 108,245.9851837158203 L 109,244.79576110839844 L 110,243.61253356933594 L 111,242.43557739257812 L 112,241.26490783691406 L 113,240.10057067871094 L 114,238.94261169433594 L 115,237.79107666015625 L 116,236.64599609375 L 117,235.50741577148438 L 118,234.37538146972656 L 119,233.24990844726562 L 120,232.13107299804688 L 121,231.0188751220703 L 122,229.9133758544922 L 123,228.81459045410156 L 124,227.72259521484375 L 125,226.63739013671875 L 126,225.55902099609375 L 127,224.48753356933594 L 128,223.42294311523438 L 129,222.3653106689453 L 130,221.3146514892578 L 131,220.27099609375 L 132,219.23439025878906 L 133,218.2048797607422 L 134,217.18246459960938 L 135,216.16720581054688 L 136,215.1591033935547 L 137,214.15823364257812 L 138,213.16458129882812 L 139,212.17820739746094 L 140,211.19912719726562 L 141,210.22738647460938 L 142,209.2629852294922 L 143,208.3059844970703 L 144,207.3563995361328 L 145,206.41424560546875 L 146,205.4795684814453 L 147,204.55238342285156 L 148,203.63272094726562 L 149,202.72059631347656 L 150,201.81605529785156 L 151,200.9191131591797 L 152,200.02980041503906 L 153,199.14813232421875 L 154,198.2741241455078 L 155,197.40782165527344 L 156,196.54922485351562 L 157,195.69837951660156 L 158,194.85528564453125 L 159,194.0199737548828 L 160,193.1924591064453 L 161,192.37277221679688 L 162,191.56092834472656 L 163,190.75694274902344 L 164,189.96084594726562 L 165,189.17263793945312 L 166,188.39234924316406 L 167,187.61997985839844 L 168,186.85557556152344 L 169,186.09913635253906 L 170,185.35067749023438 L 171,184.61021423339844 L 172,183.8777618408203 L 173,183.15333557128906 L 174,182.4369659423828 L 175,181.72862243652344 L 176,181.0283660888672 L 177,180.336181640625 L 178,179.65208435058594 L 179,178.97610473632812 L 180,178.3082275390625 L 181,177.64846801757812 L 182,176.99684143066406 L 183,176.35336303710938 L 184,175.71803283691406 L 185,175.0908660888672 L 186,174.4718780517578 L 187,173.86105346679688 L 188,173.25840759277344 L 189,172.66395568847656 L 190,172.0776824951172 L 191,171.4996337890625 L 192,170.9297637939453 L 193,170.3681182861328 L 194,169.81468200683594 L 195,169.2694549560547 L 196,168.73245239257812 L 197,168.20367431640625 L 198,167.68312072753906 L 199,167.1707763671875 L 200,166.6666717529297 L 201,166.1707763671875 L 202,165.68312072753906 L 203,165.20367431640625 L 204,164.73245239257812 L 205,164.2694549560547 L 206,163.81468200683594 L 207,163.3681182861328 L 208,162.9297637939453 L 209,162.4996337890625 L 210,162.0776824951172 L 211,161.66395568847656 L 212,161.25840759277344 L 213,160.86105346679688 L 214,160.4718780517578 L 215,160.0908660888672 L 216,159.71803283691406 L 217,159.35336303710938 L 218,158.99684143066406 L 219,158.64846801757812 L 220,158.3082275390625 L 221,157.97610473632812 L 222,157.65208435058594 L 223,157.336181640625 L 224,157.0283660888672 L 225,156.72862243652344 L 226,156.4369659423828 L 227,156.15333557128906 L 228,155.8777618408203 L 229,155.61021423339844 L 230,155.35067749023438 L 231,155.09913635253906 L 232,154.85557556152344 L 233,154.61997985839844 L 234,154.39234924316406 L 235,154.17263793945312 L 236,153.96084594726562 L 237,153.75694274902344 L 238,153.56092834472656 L 239,153.37277221679688 L 240,153.1924591064453 L 241,153.0199737548828 L 242,152.85528564453125 L 243,152.69837951660156 L 244,152.54922485351562 L 245,152.40782165527344 L 246,152.2741241455078 L 247,152.14813232421875 L 248,152.02980041503906 L 249,151.9191131591797 L 250,151.81605529785156 L 251,151.72059631347656 L 252,151.63272094726562 L 253,151.55238342285156 L 254,151.4795684814453 L 255,151.41424560546875 L 256,151.3563995361328 L 257,151.3059844970703 L 258,151.2629852294922 L 259,151.22738647460938 L 260,151.19912719726562 L 261,151.17820739746094 L 262,151.16458129882812 L 263,151.15823364257812 L 264,151.1591033935547 L 265,151.16720581054688 L 266,151.18246459960938 L 267,151.2048797607422 L 268,151.23439025878906 L 269,151.27099609375 L 270,151.3146514892578 L 271,151.3653106689453 L 272,151.42294311523438 L 273,151.48753356933594 L 274,151.55902099609375 L 275,151.63739013671875 L 276,151.72259521484375 L 277,151.81459045410156 L 278,151.9133758544922 L 279,152.0188751220703 L 280,152.13107299804688 L 281,152.24990844726562 L 282,152.37538146972656 L 283,152.50741577148438 L 284,152.64599609375 L 285,152.79107666015625 L 286,152.94261169433594 L 287,153.10057067871094 L 288,153.26490783691406 L 289,153.43557739257812 L 290,153.61253356933594 L 291,153.79576110839844 L 292,153.9851837158203 L 293,154.1807861328125 L 294,154.3825225830078 L 295,154.59033203125 L 296,154.80418395996094 L 297,155.02403259277344 L 298,155.2498321533203 L 299,155.48153686523438 L 300,155.71910095214844 L 301,155.9624786376953 L 302,156.2116241455078 L 303,156.4665069580078 L 304,156.72705078125 L 305,156.9932403564453 L 306,157.26499938964844 L 307,157.54229736328125 L 308,157.82508850097656 L 309,158.11331176757812 L 310,158.40692138671875 L 311,158.7058868408203 L 312,159.0101318359375 L 313,159.3196258544922 L 314,159.63430786132812 L 315,159.9541473388672 L 316,160.279052734375 L 317,160.60902404785156 L 318,160.9439697265625 L 319,161.2838592529297 L 320,161.62863159179688 L 321,161.97824096679688 L 322,162.33262634277344 L 323,162.69175720214844 L 324,163.0555419921875 L 325,163.42396545410156 L 326,163.7969512939453 L 327,164.17446899414062 L 328,164.55642700195312 L 329,164.9427947998047 L 330,165.33352661132812 L 331,165.72854614257812 L 332,166.1278076171875 L 333,166.53126525878906 L 334,166.9388427734375 L 335,167.35049438476562 L 336,167.76617431640625 L 337,168.18582153320312 L 338,168.60935974121094 L 339,169.0367431640625 L 340,169.46792602539062 L 341,169.90284729003906 L 342,170.34144592285156 L 343,170.78366088867188 L 344,171.22943115234375 L 345,171.67869567871094 L 346,172.1314239501953 L 347,172.5875244140625 L 348,173.0469512939453 L 349,173.5096435546875 L 350,173.9755401611328 L 351,174.44459533691406 L 352,174.91673278808594 L 353,175.3918914794922 L 354,175.87002563476562 L 355,176.35105895996094 L 356,176.83494567871094 L 357,177.3216094970703 L 358,177.81100463867188 L 359,178.30307006835938 L 360,178.7977294921875 L 361,179.29493713378906 L 362,179.79461669921875 L 363,180.29672241210938 L 364,180.8011932373047 L 365,181.3079376220703 L 366,181.81692504882812 L 367,182.3280792236328 L 368,182.8413543701172 L 369,183.35665893554688 L 370,183.8739471435547 L 371,184.39315795898438 L 372,184.9142303466797 L 373,185.43710327148438 L 374,185.96170043945312 L 375,186.4879608154297 L 376,187.0158233642578 L 377,187.54522705078125 L 378,188.0761260986328 L 379,188.60841369628906 L 380,189.14207458496094 L 381,189.677001953125 L 382,190.21316528320312 L 383,190.75048828125 L 384,191.2888946533203 L 385,191.82835388183594 L 386,192.36875915527344 L 387,192.9100799560547 L 388,193.4522247314453 L 389,193.99514770507812 L 390,194.53878784179688 L 391,195.08306884765625 L 392,195.6279296875 L 393,196.17330932617188 L 394,196.71914672851562 L 395,197.26535034179688 L 396,197.81190490722656 L 397,198.35870361328125 L 398,198.9056854248047 L 399,199.45281982421875 L 400,200 L 401,200.54718017578125 L 402,201.0943145751953 L 403,201.64129638671875 L 404,202.18809509277344 L 405,202.73464965820312 L 406,203.28085327148438 L 407,203.82669067382812 L 408,204.3720703125 L 409,204.91693115234375 L 410,205.46121215820312 L 411,206.00485229492188 L 412,206.5477752685547 L 413,207.0899200439453 L 414,207.63124084472656 L 415,208.17164611816406 L 416,208.7111053466797 L 417,209.24951171875 L 418,209.78683471679688 L 419,210.322998046875 L 420,210.85792541503906 L 421,211.39158630371094 L 422,211.9238739013672 L 423,212.45477294921875 L 424,212.9841766357422 L 425,213.5120391845703 L 426,214.03829956054688 L 427,214.56289672851562 L 428,215.0857696533203 L 429,215.60684204101562 L 430,216.1260528564453 L 431,216.64334106445312 L 432,217.1586456298828 L 433,217.6719207763672 L 434,218.18307495117188 L 435,218.6920623779297 L 436,219.1988067626953 L 437,219.70327758789062 L 438,220.20538330078125 L 439,220.70506286621094 L 440,221.2022705078125 L 441,221.69692993164062 L 442,222.18899536132812 L 443,222.6783905029297 L 444,223.16505432128906 L 445,223.64894104003906 L 446,224.12997436523438 L 447,224.6081085205078 L 448,225.08326721191406 L 449,225.55540466308594 L 450,226.0244598388672 L 451,226.4903564453125 L 452,226.9530487060547 L 453,227.4124755859375 L 454,227.8685760498047 L 455,228.32130432128906 L 456,228.77056884765625 L 457,229.21633911132812 L 458,229.65855407714844 L 459,230.09715270996094 L 460,230.53207397460938 L 461,230.9632568359375 L 462,231.39064025878906 L 463,231.81417846679688 L 464,232.23382568359375 L 465,232.64950561523438 L 466,233.0611572265625 L 467,233.46873474121094 L 468,233.8721923828125 L 469,234.27145385742188 L 470,234.66647338867188 L 471,235.0572052001953 L 472,235.44357299804688 L 473,235.82553100585938 L 474,236.2030487060547 L 475,236.57603454589844 L 476,236.9444580078125 L 477,237.30824279785156 L 478,237.66737365722656 L 479,238.02175903320312 L 480,238.37136840820312 L 481,238.7161407470703 L 482,239.0560302734375 L 483,239.39097595214844 L 484,239.720947265625 L 485,240.0458526611328 L 486,240.36569213867188 L 487,240.6803741455078 L 488,240.9898681640625 L 489,241.2941131591797 L 490,241.59307861328125 L 491,241.88668823242188 L 492,242.17491149902344 L 493,242.45770263671875 L 494,242.73500061035156 L 495,243.0067596435547 L 496,243.27294921875 L 497,243.5334930419922 L 498,243.7883758544922 L 499,244.0375213623047 L 500,244.28089904785156 L 501,244.51846313476562 L 502,244.7501678466797 L 503,244.97596740722656 L 504,245.19581604003906 L 505,245.40966796875 L 506,245.6174774169922 L 507,245.8192138671875 L 508,246.0148162841797 L 509,246.20423889160156 L 510,246.38746643066406 L 511,246.56442260742188 L 512,246.73509216308594 L 513,246.89942932128906 L 514,247.05738830566406 L 515,247.20892333984375 L 516,247.35400390625 L 517,247.49258422851562 L 518,247.62461853027344 L 519,247.75009155273438 L 520,247.86892700195312 L 521,247.9811248779297 L 522,248.0866241455078 L 523,248.18540954589844 L 524,248.27740478515625 L 525,248.36260986328125 L 526,248.44097900390625 L 527,248.51246643066406 L 528,248.57705688476562 L 529,248.6346893310547 L 530,248.6853485107422 L 531,248.72900390625 L 532,248.76560974121094 L 533,248.7951202392578 L 534,248.81753540039062 L 535,248.83279418945312 L 536,248.8408966064453 L 537,248.84176635742188 L 538,248.83541870117188 L 539,248.82179260253906 L 540,248.80087280273438 L 541,248.77261352539062 L 542,248.7370147705078 L 543,248.6940155029297 L 544,248.6436004638672 L 545,248.58575439453125 L 546,248.5204315185547 L 547,248.44761657714844 L 548,248.36727905273438 L 549,248.27940368652344 L 550,248.18394470214844 L 551,248.0808868408203 L 552,247.97019958496094 L 553,247.85186767578125 L 554,247.7258758544922 L 555,247.59217834472656 L 556,247.45077514648438 L 557,247.30162048339844 L 558,247.14471435546875 L 559,246.9800262451172 L 560,246.8075408935547 L 561,246.62722778320312 L 562,246.43907165527344 L 563,246.24305725097656 L 564,246.03915405273438 L 565,245.82736206054688 L 566,245.60765075683594 L 567,245.38002014160156 L 568,245.14442443847656 L 569,244.90086364746094 L 570,244.64932250976562 L 571,244.38978576660156 L 572,244.1222381591797 L 573,243.84666442871094 L 574,243.5630340576172 L 575,243.27137756347656 L 576,242.9716339111328 L 577,242.663818359375 L 578,242.34791564941406 L 579,242.02389526367188 L 580,241.6917724609375 L 581,241.35153198242188 L 582,241.00315856933594 L 583,240.64663696289062 L 584,240.28196716308594 L 585,239.9091339111328 L 586,239.5281219482422 L 587,239.13894653320312 L 588,238.74159240722656 L 589,238.33604431152344 L 590,237.9223175048828 L 591,237.5003662109375 L 592,237.0702362060547 L 593,236.6318817138672 L 594,236.18531799316406 L 595,235.7305450439453 L 596,235.26754760742188 L 597,234.79632568359375 L 598,234.31687927246094 L 599,233.8292236328125 L 600,233.3333282470703 L 601,232.8292236328125 L 602,232.31687927246094 L 603,231.79632568359375 L 604,231.26754760742188 L 605,230.7305450439453 L 606,230.18531799316406 L 607,229.6318817138672 L 608,229.0702362060547 L 609,228.5003662109375 L 610,227.9223175048828 L 611,227.33604431152344 L 612,226.74159240722656 L 613,226.13894653320312 L 614,225.5281219482422 L 615,224.9091339111328 L 616,224.28196716308594 L 617,223.64663696289062 L 618,223.00315856933594 L 619,222.35153198242188 L 620,221.6917724609375 L 621,221.02389526367188 L 622,220.34791564941406 L 623,219.663818359375 L 624,218.9716339111328 L 625,218.27137756347656 L 626,217.5630340576172 L 627,216.84666442871094 L 628,216.1222381591797 L 629,215.38978576660156 L 630,214.64932250976562 L 631,213.90086364746094 L 632,213.14442443847656 L 633,212.38002014160156 L 634,211.60765075683594 L 635,210.82736206054688 L 636,210.03915405273438 L 637,209.24305725097656 L 638,208.43907165527344 L 639,207.62722778320312 L 640,206.8075408935547 L 641,205.9800262451172 L 642,205.14471435546875 L 643,204.30162048339844 L 644,203.45077514648438 L 645,202.59217834472656 L 646,201.7258758544922 L 647,200.85186767578125 L 648,199.97019958496094 L 649,199.0808868408203 L 650,198.18394470214844 L 651,197.27940368652344 L 652,196.36727905273438 L 653,195.44761657714844 L 654,194.5204315185547 L 655,193.58575439453125 L 656,192.6436004638672 L 657,191.6940155029297 L 658,190.7370147705078 L 659,189.77261352539062 L 660,188.80087280273438 L 661,187.82179260253906 L 662,186.83541870117188 L 663,185.84176635742188 L 664,184.8408966064453 L 665,183.83279418945312 L 666,182.81753540039062 L 667,181.7951202392578 L 668,180.76560974121094 L 669,179.72900390625 L 670,178.6853485107422 L 671,177.6346893310547 L 672,176.57705688476562 L 673,175.51246643066406 L 674,174.44097900390625 L 675,173.36260986328125 L 676,172.27740478515625 L 677,171.18540954589844 L 678,170.0866241455078 L 679,168.9811248779297 L 680,167.86892700195312 L 681,166.75009155273438 L 682,165.62461853027344 L 683,164.49258422851562 L 684,163.35400390625 L 685,162.20892333984375 L 686,161.05738830566406 L 687,159.89942932128906 L 688,158.73509216308594 L 689,157.56442260742188 L 690,156.38746643066406 L 691,155.20423889160156 L 692,154.0148162841797 L 693,152.8192138671875 L 694,151.6174774169922 L 695,150.40966796875 L 696,149.19581604003906 L 697,147.97596740722656 L 698,146.7501678466797 L 699,145.51846313476562 L 700,144.28089904785156 L 701,143.0375213623047 L 702,141.7883758544922 L 703,140.5334930419922 L 704,139.27294921875 L 705,138.0067596435547 L 706,136.73500061035156 L 707,135.45770263671875 L 708,134.17491149902344 L 709,132.88668823242188 L 710,131.59307861328125 L 711,130.2941131591797 L 712,128.9898681640625 L 713,127.68037414550781 L 714,126.36568450927734 L 715,125.04586029052734 L 716,123.72093963623047 L 717,122.39098358154297 L 718,121.0560302734375 L 719,119.71614074707031 L 720,118.37136840820312 L 721,117.02175903320312 L 722,115.66736602783203 L 723,114.3082504272461 L 724,112.94445037841797 L 725,111.57603454589844 L 726,110.20304107666016 L 727,108.8255386352539 L 728,107.44357299804688 L 729,106.05719757080078 L 730,104.66647338867188 L 731,103.27145385742188 L 732,101.8721923828125 L 733,100.46873474121094 L 734,99.0611572265625 L 735,97.64949798583984 L 736,96.23382568359375 L 737,94.8141860961914 L 738,93.39064025878906 L 739,91.96324920654297 L 740,90.53206634521484 L 741,89.09715270996094 L 742,87.65855407714844 L 743,86.21634674072266 L 744,84.77056884765625 L 745,83.32129669189453 L 746,81.86858367919922 L 747,80.41248321533203 L 748,78.95304870605469 L 749,77.4903564453125 L 750,76.02445983886719 L 751,74.55541229248047 L 752,73.0832748413086 L 753,71.60810852050781 L 754,70.1299819946289 L 755,68.64894104003906 L 756,67.16505432128906 L 757,65.67838287353516 L 758,64.1889877319336 L 759,62.696929931640625 L 760,61.202266693115234 L 761,59.70506286621094 L 762,58.20537567138672 L 763,56.70327377319336 L 764,55.198814392089844 L 765,53.69205856323242 L 766,52.183074951171875 L 767,50.67191696166992 L 768,49.158653259277344 L 769,47.643341064453125 L 770,46.12604904174805 L 771,44.606834411621094 L 772,43.08576583862305 L 773,41.56290054321289 L 774,40.038307189941406 L 775,38.51204299926758 L 776,36.98417663574219 L 777,35.45476531982422 L 778,33.92388153076172 L 779,32.391578674316406 L 780,30.857929229736328 L 781,29.32299041748047 L 782,27.78683090209961 L 783,26.24951171875 L 784,24.711097717285156 L 785,23.171653747558594 L 786,21.631240844726562 L 787,20.089927673339844 L 788,18.547775268554688 L 789,17.00484848022461 L 790,15.461213111877441 L 791,13.91693115234375 L 792,12.372069358825684 L 793,10.826690673828125 L 794,9.28085994720459 L 795,7.734642028808594 L 796,6.188101291656494 L 797,4.641302108764648 L 798,3.094309091567993 L 799,1.5471867322921753 L 800,5.684341886080802e-14 L 801,-1.5471867322921753 L 802,-3.094309091567993" stroke="#000000" fill="none" stroke-width="5" stroke-linejoin="miter" stroke-linecap="butt"/><g stroke="#ff0000" fill="none" stroke-width="1" stroke-linejoin="miter" stroke-linecap="butt"><path d=" M 150,148.15823364257812 L 305,148.15823364257812 L 305,204.81605529785156 L 150,204.81605529785156 L 150,148.15823364257812 L 305,148.15823364257812"/><path d=" M 305,153.9932403564453 L 460,153.9932403564453 L 460,233.53207397460938 L 305,233.53207397460938 L 305,153.9932403564453 L 460,153.9932403564453"/><path d=" M 460,221.9091339111328 L 615,221.9091339111328 L 615,251.84176635742188 L 460,251.84176635742188 L 460,221.9091339111328 L 615,221.9091339111328"/><path d=" M 615,195.18394470214844 L 650,195.18394470214844 L 650,227.9091339111328 L 615,227.9091339111328 L 615,195.18394470214844 L 650,195.18394470214844"/></g><rect x="138" y="351" width="20" height="20" fill="#ffffff" stroke="none" style="fill: rgb(255, 255, 255); fill-opacity: 0.75;"/><rect x="643" y="351" width="20" height="20" fill="#ffffff" stroke="none" style="fill: rgb(255, 255, 255); fill-opacity: 0.75;"/><g stroke="#ff0000" fill="none" stroke-width="1" stroke-linejoin="miter" stroke-linecap="butt" style="stroke-dasharray: 4px, 1px; stroke-dashoffset: 0px;"><path d=" M 150,204.81605529785156 L 150,350"/><path d=" M 305,233.53207397460938 L 305,350"/><path d=" M 460,251.84176635742188 L 460,350"/><path d=" M 615,251.84176635742188 L 615,350"/><path d=" M 650,227.9091339111328 L 650,350"/></g><path d=" M 150,201.81605529785156 L 305,156.9932403564453 L 460,230.53207397460938 L 615,224.9091339111328 L 650,198.18394470214844" stroke="#ffa500" fill="none" stroke-width="3" stroke-linejoin="miter" stroke-linecap="butt"/><text x="146" y="392" style="fill: grey;">a</text><text x="646" y="393" style="fill: grey;">b</text><text x="142" y="362" style="fill: red; font-size: 12px;">c</text><text x="147" y="370" style="fill: red; font-size: 12px;">0</text><text x="297" y="362" style="fill: red; font-size: 12px;">c</text><text x="302" y="370" style="fill: red; font-size: 12px;">1</text><text x="452" y="362" style="fill: red; font-size: 12px;">c</text><text x="457" y="370" style="fill: red; font-size: 12px;">2</text><text x="607" y="362" style="fill: red; font-size: 12px;">c</text><text x="612" y="370" style="fill: red; font-size: 12px;">3</text><text x="648" y="362" style="fill: red; font-size: 12px;">c</text><text x="652" y="370" style="fill: red; font-size: 12px;">4</text></svg>