<?xml version="1.0" encoding="UTF-8" standalone="no"?>
<!-- Created with Inkscape (http://www.inkscape.org/) -->

<svg
   width="297mm"
   height="210mm"
   viewBox="0 0 297 210"
   version="1.1"
   id="svg5"
   xml:space="preserve"
   inkscape:version="1.2.1 (9c6d41e410, 2022-07-14)"
   sodipodi:docname="rectangle.svg"
   xmlns:inkscape="http://www.inkscape.org/namespaces/inkscape"
   xmlns:sodipodi="http://sodipodi.sourceforge.net/DTD/sodipodi-0.dtd"
   xmlns="http://www.w3.org/2000/svg"
   xmlns:svg="http://www.w3.org/2000/svg"><sodipodi:namedview
     id="namedview7"
     pagecolor="#ffffff"
     bordercolor="#000000"
     borderopacity="0.25"
     inkscape:showpageshadow="2"
     inkscape:pageopacity="0.0"
     inkscape:pagecheckerboard="0"
     inkscape:deskcolor="#d1d1d1"
     inkscape:document-units="mm"
     showgrid="false"
     inkscape:zoom="0.74208052"
     inkscape:cx="582.14707"
     inkscape:cy="386.0767"
     inkscape:window-width="1920"
     inkscape:window-height="991"
     inkscape:window-x="4791"
     inkscape:window-y="-9"
     inkscape:window-maximized="1"
     inkscape:current-layer="g192" /><defs
     id="defs2" /><g
     inkscape:label="Layer 1"
     inkscape:groupmode="layer"
     id="layer1" /><g
     id="g192"
     transform="matrix(-0.29345204,0,0,-0.29345206,278.04853,311.27133)"><path
       d="m 745.6513,951.91321 v -498 H 142.46805 v 498 z"
       style="fill:none;stroke:#808080;stroke-width:3.40771175;stroke-linecap:butt;stroke-linejoin:miter;stroke-miterlimit:10;stroke-dasharray:none;stroke-opacity:1"
       id="path208"
       sodipodi:nodetypes="ccccc" /><path
       d="m 897.45605,684.91321 c -9.941,0 -18,8.059 -18,18 0,9.941 8.059,18 18,18 9.941,0 18,-8.059 18,-18 0,-9.941 -8.059,-18 -18,-18"
       style="fill:#2ecc71;fill-opacity:1;fill-rule:nonzero;stroke:#2ecc71;stroke-width:1;stroke-linecap:butt;stroke-linejoin:miter;stroke-miterlimit:10;stroke-dasharray:none;stroke-opacity:1"
       id="path216"
       sodipodi:nodetypes="csssc" /><path
       d="m 717.45605,900.91321 c -9.941,0 -18,8.059 -18,18 0,9.941 8.059,18 18,18 9.941,0 18,-8.059 18,-18 0,-9.941 -8.059,-18 -18,-18"
       style="fill:#3498db;fill-opacity:1;fill-rule:nonzero;stroke:#3498db;stroke-width:1;stroke-linecap:butt;stroke-linejoin:miter;stroke-miterlimit:10;stroke-dasharray:none;stroke-opacity:1"
       id="path222"
       sodipodi:nodetypes="csssc" /><path
       d="m 885.32305,716.42521 c -31.969,38.789 -123.777,150.199 -155.738,188.98"
       style="fill:none;stroke:#707070;stroke-width:1;stroke-linecap:butt;stroke-linejoin:miter;stroke-miterlimit:10;stroke-dasharray:none;stroke-opacity:1"
       id="path228"
       sodipodi:nodetypes="cc" /><path
       d="m 717.45605,468.91321 c -9.941,0 -18,8.059 -18,18 0,9.941 8.059,18 18,18 9.941,0 18,-8.059 18,-18 0,-9.941 -8.059,-18 -18,-18"
       style="fill:#3498db;fill-opacity:1;fill-rule:nonzero;stroke:#3498db;stroke-width:1;stroke-linecap:butt;stroke-linejoin:miter;stroke-miterlimit:10;stroke-dasharray:none;stroke-opacity:1"
       id="path230"
       sodipodi:nodetypes="csssc" /><path
       d="m 885.32305,689.40121 c -31.969,-38.789 -123.777,-150.199 -155.738,-188.98"
       style="fill:none;stroke:#707070;stroke-width:1;stroke-linecap:butt;stroke-linejoin:miter;stroke-miterlimit:10;stroke-dasharray:none;stroke-opacity:1"
       id="path236"
       sodipodi:nodetypes="cc" /><path
       d="m 717.45605,576.91321 c -9.941,0 -18,8.059 -18,18 0,9.941 8.059,18 18,18 9.941,0 18,-8.059 18,-18 0,-9.941 -8.059,-18 -18,-18"
       style="fill:#3498db;fill-opacity:1;fill-rule:nonzero;stroke:#3498db;stroke-width:1;stroke-linecap:butt;stroke-linejoin:miter;stroke-miterlimit:10;stroke-dasharray:none;stroke-opacity:1"
       id="path238"
       sodipodi:nodetypes="csssc" /><path
       d="m 881.58505,693.89021 c -33.59,-20.379 -114.996,-69.774 -148.426,-90.055"
       style="fill:none;stroke:#707070;stroke-width:1;stroke-linecap:butt;stroke-linejoin:miter;stroke-miterlimit:10;stroke-dasharray:none;stroke-opacity:1"
       id="path244"
       sodipodi:nodetypes="cc" /><path
       d="m 717.45605,684.91321 c -9.941,0 -18,8.059 -18,18 0,9.941 8.059,18 18,18 9.941,0 18,-8.059 18,-18 0,-9.941 -8.059,-18 -18,-18"
       style="fill:#3498db;fill-opacity:1;fill-rule:nonzero;stroke:#3498db;stroke-width:1;stroke-linecap:butt;stroke-linejoin:miter;stroke-miterlimit:10;stroke-dasharray:none;stroke-opacity:1"
       id="path246"
       sodipodi:nodetypes="csssc" /><path
       d="m 879.06505,702.91321 h -143.148"
       style="fill:none;stroke:#707070;stroke-width:1;stroke-linecap:butt;stroke-linejoin:miter;stroke-miterlimit:10;stroke-dasharray:none;stroke-opacity:1"
       id="path252"
       sodipodi:nodetypes="cc" /><path
       d="m 717.45605,792.91321 c -9.941,0 -18,8.059 -18,18 0,9.941 8.059,18 18,18 9.941,0 18,-8.059 18,-18 0,-9.941 -8.059,-18 -18,-18"
       style="fill:#3498db;fill-opacity:1;fill-rule:nonzero;stroke:#3498db;stroke-width:1;stroke-linecap:butt;stroke-linejoin:miter;stroke-miterlimit:10;stroke-dasharray:none;stroke-opacity:1"
       id="path254"
       sodipodi:nodetypes="csssc" /><path
       d="m 881.58505,711.93621 c -33.59,20.379 -114.996,69.774 -148.426,90.055"
       style="fill:none;stroke:#707070;stroke-width:1;stroke-linecap:butt;stroke-linejoin:miter;stroke-miterlimit:10;stroke-dasharray:none;stroke-opacity:1"
       id="path260"
       sodipodi:nodetypes="cc" /><path
       d="m 535.95605,904.91321 c -9.937,0 -18,8.059 -18,18 0,9.941 8.063,18 18,18 9.941,0 18,-8.059 18,-18 0,-9.941 -8.059,-18 -18,-18"
       style="fill:#3498db;fill-opacity:1;fill-rule:nonzero;stroke:#3498db;stroke-width:1;stroke-linecap:butt;stroke-linejoin:miter;stroke-miterlimit:10;stroke-dasharray:none;stroke-opacity:1"
       id="path262"
       sodipodi:nodetypes="csssc" /><path
       d="m 699.24505,919.29621 c -34.223,0.762 -110.469,2.461 -144.863,3.23"
       style="fill:none;stroke:#707070;stroke-width:1;stroke-linecap:butt;stroke-linejoin:miter;stroke-miterlimit:10;stroke-dasharray:none;stroke-opacity:1"
       id="path268"
       sodipodi:nodetypes="cc" /><path
       d="m 535.95605,467.91321 c -9.937,0 -18,8.059 -18,18 0,9.941 8.063,18 18,18 9.941,0 18,-8.059 18,-18 0,-9.941 -8.059,-18 -18,-18"
       style="fill:#3498db;fill-opacity:1;fill-rule:nonzero;stroke:#3498db;stroke-width:1;stroke-linecap:butt;stroke-linejoin:miter;stroke-miterlimit:10;stroke-dasharray:none;stroke-opacity:1"
       id="path270"
       sodipodi:nodetypes="csssc" /><path
       d="m 709.53005,902.20621 c -28.605,-69.008 -137.375,-331.387 -165.761,-399.867"
       style="fill:none;stroke:#707070;stroke-width:1;stroke-linecap:butt;stroke-linejoin:miter;stroke-miterlimit:10;stroke-dasharray:none;stroke-opacity:1"
       id="path276"
       sodipodi:nodetypes="cc" /><path
       d="m 535.95605,575.91321 c -9.937,0 -18,8.059 -18,18 0,9.941 8.063,18 18,18 9.941,0 18,-8.059 18,-18 0,-9.941 -8.059,-18 -18,-18"
       style="fill:#3498db;fill-opacity:1;fill-rule:nonzero;stroke:#3498db;stroke-width:1;stroke-linecap:butt;stroke-linejoin:miter;stroke-miterlimit:10;stroke-dasharray:none;stroke-opacity:1"
       id="path278"
       sodipodi:nodetypes="csssc" /><path
       d="m 707.80005,903.23721 c -30.395,-55.031 -132.016,-239.023 -162.27,-293.804"
       style="fill:none;stroke:#707070;stroke-width:1;stroke-linecap:butt;stroke-linejoin:miter;stroke-miterlimit:10;stroke-dasharray:none;stroke-opacity:1"
       id="path284"
       sodipodi:nodetypes="cc" /><path
       d="m 535.95605,683.41721 c -10.766,0 -19.496,8.726 -19.496,19.496 0,10.77 8.73,19.496 19.496,19.496 10.77,0 19.5,-8.726 19.5,-19.496 0,-10.77 -8.73,-19.496 -19.5,-19.496"
       style="fill:#3498db;fill-opacity:1;fill-rule:nonzero;stroke:#3498db;stroke-width:1;stroke-linecap:butt;stroke-linejoin:miter;stroke-miterlimit:10;stroke-dasharray:none;stroke-opacity:1"
       id="path286"
       sodipodi:nodetypes="csssc" /><path
       d="m 705.22905,905.40121 c -31.929,-38.422 -123.058,-148.082 -156.109,-187.855"
       style="fill:none;stroke:#707070;stroke-width:1;stroke-linecap:butt;stroke-linejoin:miter;stroke-miterlimit:10;stroke-dasharray:none;stroke-opacity:1"
       id="path292"
       sodipodi:nodetypes="cc" /><path
       d="m 535.95605,794.41721 c -10.766,0 -19.496,8.726 -19.496,19.496 0,10.77 8.73,19.496 19.496,19.496 10.77,0 19.5,-8.726 19.5,-19.496 0,-10.77 -8.73,-19.496 -19.5,-19.496"
       style="fill:#3498db;fill-opacity:1;fill-rule:nonzero;stroke:#3498db;stroke-width:1;stroke-linecap:butt;stroke-linejoin:miter;stroke-miterlimit:10;stroke-dasharray:none;stroke-opacity:1"
       id="path294"
       sodipodi:nodetypes="csssc" /><path
       d="m 701.46005,910.14021 c -33.367,-19.516 -113.524,-66.407 -148.133,-86.653"
       style="fill:none;stroke:#707070;stroke-width:1;stroke-linecap:butt;stroke-linejoin:miter;stroke-miterlimit:10;stroke-dasharray:none;stroke-opacity:1"
       id="path300"
       sodipodi:nodetypes="cc" /><path
       d="m 709.64005,503.47221 c -28.434,69.062 -137.411,333.769 -165.86,402.867"
       style="fill:none;stroke:#707070;stroke-width:1;stroke-linecap:butt;stroke-linejoin:miter;stroke-miterlimit:10;stroke-dasharray:none;stroke-opacity:1"
       id="path302"
       sodipodi:nodetypes="cc" /><path
       d="m 699.24505,486.81521 c -34.223,-0.187 -110.469,-0.613 -144.863,-0.804"
       style="fill:none;stroke:#707070;stroke-width:1;stroke-linecap:butt;stroke-linejoin:miter;stroke-miterlimit:10;stroke-dasharray:none;stroke-opacity:1"
       id="path304"
       sodipodi:nodetypes="cc" /><path
       d="m 701.46005,495.85021 c -33.871,20.192 -115.965,69.129 -149.676,89.223"
       style="fill:none;stroke:#707070;stroke-width:1;stroke-linecap:butt;stroke-linejoin:miter;stroke-miterlimit:10;stroke-dasharray:none;stroke-opacity:1"
       id="path306"
       sodipodi:nodetypes="cc" /><path
       d="m 705.22905,500.42521 c -31.929,38.422 -123.058,148.082 -156.109,187.855"
       style="fill:none;stroke:#707070;stroke-width:1;stroke-linecap:butt;stroke-linejoin:miter;stroke-miterlimit:10;stroke-dasharray:none;stroke-opacity:1"
       id="path308"
       sodipodi:nodetypes="cc" /><path
       d="m 707.80005,502.68621 c -30.184,54.985 -130.614,237.938 -161.633,294.454"
       style="fill:none;stroke:#707070;stroke-width:1;stroke-linecap:butt;stroke-linejoin:miter;stroke-miterlimit:10;stroke-dasharray:none;stroke-opacity:1"
       id="path310"
       sodipodi:nodetypes="cc" /><path
       d="m 708.03805,610.29221 c -30.078,54.969 -132.09,241.375 -162.473,296.891"
       style="fill:none;stroke:#707070;stroke-width:1;stroke-linecap:butt;stroke-linejoin:miter;stroke-miterlimit:10;stroke-dasharray:none;stroke-opacity:1"
       id="path312"
       sodipodi:nodetypes="cc" /><path
       d="m 701.46005,585.80821 c -33.871,-20.571 -115.965,-70.422 -149.676,-90.891"
       style="fill:none;stroke:#707070;stroke-width:1;stroke-linecap:butt;stroke-linejoin:miter;stroke-miterlimit:10;stroke-dasharray:none;stroke-opacity:1"
       id="path314"
       sodipodi:nodetypes="cc" /><path
       d="m 699.24505,594.81521 c -34.223,-0.187 -110.469,-0.613 -144.863,-0.804"
       style="fill:none;stroke:#707070;stroke-width:1;stroke-linecap:butt;stroke-linejoin:miter;stroke-miterlimit:10;stroke-dasharray:none;stroke-opacity:1"
       id="path316"
       sodipodi:nodetypes="cc" /><path
       d="m 701.46005,603.93621 c -33.367,20.075 -113.524,68.305 -148.133,89.129"
       style="fill:none;stroke:#707070;stroke-width:1;stroke-linecap:butt;stroke-linejoin:miter;stroke-miterlimit:10;stroke-dasharray:none;stroke-opacity:1"
       id="path318"
       sodipodi:nodetypes="cc" /><path
       d="m 705.22905,608.61221 c -31.929,38.953 -123.058,150.141 -156.109,190.465"
       style="fill:none;stroke:#707070;stroke-width:1;stroke-linecap:butt;stroke-linejoin:miter;stroke-miterlimit:10;stroke-dasharray:none;stroke-opacity:1"
       id="path320"
       sodipodi:nodetypes="cc" /><path
       d="m 705.22905,716.67521 c -32.238,39.508 -124.816,152.98 -157.046,192.48"
       style="fill:none;stroke:#707070;stroke-width:1;stroke-linecap:butt;stroke-linejoin:miter;stroke-miterlimit:10;stroke-dasharray:none;stroke-opacity:1"
       id="path322"
       sodipodi:nodetypes="cc" /><path
       d="m 705.22905,689.33921 c -32.238,-38.969 -124.816,-150.895 -157.046,-189.856"
       style="fill:none;stroke:#707070;stroke-width:1;stroke-linecap:butt;stroke-linejoin:miter;stroke-miterlimit:10;stroke-dasharray:none;stroke-opacity:1"
       id="path324"
       sodipodi:nodetypes="cc" /><path
       d="m 701.46005,693.80821 c -33.871,-20.571 -115.965,-70.422 -149.676,-90.891"
       style="fill:none;stroke:#707070;stroke-width:1;stroke-linecap:butt;stroke-linejoin:miter;stroke-miterlimit:10;stroke-dasharray:none;stroke-opacity:1"
       id="path326"
       sodipodi:nodetypes="cc" /><path
       d="m 699.24505,702.91321 h -143.519"
       style="fill:none;stroke:#707070;stroke-width:1;stroke-linecap:butt;stroke-linejoin:miter;stroke-miterlimit:10;stroke-dasharray:none;stroke-opacity:1"
       id="path328"
       sodipodi:nodetypes="cc" /><path
       d="m 701.46005,712.18621 c -33.449,20.684 -113.93,70.454 -148.395,91.766"
       style="fill:none;stroke:#707070;stroke-width:1;stroke-linecap:butt;stroke-linejoin:miter;stroke-miterlimit:10;stroke-dasharray:none;stroke-opacity:1"
       id="path330"
       sodipodi:nodetypes="cc" /><path
       d="m 701.76905,820.07721 c -33.661,21.004 -116.067,72.422 -149.918,93.543"
       style="fill:none;stroke:#707070;stroke-width:1;stroke-linecap:butt;stroke-linejoin:miter;stroke-miterlimit:10;stroke-dasharray:none;stroke-opacity:1"
       id="path332"
       sodipodi:nodetypes="cc" /><path
       d="m 707.80005,795.23721 c -30.395,-55.031 -132.016,-239.023 -162.27,-293.804"
       style="fill:none;stroke:#707070;stroke-width:1;stroke-linecap:butt;stroke-linejoin:miter;stroke-miterlimit:10;stroke-dasharray:none;stroke-opacity:1"
       id="path334"
       sodipodi:nodetypes="cc" /><path
       d="m 705.22905,797.33921 c -32.238,-38.969 -124.816,-150.895 -157.046,-189.856"
       style="fill:none;stroke:#707070;stroke-width:1;stroke-linecap:butt;stroke-linejoin:miter;stroke-miterlimit:10;stroke-dasharray:none;stroke-opacity:1"
       id="path336"
       sodipodi:nodetypes="cc" /><path
       d="m 701.46005,801.89021 c -33.367,-20.075 -113.524,-68.305 -148.133,-89.129"
       style="fill:none;stroke:#707070;stroke-width:1;stroke-linecap:butt;stroke-linejoin:miter;stroke-miterlimit:10;stroke-dasharray:none;stroke-opacity:1"
       id="path338"
       sodipodi:nodetypes="cc" /><path
       d="m 699.24505,811.20221 c -33.781,0.563 -108.523,1.813 -143.519,2.398"
       style="fill:none;stroke:#707070;stroke-width:1;stroke-linecap:butt;stroke-linejoin:miter;stroke-miterlimit:10;stroke-dasharray:none;stroke-opacity:1"
       id="path340"
       sodipodi:nodetypes="cc" /><path
       d="m 352.96005,794.41721 c -10.766,0 -19.496,8.726 -19.496,19.496 0,10.77 8.73,19.496 19.496,19.496 10.769,0 19.496,-8.726 19.496,-19.496 0,-10.77 -8.727,-19.496 -19.496,-19.496"
       style="fill:#3498db;fill-opacity:1;fill-rule:nonzero;stroke:#3498db;stroke-width:1;stroke-linecap:butt;stroke-linejoin:miter;stroke-miterlimit:10;stroke-dasharray:none;stroke-opacity:1"
       id="path342"
       sodipodi:nodetypes="csssc" /><path
       d="m 520.14705,913.99121 c -33.519,-20.183 -114.972,-69.238 -149.875,-90.254"
       style="fill:none;stroke:#707070;stroke-width:1;stroke-linecap:butt;stroke-linejoin:miter;stroke-miterlimit:10;stroke-dasharray:none;stroke-opacity:1"
       id="path348"
       sodipodi:nodetypes="cc" /><path
       d="m 352.96005,905.41721 c -10.766,0 -19.496,8.726 -19.496,19.496 0,10.77 8.73,19.496 19.496,19.496 10.769,0 19.496,-8.726 19.496,-19.496 0,-10.77 -8.727,-19.496 -19.496,-19.496"
       style="fill:#3498db;fill-opacity:1;fill-rule:nonzero;stroke:#3498db;stroke-width:1;stroke-linecap:butt;stroke-linejoin:miter;stroke-miterlimit:10;stroke-dasharray:none;stroke-opacity:1"
       id="path350"
       sodipodi:nodetypes="csssc" /><path
       d="m 517.60405,923.10421 c -34.066,0.375 -109.429,1.211 -144.718,1.598"
       style="fill:none;stroke:#707070;stroke-width:1;stroke-linecap:butt;stroke-linejoin:miter;stroke-miterlimit:10;stroke-dasharray:none;stroke-opacity:1"
       id="path356"
       sodipodi:nodetypes="cc" /><path
       d="m 352.96005,461.41721 c -10.766,0 -19.496,8.726 -19.496,19.496 0,10.77 8.73,19.496 19.496,19.496 10.769,0 19.496,-8.726 19.496,-19.496 0,-10.77 -8.727,-19.496 -19.496,-19.496"
       style="fill:#3498db;fill-opacity:1;fill-rule:nonzero;stroke:#3498db;stroke-width:1;stroke-linecap:butt;stroke-linejoin:miter;stroke-miterlimit:10;stroke-dasharray:none;stroke-opacity:1"
       id="path358"
       sodipodi:nodetypes="csssc" /><path
       d="m 528.19405,906.39321 c -28.367,-69.269 -137.605,-336.031 -166.945,-407.679"
       style="fill:none;stroke:#707070;stroke-width:1;stroke-linecap:butt;stroke-linejoin:miter;stroke-miterlimit:10;stroke-dasharray:none;stroke-opacity:1"
       id="path364"
       sodipodi:nodetypes="cc" /><path
       d="m 352.96005,572.41721 c -10.766,0 -19.496,8.726 -19.496,19.496 0,10.77 8.73,19.496 19.496,19.496 10.769,0 19.496,-8.726 19.496,-19.496 0,-10.77 -8.727,-19.496 -19.496,-19.496"
       style="fill:#3498db;fill-opacity:1;fill-rule:nonzero;stroke:#3498db;stroke-width:1;stroke-linecap:butt;stroke-linejoin:miter;stroke-miterlimit:10;stroke-dasharray:none;stroke-opacity:1"
       id="path366"
       sodipodi:nodetypes="csssc" /><path
       d="m 526.47205,907.39321 c -30.125,-55.089 -131.778,-240.988 -163.184,-298.425"
       style="fill:none;stroke:#707070;stroke-width:1;stroke-linecap:butt;stroke-linejoin:miter;stroke-miterlimit:10;stroke-dasharray:none;stroke-opacity:1"
       id="path372"
       sodipodi:nodetypes="cc" /><path
       d="m 352.96005,683.41721 c -10.766,0 -19.496,8.726 -19.496,19.496 0,10.77 8.73,19.496 19.496,19.496 10.769,0 19.496,-8.726 19.496,-19.496 0,-10.77 -8.727,-19.496 -19.496,-19.496"
       style="fill:#3498db;fill-opacity:1;fill-rule:nonzero;stroke:#3498db;stroke-width:1;stroke-linecap:butt;stroke-linejoin:miter;stroke-miterlimit:10;stroke-dasharray:none;stroke-opacity:1"
       id="path374"
       sodipodi:nodetypes="csssc" /><path
       d="m 523.63605,909.15121 c -32.196,-39.133 -124.086,-150.824 -157.41,-191.332"
       style="fill:none;stroke:#707070;stroke-width:1;stroke-linecap:butt;stroke-linejoin:miter;stroke-miterlimit:10;stroke-dasharray:none;stroke-opacity:1"
       id="path380"
       sodipodi:nodetypes="cc" /><path
       d="m 526.47205,501.29221 c -30.125,54.59 -131.778,238.801 -163.184,295.723"
       style="fill:none;stroke:#707070;stroke-width:1;stroke-linecap:butt;stroke-linejoin:miter;stroke-miterlimit:10;stroke-dasharray:none;stroke-opacity:1"
       id="path382"
       sodipodi:nodetypes="cc" /><path
       d="m 528.08505,502.58521 c -28.543,69.226 -137.57,333.672 -166.852,404.687"
       style="fill:none;stroke:#707070;stroke-width:1;stroke-linecap:butt;stroke-linejoin:miter;stroke-miterlimit:10;stroke-dasharray:none;stroke-opacity:1"
       id="path384"
       sodipodi:nodetypes="cc" /><path
       d="m 517.60405,485.43321 c -34.066,-0.942 -109.429,-3.024 -144.718,-3.997"
       style="fill:none;stroke:#707070;stroke-width:1;stroke-linecap:butt;stroke-linejoin:miter;stroke-miterlimit:10;stroke-dasharray:none;stroke-opacity:1"
       id="path386"
       sodipodi:nodetypes="cc" /><path
       d="m 519.83905,494.76821 c -33.645,19.704 -114.477,67.04 -149.375,87.481"
       style="fill:none;stroke:#707070;stroke-width:1;stroke-linecap:butt;stroke-linejoin:miter;stroke-miterlimit:10;stroke-dasharray:none;stroke-opacity:1"
       id="path388"
       sodipodi:nodetypes="cc" /><path
       d="m 523.63605,499.48721 c -32.196,38.598 -124.086,148.766 -157.41,188.723"
       style="fill:none;stroke:#707070;stroke-width:1;stroke-linecap:butt;stroke-linejoin:miter;stroke-miterlimit:10;stroke-dasharray:none;stroke-opacity:1"
       id="path390"
       sodipodi:nodetypes="cc" /><path
       d="m 523.63605,607.67521 c -32.196,39.133 -124.086,150.824 -157.41,191.332"
       style="fill:none;stroke:#707070;stroke-width:1;stroke-linecap:butt;stroke-linejoin:miter;stroke-miterlimit:10;stroke-dasharray:none;stroke-opacity:1"
       id="path392"
       sodipodi:nodetypes="cc" /><path
       d="m 526.47205,609.43321 c -30.125,55.089 -131.778,240.988 -163.184,298.425"
       style="fill:none;stroke:#707070;stroke-width:1;stroke-linecap:butt;stroke-linejoin:miter;stroke-miterlimit:10;stroke-dasharray:none;stroke-opacity:1"
       id="path394"
       sodipodi:nodetypes="cc" /><path
       d="m 520.14705,584.66721 c -33.605,-20.981 -115.382,-72.039 -150.136,-93.734"
       style="fill:none;stroke:#707070;stroke-width:1;stroke-linecap:butt;stroke-linejoin:miter;stroke-miterlimit:10;stroke-dasharray:none;stroke-opacity:1"
       id="path396"
       sodipodi:nodetypes="cc" /><path
       d="m 517.60405,593.72221 c -34.066,-0.375 -109.429,-1.211 -144.718,-1.598"
       style="fill:none;stroke:#707070;stroke-width:1;stroke-linecap:butt;stroke-linejoin:miter;stroke-miterlimit:10;stroke-dasharray:none;stroke-opacity:1"
       id="path398"
       sodipodi:nodetypes="cc" /><path
       d="m 520.14705,602.83521 c -33.519,20.183 -114.972,69.238 -149.875,90.254"
       style="fill:none;stroke:#707070;stroke-width:1;stroke-linecap:butt;stroke-linejoin:miter;stroke-miterlimit:10;stroke-dasharray:none;stroke-opacity:1"
       id="path400"
       sodipodi:nodetypes="cc" /><path
       d="m 518.89705,712.76521 c -34.261,21.011 -114.191,70.027 -148.648,91.16"
       style="fill:none;stroke:#707070;stroke-width:1;stroke-linecap:butt;stroke-linejoin:miter;stroke-miterlimit:10;stroke-dasharray:none;stroke-opacity:1"
       id="path402"
       sodipodi:nodetypes="cc" /><path
       d="m 522.80005,717.82321 c -32.973,40.442 -123.824,151.879 -156.735,192.242"
       style="fill:none;stroke:#707070;stroke-width:1;stroke-linecap:butt;stroke-linejoin:miter;stroke-miterlimit:10;stroke-dasharray:none;stroke-opacity:1"
       id="path404"
       sodipodi:nodetypes="cc" /><path
       d="m 522.80005,688.00321 c -32.973,-40.442 -123.824,-151.879 -156.735,-192.242"
       style="fill:none;stroke:#707070;stroke-width:1;stroke-linecap:butt;stroke-linejoin:miter;stroke-miterlimit:10;stroke-dasharray:none;stroke-opacity:1"
       id="path406"
       sodipodi:nodetypes="cc" /><path
       d="m 518.89705,693.06121 c -34.261,-21.011 -114.191,-70.027 -148.648,-91.16"
       style="fill:none;stroke:#707070;stroke-width:1;stroke-linecap:butt;stroke-linejoin:miter;stroke-miterlimit:10;stroke-dasharray:none;stroke-opacity:1"
       id="path408"
       sodipodi:nodetypes="cc" /><path
       d="m 516.26905,702.91321 h -143.45"
       style="fill:none;stroke:#707070;stroke-width:1;stroke-linecap:butt;stroke-linejoin:miter;stroke-miterlimit:10;stroke-dasharray:none;stroke-opacity:1"
       id="path410"
       sodipodi:nodetypes="cc" /><path
       d="m 516.26905,813.91321 h -143.45"
       style="fill:none;stroke:#707070;stroke-width:1;stroke-linecap:butt;stroke-linejoin:miter;stroke-miterlimit:10;stroke-dasharray:none;stroke-opacity:1"
       id="path412"
       sodipodi:nodetypes="cc" /><path
       d="m 518.89705,823.76521 c -34.261,21.011 -114.191,70.027 -148.648,91.16"
       style="fill:none;stroke:#707070;stroke-width:1;stroke-linecap:butt;stroke-linejoin:miter;stroke-miterlimit:10;stroke-dasharray:none;stroke-opacity:1"
       id="path414"
       sodipodi:nodetypes="cc" /><path
       d="m 525.73305,796.94021 c -31.047,-57.121 -131.547,-242.019 -162.566,-299.09"
       style="fill:none;stroke:#707070;stroke-width:1;stroke-linecap:butt;stroke-linejoin:miter;stroke-miterlimit:10;stroke-dasharray:none;stroke-opacity:1"
       id="path416"
       sodipodi:nodetypes="cc" /><path
       d="m 522.80005,799.00321 c -32.973,-40.442 -123.824,-151.879 -156.735,-192.242"
       style="fill:none;stroke:#707070;stroke-width:1;stroke-linecap:butt;stroke-linejoin:miter;stroke-miterlimit:10;stroke-dasharray:none;stroke-opacity:1"
       id="path418"
       sodipodi:nodetypes="cc" /><path
       d="m 518.89705,804.06121 c -34.261,-21.011 -114.191,-70.027 -148.648,-91.16"
       style="fill:none;stroke:#707070;stroke-width:1;stroke-linecap:butt;stroke-linejoin:miter;stroke-miterlimit:10;stroke-dasharray:none;stroke-opacity:1"
       id="path420"
       sodipodi:nodetypes="cc" /><path
       d="m 169.96405,794.41721 c -10.766,0 -19.496,8.726 -19.496,19.496 0,10.77 8.73,19.496 19.496,19.496 10.769,0 19.496,-8.726 19.496,-19.496 0,-10.77 -8.727,-19.496 -19.496,-19.496"
       style="fill:#3498db;fill-opacity:1;fill-rule:nonzero;stroke:#3498db;stroke-width:1;stroke-linecap:butt;stroke-linejoin:miter;stroke-miterlimit:10;stroke-dasharray:none;stroke-opacity:1"
       id="path422"
       sodipodi:nodetypes="csssc" /><path
       d="m 333.27205,813.91321 h -143.449"
       style="fill:none;stroke:#707070;stroke-width:1;stroke-linecap:butt;stroke-linejoin:miter;stroke-miterlimit:10;stroke-dasharray:none;stroke-opacity:1"
       id="path428"
       sodipodi:nodetypes="cc" /><path
       d="m 169.96405,905.41721 c -10.766,0 -19.496,8.726 -19.496,19.496 0,10.77 8.73,19.496 19.496,19.496 10.769,0 19.496,-8.726 19.496,-19.496 0,-10.77 -8.727,-19.496 -19.496,-19.496"
       style="fill:#3498db;fill-opacity:1;fill-rule:nonzero;stroke:#3498db;stroke-width:1;stroke-linecap:butt;stroke-linejoin:miter;stroke-miterlimit:10;stroke-dasharray:none;stroke-opacity:1"
       id="path430"
       sodipodi:nodetypes="csssc" /><path
       d="m 335.89705,823.76521 c -34.257,21.011 -114.187,70.027 -148.644,91.16"
       style="fill:none;stroke:#707070;stroke-width:1;stroke-linecap:butt;stroke-linejoin:miter;stroke-miterlimit:10;stroke-dasharray:none;stroke-opacity:1"
       id="path436"
       sodipodi:nodetypes="cc" /><path
       d="m 169.96405,461.41721 c -10.766,0 -19.496,8.726 -19.496,19.496 0,10.77 8.73,19.496 19.496,19.496 10.769,0 19.496,-8.726 19.496,-19.496 0,-10.77 -8.727,-19.496 -19.496,-19.496"
       style="fill:#3498db;fill-opacity:1;fill-rule:nonzero;stroke:#3498db;stroke-width:1;stroke-linecap:butt;stroke-linejoin:miter;stroke-miterlimit:10;stroke-dasharray:none;stroke-opacity:1"
       id="path438"
       sodipodi:nodetypes="csssc" /><path
       d="m 342.73705,796.94021 c -31.051,-57.121 -131.547,-242.019 -162.566,-299.09"
       style="fill:none;stroke:#707070;stroke-width:1;stroke-linecap:butt;stroke-linejoin:miter;stroke-miterlimit:10;stroke-dasharray:none;stroke-opacity:1"
       id="path444"
       sodipodi:nodetypes="cc" /><path
       d="m 169.96405,572.41721 c -10.766,0 -19.496,8.726 -19.496,19.496 0,10.77 8.73,19.496 19.496,19.496 10.769,0 19.496,-8.726 19.496,-19.496 0,-10.77 -8.727,-19.496 -19.496,-19.496"
       style="fill:#3498db;fill-opacity:1;fill-rule:nonzero;stroke:#3498db;stroke-width:1;stroke-linecap:butt;stroke-linejoin:miter;stroke-miterlimit:10;stroke-dasharray:none;stroke-opacity:1"
       id="path446"
       sodipodi:nodetypes="csssc" /><path
       d="m 339.80405,799.00321 c -32.973,-40.442 -123.825,-151.879 -156.735,-192.242"
       style="fill:none;stroke:#707070;stroke-width:1;stroke-linecap:butt;stroke-linejoin:miter;stroke-miterlimit:10;stroke-dasharray:none;stroke-opacity:1"
       id="path452"
       sodipodi:nodetypes="cc" /><path
       d="m 169.96405,683.41721 c -10.766,0 -19.496,8.726 -19.496,19.496 0,10.77 8.73,19.496 19.496,19.496 10.769,0 19.496,-8.726 19.496,-19.496 0,-10.77 -8.727,-19.496 -19.496,-19.496"
       style="fill:#3498db;fill-opacity:1;fill-rule:nonzero;stroke:#3498db;stroke-width:1;stroke-linecap:butt;stroke-linejoin:miter;stroke-miterlimit:10;stroke-dasharray:none;stroke-opacity:1"
       id="path454"
       sodipodi:nodetypes="csssc" /><path
       d="m 335.89705,804.06121 c -34.257,-21.011 -114.187,-70.027 -148.644,-91.16"
       style="fill:none;stroke:#707070;stroke-width:1;stroke-linecap:butt;stroke-linejoin:miter;stroke-miterlimit:10;stroke-dasharray:none;stroke-opacity:1"
       id="path460"
       sodipodi:nodetypes="cc" /><path
       d="m 335.89705,915.06121 c -34.257,-21.011 -114.187,-70.027 -148.644,-91.16"
       style="fill:none;stroke:#707070;stroke-width:1;stroke-linecap:butt;stroke-linejoin:miter;stroke-miterlimit:10;stroke-dasharray:none;stroke-opacity:1"
       id="path462"
       sodipodi:nodetypes="cc" /><path
       d="m 333.27205,924.91321 h -143.449"
       style="fill:none;stroke:#707070;stroke-width:1;stroke-linecap:butt;stroke-linejoin:miter;stroke-miterlimit:10;stroke-dasharray:none;stroke-opacity:1"
       id="path464"
       sodipodi:nodetypes="cc" /><path
       d="m 344.64405,906.95621 c -29.235,-71.707 -137.43,-337.117 -166.465,-408.352"
       style="fill:none;stroke:#707070;stroke-width:1;stroke-linecap:butt;stroke-linejoin:miter;stroke-miterlimit:10;stroke-dasharray:none;stroke-opacity:1"
       id="path466"
       sodipodi:nodetypes="cc" /><path
       d="m 342.73705,907.94021 c -31.051,-57.121 -131.547,-242.019 -162.566,-299.09"
       style="fill:none;stroke:#707070;stroke-width:1;stroke-linecap:butt;stroke-linejoin:miter;stroke-miterlimit:10;stroke-dasharray:none;stroke-opacity:1"
       id="path468"
       sodipodi:nodetypes="cc" /><path
       d="m 339.80405,910.00321 c -32.973,-40.442 -123.825,-151.879 -156.735,-192.242"
       style="fill:none;stroke:#707070;stroke-width:1;stroke-linecap:butt;stroke-linejoin:miter;stroke-miterlimit:10;stroke-dasharray:none;stroke-opacity:1"
       id="path470"
       sodipodi:nodetypes="cc" /><path
       d="m 342.73705,497.88621 c -31.051,57.121 -131.547,242.019 -162.566,299.089"
       style="fill:none;stroke:#707070;stroke-width:1;stroke-linecap:butt;stroke-linejoin:miter;stroke-miterlimit:10;stroke-dasharray:none;stroke-opacity:1"
       id="path472"
       sodipodi:nodetypes="cc" /><path
       d="m 344.64405,498.87021 c -29.235,71.707 -137.43,337.117 -166.465,408.352"
       style="fill:none;stroke:#707070;stroke-width:1;stroke-linecap:butt;stroke-linejoin:miter;stroke-miterlimit:10;stroke-dasharray:none;stroke-opacity:1"
       id="path474"
       sodipodi:nodetypes="cc" /><path
       d="m 333.27205,480.91321 h -143.449"
       style="fill:none;stroke:#707070;stroke-width:1;stroke-linecap:butt;stroke-linejoin:miter;stroke-miterlimit:10;stroke-dasharray:none;stroke-opacity:1"
       id="path476"
       sodipodi:nodetypes="cc" /><path
       d="m 335.89705,490.76521 c -34.257,21.011 -114.187,70.027 -148.644,91.16"
       style="fill:none;stroke:#707070;stroke-width:1;stroke-linecap:butt;stroke-linejoin:miter;stroke-miterlimit:10;stroke-dasharray:none;stroke-opacity:1"
       id="path478"
       sodipodi:nodetypes="cc" /><path
       d="m 339.80405,495.82321 c -32.973,40.442 -123.825,151.879 -156.735,192.242"
       style="fill:none;stroke:#707070;stroke-width:1;stroke-linecap:butt;stroke-linejoin:miter;stroke-miterlimit:10;stroke-dasharray:none;stroke-opacity:1"
       id="path480"
       sodipodi:nodetypes="cc" /><path
       d="m 339.80405,606.82321 c -32.973,40.442 -123.825,151.879 -156.735,192.242"
       style="fill:none;stroke:#707070;stroke-width:1;stroke-linecap:butt;stroke-linejoin:miter;stroke-miterlimit:10;stroke-dasharray:none;stroke-opacity:1"
       id="path482"
       sodipodi:nodetypes="cc" /><path
       d="m 342.73705,608.88621 c -31.051,57.121 -131.547,242.019 -162.566,299.089"
       style="fill:none;stroke:#707070;stroke-width:1;stroke-linecap:butt;stroke-linejoin:miter;stroke-miterlimit:10;stroke-dasharray:none;stroke-opacity:1"
       id="path484"
       sodipodi:nodetypes="cc" /><path
       d="m 335.89705,582.06121 c -34.257,-21.011 -114.187,-70.027 -148.644,-91.16"
       style="fill:none;stroke:#707070;stroke-width:1;stroke-linecap:butt;stroke-linejoin:miter;stroke-miterlimit:10;stroke-dasharray:none;stroke-opacity:1"
       id="path486"
       sodipodi:nodetypes="cc" /><path
       d="m 333.27205,591.91321 h -143.449"
       style="fill:none;stroke:#707070;stroke-width:1;stroke-linecap:butt;stroke-linejoin:miter;stroke-miterlimit:10;stroke-dasharray:none;stroke-opacity:1"
       id="path488"
       sodipodi:nodetypes="cc" /><path
       d="m 335.89705,601.76521 c -34.257,21.011 -114.187,70.027 -148.644,91.16"
       style="fill:none;stroke:#707070;stroke-width:1;stroke-linecap:butt;stroke-linejoin:miter;stroke-miterlimit:10;stroke-dasharray:none;stroke-opacity:1"
       id="path490"
       sodipodi:nodetypes="cc" /><path
       d="m 335.89705,712.76521 c -34.257,21.011 -114.187,70.027 -148.644,91.16"
       style="fill:none;stroke:#707070;stroke-width:1;stroke-linecap:butt;stroke-linejoin:miter;stroke-miterlimit:10;stroke-dasharray:none;stroke-opacity:1"
       id="path492"
       sodipodi:nodetypes="cc" /><path
       d="m 339.80405,717.82321 c -32.973,40.442 -123.825,151.879 -156.735,192.242"
       style="fill:none;stroke:#707070;stroke-width:1;stroke-linecap:butt;stroke-linejoin:miter;stroke-miterlimit:10;stroke-dasharray:none;stroke-opacity:1"
       id="path494"
       sodipodi:nodetypes="cc" /><path
       d="m 339.80405,688.00321 c -32.973,-40.442 -123.825,-151.879 -156.735,-192.242"
       style="fill:none;stroke:#707070;stroke-width:1;stroke-linecap:butt;stroke-linejoin:miter;stroke-miterlimit:10;stroke-dasharray:none;stroke-opacity:1"
       id="path496"
       sodipodi:nodetypes="cc" /><path
       d="m 335.89705,693.06121 c -34.257,-21.011 -114.187,-70.027 -148.644,-91.16"
       style="fill:none;stroke:#707070;stroke-width:1;stroke-linecap:butt;stroke-linejoin:miter;stroke-miterlimit:10;stroke-dasharray:none;stroke-opacity:1"
       id="path498"
       sodipodi:nodetypes="cc" /><path
       d="m 333.27205,702.91321 h -143.449"
       style="fill:none;stroke:#707070;stroke-width:1;stroke-linecap:butt;stroke-linejoin:miter;stroke-miterlimit:10;stroke-dasharray:none;stroke-opacity:1"
       id="path500"
       sodipodi:nodetypes="cc" /><path
       d="m -13.03195,683.41721 c -10.766,0 -19.496,8.726 -19.496,19.496 0,10.77 8.73,19.496 19.496,19.496 10.769,0 19.496,-8.726 19.496,-19.496 0,-10.77 -8.727,-19.496 -19.496,-19.496"
       style="fill:#e74c3c;fill-opacity:1;fill-rule:nonzero;stroke:#e74c3c;stroke-width:1;stroke-linecap:butt;stroke-linejoin:miter;stroke-miterlimit:10;stroke-dasharray:none;stroke-opacity:1"
       id="path502"
       sodipodi:nodetypes="csssc" /><path
       d="m 152.90105,804.06121 c -34.257,-21.011 -114.187,-70.027 -148.648,-91.16"
       style="fill:none;stroke:#707070;stroke-width:1;stroke-linecap:butt;stroke-linejoin:miter;stroke-miterlimit:10;stroke-dasharray:none;stroke-opacity:1"
       id="path508"
       sodipodi:nodetypes="cc" /><path
       d="m 156.80805,910.00321 c -32.973,-40.442 -123.825,-151.879 -156.735,-192.242"
       style="fill:none;stroke:#707070;stroke-width:1;stroke-linecap:butt;stroke-linejoin:miter;stroke-miterlimit:10;stroke-dasharray:none;stroke-opacity:1"
       id="path510"
       sodipodi:nodetypes="cc" /><path
       d="m 156.80805,495.82321 c -32.973,40.442 -123.825,151.879 -156.735,192.242"
       style="fill:none;stroke:#707070;stroke-width:1;stroke-linecap:butt;stroke-linejoin:miter;stroke-miterlimit:10;stroke-dasharray:none;stroke-opacity:1"
       id="path512"
       sodipodi:nodetypes="cc" /><path
       d="m 152.90105,601.76521 c -34.257,21.011 -114.187,70.027 -148.648,91.16"
       style="fill:none;stroke:#707070;stroke-width:1;stroke-linecap:butt;stroke-linejoin:miter;stroke-miterlimit:10;stroke-dasharray:none;stroke-opacity:1"
       id="path514"
       sodipodi:nodetypes="cc" /><path
       d="M 150.27605,702.91321 H 6.82705"
       style="fill:none;stroke:#707070;stroke-width:1;stroke-linecap:butt;stroke-linejoin:miter;stroke-miterlimit:10;stroke-dasharray:none;stroke-opacity:1"
       id="path516"
       sodipodi:nodetypes="cc" /></g></svg>
