<?xml version="1.0" encoding="UTF-8" standalone="no"?>
<!-- Created with Inkscape (http://www.inkscape.org/) -->

<svg
   width="250mm"
   height="230mm"
   viewBox="0 0 250 230"
   version="1.1"
   id="svg5"
   xml:space="preserve"
   inkscape:version="1.2.1 (9c6d41e410, 2022-07-14)"
   sodipodi:docname="rnn.svg"
   xmlns:inkscape="http://www.inkscape.org/namespaces/inkscape"
   xmlns:sodipodi="http://sodipodi.sourceforge.net/DTD/sodipodi-0.dtd"
   xmlns="http://www.w3.org/2000/svg"
   xmlns:svg="http://www.w3.org/2000/svg"><sodipodi:namedview
     id="namedview7"
     pagecolor="#ffffff"
     bordercolor="#000000"
     borderopacity="0.25"
     inkscape:showpageshadow="2"
     inkscape:pageopacity="0.0"
     inkscape:pagecheckerboard="0"
     inkscape:deskcolor="#d1d1d1"
     inkscape:document-units="mm"
     showgrid="false"
     inkscape:zoom="0.7071068"
     inkscape:cx="753.0687"
     inkscape:cy="376.8879"
     inkscape:window-width="1920"
     inkscape:window-height="991"
     inkscape:window-x="4791"
     inkscape:window-y="-9"
     inkscape:window-maximized="1"
     inkscape:current-layer="layer1" /><defs
     id="defs2"><inkscape:path-effect
       effect="skeletal"
       id="path-effect429"
       is_visible="true"
       lpeversion="1"
       pattern="M 0,4.9921385 C 0,2.2364781 2.2364781,0 4.9921385,0 7.747799,0 9.984277,2.2364781 9.984277,4.9921385 9.984277,7.747799 7.747799,9.984277 4.9921385,9.984277 2.2364781,9.984277 0,7.747799 0,4.9921385 Z"
       copytype="single_stretched"
       prop_scale="1"
       scale_y_rel="false"
       spacing="0"
       normal_offset="0"
       tang_offset="0"
       prop_units="false"
       vertical_pattern="false"
       hide_knot="false"
       fuse_tolerance="0" /><inkscape:path-effect
       effect="spiro"
       id="path-effect423"
       is_visible="true"
       lpeversion="1" /><inkscape:path-effect
       effect="spiro"
       id="path-effect419"
       is_visible="true"
       lpeversion="1" /><inkscape:path-effect
       effect="powerstroke"
       id="path-effect413"
       is_visible="true"
       lpeversion="1"
       offset_points="0,4.9921385"
       not_jump="false"
       sort_points="true"
       interpolator_type="CubicBezierJohan"
       interpolator_beta="0.2"
       start_linecap_type="zerowidth"
       linejoin_type="extrp_arc"
       miter_limit="4"
       scale_width="1"
       end_linecap_type="zerowidth" /></defs><g
     inkscape:label="Layer 1"
     inkscape:groupmode="layer"
     id="layer1"><g
       id="g3039"
       transform="matrix(1.4682178,0,0,1.4682178,-40.502839,-12.441842)"><path
         style="fill:#000000;fill-opacity:1;stroke:#707070;stroke-width:3.95694;stroke-linecap:round;stroke-linejoin:round;stroke-dasharray:none;stroke-opacity:1"
         d="m 154.93054,40.952583 22.99511,-0.23014"
         id="path2785" /><path
         style="fill:#000000;fill-opacity:1;stroke:#707070;stroke-width:3.95694;stroke-linecap:round;stroke-linejoin:round;stroke-dasharray:none;stroke-opacity:1"
         d="m 156.77744,52.695251 22.99511,-0.23014"
         id="path2785-7" /></g><g
       id="g2456"
       transform="matrix(1.4682178,0,0,1.4682178,-40.502839,-12.441842)"><path
         d="m 57.107868,18.211057 c 9.227887,2.476855 31.397873,8.428583 40.969429,10.998057"
         style="fill:none;stroke:#707070;stroke-width:1.5;stroke-linecap:butt;stroke-linejoin:miter;stroke-miterlimit:10;stroke-dasharray:none;stroke-opacity:1"
         id="path7906-8"
         sodipodi:nodetypes="cc" /><path
         d="m 57.107868,29.73927 c 9.227887,2.476854 31.397873,8.428583 40.969429,10.998056"
         style="fill:none;stroke:#707070;stroke-width:1.5;stroke-linecap:butt;stroke-linejoin:miter;stroke-miterlimit:10;stroke-dasharray:none;stroke-opacity:1"
         id="path7906-8-8"
         sodipodi:nodetypes="cc" /><path
         d="m 57.107868,41.267479 c 9.227887,2.476854 31.397873,8.428583 40.969429,10.998056"
         style="fill:none;stroke:#707070;stroke-width:1.5;stroke-linecap:butt;stroke-linejoin:miter;stroke-miterlimit:10;stroke-dasharray:none;stroke-opacity:1"
         id="path7906-8-89"
         sodipodi:nodetypes="cc" /><path
         d="m 57.107868,52.795691 c 9.227887,2.476854 31.397873,8.428583 40.969429,10.998056"
         style="fill:none;stroke:#707070;stroke-width:1.5;stroke-linecap:butt;stroke-linejoin:miter;stroke-miterlimit:10;stroke-dasharray:none;stroke-opacity:1"
         id="path7906-8-1"
         sodipodi:nodetypes="cc" /><path
         d="m 55.620229,84.429049 c 9.879944,-1.894885 33.616493,-6.448185 43.864391,-8.41393"
         style="fill:none;stroke:#707070;stroke-width:1.5;stroke-linecap:butt;stroke-linejoin:miter;stroke-miterlimit:10;stroke-dasharray:none;stroke-opacity:1"
         id="path7906-8-1-6"
         sodipodi:nodetypes="cc" /><path
         d="M 55.620229,96.088491 C 65.500174,94.193605 89.236723,89.640302 99.48462,87.67456"
         style="fill:none;stroke:#707070;stroke-width:1.5;stroke-linecap:butt;stroke-linejoin:miter;stroke-miterlimit:10;stroke-dasharray:none;stroke-opacity:1"
         id="path7906-8-1-6-4"
         sodipodi:nodetypes="cc" /><path
         d="m 55.620229,107.74793 c 9.879945,-1.89489 33.616494,-6.44819 43.864391,-8.413931"
         style="fill:none;stroke:#707070;stroke-width:1.5;stroke-linecap:butt;stroke-linejoin:miter;stroke-miterlimit:10;stroke-dasharray:none;stroke-opacity:1"
         id="path7906-8-1-6-8"
         sodipodi:nodetypes="cc" /><path
         d="m 55.620229,119.40737 c 9.879944,-1.89489 33.616493,-6.44819 43.864391,-8.41393"
         style="fill:none;stroke:#707070;stroke-width:1.5;stroke-linecap:butt;stroke-linejoin:miter;stroke-miterlimit:10;stroke-dasharray:none;stroke-opacity:1"
         id="path7906-8-1-6-44"
         sodipodi:nodetypes="cc" /><path
         d="m 55.620229,131.06681 c 9.879944,-1.89488 33.616493,-6.44818 43.864391,-8.41393"
         style="fill:none;stroke:#707070;stroke-width:1.5;stroke-linecap:butt;stroke-linejoin:miter;stroke-miterlimit:10;stroke-dasharray:none;stroke-opacity:1"
         id="path7906-8-1-6-81"
         sodipodi:nodetypes="cc" /><path
         d="m 55.620229,142.72625 c 9.879945,-1.89488 33.616494,-6.44818 43.864391,-8.41393"
         style="fill:none;stroke:#707070;stroke-width:1.5;stroke-linecap:butt;stroke-linejoin:miter;stroke-miterlimit:10;stroke-dasharray:none;stroke-opacity:1"
         id="path7906-8-1-6-82"
         sodipodi:nodetypes="cc" /></g><g
       id="g2626"
       transform="matrix(1.4682178,0,0,1.4682178,-40.502839,-12.441842)"><path
         d="m 103.99351,77.017534 c 9.87443,2.275253 33.86986,7.804392 44.15201,10.173465"
         style="fill:none;stroke:#707070;stroke-width:0.181393;stroke-linecap:butt;stroke-linejoin:miter;stroke-miterlimit:10;stroke-dasharray:none;stroke-opacity:1"
         id="path7724" /><path
         d="m 102.88525,77.519249 c 9.42931,4.364652 36.70885,16.993638 46.50758,21.529733"
         style="fill:none;stroke:#707070;stroke-width:0.181393;stroke-linecap:butt;stroke-linejoin:miter;stroke-miterlimit:10;stroke-dasharray:none;stroke-opacity:1"
         id="path7732" /><path
         d="m 102.13021,77.750896 c 8.87459,6.171363 38.82078,26.997334 48.07275,33.432284"
         style="fill:none;stroke:#707070;stroke-width:0.181393;stroke-linecap:butt;stroke-linejoin:miter;stroke-miterlimit:10;stroke-dasharray:none;stroke-opacity:1"
         id="path7740" /><path
         d="m 101.62292,77.861805 c 8.3567,7.754132 40.53737,37.616665 49.18071,45.636955"
         style="fill:none;stroke:#707070;stroke-width:0.181393;stroke-linecap:butt;stroke-linejoin:miter;stroke-miterlimit:10;stroke-dasharray:none;stroke-opacity:1"
         id="path7748" /><path
         d="m 102.13021,74.26324 c 8.89551,-6.222849 38.95865,-27.257344 48.13726,-33.678669"
         style="fill:none;stroke:#707070;stroke-width:0.181393;stroke-linecap:butt;stroke-linejoin:miter;stroke-miterlimit:10;stroke-dasharray:none;stroke-opacity:1"
         id="path7756" /><path
         d="m 102.88525,74.491872 c 9.42931,-4.404413 36.70885,-17.147659 46.50758,-21.724745"
         style="fill:none;stroke:#707070;stroke-width:0.181393;stroke-linecap:butt;stroke-linejoin:miter;stroke-miterlimit:10;stroke-dasharray:none;stroke-opacity:1"
         id="path7764" /><path
         d="m 103.99351,74.988785 c 9.89977,-2.322387 33.99065,-7.974608 44.2289,-10.376741"
         style="fill:none;stroke:#707070;stroke-width:0.181393;stroke-linecap:butt;stroke-linejoin:miter;stroke-miterlimit:10;stroke-dasharray:none;stroke-opacity:1"
         id="path7772" /><path
         d="m 104.74265,76.001372 c 10.03558,-0.0209 32.23694,-0.06713 42.63281,-0.08902"
         style="fill:none;stroke:#707070;stroke-width:0.181393;stroke-linecap:butt;stroke-linejoin:miter;stroke-miterlimit:10;stroke-dasharray:none;stroke-opacity:1"
         id="path7780" /><path
         d="m 104.74265,88.096251 c 10.03558,0.04189 32.23694,0.13526 42.63281,0.178482"
         style="fill:none;stroke:#707070;stroke-width:0.181393;stroke-linecap:butt;stroke-linejoin:miter;stroke-miterlimit:10;stroke-dasharray:none;stroke-opacity:1"
         id="path7788" /><path
         d="m 103.99351,89.107613 c 9.89977,2.343384 33.99065,8.046091 44.2289,10.469221"
         style="fill:none;stroke:#707070;stroke-width:0.181393;stroke-linecap:butt;stroke-linejoin:miter;stroke-miterlimit:10;stroke-dasharray:none;stroke-opacity:1"
         id="path7790" /><path
         d="m 102.88525,89.602402 c 9.42931,4.42396 36.70885,17.224388 46.50758,21.822028"
         style="fill:none;stroke:#707070;stroke-width:0.181393;stroke-linecap:butt;stroke-linejoin:miter;stroke-miterlimit:10;stroke-dasharray:none;stroke-opacity:1"
         id="path7792" /><path
         d="m 102.13021,89.829245 c 8.89551,6.241614 38.95865,27.338885 48.13726,33.779525"
         style="fill:none;stroke:#707070;stroke-width:0.181393;stroke-linecap:butt;stroke-linejoin:miter;stroke-miterlimit:10;stroke-dasharray:none;stroke-opacity:1"
         id="path7794" /><path
         d="m 101.62292,86.229787 c 8.3567,-7.736706 40.53737,-37.531556 49.18071,-45.533974"
         style="fill:none;stroke:#707070;stroke-width:0.181393;stroke-linecap:butt;stroke-linejoin:miter;stroke-miterlimit:10;stroke-dasharray:none;stroke-opacity:1"
         id="path7796" /><path
         d="m 102.13021,86.341478 c 8.87459,-6.15293 38.82078,-26.916131 48.07275,-33.331313"
         style="fill:none;stroke:#707070;stroke-width:0.181393;stroke-linecap:butt;stroke-linejoin:miter;stroke-miterlimit:10;stroke-dasharray:none;stroke-opacity:1"
         id="path7798" /><path
         d="m 102.96567,86.537833 c 9.4847,-4.370797 36.55478,-16.845648 46.37178,-21.370016"
         style="fill:none;stroke:#707070;stroke-width:0.181393;stroke-linecap:butt;stroke-linejoin:miter;stroke-miterlimit:10;stroke-dasharray:none;stroke-opacity:1"
         id="path7800" /><path
         d="m 103.99351,87.078415 c 9.87443,-2.254254 33.86986,-7.733245 44.15201,-10.080539"
         style="fill:none;stroke:#707070;stroke-width:0.181393;stroke-linecap:butt;stroke-linejoin:miter;stroke-miterlimit:10;stroke-dasharray:none;stroke-opacity:1"
         id="path7802" /><path
         d="m 104.08424,99.1485 c 9.91156,-2.200756 33.72404,-7.48775 44.00473,-9.770821"
         style="fill:none;stroke:#707070;stroke-width:0.181393;stroke-linecap:butt;stroke-linejoin:miter;stroke-miterlimit:10;stroke-dasharray:none;stroke-opacity:1"
         id="path7810" /><path
         d="m 104.74265,100.19113 c 10.03558,0.10521 32.23694,0.33776 42.63281,0.44643"
         style="fill:none;stroke:#707070;stroke-width:0.181393;stroke-linecap:butt;stroke-linejoin:miter;stroke-miterlimit:10;stroke-dasharray:none;stroke-opacity:1"
         id="path7812" /><path
         d="m 103.99351,101.19769 c 9.89977,2.40526 33.99065,8.25942 44.2289,10.74722"
         style="fill:none;stroke:#707070;stroke-width:0.181393;stroke-linecap:butt;stroke-linejoin:miter;stroke-miterlimit:10;stroke-dasharray:none;stroke-opacity:1"
         id="path7814" /><path
         d="m 102.88525,101.68544 c 9.45111,4.49388 36.84024,17.51714 46.57769,22.1475"
         style="fill:none;stroke:#707070;stroke-width:0.181393;stroke-linecap:butt;stroke-linejoin:miter;stroke-miterlimit:10;stroke-dasharray:none;stroke-opacity:1"
         id="path7816" /><path
         d="m 101.28443,98.231743 c 7.89302,-9.093191 41.67568,-48.014738 49.87006,-57.455288"
         style="fill:none;stroke:#707070;stroke-width:0.181393;stroke-linecap:butt;stroke-linejoin:miter;stroke-miterlimit:10;stroke-dasharray:none;stroke-opacity:1"
         id="path7818" /><path
         d="m 101.65503,98.275412 c 8.40855,-7.731903 40.52706,-37.268075 49.15332,-45.199796"
         style="fill:none;stroke:#707070;stroke-width:0.181393;stroke-linecap:butt;stroke-linejoin:miter;stroke-miterlimit:10;stroke-dasharray:none;stroke-opacity:1"
         id="path7820" /><path
         d="m 102.13021,98.419828 c 8.87459,-6.097196 38.82078,-26.671862 48.07275,-33.029524"
         style="fill:none;stroke:#707070;stroke-width:0.181393;stroke-linecap:butt;stroke-linejoin:miter;stroke-miterlimit:10;stroke-dasharray:none;stroke-opacity:1"
         id="path7822" /><path
         d="m 102.96567,98.621431 c 9.4847,-4.31104 36.55478,-16.615787 46.37178,-21.078614"
         style="fill:none;stroke:#707070;stroke-width:0.181393;stroke-linecap:butt;stroke-linejoin:miter;stroke-miterlimit:10;stroke-dasharray:none;stroke-opacity:1"
         id="path7824" /><path
         d="m 102.96567,110.70492 c 9.4847,-4.25162 36.55478,-16.386263 46.37178,-20.787102"
         style="fill:none;stroke:#707070;stroke-width:0.181393;stroke-linecap:butt;stroke-linejoin:miter;stroke-miterlimit:10;stroke-dasharray:none;stroke-opacity:1"
         id="path7832" /><path
         d="m 104.08424,111.23902 c 9.91156,-2.13832 33.72404,-7.27609 44.00473,-9.49416"
         style="fill:none;stroke:#707070;stroke-width:0.181393;stroke-linecap:butt;stroke-linejoin:miter;stroke-miterlimit:10;stroke-dasharray:none;stroke-opacity:1"
         id="path7834" /><path
         d="m 104.74265,112.28568 c 10.03558,0.16832 32.23694,0.54047 42.63281,0.71459"
         style="fill:none;stroke:#707070;stroke-width:0.181393;stroke-linecap:butt;stroke-linejoin:miter;stroke-miterlimit:10;stroke-dasharray:none;stroke-opacity:1"
         id="path7836" /><path
         d="m 103.90365,113.26554 c 9.86089,2.45764 34.13824,8.50949 44.37533,11.06129"
         style="fill:none;stroke:#707070;stroke-width:0.181393;stroke-linecap:butt;stroke-linejoin:miter;stroke-miterlimit:10;stroke-dasharray:none;stroke-opacity:1"
         id="path7838" /><path
         d="M 101.02902,110.27212 C 108.49753,99.978696 143.62058,51.567345 151.4158,40.823141"
         style="fill:none;stroke:#707070;stroke-width:0.181393;stroke-linecap:butt;stroke-linejoin:miter;stroke-miterlimit:10;stroke-dasharray:none;stroke-opacity:1"
         id="path7840" /><path
         d="m 101.28443,110.30484 c 7.89302,-9.04349 41.67568,-47.752597 49.87006,-57.141993"
         style="fill:none;stroke:#707070;stroke-width:0.181393;stroke-linecap:butt;stroke-linejoin:miter;stroke-miterlimit:10;stroke-dasharray:none;stroke-opacity:1"
         id="path7842" /><path
         d="m 101.65503,110.35064 c 8.38911,-7.66166 40.38212,-36.880625 49.09351,-44.836807"
         style="fill:none;stroke:#707070;stroke-width:0.181393;stroke-linecap:butt;stroke-linejoin:miter;stroke-miterlimit:10;stroke-dasharray:none;stroke-opacity:1"
         id="path7844" /><path
         d="m 102.20179,110.44926 c 8.96651,-6.10368 38.79869,-26.413078 48.01384,-32.686523"
         style="fill:none;stroke:#707070;stroke-width:0.181393;stroke-linecap:butt;stroke-linejoin:miter;stroke-miterlimit:10;stroke-dasharray:none;stroke-opacity:1"
         id="path7846" /><path
         d="m 102.20179,122.52805 c 8.94589,-6.03353 38.66053,-26.076323 47.94932,-32.341505"
         style="fill:none;stroke:#707070;stroke-width:0.181393;stroke-linecap:butt;stroke-linejoin:miter;stroke-miterlimit:10;stroke-dasharray:none;stroke-opacity:1"
         id="path7854" /><path
         d="m 103.04757,122.75267 c 9.5386,-4.21588 36.39924,-16.08828 46.23479,-20.43539"
         style="fill:none;stroke:#707070;stroke-width:0.181393;stroke-linecap:butt;stroke-linejoin:miter;stroke-miterlimit:10;stroke-dasharray:none;stroke-opacity:1"
         id="path7856" /><path
         d="m 104.08424,123.32955 c 9.91156,-2.07589 33.72404,-7.06411 44.00473,-9.21762"
         style="fill:none;stroke:#707070;stroke-width:0.181393;stroke-linecap:butt;stroke-linejoin:miter;stroke-miterlimit:10;stroke-dasharray:none;stroke-opacity:1"
         id="path7858" /><path
         d="m 104.74265,124.38056 c 10.03558,0.2312 32.23694,0.74296 42.63281,0.98254"
         style="fill:none;stroke:#707070;stroke-width:0.181393;stroke-linecap:butt;stroke-linejoin:miter;stroke-miterlimit:10;stroke-dasharray:none;stroke-opacity:1"
         id="path7860" /><path
         d="m 100.84372,122.31506 c 7.11529,-11.4168 43.35103,-69.557539 50.77593,-81.472261"
         style="fill:none;stroke:#707070;stroke-width:0.181393;stroke-linecap:butt;stroke-linejoin:miter;stroke-miterlimit:10;stroke-dasharray:none;stroke-opacity:1"
         id="path7862" /><path
         d="m 101.05671,122.3059 c 7.52713,-10.32737 42.58362,-58.425989 50.36262,-69.099048"
         style="fill:none;stroke:#707070;stroke-width:0.181393;stroke-linecap:butt;stroke-linejoin:miter;stroke-miterlimit:10;stroke-dasharray:none;stroke-opacity:1"
         id="path7864" /><path
         d="m 101.31448,122.34388 c 7.93897,-9.04695 41.59142,-47.394857 49.81703,-56.767723"
         style="fill:none;stroke:#707070;stroke-width:0.181393;stroke-linecap:butt;stroke-linejoin:miter;stroke-miterlimit:10;stroke-dasharray:none;stroke-opacity:1"
         id="path7866" /><path
         d="m 101.65503,122.42597 c 8.38911,-7.60893 40.38212,-36.626748 49.09351,-44.528423"
         style="fill:none;stroke:#707070;stroke-width:0.181393;stroke-linecap:butt;stroke-linejoin:miter;stroke-miterlimit:10;stroke-dasharray:none;stroke-opacity:1"
         id="path7868" /><path
         d="m 101.68832,134.47193 c 8.43978,-7.60234 40.37181,-36.364052 49.06464,-44.19458"
         style="fill:none;stroke:#707070;stroke-width:0.181393;stroke-linecap:butt;stroke-linejoin:miter;stroke-miterlimit:10;stroke-dasharray:none;stroke-opacity:1"
         id="path7876" /><path
         d="m 102.20179,134.60674 c 8.94589,-5.97713 38.66053,-25.83329 47.94932,-32.03995"
         style="fill:none;stroke:#707070;stroke-width:0.181393;stroke-linecap:butt;stroke-linejoin:miter;stroke-miterlimit:10;stroke-dasharray:none;stroke-opacity:1"
         id="path7878" /><path
         d="m 103.04757,134.83671 c 9.5386,-4.15612 36.39924,-15.85964 46.23479,-20.14488"
         style="fill:none;stroke:#707070;stroke-width:0.181393;stroke-linecap:butt;stroke-linejoin:miter;stroke-miterlimit:10;stroke-dasharray:none;stroke-opacity:1"
         id="path7880" /><path
         d="m 104.17645,135.40164 c 9.94808,-2.02127 33.57645,-6.82229 43.85625,-8.9108"
         style="fill:none;stroke:#707070;stroke-width:0.181393;stroke-linecap:butt;stroke-linejoin:miter;stroke-miterlimit:10;stroke-dasharray:none;stroke-opacity:1"
         id="path7882" /><path
         d="m 100.71941,134.33109 c 6.8528,-12.54567 43.94491,-80.453646 51.05314,-93.466847"
         style="fill:none;stroke:#707070;stroke-width:0.181393;stroke-linecap:butt;stroke-linejoin:miter;stroke-miterlimit:10;stroke-dasharray:none;stroke-opacity:1"
         id="path7884" /><path
         d="m 100.87024,134.34415 c 7.17715,-11.47097 43.34189,-69.272723 50.75265,-81.116298"
         style="fill:none;stroke:#707070;stroke-width:0.181393;stroke-linecap:butt;stroke-linejoin:miter;stroke-miterlimit:10;stroke-dasharray:none;stroke-opacity:1"
         id="path7886" /><path
         d="m 101.05671,134.37766 c 7.52713,-10.28024 42.58362,-58.15849 50.36262,-68.782738"
         style="fill:none;stroke:#707070;stroke-width:0.181393;stroke-linecap:butt;stroke-linejoin:miter;stroke-miterlimit:10;stroke-dasharray:none;stroke-opacity:1"
         id="path7888" /><path
         d="m 101.31448,134.41698 c 7.93897,-8.99725 41.59142,-47.133501 49.81703,-56.454428"
         style="fill:none;stroke:#707070;stroke-width:0.181393;stroke-linecap:butt;stroke-linejoin:miter;stroke-miterlimit:10;stroke-dasharray:none;stroke-opacity:1"
         id="path7890" /><path
         d="m 101.31448,29.457378 c 7.93897,9.046951 41.59142,47.394854 49.81703,56.767606"
         style="fill:none;stroke:#707070;stroke-width:0.181393;stroke-linecap:butt;stroke-linejoin:miter;stroke-miterlimit:10;stroke-dasharray:none;stroke-opacity:1"
         id="path7898" /><path
         d="m 101.05671,29.495352 c 7.52713,10.327375 42.58362,58.425992 50.36262,69.099051"
         style="fill:none;stroke:#707070;stroke-width:0.181393;stroke-linecap:butt;stroke-linejoin:miter;stroke-miterlimit:10;stroke-dasharray:none;stroke-opacity:1"
         id="path7900" /><path
         d="m 100.84372,29.486082 c 7.11529,11.416916 43.35103,69.557651 50.77593,81.472378"
         style="fill:none;stroke:#707070;stroke-width:0.181393;stroke-linecap:butt;stroke-linejoin:miter;stroke-miterlimit:10;stroke-dasharray:none;stroke-opacity:1"
         id="path7902" /><path
         d="m 100.69525,29.495352 c 6.79654,12.48401 44.03241,80.890688 51.09791,93.869488"
         style="fill:none;stroke:#707070;stroke-width:0.181393;stroke-linecap:butt;stroke-linejoin:miter;stroke-miterlimit:10;stroke-dasharray:none;stroke-opacity:1"
         id="path7904" /><path
         d="m 104.08424,28.471706 c 9.91156,2.075885 33.72404,7.064106 44.00473,9.217616"
         style="fill:none;stroke:#707070;stroke-width:0.181393;stroke-linecap:butt;stroke-linejoin:miter;stroke-miterlimit:10;stroke-dasharray:none;stroke-opacity:1"
         id="path7906"
         sodipodi:nodetypes="cc" /><path
         d="m 103.04757,29.048589 c 9.5386,4.215879 36.39924,16.088161 46.23479,20.435389"
         style="fill:none;stroke:#707070;stroke-width:0.181393;stroke-linecap:butt;stroke-linejoin:miter;stroke-miterlimit:10;stroke-dasharray:none;stroke-opacity:1"
         id="path7908" /><path
         d="m 102.20179,29.273201 c 8.94589,6.033532 38.66053,26.076326 47.94932,32.341509"
         style="fill:none;stroke:#707070;stroke-width:0.181393;stroke-linecap:butt;stroke-linejoin:miter;stroke-miterlimit:10;stroke-dasharray:none;stroke-opacity:1"
         id="path7910" /><path
         d="m 101.65503,29.375286 c 8.38911,7.608931 40.38212,36.626747 49.09351,44.528422"
         style="fill:none;stroke:#707070;stroke-width:0.181393;stroke-linecap:butt;stroke-linejoin:miter;stroke-miterlimit:10;stroke-dasharray:none;stroke-opacity:1"
         id="path7912" /><path
         d="m 101.65503,41.450618 c 8.38911,7.661652 40.38212,36.880625 49.09351,44.836803"
         style="fill:none;stroke:#707070;stroke-width:0.181393;stroke-linecap:butt;stroke-linejoin:miter;stroke-miterlimit:10;stroke-dasharray:none;stroke-opacity:1"
         id="path7920" /><path
         d="m 101.28443,41.496412 c 7.89302,9.043376 41.67568,47.7526 49.87006,57.141996"
         style="fill:none;stroke:#707070;stroke-width:0.181393;stroke-linecap:butt;stroke-linejoin:miter;stroke-miterlimit:10;stroke-dasharray:none;stroke-opacity:1"
         id="path7922" /><path
         d="m 101.02902,41.529139 c 7.46851,10.29342 42.59156,58.704771 50.38678,69.448971"
         style="fill:none;stroke:#707070;stroke-width:0.181393;stroke-linecap:butt;stroke-linejoin:miter;stroke-miterlimit:10;stroke-dasharray:none;stroke-opacity:1"
         id="path7924" /><path
         d="m 100.84372,41.556614 c 7.11529,11.461371 43.35103,69.829846 50.77593,81.791246"
         style="fill:none;stroke:#707070;stroke-width:0.181393;stroke-linecap:butt;stroke-linejoin:miter;stroke-miterlimit:10;stroke-dasharray:none;stroke-opacity:1"
         id="path7926" /><path
         d="m 104.74265,39.515578 c 10.03558,-0.16832 32.23694,-0.540472 42.63281,-0.714597"
         style="fill:none;stroke:#707070;stroke-width:0.181393;stroke-linecap:butt;stroke-linejoin:miter;stroke-miterlimit:10;stroke-dasharray:none;stroke-opacity:1"
         id="path7928" /><path
         d="m 104.08424,40.562231 c 9.91156,2.13832 33.72404,7.276095 44.00473,9.49416"
         style="fill:none;stroke:#707070;stroke-width:0.181393;stroke-linecap:butt;stroke-linejoin:miter;stroke-miterlimit:10;stroke-dasharray:none;stroke-opacity:1"
         id="path7930" /><path
         d="m 102.96567,41.096336 c 9.4847,4.25162 36.55478,16.386261 46.37178,20.7871"
         style="fill:none;stroke:#707070;stroke-width:0.181393;stroke-linecap:butt;stroke-linejoin:miter;stroke-miterlimit:10;stroke-dasharray:none;stroke-opacity:1"
         id="path7932" /><path
         d="m 102.20179,41.351996 c 8.96651,6.103676 38.79869,26.413076 48.01384,32.686522"
         style="fill:none;stroke:#707070;stroke-width:0.181393;stroke-linecap:butt;stroke-linejoin:miter;stroke-miterlimit:10;stroke-dasharray:none;stroke-opacity:1"
         id="path7934" /><path
         d="m 102.13021,53.381427 c 8.87459,6.097199 38.82078,26.671862 48.07275,33.029524"
         style="fill:none;stroke:#707070;stroke-width:0.181393;stroke-linecap:butt;stroke-linejoin:miter;stroke-miterlimit:10;stroke-dasharray:none;stroke-opacity:1"
         id="path7942" /><path
         d="m 101.65503,53.525843 c 8.40855,7.731902 40.52706,37.268078 49.15332,45.199795"
         style="fill:none;stroke:#707070;stroke-width:0.181393;stroke-linecap:butt;stroke-linejoin:miter;stroke-miterlimit:10;stroke-dasharray:none;stroke-opacity:1"
         id="path7944" /><path
         d="m 101.28443,53.569401 c 7.89302,9.093302 41.67568,48.014849 49.87006,57.455399"
         style="fill:none;stroke:#707070;stroke-width:0.181393;stroke-linecap:butt;stroke-linejoin:miter;stroke-miterlimit:10;stroke-dasharray:none;stroke-opacity:1"
         id="path7946" /><path
         d="m 101.02902,53.60045 c 7.47646,10.351837 42.66875,59.07961 50.4121,69.80102"
         style="fill:none;stroke:#707070;stroke-width:0.181393;stroke-linecap:butt;stroke-linejoin:miter;stroke-miterlimit:10;stroke-dasharray:none;stroke-opacity:1"
         id="path7948" /><path
         d="m 103.99351,50.603565 c 9.89977,-2.405261 33.99065,-8.259418 44.2289,-10.747221"
         style="fill:none;stroke:#707070;stroke-width:0.181393;stroke-linecap:butt;stroke-linejoin:miter;stroke-miterlimit:10;stroke-dasharray:none;stroke-opacity:1"
         id="path7950" /><path
         d="m 104.74265,51.610121 c 10.03558,-0.105211 32.23694,-0.337753 42.63281,-0.446427"
         style="fill:none;stroke:#707070;stroke-width:0.181393;stroke-linecap:butt;stroke-linejoin:miter;stroke-miterlimit:10;stroke-dasharray:none;stroke-opacity:1"
         id="path7952" /><path
         d="m 104.08424,52.652754 c 9.91156,2.200757 33.72404,7.487751 44.00473,9.770821"
         style="fill:none;stroke:#707070;stroke-width:0.181393;stroke-linecap:butt;stroke-linejoin:miter;stroke-miterlimit:10;stroke-dasharray:none;stroke-opacity:1"
         id="path7954" /><path
         d="m 102.96567,53.179823 c 9.4847,4.311041 36.55478,16.615787 46.37178,21.078614"
         style="fill:none;stroke:#707070;stroke-width:0.181393;stroke-linecap:butt;stroke-linejoin:miter;stroke-miterlimit:10;stroke-dasharray:none;stroke-opacity:1"
         id="path7956" /><path
         d="m 103.21195,65.481109 c 9.71359,4.455792 36.4776,16.733956 46.17293,21.181481"
         style="fill:none;stroke:#707070;stroke-width:0.181393;stroke-linecap:butt;stroke-linejoin:miter;stroke-miterlimit:10;stroke-dasharray:none;stroke-opacity:1"
         id="path7964" /><path
         d="m 102.34791,65.716665 c 9.14621,6.322367 38.75273,26.787463 47.8907,33.104581"
         style="fill:none;stroke:#707070;stroke-width:0.181393;stroke-linecap:butt;stroke-linejoin:miter;stroke-miterlimit:10;stroke-dasharray:none;stroke-opacity:1"
         id="path7966" /><path
         d="m 101.81971,65.860634 c 8.64216,7.983321 40.33028,37.255456 48.95299,45.220796"
         style="fill:none;stroke:#707070;stroke-width:0.181393;stroke-linecap:butt;stroke-linejoin:miter;stroke-miterlimit:10;stroke-dasharray:none;stroke-opacity:1"
         id="path7968" /><path
         d="m 101.43527,65.924858 c 8.15873,9.433847 41.55371,48.047462 49.71127,57.480532"
         style="fill:none;stroke:#707070;stroke-width:0.181393;stroke-linecap:butt;stroke-linejoin:miter;stroke-miterlimit:10;stroke-dasharray:none;stroke-opacity:1"
         id="path7970" /><path
         d="m 103.12917,62.189247 c 9.66057,-4.553521 36.63314,-17.265828 46.30961,-21.826831"
         style="fill:none;stroke:#707070;stroke-width:0.181393;stroke-linecap:butt;stroke-linejoin:miter;stroke-miterlimit:10;stroke-dasharray:none;stroke-opacity:1"
         id="path7972" /><path
         d="m 104.36175,62.70805 c 10.11836,-2.416206 33.75821,-8.061392 43.86773,-10.475363"
         style="fill:none;stroke:#707070;stroke-width:0.181393;stroke-linecap:butt;stroke-linejoin:miter;stroke-miterlimit:10;stroke-dasharray:none;stroke-opacity:1"
         id="path7974" /><path
         d="m 105.13593,63.803515 c 10.21764,-0.06411 32.0048,-0.201044 42.25926,-0.265713"
         style="fill:none;stroke:#707070;stroke-width:0.181393;stroke-linecap:butt;stroke-linejoin:miter;stroke-miterlimit:10;stroke-dasharray:none;stroke-opacity:1"
         id="path7976" /><path
         d="m 104.45602,64.929579 c 10.15194,2.296697 33.61003,7.603795 43.71808,9.890329"
         style="fill:none;stroke:#707070;stroke-width:0.181393;stroke-linecap:butt;stroke-linejoin:miter;stroke-miterlimit:10;stroke-dasharray:none;stroke-opacity:1"
         id="path7978" /></g><path
       d="m 41.496589,6.1831395 c 4.051444,0 7.335877,3.2844326 7.335877,7.3358705 0,4.051445 -3.284433,7.335877 -7.335877,7.335877 -4.051444,0 -7.335877,-3.284432 -7.335877,-7.335877 0,-4.0514379 3.284433,-7.3358705 7.335877,-7.3358705"
       style="fill:#2ecc71;fill-opacity:1;fill-rule:nonzero;stroke:#219150;stroke-width:1.5;stroke-linecap:butt;stroke-linejoin:miter;stroke-miterlimit:10;stroke-dasharray:none;stroke-opacity:1"
       id="path210"
       sodipodi:nodetypes="csssc" /><path
       d="m 41.496589,39.348014 c 4.051442,0 7.335879,3.284433 7.335879,7.335877 0,4.051444 -3.284437,7.335877 -7.335879,7.335877 -4.051441,0 -7.335878,-3.284433 -7.335878,-7.335877 0,-4.051444 3.284437,-7.335877 7.335878,-7.335877"
       style="fill:#2ecc71;fill-opacity:1;fill-rule:nonzero;stroke:#219150;stroke-width:1.5;stroke-linecap:butt;stroke-linejoin:miter;stroke-miterlimit:10;stroke-dasharray:none;stroke-opacity:1"
       id="path210-3"
       sodipodi:nodetypes="csssc" /><path
       d="m 41.496589,22.765576 c 4.051442,0 7.335879,3.284433 7.335879,7.335877 0,4.051444 -3.284437,7.335877 -7.335879,7.335877 -4.051441,0 -7.335878,-3.284433 -7.335878,-7.335877 0,-4.051444 3.284437,-7.335877 7.335878,-7.335877"
       style="fill:#2ecc71;fill-opacity:1;fill-rule:nonzero;stroke:#219150;stroke-width:1.5;stroke-linecap:butt;stroke-linejoin:miter;stroke-miterlimit:10;stroke-dasharray:none;stroke-opacity:1"
       id="path210-0"
       sodipodi:nodetypes="csssc" /><path
       d="m 41.496589,55.930453 c 4.051443,0 7.335879,3.284433 7.335879,7.335877 0,4.051444 -3.284436,7.335877 -7.335879,7.335877 -4.051441,0 -7.335877,-3.284433 -7.335877,-7.335877 0,-4.051444 3.284436,-7.335877 7.335877,-7.335877"
       style="fill:#2ecc71;fill-opacity:1;fill-rule:nonzero;stroke:#219150;stroke-width:1.5;stroke-linecap:butt;stroke-linejoin:miter;stroke-miterlimit:10;stroke-dasharray:none;stroke-opacity:1"
       id="path210-2"
       sodipodi:nodetypes="csssc" /><path
       d="m 41.496589,103.28474 c 4.051446,0 7.335879,3.28443 7.335879,7.33587 0,4.05144 -3.284433,7.33588 -7.335879,7.33588 -4.051444,0 -7.335877,-3.28444 -7.335877,-7.33588 0,-4.05144 3.284433,-7.33587 7.335877,-7.33587"
       style="fill:#3498db;fill-opacity:1;fill-rule:nonzero;stroke:#1b6597;stroke-width:1.5;stroke-linecap:butt;stroke-linejoin:miter;stroke-miterlimit:10;stroke-dasharray:none;stroke-opacity:1"
       id="path210-6"
       sodipodi:nodetypes="csssc" /><path
       d="m 41.496589,137.62877 c 4.051443,0 7.335879,3.28443 7.335879,7.33587 0,4.05145 -3.284436,7.33588 -7.335879,7.33588 -4.051441,0 -7.335877,-3.28443 -7.335877,-7.33588 0,-4.05144 3.284436,-7.33587 7.335877,-7.33587"
       style="fill:#3498db;fill-opacity:1;fill-rule:nonzero;stroke:#1b6597;stroke-width:1.5;stroke-linecap:butt;stroke-linejoin:miter;stroke-miterlimit:10;stroke-dasharray:none;stroke-opacity:1"
       id="path210-3-8"
       sodipodi:nodetypes="csssc" /><path
       d="m 41.496589,120.45675 c 4.051443,0 7.335879,3.28443 7.335879,7.33587 0,4.05145 -3.284436,7.33589 -7.335879,7.33589 -4.051441,0 -7.335877,-3.28444 -7.335877,-7.33589 0,-4.05144 3.284436,-7.33587 7.335877,-7.33587"
       style="fill:#3498db;fill-opacity:1;fill-rule:nonzero;stroke:#1b6597;stroke-width:1.5;stroke-linecap:butt;stroke-linejoin:miter;stroke-miterlimit:10;stroke-dasharray:none;stroke-opacity:1"
       id="path210-0-1"
       sodipodi:nodetypes="csssc" /><path
       d="m 41.496589,154.80078 c 4.051443,0 7.335879,3.28443 7.335879,7.33587 0,4.05145 -3.284436,7.33588 -7.335879,7.33588 -4.051441,0 -7.335877,-3.28443 -7.335877,-7.33588 0,-4.05144 3.284436,-7.33587 7.335877,-7.33587"
       style="fill:#3498db;fill-opacity:1;fill-rule:nonzero;stroke:#1b6597;stroke-width:1.5;stroke-linecap:butt;stroke-linejoin:miter;stroke-miterlimit:10;stroke-dasharray:none;stroke-opacity:1"
       id="path210-2-2"
       sodipodi:nodetypes="csssc" /><path
       d="m 41.496589,171.97279 c 4.051443,0 7.335879,3.28443 7.335879,7.33588 0,4.05144 -3.284436,7.33587 -7.335879,7.33587 -4.051441,0 -7.335877,-3.28443 -7.335877,-7.33587 0,-4.05145 3.284436,-7.33588 7.335877,-7.33588"
       style="fill:#3498db;fill-opacity:1;fill-rule:nonzero;stroke:#1b6597;stroke-width:1.5;stroke-linecap:butt;stroke-linejoin:miter;stroke-miterlimit:10;stroke-dasharray:none;stroke-opacity:1"
       id="path210-3-8-4"
       sodipodi:nodetypes="csssc" /><path
       d="m 41.496589,189.1448 c 4.051443,0 7.335879,3.28443 7.335879,7.33588 0,4.05144 -3.284436,7.33587 -7.335879,7.33587 -4.051441,0 -7.335877,-3.28443 -7.335877,-7.33587 0,-4.05145 3.284436,-7.33588 7.335877,-7.33588"
       style="fill:#3498db;fill-opacity:1;fill-rule:nonzero;stroke:#1b6597;stroke-width:1.5;stroke-linecap:butt;stroke-linejoin:miter;stroke-miterlimit:10;stroke-dasharray:none;stroke-opacity:1"
       id="path210-2-2-2"
       sodipodi:nodetypes="csssc" /><path
       d="m 106.07951,22.939852 c 4.05145,0 7.33589,3.284433 7.33589,7.335871 0,4.051444 -3.28444,7.335877 -7.33589,7.335877 -4.05144,0 -7.335874,-3.284433 -7.335874,-7.335877 0,-4.051438 3.284434,-7.335871 7.335874,-7.335871"
       style="fill:#ffdd55;fill-opacity:1;fill-rule:nonzero;stroke:#aa8800;stroke-width:1.46822;stroke-linecap:butt;stroke-linejoin:miter;stroke-miterlimit:10;stroke-dasharray:none;stroke-opacity:1"
       id="path210-8"
       sodipodi:nodetypes="csssc" /><path
       d="m 106.07951,57.421434 c 4.05145,0 7.33589,3.284433 7.33589,7.335877 0,4.051445 -3.28444,7.335877 -7.33589,7.335877 -4.05144,0 -7.335874,-3.284432 -7.335874,-7.335877 0,-4.051444 3.284434,-7.335877 7.335874,-7.335877"
       style="fill:#ffdd55;fill-opacity:1;fill-rule:nonzero;stroke:#aa8800;stroke-width:1.46822;stroke-linecap:butt;stroke-linejoin:miter;stroke-miterlimit:10;stroke-dasharray:none;stroke-opacity:1"
       id="path210-3-4"
       sodipodi:nodetypes="csssc" /><path
       d="m 106.07951,40.180642 c 4.05145,0 7.33589,3.284432 7.33589,7.335877 0,4.051444 -3.28444,7.335876 -7.33589,7.335876 -4.05144,0 -7.335874,-3.284432 -7.335874,-7.335876 0,-4.051445 3.284434,-7.335877 7.335874,-7.335877"
       style="fill:#ffdd55;fill-opacity:1;fill-rule:nonzero;stroke:#aa8800;stroke-width:1.46822;stroke-linecap:butt;stroke-linejoin:miter;stroke-miterlimit:10;stroke-dasharray:none;stroke-opacity:1"
       id="path210-0-7"
       sodipodi:nodetypes="csssc" /><path
       d="m 106.07951,74.662229 c 4.05145,0 7.33589,3.284432 7.33589,7.335876 0,4.051445 -3.28444,7.335877 -7.33589,7.335877 -4.05144,0 -7.335874,-3.284432 -7.335874,-7.335877 0,-4.051444 3.284434,-7.335876 7.335874,-7.335876"
       style="fill:#ffdd55;fill-opacity:1;fill-rule:nonzero;stroke:#aa8800;stroke-width:1.46822;stroke-linecap:butt;stroke-linejoin:miter;stroke-miterlimit:10;stroke-dasharray:none;stroke-opacity:1"
       id="path210-2-23"
       sodipodi:nodetypes="csssc" /><path
       d="m 106.07951,91.903024 c 4.05145,0 7.33589,3.284433 7.33589,7.335871 0,4.051445 -3.28444,7.335875 -7.33589,7.335875 -4.05144,0 -7.335874,-3.28443 -7.335874,-7.335875 0,-4.051438 3.284434,-7.335871 7.335874,-7.335871"
       style="fill:#ffdd55;fill-opacity:1;fill-rule:nonzero;stroke:#aa8800;stroke-width:1.46822;stroke-linecap:butt;stroke-linejoin:miter;stroke-miterlimit:10;stroke-dasharray:none;stroke-opacity:1"
       id="path210-6-2"
       sodipodi:nodetypes="csssc" /><path
       d="m 106.07951,126.38461 c 4.05145,0 7.33589,3.28443 7.33589,7.33588 0,4.05144 -3.28444,7.33587 -7.33589,7.33587 -4.05144,0 -7.335874,-3.28443 -7.335874,-7.33587 0,-4.05145 3.284434,-7.33588 7.335874,-7.33588"
       style="fill:#ffdd55;fill-opacity:1;fill-rule:nonzero;stroke:#aa8800;stroke-width:1.46822;stroke-linecap:butt;stroke-linejoin:miter;stroke-miterlimit:10;stroke-dasharray:none;stroke-opacity:1"
       id="path210-3-8-7"
       sodipodi:nodetypes="csssc" /><path
       d="m 106.07951,109.14381 c 4.05145,0 7.33589,3.28444 7.33589,7.33588 0,4.05145 -3.28444,7.33588 -7.33589,7.33588 -4.05144,0 -7.335874,-3.28443 -7.335874,-7.33588 0,-4.05144 3.284434,-7.33588 7.335874,-7.33588"
       style="fill:#ffdd55;fill-opacity:1;fill-rule:nonzero;stroke:#aa8800;stroke-width:1.46822;stroke-linecap:butt;stroke-linejoin:miter;stroke-miterlimit:10;stroke-dasharray:none;stroke-opacity:1"
       id="path210-0-1-9"
       sodipodi:nodetypes="csssc" /><path
       d="m 106.07951,143.62541 c 4.05145,0 7.33589,3.28443 7.33589,7.33588 0,4.05144 -3.28444,7.33587 -7.33589,7.33587 -4.05144,0 -7.335874,-3.28443 -7.335874,-7.33587 0,-4.05145 3.284434,-7.33588 7.335874,-7.33588"
       style="fill:#ffdd55;fill-opacity:1;fill-rule:nonzero;stroke:#aa8800;stroke-width:1.46822;stroke-linecap:butt;stroke-linejoin:miter;stroke-miterlimit:10;stroke-dasharray:none;stroke-opacity:1"
       id="path210-2-2-7"
       sodipodi:nodetypes="csssc" /><path
       d="m 106.07951,160.86619 c 4.05145,0 7.33589,3.28443 7.33589,7.33588 0,4.05144 -3.28444,7.33587 -7.33589,7.33587 -4.05144,0 -7.335874,-3.28443 -7.335874,-7.33587 0,-4.05145 3.284434,-7.33588 7.335874,-7.33588"
       style="fill:#ffdd55;fill-opacity:1;fill-rule:nonzero;stroke:#aa8800;stroke-width:1.46822;stroke-linecap:butt;stroke-linejoin:miter;stroke-miterlimit:10;stroke-dasharray:none;stroke-opacity:1"
       id="path210-3-8-4-0"
       sodipodi:nodetypes="csssc" /><path
       d="m 106.07951,178.10699 c 4.05145,0 7.33589,3.28443 7.33589,7.33587 0,4.05145 -3.28444,7.33588 -7.33589,7.33588 -4.05144,0 -7.335874,-3.28443 -7.335874,-7.33588 0,-4.05144 3.284434,-7.33587 7.335874,-7.33587"
       style="fill:#ffdd55;fill-opacity:1;fill-rule:nonzero;stroke:#aa8800;stroke-width:1.46822;stroke-linecap:butt;stroke-linejoin:miter;stroke-miterlimit:10;stroke-dasharray:none;stroke-opacity:1"
       id="path210-2-2-2-4"
       sodipodi:nodetypes="csssc" /><g
       id="g3031"
       transform="matrix(1.4682178,0,0,1.4682178,-40.502839,-12.441842)"
       style="fill:#ff2a2a;stroke:#aa0000"><path
         d="m 152.60023,35.841062 c 2.75944,0 4.99646,2.23702 4.99646,4.996451 0,2.75943 -2.23702,4.99645 -4.99646,4.99645 -2.75943,0 -4.99645,-2.23702 -4.99645,-4.99645 0,-2.759431 2.23702,-4.996451 4.99645,-4.996451"
         style="fill:#ff2a2a;fill-opacity:1;fill-rule:nonzero;stroke:#aa0000;stroke-width:1;stroke-linecap:butt;stroke-linejoin:miter;stroke-miterlimit:10;stroke-dasharray:none;stroke-opacity:1"
         id="path210-3-4-8"
         sodipodi:nodetypes="csssc" /><path
         d="m 152.60023,47.583731 c 2.75944,0 4.99646,2.23702 4.99646,4.99645 0,2.75943 -2.23702,4.99645 -4.99646,4.99645 -2.75943,0 -4.99645,-2.23702 -4.99645,-4.99645 0,-2.75943 2.23702,-4.99645 4.99645,-4.99645"
         style="fill:#ff2a2a;fill-opacity:1;fill-rule:nonzero;stroke:#aa0000;stroke-width:1;stroke-linecap:butt;stroke-linejoin:miter;stroke-miterlimit:10;stroke-dasharray:none;stroke-opacity:1"
         id="path210-2-23-7"
         sodipodi:nodetypes="csssc" /></g><path
       d="m 183.54753,74.662233 c 4.05146,0 7.33589,3.284434 7.33589,7.335871 0,4.051444 -3.28443,7.335877 -7.33589,7.335877 -4.05144,0 -7.33588,-3.284433 -7.33588,-7.335877 0,-4.051437 3.28444,-7.33587 7.33588,-7.33587"
       style="fill:#79bbe7;fill-opacity:1;fill-rule:nonzero;stroke:#1b6597;stroke-width:1.46822;stroke-linecap:butt;stroke-linejoin:miter;stroke-miterlimit:10;stroke-dasharray:none;stroke-opacity:1"
       id="path210-6-2-8"
       sodipodi:nodetypes="csssc" /><path
       d="m 183.54753,109.14382 c 4.05146,0 7.33589,3.28443 7.33589,7.33588 0,4.05144 -3.28443,7.33588 -7.33589,7.33588 -4.05144,0 -7.33588,-3.28444 -7.33588,-7.33588 0,-4.05145 3.28444,-7.33588 7.33588,-7.33588"
       style="fill:#79bbe7;fill-opacity:1;fill-rule:nonzero;stroke:#1b6597;stroke-width:1.46822;stroke-linecap:butt;stroke-linejoin:miter;stroke-miterlimit:10;stroke-dasharray:none;stroke-opacity:1"
       id="path210-3-8-7-5"
       sodipodi:nodetypes="csssc" /><path
       d="m 183.54753,91.903023 c 4.05146,0 7.33589,3.284432 7.33589,7.335877 0,4.05144 -3.28443,7.33588 -7.33589,7.33588 -4.05144,0 -7.33588,-3.28444 -7.33588,-7.33588 0,-4.051445 3.28444,-7.335877 7.33588,-7.335877"
       style="fill:#79bbe7;fill-opacity:1;fill-rule:nonzero;stroke:#1b6597;stroke-width:1.46822;stroke-linecap:butt;stroke-linejoin:miter;stroke-miterlimit:10;stroke-dasharray:none;stroke-opacity:1"
       id="path210-0-1-9-9"
       sodipodi:nodetypes="csssc" /><path
       d="m 183.54753,126.38462 c 4.05146,0 7.33589,3.28443 7.33589,7.33588 0,4.05143 -3.28443,7.33586 -7.33589,7.33586 -4.05144,0 -7.33588,-3.28443 -7.33588,-7.33586 0,-4.05145 3.28444,-7.33588 7.33588,-7.33588"
       style="fill:#79bbe7;fill-opacity:1;fill-rule:nonzero;stroke:#1b6597;stroke-width:1.46822;stroke-linecap:butt;stroke-linejoin:miter;stroke-miterlimit:10;stroke-dasharray:none;stroke-opacity:1"
       id="path210-2-2-7-7"
       sodipodi:nodetypes="csssc" /><path
       d="m 183.54753,143.62539 c 4.05146,0 7.33589,3.28444 7.33589,7.33588 0,4.05144 -3.28443,7.33588 -7.33589,7.33588 -4.05144,0 -7.33588,-3.28444 -7.33588,-7.33588 0,-4.05144 3.28444,-7.33588 7.33588,-7.33588"
       style="fill:#79bbe7;fill-opacity:1;fill-rule:nonzero;stroke:#1b6597;stroke-width:1.46822;stroke-linecap:butt;stroke-linejoin:miter;stroke-miterlimit:10;stroke-dasharray:none;stroke-opacity:1"
       id="path210-3-8-4-0-9"
       sodipodi:nodetypes="csssc" /><path
       d="m 183.54753,160.86619 c 4.05146,0 7.33589,3.28443 7.33589,7.33588 0,4.05144 -3.28443,7.33587 -7.33589,7.33587 -4.05144,0 -7.33588,-3.28443 -7.33588,-7.33587 0,-4.05145 3.28444,-7.33588 7.33588,-7.33588"
       style="fill:#79bbe7;fill-opacity:1;fill-rule:nonzero;stroke:#1b6597;stroke-width:1.46822;stroke-linecap:butt;stroke-linejoin:miter;stroke-miterlimit:10;stroke-dasharray:none;stroke-opacity:1"
       id="path210-2-2-2-4-8"
       sodipodi:nodetypes="csssc" /><g
       id="g3035"
       transform="matrix(1.4682178,0,0,1.4682178,-40.502839,-12.441842)"
       style="fill:#bc5fd3;stroke:#672178"><path
         d="m 181.17523,35.841062 c 2.75944,0 4.99646,2.23702 4.99646,4.996451 0,2.75943 -2.23702,4.99645 -4.99646,4.99645 -2.75943,0 -4.99645,-2.23702 -4.99645,-4.99645 0,-2.759431 2.23702,-4.996451 4.99645,-4.996451"
         style="fill:#bc5fd3;fill-opacity:1;fill-rule:nonzero;stroke:#672178;stroke-width:1;stroke-linecap:butt;stroke-linejoin:miter;stroke-miterlimit:10;stroke-dasharray:none;stroke-opacity:1"
         id="path2725"
         sodipodi:nodetypes="csssc" /><path
         d="m 181.17523,47.583731 c 2.75944,0 4.99646,2.23702 4.99646,4.99645 0,2.75943 -2.23702,4.99645 -4.99646,4.99645 -2.75943,0 -4.99645,-2.23702 -4.99645,-4.99645 0,-2.75943 2.23702,-4.99645 4.99645,-4.99645"
         style="fill:#bc5fd3;fill-opacity:1;fill-rule:nonzero;stroke:#672178;stroke-width:1;stroke-linecap:butt;stroke-linejoin:miter;stroke-miterlimit:10;stroke-dasharray:none;stroke-opacity:1"
         id="path2727"
         sodipodi:nodetypes="csssc" /></g><path
       style="fill:none;fill-opacity:1;stroke:#4d4d4d;stroke-width:1.47253;stroke-linecap:round;stroke-linejoin:round;stroke-dasharray:none;stroke-opacity:1"
       d="m 188.8157,176.1518 c 15.43344,0.22741 5.28794,-47.91736 14.66188,-51.29436 -9.37394,-3.37701 0.77156,-51.521792 -14.66188,-51.294377"
       id="path4190-4"
       sodipodi:nodetypes="ccc" /><path
       style="fill:none;stroke:#4d4d4d;stroke-width:1.5;stroke-linecap:round;stroke-linejoin:round;marker-end:"
       d="m 208.9637,125.13021 c 15.86479,-0.4775 28.63052,5.63185 27.07731,30.14381 -1.61164,25.43429 -3.07607,65.86617 -31.84848,65.56664 -28.77241,-0.29953 -138.574259,1.23376 -169.156257,0.98649 C 19.745274,221.70352 6.043639,206.98522 4.752122,189.19846 3.460605,171.4117 3.728062,151.30483 23.858793,147.13925"
       id="path419"
       sodipodi:nodetypes="cszssc" /><path
       style="fill:none;stroke:#4d4d4d;stroke-width:1.5;stroke-linecap:round;stroke-linejoin:round"
       d="m 19.978795,153.05052 3.879998,-5.91127 -4.983727,-3.22773"
       id="path1292"
       sodipodi:nodetypes="ccc" /></g></svg>
