<?xml version="1.0" encoding="UTF-8" standalone="no"?>
<!-- Created with Inkscape (http://www.inkscape.org/) -->

<svg
   width="100mm"
   height="100mm"
   viewBox="0 0 100 100"
   version="1.1"
   id="svg5"
   xml:space="preserve"
   inkscape:version="1.2.1 (9c6d41e410, 2022-07-14)"
   sodipodi:docname="scalar_x.svg"
   xmlns:inkscape="http://www.inkscape.org/namespaces/inkscape"
   xmlns:sodipodi="http://sodipodi.sourceforge.net/DTD/sodipodi-0.dtd"
   xmlns="http://www.w3.org/2000/svg"
   xmlns:svg="http://www.w3.org/2000/svg"><sodipodi:namedview
     id="namedview7"
     pagecolor="#ffffff"
     bordercolor="#000000"
     borderopacity="0.25"
     inkscape:showpageshadow="2"
     inkscape:pageopacity="0.0"
     inkscape:pagecheckerboard="0"
     inkscape:deskcolor="#d1d1d1"
     inkscape:document-units="mm"
     showgrid="false"
     inkscape:zoom="1.4324916"
     inkscape:cx="234.20731"
     inkscape:cy="195.81267"
     inkscape:window-width="1920"
     inkscape:window-height="991"
     inkscape:window-x="4791"
     inkscape:window-y="-9"
     inkscape:window-maximized="1"
     inkscape:current-layer="layer1" /><defs
     id="defs2" /><g
     inkscape:label="Layer 1"
     inkscape:groupmode="layer"
     id="layer1"><path
       style="fill:#000000;stroke-width:0.0372397"
       d="m 66.839385,72.488357 c -1.104415,-0.101367 -4.695074,-1.207306 -6.039342,-1.860149 -1.167031,-0.566775 -2.65003,-1.836214 -2.729223,-2.336201 -0.04975,-0.314042 0.356077,-0.812292 0.862446,-1.058864 0.138909,-0.06766 0.257221,-0.12585 0.262913,-0.129356 0.01768,-0.01081 0.295734,-0.993543 0.359422,-1.270106 0.580547,-2.520868 0.616642,-4.004379 0.145208,-5.968005 -0.220846,-0.919878 -0.177086,-0.823173 -0.37249,-0.823173 -0.150648,0 -0.758207,-0.04181 -3.511405,-0.24177 -0.405582,-0.02949 -0.750773,-0.0671 -0.767085,-0.08362 -0.01631,-0.01654 -0.307342,-0.568877 -0.646739,-1.227417 -0.33939,-0.658534 -0.742871,-1.441485 -0.896617,-1.739888 -0.153746,-0.298397 -0.308646,-0.593061 -0.344222,-0.654799 -0.0604,-0.104787 -0.233916,-0.440286 -0.851479,-1.646345 -0.136992,-0.26753 -0.354814,-0.688469 -0.484053,-0.935421 -0.603444,-1.153097 -1.17004,-2.248279 -1.379244,-2.665959 -0.265944,-0.530969 -0.232277,-0.508116 -0.397734,-0.269963 -0.07135,0.10269 -0.231697,0.325411 -0.356329,0.494929 -0.124632,0.169523 -0.353743,0.485021 -0.509134,0.701099 -0.15539,0.216085 -0.357319,0.493908 -0.448728,0.617381 -0.0914,0.123479 -0.409064,0.561256 -0.705889,0.97284 -0.493102,0.683736 -1.225012,1.691245 -1.652517,2.274741 -0.297315,0.405817 -0.952142,1.307712 -1.201222,1.654467 -0.08154,0.113518 -0.239982,0.330119 -0.352098,0.481343 -0.112115,0.151225 -0.320602,0.439424 -0.463292,0.640449 -0.142697,0.201015 -0.301139,0.414055 -0.352104,0.47341 l -0.09265,0.107929 -0.407698,-0.03576 c -0.857935,-0.07524 -2.867772,-0.19959 -2.915285,-0.180369 -0.06606,0.02673 -0.317674,0.534435 -0.607204,1.225302 -0.955486,2.279952 -0.801686,4.238681 0.514137,6.547968 0.09967,0.174925 0.223302,0.393814 0.274733,0.48642 0.136015,0.24489 0.143222,0.251022 0.354138,0.301173 0.423621,0.100723 0.98413,0.49023 1.106128,0.768668 0.269765,0.615665 -1.538593,2.359603 -3.224803,3.109909 -0.745601,0.331772 -0.733009,0.326384 -1.024266,0.438363 -0.142694,0.05485 -0.30114,0.117768 -0.352101,0.139795 -0.174205,0.07529 -1.055971,0.412127 -1.260151,0.481389 -0.112117,0.03803 -0.375216,0.129557 -0.584668,0.203381 -1.329805,0.46872 -2.423861,0.548835 -2.514531,0.184123 -0.01218,-0.04898 -0.03871,-0.08908 -0.05896,-0.08908 -0.04907,0 -4.1e-4,-0.495617 0.06797,-0.692218 0.02863,-0.08231 0.09353,-0.272147 0.144229,-0.421848 0.103447,-0.305494 0.336958,-0.91615 0.387002,-1.012049 0.01802,-0.03452 0.0783,-0.176482 0.133974,-0.315463 0.05567,-0.138974 0.123525,-0.271376 0.150792,-0.294223 0.02726,-0.02288 0.04101,-0.05553 0.03054,-0.07262 -0.03484,-0.05692 0.55999,-1.140778 0.714198,-1.301338 0.02642,-0.0275 0.09265,-0.111691 0.14718,-0.18708 0.111557,-0.154234 0.694236,-0.754453 0.732405,-0.754453 0.0136,0 0.07782,-0.04086 0.14271,-0.09083 0.150505,-0.115858 0.535273,-0.308814 0.797266,-0.399815 0.234316,-0.08139 0.240358,-0.0824 0.211797,-0.03576 -0.01174,0.01915 0.0291,0.0094 0.09075,-0.02157 0.35836,-0.180478 1.972532,-0.154034 2.186806,0.03583 0.08558,0.07583 0.08761,0.07609 0.02743,0.0034 l -0.06497,-0.07817 0.269061,0.06821 c 0.282337,0.07155 0.584096,0.0913 0.584096,0.03824 0,-0.01715 -0.131266,-0.299693 -0.291699,-0.627854 -1.113642,-2.277871 -1.28849,-4.087421 -0.585291,-6.057303 0.05146,-0.144052 0.129621,-0.362941 0.173756,-0.48642 0.04416,-0.123472 0.178998,-0.433299 0.299685,-0.688497 0.120681,-0.255191 0.213189,-0.470291 0.205559,-0.477988 -0.0077,-0.0078 -0.529089,-0.04727 -1.158821,-0.088 -0.629725,-0.04071 -1.603613,-0.106908 -2.164194,-0.147111 -0.56058,-0.04023 -1.302476,-0.09179 -1.648657,-0.114611 -0.74466,-0.04912 -0.692498,-0.0206 -0.494753,-0.27039 0.1985,-0.250748 0.451896,-0.584399 1.030169,-1.356422 0.246634,-0.329271 0.620072,-0.825984 0.829863,-1.1038 0.861225,-1.140504 2.090677,-2.766957 2.276853,-3.012069 0.675321,-0.889101 1.027903,-1.356208 1.570164,-2.080126 0.178704,-0.238581 0.350631,-0.455319 0.382058,-0.481645 0.03139,-0.02632 0.05712,-0.06449 0.05712,-0.08487 0,-0.02033 0.0632,-0.1151 0.140499,-0.210566 0.07728,-0.09546 0.164836,-0.209836 0.194577,-0.254151 0.06026,-0.08975 0.858686,-1.14454 1.095216,-1.44683 0.08339,-0.10657 0.333043,-0.437915 0.55479,-0.736312 0.221747,-0.298404 0.416352,-0.559389 0.432465,-0.57997 0.172596,-0.220473 0.325127,-0.424859 0.325127,-0.435648 0,-0.0074 -0.321059,-0.01385 -0.713463,-0.01441 -2.055425,-0.0028 -3.096322,-0.67192 -5.736069,-3.686284 l -0.20438,-0.233384 -0.258911,0.19545 c -0.668478,0.504615 -1.336067,0.628639 -2.039767,0.378945 -0.272506,-0.09669 -0.47754,-0.09793 -0.728789,-0.0041 -0.107784,0.0401 -0.479504,0.15673 -0.826047,0.259112 -1.531911,0.452598 -1.838566,0.427354 -2.105593,-0.17334 -0.409171,-0.920457 -0.254837,-1.115707 1.160481,-1.468113 0.619679,-0.154304 0.956071,-0.256906 0.9822,-0.299582 0.02586,-0.04223 0.05717,-0.03459 -0.9822,-0.241108 -1.536451,-0.305301 -1.701697,-0.407388 -1.735034,-1.071839 -0.05454,-1.086908 0.286159,-1.26082 1.859201,-0.949084 1.224753,0.242714 1.111418,0.236368 0.913603,0.05112 -0.09173,-0.08592 -0.310948,-0.267635 -0.487148,-0.403824 -0.176201,-0.136191 -0.451146,-0.348645 -0.610992,-0.472118 -0.834783,-0.64485 -0.977218,-0.980355 -0.684781,-1.612998 0.431143,-0.932712 0.721172,-0.859446 2.591222,0.654601 0.797714,0.64585 1.07092,0.768825 1.526683,0.687203 0.191361,-0.03431 0.201825,-0.05001 0.441216,-0.664233 0.218452,-0.560471 0.410218,-0.959184 0.449536,-0.934649 0.01924,0.01198 0.02552,-0.0028 0.01397,-0.03349 -0.05071,-0.133422 0.394985,-0.66798 0.600317,-0.720005 0.168088,-0.04258 0.476071,0.01302 0.739207,0.133469 0.633692,0.290074 0.679206,0.553403 0.256263,1.482678 -0.19093,0.419506 -0.205967,0.455574 -0.287377,0.689344 -0.03225,0.09261 -0.119624,0.328334 -0.194166,0.523839 -0.162589,0.42643 -0.194969,0.718895 -0.11185,1.010259 0.290531,1.018415 0.316806,1.462372 0.119746,2.023333 -0.05476,0.155888 -0.09957,0.293663 -0.09957,0.306168 0,0.02225 0.522053,0.648868 0.973918,1.168986 1.871446,2.154143 3.243387,2.893417 5.125219,2.761762 l 0.569368,-0.03982 0.103359,-0.123555 c 0.05685,-0.06793 0.316952,-0.407586 0.577995,-0.754736 l 0.474635,-0.631195 -0.113263,-0.185838 c -0.06231,-0.102215 -0.113269,-0.195099 -0.113269,-0.206412 0,-0.01131 -0.116749,-0.220438 -0.259446,-0.464723 -0.142689,-0.244292 -0.25944,-0.452101 -0.25944,-0.461809 0,-0.0097 -0.100069,-0.187797 -0.222381,-0.395744 -0.122305,-0.207947 -0.222382,-0.385794 -0.222382,-0.395206 0,-0.0094 -0.08095,-0.15655 -0.179891,-0.326961 -0.09893,-0.170413 -0.251932,-0.444544 -0.339991,-0.609176 -0.08806,-0.164631 -0.223923,-0.404865 -0.301929,-0.533849 -0.07801,-0.128984 -0.141831,-0.24465 -0.141831,-0.257024 0,-0.0124 -0.05678,-0.117319 -0.126243,-0.233198 -0.06943,-0.11588 -0.208397,-0.362225 -0.308809,-0.547444 -0.163307,-0.301215 -0.303452,-0.552389 -0.814196,-1.459259 -0.08112,-0.144059 -0.198331,-0.354527 -0.260443,-0.467713 -0.0621,-0.113185 -0.25013,-0.449939 -0.417798,-0.748342 -0.167675,-0.298398 -0.354801,-0.634737 -0.41584,-0.747413 -0.116586,-0.21523 -0.450272,-0.811364 -0.806867,-1.441477 -0.116462,-0.205791 -0.261766,-0.466777 -0.322894,-0.579962 -0.06115,-0.113186 -0.365877,-0.660407 -0.677212,-1.216056 -0.311334,-0.555641 -0.61194,-1.094444 -0.668009,-1.197344 -0.05607,-0.102896 -0.192708,-0.347039 -0.303636,-0.542544 -0.110929,-0.195504 -0.332346,-0.591185 -0.492037,-0.879296 -0.159691,-0.288111 -0.356543,-0.639662 -0.437448,-0.781221 -0.08091,-0.141557 -0.192611,-0.343608 -0.248232,-0.449 -0.05562,-0.105394 -0.138642,-0.254765 -0.184488,-0.331937 -0.04585,-0.07717 -0.06638,-0.140318 -0.04564,-0.140318 0.02075,0 0.768754,0.06642 1.66224,0.147628 0.893487,0.0812 1.941407,0.174491 2.32872,0.207314 0.387306,0.03286 1.454731,0.126262 2.372048,0.207631 0.917309,0.08137 2.200298,0.194341 2.851084,0.251043 l 1.18324,0.103104 0.174854,0.37417 c 0.454816,0.973247 0.775828,1.668757 0.775828,1.68094 0,0.0074 0.116743,0.257684 0.25944,0.55624 0.142689,0.298562 0.259438,0.552382 0.259438,0.564047 0,0.01164 0.0899,0.211206 0.199765,0.443427 0.109871,0.232214 0.300034,0.641103 0.422583,0.908634 0.205614,0.44887 0.518517,1.123057 0.955133,2.057934 0.09612,0.205791 0.27059,0.58464 0.387736,0.841878 0.817191,1.794551 1.172756,2.548075 1.202205,2.547792 0.01365,-1.52e-4 0.164802,-0.215637 0.335924,-0.478903 0.171114,-0.263266 0.361843,-0.547663 0.423838,-0.631994 0.06197,-0.08434 0.11271,-0.165769 0.11271,-0.180968 0,-0.01522 0.04852,-0.09774 0.107767,-0.183426 0.05924,-0.08568 0.331338,-0.500958 0.604591,-0.922833 0.429796,-0.663558 0.829837,-1.276983 1.608087,-2.465888 0.09973,-0.152346 0.213709,-0.329145 0.253285,-0.392876 0.0812,-0.130782 0.662974,-1.027139 1.459453,-2.248651 0.295208,-0.452742 0.638475,-0.980536 0.762814,-1.172864 l 0.226074,-0.349691 0.463291,0.02288 c 0.428493,0.02116 1.138341,0.08173 2.001414,0.170744 0.301643,0.03114 2.782906,0.249245 4.262275,0.374701 2.016319,0.170991 3.265743,0.291177 3.290885,0.316559 0.0091,0.0092 -0.186053,0.282633 -0.433563,0.607763 -0.247517,0.325135 -0.577803,0.759531 -0.733985,0.965322 -0.338846,0.446494 -0.52191,0.685735 -0.770533,1.006993 -0.101923,0.131698 -0.327086,0.428765 -0.50035,0.660152 -0.173271,0.23138 -0.41511,0.55106 -0.537421,0.710401 -0.122305,0.15934 -0.339125,0.443667 -0.481821,0.631842 -0.142691,0.188167 -0.32755,0.429924 -0.410791,0.537219 -0.08325,0.107301 -0.31577,0.41398 -0.516722,0.681517 -0.200952,0.26753 -0.434942,0.570607 -0.519985,0.673505 -0.08504,0.102896 -0.194427,0.248179 -0.24308,0.322843 -0.04866,0.07466 -0.238563,0.329049 -0.422024,0.565287 -0.183467,0.236237 -0.375267,0.485359 -0.426227,0.553595 -0.05098,0.0682 -0.217748,0.287476 -0.370634,0.487192 -0.152886,0.199721 -0.365324,0.478827 -0.472089,0.62024 -0.330444,0.437681 -0.781342,1.030679 -0.992135,1.304789 -0.399079,0.518946 -0.675334,0.882012 -1.167263,1.534061 -0.50624,0.671019 -0.922544,1.21674 -1.084678,1.421877 -0.551965,0.698363 -0.527458,0.594967 -0.260217,1.09804 0.11647,0.219253 0.263261,0.502328 0.326205,0.62906 0.06292,0.12673 0.131941,0.253014 0.153336,0.280628 0.02143,0.02763 0.08645,0.142818 0.144567,0.256004 0.145686,0.283721 0.189125,0.328968 0.437318,0.455554 1.109171,0.565721 2.48664,0.150528 4.304825,-1.297536 0.142698,-0.113647 0.372027,-0.291961 0.509619,-0.396252 0.277041,-0.20998 0.274064,-0.200714 0.19109,-0.595203 -0.09428,-0.448264 -0.01631,-0.989003 0.215721,-1.496678 0.209668,-0.458675 0.288123,-0.68787 0.287421,-0.839618 -0.0013,-0.245366 -0.233417,-1.521412 -0.39886,-2.191156 -0.153044,-0.619564 0.136329,-0.988858 0.81526,-1.0404 0.69733,-0.05291 0.92008,0.296392 1.271837,1.994534 0.109399,0.528151 0.130931,0.55467 0.501666,0.617801 0.333495,0.05677 0.504527,0.01625 0.905142,-0.214362 0.163321,-0.09403 0.438717,-0.2526 0.611981,-0.352379 1.676991,-0.965694 2.024884,-1.017912 2.347697,-0.352358 0.406914,0.838972 0.18428,1.167855 -1.328454,1.962415 -0.122311,0.06422 -0.272413,0.146477 -0.333569,0.182752 -0.06115,0.03624 -0.200208,0.115376 -0.309,0.175792 -0.266981,0.148249 -0.226374,0.155366 0.705649,0.123713 1.639386,-0.05567 1.861516,0.05215 1.855885,0.900849 -0.0061,0.947995 -0.316706,1.074546 -2.671684,1.089132 -0.125103,6.89e-4 -0.18819,0.01522 -0.17321,0.03968 0.02648,0.04326 0.616226,0.347686 0.759142,0.391857 0.316172,0.0977 1.144617,0.541745 1.235734,0.662345 0.172261,0.22801 0.101186,0.61984 -0.189904,1.046966 -0.361003,0.529716 -0.721284,0.459108 -2.656513,-0.52062 -0.439999,-0.222755 -0.444476,-0.223519 -1.041688,-0.178046 -0.787587,0.05995 -1.476352,-0.25256 -1.881164,-0.853565 -0.06463,-0.09598 -0.04682,-0.103925 -0.549603,0.244445 -0.170256,0.117966 -0.401291,0.277968 -0.513407,0.355567 -1.818656,1.258671 -2.937852,1.669262 -3.910012,1.434422 -0.344755,-0.08328 -0.346733,-0.08265 -0.249837,0.07956 0.09581,0.16038 0.274679,0.490533 0.381171,0.703538 0.04627,0.0926 0.170944,0.328333 0.276993,0.523837 0.106041,0.195506 0.314275,0.582767 0.462732,0.860591 0.148457,0.277818 0.365549,0.681925 0.482422,0.89801 0.116872,0.216078 0.295631,0.55283 0.397242,0.748336 0.38294,0.736822 0.542678,1.037403 0.700006,1.317204 0.08914,0.158534 0.162065,0.296812 0.162065,0.307292 0,0.01695 0.175906,0.349658 0.585242,1.106942 0.125519,0.232208 0.217584,0.404886 0.877747,1.646345 0.158681,0.298405 0.394773,0.740392 0.524653,0.982197 0.544247,1.013234 0.716958,1.33653 0.884525,1.6557 0.09723,0.185218 0.299684,0.566741 0.449881,0.847838 0.328601,0.614977 0.326403,0.598923 0.07851,0.573108 -0.232367,-0.02419 -3.930944,-0.279727 -4.048813,-0.279727 h -0.08198 l 0.101575,0.402234 c 0.510485,2.021425 0.448606,4.166446 -0.190189,6.59324 -0.0621,0.235831 -0.126584,0.502872 -0.143339,0.593417 l -0.03044,0.164626 0.227623,-0.01922 c 0.125185,-0.01054 0.386064,-0.05546 0.579714,-0.09981 0.438717,-0.100409 0.873324,-0.188801 1.019242,-0.207306 0.06115,-0.0078 0.242604,-0.03383 0.403215,-0.05801 0.311314,-0.04678 1.193053,-0.01702 1.228876,0.04154 0.01079,0.01757 0.04825,0.02116 0.08327,0.008 0.0576,-0.02178 0.05835,-0.01744 0.0081,0.04507 -0.05234,0.06512 -0.05092,0.06621 0.02552,0.01812 0.355811,-0.223671 1.639298,0.676034 2.377521,1.666607 0.71829,0.963828 1.808345,3.10023 1.879321,3.683272 0.04913,0.403398 -0.328403,0.602843 -1.020785,0.5393 z"
       id="path977" /></g></svg>
