<?xml version="1.0" encoding="UTF-8" standalone="no"?>
<!-- Created with Inkscape (http://www.inkscape.org/) -->

<svg
   width="100mm"
   height="100mm"
   viewBox="0 0 100 100"
   version="1.1"
   id="svg5"
   xml:space="preserve"
   inkscape:version="1.2.1 (9c6d41e410, 2022-07-14)"
   sodipodi:docname="vector_x.svg"
   xmlns:inkscape="http://www.inkscape.org/namespaces/inkscape"
   xmlns:sodipodi="http://sodipodi.sourceforge.net/DTD/sodipodi-0.dtd"
   xmlns="http://www.w3.org/2000/svg"
   xmlns:svg="http://www.w3.org/2000/svg"><sodipodi:namedview
     id="namedview7"
     pagecolor="#ffffff"
     bordercolor="#000000"
     borderopacity="0.25"
     inkscape:showpageshadow="2"
     inkscape:pageopacity="0.0"
     inkscape:pagecheckerboard="0"
     inkscape:deskcolor="#d1d1d1"
     inkscape:document-units="mm"
     showgrid="false"
     inkscape:zoom="1.4324916"
     inkscape:cx="234.90539"
     inkscape:cy="204.88776"
     inkscape:window-width="1920"
     inkscape:window-height="991"
     inkscape:window-x="4791"
     inkscape:window-y="-9"
     inkscape:window-maximized="1"
     inkscape:current-layer="layer1" /><defs
     id="defs2" /><g
     inkscape:label="Layer 1"
     inkscape:groupmode="layer"
     id="layer1"><path
       style="fill:#000000;stroke-width:0.0139663"
       d="m 43.193779,72.524764 c -0.414198,-0.03801 -1.76083,-0.452784 -2.264981,-0.697625 -0.43768,-0.212562 -0.993861,-0.68865 -1.023561,-0.876163 -0.01866,-0.117776 0.133543,-0.304639 0.32345,-0.397113 0.0521,-0.02537 0.09647,-0.0472 0.0986,-0.04852 0.0066,-0.004 0.110906,-0.372616 0.134804,-0.476338 0.217725,-0.94542 0.231263,-1.501793 0.05445,-2.238225 -0.08282,-0.34499 -0.06641,-0.308721 -0.139694,-0.308721 -0.0565,0 -0.284356,-0.01568 -1.316908,-0.09067 -0.152109,-0.0111 -0.281569,-0.02516 -0.287687,-0.03135 -0.0061,-0.0062 -0.115271,-0.21335 -0.24255,-0.460327 -0.127288,-0.246975 -0.278605,-0.540612 -0.336266,-0.652523 -0.05767,-0.111911 -0.115752,-0.222421 -0.129088,-0.245575 -0.02265,-0.0393 -0.08773,-0.165124 -0.319337,-0.61744 -0.05138,-0.10033 -0.133063,-0.258203 -0.181537,-0.350819 -0.226315,-0.432454 -0.438809,-0.843188 -0.517269,-0.999834 -0.09974,-0.199134 -0.08711,-0.190562 -0.14916,-0.101245 -0.02676,0.03851 -0.08689,0.122037 -0.133633,0.185617 -0.04675,0.06358 -0.132673,0.1819 -0.190944,0.262939 -0.05828,0.08104 -0.134008,0.185234 -0.168289,0.23154 -0.03428,0.04631 -0.153415,0.210492 -0.264736,0.364852 -0.184931,0.256426 -0.459426,0.634279 -0.619756,0.853112 -0.111506,0.152198 -0.357088,0.490441 -0.450502,0.620488 -0.03057,0.04257 -0.09001,0.123807 -0.132058,0.180522 -0.04205,0.05672 -0.120237,0.1648 -0.173752,0.240192 -0.05351,0.07538 -0.112947,0.155286 -0.132058,0.177547 l -0.03474,0.04047 -0.152901,-0.01335 c -0.321758,-0.02822 -1.075522,-0.07486 -1.093341,-0.06764 -0.02478,0.01005 -0.119142,0.200434 -0.227724,0.459533 -0.358344,0.855068 -0.300663,1.589666 0.19282,2.455734 0.03738,0.0656 0.08374,0.14769 0.10303,0.182426 0.05101,0.09184 0.05372,0.09415 0.132824,0.112946 0.158873,0.03777 0.369085,0.183854 0.414839,0.288279 0.10117,0.230897 -0.577031,0.884939 -1.209422,1.166332 -0.279628,0.124423 -0.274906,0.122412 -0.384139,0.164403 -0.05351,0.02057 -0.112931,0.04416 -0.132043,0.05243 -0.06533,0.02823 -0.396029,0.154564 -0.472605,0.18054 -0.04205,0.01425 -0.140714,0.04859 -0.219272,0.07628 -0.498726,0.175788 -0.909038,0.205834 -0.943042,0.06905 -0.0045,-0.01838 -0.01455,-0.03341 -0.02211,-0.03341 -0.01841,0 -1.55e-4,-0.185876 0.02549,-0.259609 0.0108,-0.03087 0.03507,-0.10207 0.0541,-0.158209 0.03879,-0.114566 0.126372,-0.343589 0.145139,-0.379556 0.0068,-0.0129 0.02936,-0.06619 0.05024,-0.118316 0.02088,-0.05212 0.04632,-0.101771 0.05656,-0.110351 0.0102,-0.0086 0.01538,-0.02082 0.0114,-0.02724 -0.01305,-0.02135 0.210018,-0.427834 0.267852,-0.48805 0.0099,-0.01035 0.03474,-0.04188 0.05519,-0.07016 0.04184,-0.05785 0.260365,-0.282948 0.274679,-0.282948 0.0051,0 0.02919,-0.01533 0.05353,-0.03407 0.05645,-0.04344 0.200748,-0.115812 0.299004,-0.14994 0.08788,-0.03053 0.09014,-0.0309 0.07943,-0.01335 -0.0043,0.0072 0.01095,0.0035 0.03404,-0.0081 0.134398,-0.06769 0.739773,-0.05777 0.820133,0.0135 0.03209,0.02844 0.03285,0.02853 0.01035,0.0013 l -0.02436,-0.02931 0.100915,0.02558 c 0.10588,0.02684 0.219058,0.03423 0.219058,0.0144 0,-0.0064 -0.04923,-0.112391 -0.109406,-0.235468 -0.417658,-0.854287 -0.483233,-1.532935 -0.219507,-2.271716 0.01929,-0.05402 0.04861,-0.136123 0.06517,-0.182425 0.01656,-0.04631 0.06713,-0.162504 0.112391,-0.258212 0.04526,-0.09571 0.07996,-0.176377 0.07709,-0.179264 -0.0029,-0.003 -0.198428,-0.01773 -0.434601,-0.033 -0.23617,-0.01527 -0.601415,-0.0401 -0.811655,-0.05518 -0.210238,-0.01509 -0.488477,-0.03443 -0.618308,-0.04298 -0.279275,-0.01842 -0.259711,-0.0078 -0.18555,-0.10141 0.07444,-0.09404 0.169478,-0.219172 0.386352,-0.50871 0.0925,-0.123492 0.23255,-0.309775 0.31123,-0.413966 0.322991,-0.427732 0.784081,-1.037712 0.853904,-1.129638 0.253271,-0.333446 0.385503,-0.508629 0.588871,-0.780126 0.06703,-0.08948 0.131503,-0.170761 0.143279,-0.180635 0.0117,-0.0099 0.02142,-0.02418 0.02142,-0.03183 0,-0.0077 0.0237,-0.04316 0.05268,-0.07897 0.02898,-0.03581 0.06182,-0.0787 0.07298,-0.09532 0.02259,-0.03366 0.322038,-0.429246 0.410747,-0.542615 0.03128,-0.03996 0.124902,-0.164235 0.208066,-0.276145 0.08317,-0.111911 0.156148,-0.209791 0.16219,-0.217511 0.06473,-0.08269 0.121933,-0.159337 0.121933,-0.163384 0,-0.0029 -0.120403,-0.0053 -0.267576,-0.0054 -0.770861,-10e-4 -1.161236,-0.251995 -2.151241,-1.382495 l -0.07666,-0.08753 -0.0971,0.0733 c -0.250704,0.18925 -0.501074,0.235764 -0.764988,0.142124 -0.102205,-0.03626 -0.179095,-0.03672 -0.273324,-0.0015 -0.04043,0.01503 -0.179832,0.05878 -0.309798,0.09718 -0.574524,0.16974 -0.689532,0.160273 -0.789677,-0.06502 -0.153453,-0.345205 -0.09558,-0.41843 0.435225,-0.550597 0.232402,-0.05788 0.358561,-0.09635 0.368362,-0.112361 0.0098,-0.01584 0.02144,-0.0129 -0.368362,-0.09043 -0.576227,-0.114506 -0.638201,-0.152786 -0.650704,-0.40198 -0.02045,-0.407631 0.107321,-0.472855 0.69727,-0.355942 0.459329,0.09103 0.416824,0.08864 0.342636,0.01917 -0.0344,-0.03222 -0.116622,-0.100375 -0.182699,-0.151449 -0.06608,-0.05108 -0.169196,-0.130753 -0.229145,-0.177063 -0.313075,-0.241842 -0.366493,-0.367669 -0.256818,-0.604934 0.161695,-0.349802 0.270466,-0.322325 0.971805,0.2455 0.299173,0.242218 0.401635,0.288337 0.572563,0.257727 0.07177,-0.0129 0.0757,-0.01875 0.165473,-0.249112 0.08192,-0.210198 0.153848,-0.35973 0.168593,-0.35053 0.0072,0.0045 0.0096,-10e-4 0.0053,-0.0126 -0.01902,-0.05004 0.14814,-0.250517 0.225141,-0.270028 0.06304,-0.01598 0.178545,0.005 0.277231,0.05006 0.237658,0.10879 0.254727,0.207547 0.0961,0.556059 -0.0716,0.157331 -0.07724,0.170858 -0.10777,0.25853 -0.01215,0.03473 -0.04487,0.123132 -0.07282,0.196459 -0.06098,0.159928 -0.07312,0.269613 -0.04194,0.378885 0.108956,0.381945 0.118812,0.548445 0.04491,0.758826 -0.02054,0.05846 -0.03734,0.110141 -0.03734,0.114821 0,0.0084 0.195789,0.24335 0.365256,0.438415 0.701862,0.807884 1.216391,1.085139 1.922149,1.035763 l 0.213534,-0.015 0.03876,-0.04634 c 0.02132,-0.02547 0.118872,-0.152861 0.21677,-0.283054 l 0.178006,-0.236722 -0.04248,-0.0697 c -0.02337,-0.03833 -0.04248,-0.07316 -0.04248,-0.07741 0,-0.0042 -0.04379,-0.08267 -0.0973,-0.174288 -0.05351,-0.09161 -0.0973,-0.169556 -0.0973,-0.173196 0,-0.0036 -0.03753,-0.07043 -0.08339,-0.148425 -0.04588,-0.07799 -0.08341,-0.14469 -0.08341,-0.148215 0,-0.0035 -0.03036,-0.05872 -0.06746,-0.122622 -0.0371,-0.06391 -0.09448,-0.166721 -0.127513,-0.228464 -0.03302,-0.06175 -0.08398,-0.151839 -0.113231,-0.200213 -0.02925,-0.04838 -0.0532,-0.09175 -0.0532,-0.0964 0,-0.0046 -0.0213,-0.044 -0.04734,-0.08746 -0.02604,-0.04346 -0.07816,-0.135853 -0.115812,-0.205312 -0.06125,-0.112961 -0.113801,-0.207167 -0.305354,-0.547277 -0.03042,-0.05402 -0.07438,-0.132958 -0.09768,-0.175409 -0.02328,-0.04245 -0.0938,-0.168745 -0.156689,-0.280657 -0.06289,-0.111911 -0.133063,-0.23805 -0.155955,-0.280308 -0.04373,-0.08072 -0.168869,-0.304292 -0.302606,-0.540607 -0.04368,-0.07718 -0.09817,-0.17506 -0.121092,-0.217509 -0.02294,-0.04245 -0.137219,-0.247677 -0.25398,-0.456066 -0.116757,-0.208386 -0.2295,-0.410458 -0.250528,-0.449049 -0.02103,-0.03858 -0.07228,-0.130153 -0.113876,-0.203474 -0.0416,-0.07333 -0.124648,-0.221716 -0.184532,-0.329769 -0.05989,-0.108056 -0.133724,-0.239897 -0.16406,-0.292987 -0.03035,-0.05309 -0.07223,-0.128863 -0.0931,-0.168392 -0.02087,-0.03953 -0.052,-0.09554 -0.06919,-0.124482 -0.01719,-0.02894 -0.0249,-0.05263 -0.01712,-0.05263 0.0078,0 0.288311,0.0249 0.623403,0.05537 0.335091,0.03045 0.7281,0.06544 0.873357,0.07775 0.145259,0.0123 0.545579,0.04734 0.889607,0.07787 0.344025,0.03051 0.825195,0.07289 1.069263,0.09415 l 0.443759,0.03867 0.06557,0.140324 c 0.170573,0.365003 0.290964,0.625846 0.290964,0.630415 0,0.0029 0.04378,0.09664 0.0973,0.208611 0.05351,0.111971 0.0973,0.207163 0.0973,0.211538 0,0.0044 0.03372,0.07921 0.07492,0.166302 0.04121,0.08708 0.112527,0.240438 0.158485,0.340772 0.07711,0.168343 0.194463,0.421189 0.358211,0.771802 0.03605,0.07718 0.101485,0.219262 0.145409,0.315737 0.306478,0.673022 0.439828,0.955622 0.450873,0.955517 0.0051,-5.7e-5 0.06181,-0.08087 0.125983,-0.179607 0.06418,-0.09874 0.135703,-0.205394 0.158954,-0.237022 0.02324,-0.03162 0.04227,-0.06217 0.04227,-0.06787 0,-0.0057 0.0182,-0.03666 0.04041,-0.0688 0.02222,-0.03213 0.124273,-0.187878 0.226745,-0.346096 0.16119,-0.24886 0.31122,-0.478917 0.603093,-0.924801 0.0374,-0.05714 0.08015,-0.123447 0.09499,-0.147344 0.03045,-0.04905 0.248641,-0.385216 0.547349,-0.843329 0.110711,-0.169796 0.239452,-0.367738 0.286085,-0.439868 l 0.08479,-0.131143 0.173752,0.0086 c 0.1607,0.008 0.42692,0.03065 0.750606,0.06404 0.113126,0.0117 1.043693,0.09347 1.598513,0.140534 0.756194,0.06413 1.224775,0.109196 1.234205,0.118722 0.0035,0.0035 -0.06977,0.106001 -0.162603,0.227934 -0.09283,0.121932 -0.216698,0.284853 -0.275271,0.362031 -0.127078,0.167453 -0.195737,0.257177 -0.288979,0.377662 -0.03822,0.04939 -0.122667,0.160802 -0.187651,0.247581 -0.06499,0.08678 -0.155681,0.206669 -0.201552,0.266427 -0.04587,0.05977 -0.127183,0.166392 -0.180701,0.236964 -0.05351,0.07057 -0.122847,0.161237 -0.154062,0.201477 -0.03122,0.04023 -0.118422,0.155258 -0.193791,0.255594 -0.07537,0.10033 -0.163119,0.214 -0.195013,0.252591 -0.03189,0.03858 -0.07292,0.09307 -0.09117,0.121077 -0.01824,0.02799 -0.08947,0.123403 -0.158274,0.212004 -0.06881,0.0886 -0.140744,0.182029 -0.159852,0.20762 -0.01913,0.02558 -0.08167,0.107815 -0.139004,0.182715 -0.05734,0.0749 -0.137008,0.179578 -0.17705,0.232613 -0.123928,0.164147 -0.293034,0.386544 -0.372089,0.489344 -0.14967,0.194625 -0.253276,0.330788 -0.437767,0.575332 -0.189859,0.251656 -0.345989,0.456323 -0.406796,0.533257 -0.207007,0.261912 -0.197816,0.223135 -0.09759,0.411806 0.04369,0.08222 0.09874,0.188392 0.122338,0.235921 0.0236,0.04753 0.04949,0.09488 0.0575,0.10525 0.0081,0.01035 0.03242,0.05356 0.05422,0.09601 0.05463,0.106406 0.07093,0.123372 0.164011,0.170849 0.41598,0.212168 0.932583,0.05645 1.61447,-0.486624 0.05353,-0.04262 0.139529,-0.109496 0.191127,-0.148605 0.1039,-0.07876 0.10279,-0.07528 0.07166,-0.223223 -0.03536,-0.168115 -0.0061,-0.370913 0.0809,-0.561311 0.07864,-0.17202 0.108056,-0.257977 0.107786,-0.314889 -4.88e-4,-0.09202 -0.08753,-0.570586 -0.149595,-0.821765 -0.0574,-0.23236 0.05112,-0.370858 0.305753,-0.390189 0.261524,-0.01985 0.345065,0.111161 0.476986,0.748025 0.04103,0.198077 0.0491,0.208022 0.188145,0.231699 0.125067,0.02129 0.189215,0.0061 0.339461,-0.08039 0.06125,-0.03527 0.164535,-0.09474 0.229515,-0.132149 0.628935,-0.362172 0.759408,-0.381755 0.880476,-0.132148 0.152607,0.314646 0.06911,0.43799 -0.498221,0.73598 -0.04588,0.02408 -0.10216,0.05494 -0.125097,0.06854 -0.02294,0.01365 -0.07508,0.04326 -0.115887,0.06593 -0.10012,0.0556 -0.08489,0.05827 0.264644,0.0464 0.614832,-0.02088 0.698139,0.01956 0.696026,0.337852 -0.0023,0.355534 -0.118781,0.402994 -1.001981,0.408465 -0.04693,2.58e-4 -0.07058,0.0057 -0.06496,0.01485 0.0099,0.01623 0.231107,0.130393 0.284706,0.146955 0.118572,0.03665 0.429276,0.203174 0.463448,0.248404 0.06461,0.08551 0.03795,0.232463 -0.07123,0.392652 -0.135388,0.198663 -0.270508,0.172183 -0.996291,-0.195252 -0.165017,-0.08354 -0.166695,-0.08383 -0.390672,-0.06677 -0.295375,0.02249 -0.553687,-0.09472 -0.705507,-0.320118 -0.02424,-0.03599 -0.01755,-0.03897 -0.206122,0.09167 -0.06385,0.04424 -0.1505,0.104245 -0.192547,0.133348 -0.682065,0.47205 -1.101805,0.626037 -1.466401,0.537963 -0.129298,-0.03123 -0.130033,-0.03099 -0.0937,0.02984 0.03593,0.06016 0.103016,0.183968 0.14295,0.263852 0.01736,0.03473 0.06412,0.123133 0.103885,0.196459 0.03977,0.07333 0.117867,0.218559 0.173542,0.322754 0.05567,0.104185 0.137098,0.255747 0.180925,0.336788 0.04384,0.08104 0.110876,0.207331 0.14898,0.280654 0.14361,0.276335 0.203524,0.389064 0.262528,0.494001 0.03344,0.05945 0.06079,0.111311 0.06079,0.115241 0,0.0063 0.06598,0.131129 0.219487,0.415144 0.04707,0.08708 0.08161,0.151849 0.329188,0.617441 0.05951,0.111911 0.14805,0.277675 0.196764,0.368362 0.204114,0.38 0.268887,0.501248 0.33173,0.620949 0.03647,0.06946 0.112391,0.212549 0.168723,0.317971 0.123238,0.23064 0.122413,0.224619 0.02945,0.214937 -0.08714,-0.009 -1.474251,-0.104906 -1.518456,-0.104906 h -0.03074 l 0.03809,0.150852 c 0.191451,0.75811 0.168243,1.562574 -0.07133,2.472712 -0.0233,0.08845 -0.04748,0.188596 -0.05375,0.222554 l -0.0114,0.06175 0.08537,-0.0072 c 0.04696,-0.0039 0.144794,-0.02081 0.217415,-0.03743 0.164535,-0.03765 0.327529,-0.07081 0.382253,-0.07775 0.02294,-0.003 0.09098,-0.01275 0.151221,-0.02175 0.116757,-0.01755 0.44744,-0.0065 0.460875,0.01557 0.004,0.0066 0.01809,0.008 0.03123,0.003 0.0216,-0.0081 0.02189,-0.0066 0.003,0.01691 -0.01962,0.02442 -0.0191,0.02483 0.0096,0.0068 0.133439,-0.08389 0.614798,0.253537 0.891659,0.62504 0.269385,0.361472 0.678197,1.162702 0.704816,1.381365 0.01842,0.151289 -0.123163,0.226089 -0.382832,0.202258 z"
       id="path977" /><path
       style="fill:#000000;stroke-width:0.0139663"
       d="m 55.129484,61.371468 c -0.414197,-0.03801 -1.760829,-0.452784 -2.26498,-0.697625 -0.437681,-0.212563 -0.993862,-0.68865 -1.023562,-0.876163 -0.01866,-0.117777 0.133544,-0.30464 0.323451,-0.397114 0.0521,-0.02537 0.09647,-0.04719 0.09861,-0.04851 0.0066,-0.0041 0.110906,-0.372617 0.134803,-0.476338 0.217726,-0.94542 0.231263,-1.501793 0.05446,-2.238226 -0.08282,-0.344989 -0.06641,-0.30872 -0.139694,-0.30872 -0.0565,0 -0.284357,-0.01568 -1.316908,-0.09067 -0.15211,-0.0111 -0.28157,-0.02516 -0.287687,-0.03135 -0.0062,-0.0062 -0.115272,-0.21335 -0.24255,-0.460327 -0.127288,-0.246976 -0.278605,-0.540612 -0.336267,-0.652523 -0.05767,-0.111912 -0.115751,-0.222422 -0.129087,-0.245575 -0.02265,-0.0393 -0.08773,-0.165124 -0.319337,-0.617441 -0.05138,-0.10033 -0.133064,-0.258202 -0.181538,-0.350819 -0.226314,-0.432454 -0.438809,-0.843187 -0.517268,-0.999833 -0.09974,-0.199134 -0.08711,-0.190563 -0.14916,-0.101245 -0.02676,0.03851 -0.08689,0.122037 -0.133633,0.185616 -0.04675,0.06358 -0.132674,0.181901 -0.190944,0.262939 -0.05828,0.08104 -0.134008,0.185234 -0.16829,0.231541 -0.03428,0.04631 -0.153414,0.210492 -0.264736,0.364851 -0.184931,0.256427 -0.459425,0.63428 -0.619755,0.853113 -0.111506,0.152198 -0.357088,0.490441 -0.450503,0.620488 -0.03057,0.04257 -0.09001,0.123807 -0.132058,0.180522 -0.04205,0.05672 -0.120237,0.1648 -0.173752,0.240192 -0.05351,0.07538 -0.112946,0.155286 -0.132058,0.177547 l -0.03474,0.04047 -0.152902,-0.01335 c -0.321758,-0.02822 -1.075522,-0.07486 -1.09334,-0.06764 -0.02478,0.01005 -0.119142,0.200433 -0.227725,0.459533 -0.358343,0.855068 -0.300663,1.589665 0.192821,2.455734 0.03738,0.0656 0.08374,0.147689 0.10303,0.182425 0.051,0.09184 0.05372,0.09415 0.132823,0.112947 0.158874,0.03777 0.369085,0.183853 0.41484,0.288279 0.10117,0.230897 -0.577032,0.884938 -1.209423,1.166332 -0.279628,0.124422 -0.274905,0.122412 -0.384139,0.164403 -0.05351,0.02057 -0.112931,0.04416 -0.132043,0.05243 -0.06533,0.02823 -0.396029,0.154563 -0.472604,0.18054 -0.04205,0.01425 -0.140714,0.04859 -0.219272,0.07628 -0.498727,0.175787 -0.909039,0.205834 -0.943043,0.06905 -0.0045,-0.01838 -0.01455,-0.03341 -0.02211,-0.03341 -0.01841,0 -1.54e-4,-0.185876 0.02549,-0.259608 0.0108,-0.03087 0.03507,-0.10207 0.05409,-0.158209 0.03879,-0.114566 0.126373,-0.34359 0.14514,-0.379556 0.0067,-0.0129 0.02936,-0.06619 0.05024,-0.118317 0.02088,-0.05212 0.04632,-0.10177 0.05656,-0.110351 0.0102,-0.0086 0.01538,-0.02082 0.0114,-0.02724 -0.01305,-0.02135 0.210018,-0.427834 0.267852,-0.48805 0.0099,-0.01035 0.03474,-0.04188 0.05519,-0.07016 0.04184,-0.05785 0.260364,-0.282948 0.274679,-0.282948 0.0051,0 0.02919,-0.01533 0.05353,-0.03407 0.05645,-0.04345 0.200747,-0.115812 0.299004,-0.14994 0.08788,-0.03053 0.09014,-0.0309 0.07943,-0.01335 -0.0044,0.0072 0.01095,0.0035 0.03404,-0.0081 0.134399,-0.06769 0.739774,-0.05777 0.820134,0.0135 0.03209,0.02844 0.03285,0.02853 0.01035,0.0013 l -0.02436,-0.02931 0.100915,0.02558 c 0.105881,0.02684 0.219058,0.03423 0.219058,0.0144 0,-0.0065 -0.04923,-0.112391 -0.109406,-0.235468 -0.417658,-0.854287 -0.483233,-1.532936 -0.219506,-2.271716 0.01929,-0.05402 0.0486,-0.136124 0.06517,-0.182426 0.01656,-0.04631 0.06713,-0.162503 0.112392,-0.258212 0.04526,-0.09571 0.07996,-0.176377 0.07709,-0.179263 -0.0029,-0.003 -0.198428,-0.01773 -0.434601,-0.033 -0.23617,-0.01527 -0.601414,-0.0401 -0.811654,-0.05518 -0.210239,-0.01509 -0.488478,-0.03443 -0.618308,-0.04298 -0.279275,-0.01842 -0.259712,-0.0078 -0.185551,-0.10141 0.07444,-0.09405 0.169478,-0.219172 0.386352,-0.50871 0.0925,-0.123492 0.23255,-0.309775 0.31123,-0.413966 0.322991,-0.427732 0.784082,-1.037713 0.853905,-1.129639 0.25327,-0.333446 0.385502,-0.508629 0.58887,-0.780126 0.06703,-0.08948 0.131503,-0.17076 0.14328,-0.180634 0.0117,-0.0099 0.02142,-0.02418 0.02142,-0.03183 0,-0.0077 0.0237,-0.04316 0.05268,-0.07897 0.02898,-0.03581 0.06182,-0.0787 0.07298,-0.09532 0.02259,-0.03366 0.322039,-0.429245 0.410747,-0.542615 0.03128,-0.03996 0.124903,-0.164234 0.208067,-0.276144 0.08317,-0.111911 0.156147,-0.209792 0.16219,-0.217511 0.06473,-0.08269 0.121932,-0.159337 0.121932,-0.163385 0,-0.0028 -0.120402,-0.0052 -0.267576,-0.0054 -0.770861,-10e-4 -1.161236,-0.251995 -2.15124,-1.382495 l -0.07666,-0.08753 -0.0971,0.0733 c -0.250703,0.18925 -0.501074,0.235763 -0.764987,0.142124 -0.102206,-0.03626 -0.179096,-0.03672 -0.273325,-0.0015 -0.04043,0.01503 -0.179832,0.05878 -0.309797,0.09718 -0.574525,0.169741 -0.689532,0.160274 -0.789678,-0.06502 -0.153453,-0.345205 -0.09557,-0.418431 0.435225,-0.550597 0.232402,-0.05788 0.358562,-0.09635 0.368362,-0.112361 0.0098,-0.01584 0.02144,-0.0129 -0.368362,-0.09043 -0.576227,-0.114507 -0.638201,-0.152786 -0.650703,-0.40198 -0.02045,-0.407632 0.107321,-0.472855 0.69727,-0.355943 0.459329,0.09103 0.416824,0.08864 0.342635,0.01917 -0.0344,-0.03222 -0.116621,-0.100375 -0.182698,-0.151449 -0.06608,-0.05108 -0.169196,-0.130753 -0.229145,-0.177062 -0.313076,-0.241843 -0.366493,-0.367669 -0.256819,-0.604934 0.161696,-0.349802 0.270467,-0.322326 0.971805,0.245499 0.299173,0.242219 0.401635,0.288338 0.572564,0.257727 0.07177,-0.0129 0.0757,-0.01875 0.165472,-0.249111 0.08192,-0.210198 0.153848,-0.35973 0.168593,-0.35053 0.0072,0.0045 0.0096,-10e-4 0.0053,-0.0126 -0.01902,-0.05004 0.148139,-0.250518 0.225141,-0.270029 0.06304,-0.01598 0.178544,0.005 0.27723,0.05006 0.237659,0.108791 0.254727,0.207548 0.0961,0.556059 -0.0716,0.157332 -0.07724,0.170858 -0.107771,0.25853 -0.01215,0.03473 -0.04487,0.123132 -0.07282,0.19646 -0.06098,0.159928 -0.07312,0.269613 -0.04194,0.378885 0.108956,0.381944 0.118812,0.548444 0.04491,0.758825 -0.02054,0.05846 -0.03734,0.110141 -0.03734,0.114822 0,0.0084 0.19579,0.24335 0.365257,0.438414 0.701862,0.807885 1.21639,1.08514 1.922148,1.035764 l 0.213534,-0.015 0.03876,-0.04634 c 0.02132,-0.02547 0.118872,-0.152861 0.21677,-0.283055 l 0.178007,-0.236722 -0.04248,-0.0697 c -0.02337,-0.03833 -0.04248,-0.07316 -0.04248,-0.07741 0,-0.0042 -0.04379,-0.08267 -0.0973,-0.174287 -0.05351,-0.09161 -0.0973,-0.169556 -0.0973,-0.173197 0,-0.0036 -0.03753,-0.07043 -0.08339,-0.148425 -0.04587,-0.07799 -0.08341,-0.144689 -0.08341,-0.148214 0,-0.0035 -0.03036,-0.05872 -0.06746,-0.122623 -0.0371,-0.06391 -0.09448,-0.16672 -0.127512,-0.228463 -0.03302,-0.06175 -0.08398,-0.15184 -0.113232,-0.200213 -0.02925,-0.04838 -0.0532,-0.09175 -0.0532,-0.0964 0,-0.0047 -0.0213,-0.044 -0.04734,-0.08746 -0.02604,-0.04346 -0.07816,-0.135853 -0.115811,-0.205312 -0.06125,-0.112961 -0.113802,-0.207168 -0.305354,-0.547277 -0.03042,-0.05402 -0.07438,-0.132958 -0.09767,-0.17541 -0.02328,-0.04245 -0.0938,-0.168744 -0.156689,-0.280657 -0.06289,-0.111911 -0.133064,-0.238049 -0.155956,-0.280307 -0.04373,-0.08072 -0.168869,-0.304292 -0.302606,-0.540608 -0.04368,-0.07718 -0.09817,-0.17506 -0.121092,-0.217508 -0.02294,-0.04245 -0.137218,-0.247678 -0.25398,-0.456066 -0.116756,-0.208386 -0.2295,-0.410458 -0.250528,-0.449049 -0.02103,-0.03858 -0.07228,-0.130153 -0.113876,-0.203475 -0.0416,-0.07333 -0.124647,-0.221716 -0.184532,-0.329769 -0.05989,-0.108055 -0.133723,-0.239896 -0.164059,-0.292986 -0.03035,-0.05309 -0.07223,-0.128863 -0.0931,-0.168392 -0.02087,-0.03953 -0.05199,-0.09555 -0.06919,-0.124483 -0.01719,-0.02894 -0.0249,-0.05262 -0.01712,-0.05262 0.0078,0 0.288311,0.0249 0.623402,0.05537 0.335092,0.03045 0.728101,0.06544 0.873357,0.07775 0.14526,0.0123 0.545579,0.04734 0.889607,0.07787 0.344025,0.03051 0.825195,0.07289 1.069264,0.09415 l 0.443759,0.03867 0.06557,0.140324 c 0.170573,0.365002 0.290965,0.625846 0.290965,0.630415 0,0.0028 0.04377,0.09664 0.0973,0.208611 0.05351,0.111971 0.0973,0.207163 0.0973,0.211537 0,0.0044 0.03372,0.07921 0.07492,0.166303 0.04121,0.08708 0.112526,0.240438 0.158485,0.340772 0.07711,0.168342 0.194463,0.421188 0.35821,0.771802 0.03605,0.07718 0.101485,0.219262 0.14541,0.315736 0.306477,0.673023 0.439827,0.955623 0.450873,0.955518 0.0051,-5.7e-5 0.06181,-0.08087 0.125982,-0.179607 0.06418,-0.09874 0.135704,-0.205395 0.158955,-0.237022 0.02324,-0.03162 0.04227,-0.06217 0.04227,-0.06787 0,-0.0057 0.0182,-0.03666 0.04041,-0.0688 0.02222,-0.03213 0.124272,-0.187879 0.226745,-0.346097 0.161189,-0.248859 0.311219,-0.478916 0.603093,-0.9248 0.0374,-0.05714 0.08015,-0.123447 0.09499,-0.147345 0.03045,-0.04905 0.248641,-0.385216 0.547349,-0.843328 0.110712,-0.169796 0.239453,-0.367738 0.286085,-0.439868 l 0.08479,-0.131144 0.173752,0.0086 c 0.160701,0.008 0.426921,0.03065 0.750606,0.06404 0.113127,0.0117 1.043694,0.09347 1.598514,0.140534 0.756194,0.06413 1.224774,0.109196 1.234204,0.118722 0.0035,0.0035 -0.06977,0.106 -0.162602,0.227934 -0.09283,0.121932 -0.216699,0.284853 -0.275272,0.362031 -0.127078,0.167453 -0.195736,0.257177 -0.288978,0.377661 -0.03822,0.04939 -0.122668,0.160803 -0.187651,0.247582 -0.06499,0.08678 -0.155681,0.206668 -0.201553,0.266427 -0.04587,0.05977 -0.127182,0.166392 -0.1807,0.236963 -0.05351,0.07057 -0.122847,0.161238 -0.154063,0.201478 -0.03122,0.04023 -0.118421,0.155258 -0.19379,0.255594 -0.07537,0.10033 -0.163119,0.213999 -0.195014,0.252591 -0.03189,0.03858 -0.07292,0.09307 -0.09116,0.121077 -0.01824,0.02799 -0.08947,0.123402 -0.158275,0.212004 -0.06881,0.0886 -0.140744,0.182028 -0.159851,0.207619 -0.01913,0.02558 -0.08167,0.107816 -0.139004,0.182716 -0.05734,0.0749 -0.137009,0.179578 -0.177051,0.232613 -0.123927,0.164146 -0.293033,0.386543 -0.372088,0.489344 -0.14967,0.194625 -0.253276,0.330788 -0.437768,0.575332 -0.189859,0.251656 -0.345988,0.456323 -0.406795,0.533256 -0.207008,0.261913 -0.197816,0.223136 -0.09758,0.411807 0.04368,0.08222 0.09874,0.188391 0.122337,0.235921 0.0236,0.04752 0.04949,0.09488 0.0575,0.10525 0.0081,0.01035 0.03242,0.05356 0.05421,0.09601 0.05464,0.106405 0.07093,0.123372 0.164012,0.170849 0.415979,0.212168 0.932583,0.05645 1.61447,-0.486625 0.05353,-0.04262 0.139529,-0.109496 0.191126,-0.148605 0.103901,-0.07876 0.102791,-0.07528 0.07166,-0.223222 -0.03536,-0.168116 -0.0062,-0.370914 0.0809,-0.561311 0.07864,-0.172021 0.108056,-0.257978 0.107785,-0.314889 -4.87e-4,-0.09202 -0.08753,-0.570587 -0.149594,-0.821766 -0.0574,-0.232359 0.05112,-0.370858 0.305753,-0.390189 0.261524,-0.01985 0.345064,0.111162 0.476986,0.748026 0.04103,0.198077 0.0491,0.208021 0.188144,0.231698 0.125068,0.02129 0.189215,0.0062 0.339461,-0.08039 0.06125,-0.03527 0.164535,-0.09473 0.229516,-0.132148 0.628935,-0.362172 0.759407,-0.381755 0.880475,-0.132148 0.152608,0.314646 0.06911,0.43799 -0.49822,0.735979 -0.04588,0.02408 -0.102161,0.05494 -0.125098,0.06854 -0.02294,0.01365 -0.07508,0.04327 -0.115887,0.06593 -0.10012,0.05559 -0.08489,0.05827 0.264645,0.0464 0.614832,-0.02088 0.698138,0.01956 0.696026,0.337852 -0.0022,0.355534 -0.118782,0.402994 -1.001982,0.408466 -0.04692,2.58e-4 -0.07058,0.0057 -0.06496,0.01485 0.0099,0.01623 0.231107,0.130393 0.284706,0.146955 0.118572,0.03665 0.429275,0.203174 0.463447,0.248404 0.06461,0.08551 0.03795,0.232463 -0.07123,0.392652 -0.135389,0.198663 -0.270509,0.172182 -0.996292,-0.195252 -0.165016,-0.08354 -0.166695,-0.08383 -0.390672,-0.06677 -0.295375,0.02249 -0.553687,-0.09472 -0.705507,-0.320118 -0.02424,-0.03599 -0.01755,-0.03897 -0.206122,0.09167 -0.06385,0.04424 -0.150499,0.104245 -0.192547,0.133348 -0.682064,0.472049 -1.101804,0.626037 -1.466401,0.537963 -0.129298,-0.03123 -0.130033,-0.03099 -0.0937,0.02984 0.03593,0.06016 0.103015,0.183968 0.142949,0.263852 0.01736,0.03473 0.06412,0.123132 0.103885,0.196458 0.03977,0.07333 0.117867,0.21856 0.173542,0.322755 0.05567,0.104185 0.137099,0.255747 0.180926,0.336788 0.04383,0.08104 0.110876,0.207331 0.14898,0.280654 0.143609,0.276335 0.203524,0.389064 0.262527,0.494001 0.03344,0.05945 0.06079,0.111311 0.06079,0.115241 0,0.0063 0.06598,0.131128 0.219486,0.415144 0.04707,0.08708 0.08161,0.151848 0.329189,0.617441 0.05951,0.111911 0.14805,0.277675 0.196764,0.368362 0.204113,0.38 0.268887,0.501248 0.33173,0.620949 0.03647,0.06946 0.112391,0.212549 0.168723,0.31797 0.123237,0.230641 0.122412,0.224619 0.02945,0.214937 -0.08714,-0.009 -1.474251,-0.104905 -1.518456,-0.104905 h -0.03074 l 0.03809,0.150852 c 0.191451,0.75811 0.168244,1.562574 -0.07133,2.472712 -0.0233,0.08845 -0.04748,0.188596 -0.05375,0.222553 l -0.0114,0.06175 0.08537,-0.0072 c 0.04695,-0.0039 0.144795,-0.02081 0.217416,-0.03743 0.164535,-0.03765 0.327529,-0.07081 0.382253,-0.07775 0.02294,-0.003 0.09098,-0.01275 0.151221,-0.02175 0.116757,-0.01755 0.447439,-0.0065 0.460874,0.01557 0.0041,0.0066 0.01809,0.008 0.03123,0.003 0.0216,-0.0081 0.02189,-0.0066 0.003,0.01691 -0.01962,0.02442 -0.0191,0.02483 0.0096,0.0067 0.133438,-0.08389 0.614797,0.253538 0.891659,0.625041 0.269385,0.361471 0.678197,1.162701 0.704815,1.381365 0.01842,0.151288 -0.123162,0.226089 -0.382832,0.202257 z"
       id="path977-4" /><path
       style="fill:#000000;stroke-width:0.0139663"
       d="m 67.065188,50.218172 c -0.414197,-0.03801 -1.760829,-0.452785 -2.26498,-0.697626 -0.437681,-0.212562 -0.993862,-0.688649 -1.023562,-0.876162 -0.01866,-0.117777 0.133544,-0.30464 0.323451,-0.397114 0.0521,-0.02537 0.09647,-0.0472 0.0986,-0.04852 0.0066,-0.004 0.110906,-0.372616 0.134803,-0.476338 0.217726,-0.94542 0.231263,-1.501792 0.05446,-2.238225 -0.08282,-0.344989 -0.06641,-0.30872 -0.139694,-0.30872 -0.0565,0 -0.284357,-0.01568 -1.316908,-0.09067 -0.15211,-0.0111 -0.28157,-0.02516 -0.287687,-0.03135 -0.0062,-0.0062 -0.115272,-0.21335 -0.24255,-0.460327 -0.127288,-0.246976 -0.278605,-0.540612 -0.336267,-0.652524 -0.05767,-0.111911 -0.115751,-0.222421 -0.129087,-0.245574 -0.02265,-0.0393 -0.08773,-0.165125 -0.319337,-0.617441 -0.05138,-0.10033 -0.133064,-0.258203 -0.181538,-0.350819 -0.226314,-0.432454 -0.438809,-0.843188 -0.517268,-0.999833 -0.09974,-0.199135 -0.08711,-0.190563 -0.14916,-0.101245 -0.02676,0.03851 -0.08689,0.122037 -0.133633,0.185616 -0.04675,0.06358 -0.132674,0.181901 -0.190944,0.262939 -0.05828,0.08104 -0.134008,0.185234 -0.16829,0.231541 -0.03428,0.04631 -0.153414,0.210492 -0.264736,0.364851 -0.184931,0.256427 -0.459425,0.63428 -0.619755,0.853113 -0.111506,0.152197 -0.357088,0.490441 -0.450503,0.620487 -0.03057,0.04257 -0.09001,0.123808 -0.132058,0.180522 -0.04205,0.05672 -0.120237,0.164801 -0.173752,0.240192 -0.05351,0.07538 -0.112946,0.155287 -0.132058,0.177547 l -0.03474,0.04047 -0.152902,-0.01335 c -0.321758,-0.02822 -1.075522,-0.07486 -1.09334,-0.06764 -0.02478,0.01005 -0.119142,0.200434 -0.227725,0.459534 -0.358343,0.855067 -0.300663,1.589665 0.192821,2.455733 0.03738,0.0656 0.08374,0.14769 0.10303,0.182426 0.05101,0.09184 0.05372,0.09415 0.132823,0.112946 0.158874,0.03777 0.369085,0.183854 0.41484,0.288279 0.10117,0.230898 -0.577032,0.884939 -1.209423,1.166333 -0.279628,0.124422 -0.274905,0.122412 -0.384139,0.164402 -0.05351,0.02057 -0.112931,0.04416 -0.132043,0.05243 -0.06533,0.02823 -0.396029,0.154563 -0.472604,0.18054 -0.04205,0.01425 -0.140714,0.04859 -0.219272,0.07628 -0.498727,0.175788 -0.909039,0.205834 -0.943043,0.06905 -0.0045,-0.01838 -0.01455,-0.03341 -0.02211,-0.03341 -0.01841,0 -1.54e-4,-0.185876 0.02549,-0.259609 0.0108,-0.03087 0.03507,-0.10207 0.05409,-0.158208 0.03879,-0.114567 0.126373,-0.34359 0.14514,-0.379556 0.0067,-0.0129 0.02936,-0.06619 0.05024,-0.118317 0.02088,-0.05212 0.04632,-0.10177 0.05656,-0.110351 0.0102,-0.0086 0.01538,-0.02082 0.0114,-0.02724 -0.01305,-0.02135 0.210018,-0.427834 0.267852,-0.48805 0.0099,-0.01035 0.03474,-0.04188 0.05519,-0.07016 0.04184,-0.05785 0.260364,-0.282947 0.274679,-0.282947 0.0051,0 0.02919,-0.01533 0.05353,-0.03407 0.05645,-0.04344 0.200747,-0.115811 0.299004,-0.14994 0.08788,-0.03053 0.09014,-0.0309 0.07943,-0.01335 -0.0044,0.0072 0.01095,0.0035 0.03404,-0.0081 0.134399,-0.06769 0.739774,-0.05777 0.820134,0.0135 0.03209,0.02844 0.03285,0.02853 0.01035,0.0013 l -0.02436,-0.02931 0.100915,0.02558 c 0.105881,0.02684 0.219058,0.03423 0.219058,0.0144 0,-0.0065 -0.04923,-0.112392 -0.109406,-0.235468 -0.417658,-0.854288 -0.483233,-1.532936 -0.219506,-2.271716 0.01929,-0.05402 0.0486,-0.136124 0.06517,-0.182426 0.01656,-0.04631 0.06713,-0.162504 0.112392,-0.258212 0.04526,-0.09571 0.07996,-0.176377 0.07709,-0.179263 -0.0029,-0.003 -0.198428,-0.01773 -0.434601,-0.033 -0.23617,-0.01527 -0.601414,-0.0401 -0.811654,-0.05517 -0.210239,-0.01509 -0.488478,-0.03443 -0.618308,-0.04298 -0.279275,-0.01842 -0.259712,-0.0078 -0.185551,-0.101411 0.07444,-0.09404 0.169478,-0.219171 0.386352,-0.508709 0.0925,-0.123493 0.23255,-0.309775 0.31123,-0.413967 0.322991,-0.427731 0.784082,-1.037712 0.853905,-1.129638 0.25327,-0.333446 0.385502,-0.508629 0.58887,-0.780126 0.06703,-0.08948 0.131503,-0.170761 0.14328,-0.180635 0.0117,-0.0099 0.02142,-0.02418 0.02142,-0.03183 0,-0.0077 0.0237,-0.04316 0.05268,-0.07897 0.02898,-0.03581 0.06182,-0.0787 0.07298,-0.09532 0.02259,-0.03366 0.322039,-0.429246 0.410747,-0.542615 0.03128,-0.03996 0.124903,-0.164235 0.208067,-0.276144 0.08317,-0.111912 0.156147,-0.209792 0.16219,-0.217512 0.06473,-0.08269 0.121932,-0.159337 0.121932,-0.163384 0,-0.0029 -0.120402,-0.0053 -0.267576,-0.0054 -0.770861,-0.001 -1.161236,-0.251995 -2.15124,-1.382494 l -0.07666,-0.08753 -0.09711,0.0733 c -0.250703,0.18925 -0.501074,0.235764 -0.764987,0.142125 -0.102206,-0.03626 -0.179096,-0.03672 -0.273325,-0.0015 -0.04043,0.01503 -0.179832,0.05878 -0.309797,0.09718 -0.574525,0.169741 -0.689532,0.160273 -0.789678,-0.06502 -0.153453,-0.345206 -0.09557,-0.418431 0.435225,-0.550597 0.232402,-0.05788 0.358562,-0.09636 0.368362,-0.112362 0.0098,-0.01584 0.02144,-0.0129 -0.368362,-0.09043 -0.576227,-0.114506 -0.638201,-0.152785 -0.650703,-0.40198 -0.02045,-0.407631 0.107321,-0.472855 0.69727,-0.355942 0.459329,0.09103 0.416824,0.08864 0.342635,0.01917 -0.0344,-0.03222 -0.116621,-0.100375 -0.182698,-0.151449 -0.06608,-0.05108 -0.169196,-0.130753 -0.229145,-0.177063 -0.313076,-0.241842 -0.366493,-0.367668 -0.256819,-0.604934 0.161696,-0.349802 0.270467,-0.322325 0.971805,0.2455 0.299173,0.242219 0.401635,0.288338 0.572564,0.257727 0.07177,-0.0129 0.0757,-0.01875 0.165472,-0.249112 0.08192,-0.210198 0.153848,-0.35973 0.168593,-0.350529 0.0072,0.0045 0.0096,-10e-4 0.0053,-0.0126 -0.01902,-0.05004 0.148139,-0.250517 0.225141,-0.270028 0.06304,-0.01598 0.178544,0.005 0.27723,0.05006 0.237659,0.108791 0.254727,0.207547 0.0961,0.556059 -0.0716,0.157331 -0.07724,0.170858 -0.107771,0.25853 -0.01215,0.03473 -0.04487,0.123132 -0.07282,0.196459 -0.06098,0.159928 -0.07312,0.269613 -0.04194,0.378886 0.108956,0.381944 0.118812,0.548444 0.04491,0.758825 -0.02054,0.05846 -0.03734,0.110141 -0.03734,0.114822 0,0.0084 0.19579,0.243349 0.365257,0.438414 0.701862,0.807885 1.216391,1.085139 1.922148,1.035763 l 0.213534,-0.015 0.03876,-0.04634 c 0.02132,-0.02547 0.118872,-0.152861 0.21677,-0.283054 l 0.178007,-0.236722 -0.04248,-0.0697 c -0.02337,-0.03833 -0.04248,-0.07316 -0.04248,-0.07741 0,-0.0042 -0.04379,-0.08267 -0.0973,-0.174287 -0.05351,-0.09161 -0.0973,-0.169556 -0.0973,-0.173197 0,-0.0036 -0.03753,-0.07043 -0.08339,-0.148425 -0.04587,-0.07799 -0.08341,-0.144689 -0.08341,-0.148215 0,-0.0035 -0.03036,-0.05872 -0.06746,-0.122622 -0.0371,-0.06391 -0.09448,-0.166721 -0.127512,-0.228464 -0.03302,-0.06175 -0.08398,-0.151839 -0.113232,-0.200213 -0.02925,-0.04838 -0.0532,-0.09175 -0.0532,-0.0964 0,-0.0047 -0.0213,-0.044 -0.04734,-0.08746 -0.02604,-0.04346 -0.07816,-0.135854 -0.115811,-0.205312 -0.06125,-0.112961 -0.113802,-0.207168 -0.305354,-0.547277 -0.03042,-0.05402 -0.07438,-0.132959 -0.09767,-0.17541 -0.02328,-0.04245 -0.0938,-0.168744 -0.156689,-0.280657 -0.06289,-0.111911 -0.133064,-0.23805 -0.155956,-0.280307 -0.04373,-0.08072 -0.168869,-0.304292 -0.302606,-0.540608 -0.04368,-0.07718 -0.09817,-0.17506 -0.121092,-0.217508 -0.02294,-0.04245 -0.137218,-0.247678 -0.25398,-0.456067 -0.116756,-0.208386 -0.2295,-0.410457 -0.250528,-0.449049 -0.02103,-0.03858 -0.07228,-0.130153 -0.113876,-0.203474 -0.0416,-0.07333 -0.124647,-0.221716 -0.184532,-0.329769 -0.05989,-0.108056 -0.133723,-0.239896 -0.164059,-0.292987 -0.03035,-0.05309 -0.07223,-0.128863 -0.0931,-0.168391 -0.02087,-0.03953 -0.05199,-0.09555 -0.06919,-0.124483 -0.01719,-0.02894 -0.0249,-0.05263 -0.01712,-0.05263 0.0078,0 0.288311,0.0249 0.623402,0.05537 0.335092,0.03045 0.728101,0.06544 0.873357,0.07775 0.14526,0.0123 0.545579,0.04734 0.889607,0.07787 0.344025,0.03051 0.825195,0.07289 1.069264,0.09415 l 0.443759,0.03867 0.06557,0.140324 c 0.170573,0.365003 0.290965,0.625846 0.290965,0.630416 0,0.0029 0.04377,0.09664 0.0973,0.208611 0.05351,0.111971 0.0973,0.207163 0.0973,0.211537 0,0.0044 0.03372,0.07921 0.07492,0.166302 0.04121,0.08708 0.112526,0.240438 0.158485,0.340773 0.07711,0.168342 0.194463,0.421188 0.35821,0.771801 0.03605,0.07718 0.101485,0.219262 0.14541,0.315737 0.306477,0.673023 0.439827,0.955622 0.450873,0.955517 0.0051,-5.7e-5 0.06181,-0.08087 0.125982,-0.179607 0.06418,-0.09874 0.135704,-0.205394 0.158955,-0.237022 0.02324,-0.03162 0.04227,-0.06217 0.04227,-0.06787 0,-0.0057 0.0182,-0.03666 0.04041,-0.0688 0.02222,-0.03213 0.124272,-0.187879 0.226745,-0.346097 0.161189,-0.24886 0.311219,-0.478917 0.603093,-0.9248 0.0374,-0.05714 0.08015,-0.123448 0.09499,-0.147345 0.03045,-0.04906 0.248641,-0.385216 0.547349,-0.843329 0.110712,-0.169796 0.239453,-0.367738 0.286085,-0.439868 l 0.08479,-0.131143 0.173751,0.0086 c 0.160701,0.008 0.426921,0.03065 0.750606,0.06404 0.113127,0.0117 1.043694,0.09348 1.598514,0.140534 0.756194,0.06413 1.224774,0.109196 1.234204,0.118722 0.0035,0.0035 -0.06977,0.106001 -0.162602,0.227935 -0.09283,0.121932 -0.216699,0.284853 -0.275272,0.362031 -0.127078,0.167452 -0.195736,0.257176 -0.288978,0.377661 -0.03822,0.04939 -0.122668,0.160803 -0.187651,0.247582 -0.06499,0.08678 -0.155681,0.206668 -0.201553,0.266426 -0.04587,0.05977 -0.127182,0.166392 -0.1807,0.236964 -0.05351,0.07057 -0.122847,0.161238 -0.154063,0.201478 -0.03122,0.04023 -0.118421,0.155258 -0.19379,0.255594 -0.07537,0.10033 -0.163119,0.213999 -0.195014,0.25259 -0.03189,0.03858 -0.07292,0.09307 -0.09116,0.121078 -0.01824,0.02799 -0.08947,0.123402 -0.158275,0.212004 -0.06881,0.0886 -0.140744,0.182028 -0.159851,0.207619 -0.01913,0.02558 -0.08167,0.107816 -0.139004,0.182715 -0.05734,0.0749 -0.137009,0.179579 -0.177051,0.232613 -0.123927,0.164147 -0.293033,0.386544 -0.372088,0.489345 -0.14967,0.194625 -0.253276,0.330787 -0.437768,0.575331 -0.189859,0.251656 -0.345988,0.456323 -0.406795,0.533257 -0.207008,0.261913 -0.197816,0.223135 -0.09758,0.411806 0.04368,0.08222 0.09874,0.188392 0.122337,0.235921 0.0236,0.04753 0.04949,0.09489 0.0575,0.105251 0.0081,0.01035 0.03242,0.05355 0.05421,0.09601 0.05464,0.106406 0.07093,0.123373 0.164012,0.170849 0.415979,0.212168 0.932583,0.05645 1.61447,-0.486624 0.05353,-0.04262 0.139529,-0.109496 0.191126,-0.148605 0.103901,-0.07876 0.102791,-0.07528 0.07166,-0.223222 -0.03536,-0.168116 -0.0062,-0.370914 0.0809,-0.561311 0.07864,-0.172021 0.108056,-0.257978 0.107785,-0.314889 -4.87e-4,-0.09202 -0.08753,-0.570587 -0.149594,-0.821766 -0.0574,-0.23236 0.05112,-0.370858 0.305753,-0.390189 0.261524,-0.01985 0.345064,0.111161 0.476986,0.748026 0.04103,0.198077 0.0491,0.208021 0.188144,0.231698 0.125068,0.02129 0.189215,0.0062 0.339461,-0.08039 0.06125,-0.03527 0.164535,-0.09474 0.229516,-0.132148 0.628935,-0.362172 0.759407,-0.381755 0.880475,-0.132148 0.152608,0.314645 0.06911,0.437989 -0.49822,0.735979 -0.04588,0.02408 -0.102161,0.05494 -0.125098,0.06854 -0.02294,0.01365 -0.07508,0.04326 -0.115886,0.06593 -0.100121,0.0556 -0.08489,0.05827 0.264644,0.0464 0.614832,-0.02088 0.698138,0.01956 0.696026,0.337852 -0.0023,0.355534 -0.118782,0.402994 -1.001982,0.408465 -0.04692,2.58e-4 -0.07058,0.0057 -0.06496,0.01485 0.0099,0.01623 0.231107,0.130393 0.284706,0.146954 0.118572,0.03665 0.429275,0.203175 0.463447,0.248404 0.06461,0.08551 0.03795,0.232463 -0.07123,0.392652 -0.135389,0.198664 -0.270509,0.172183 -0.996292,-0.195252 -0.165016,-0.08354 -0.166695,-0.08383 -0.390672,-0.06677 -0.295375,0.02249 -0.553687,-0.09472 -0.705507,-0.320119 -0.02424,-0.03599 -0.01755,-0.03897 -0.206122,0.09167 -0.06385,0.04424 -0.150499,0.104246 -0.192547,0.133349 -0.682064,0.472049 -1.101804,0.626036 -1.466401,0.537962 -0.129298,-0.03123 -0.130033,-0.03099 -0.0937,0.02984 0.03593,0.06016 0.103015,0.183968 0.142949,0.263853 0.01736,0.03473 0.06412,0.123132 0.103885,0.196458 0.03977,0.07333 0.117867,0.21856 0.173542,0.322754 0.05567,0.104186 0.137099,0.255747 0.180926,0.336788 0.04383,0.08104 0.110876,0.207332 0.14898,0.280654 0.143609,0.276335 0.203524,0.389064 0.262527,0.494001 0.03344,0.05945 0.06079,0.111311 0.06079,0.115242 0,0.0063 0.06598,0.131128 0.219486,0.415144 0.04708,0.08708 0.08161,0.151848 0.329189,0.61744 0.05951,0.111912 0.14805,0.277675 0.196764,0.368362 0.204113,0.38 0.268887,0.501248 0.33173,0.62095 0.03647,0.06946 0.112391,0.212549 0.168723,0.31797 0.123237,0.230641 0.122412,0.224619 0.02945,0.214937 -0.08714,-0.009 -1.474251,-0.104905 -1.518456,-0.104905 h -0.03074 l 0.03809,0.150852 c 0.191451,0.758109 0.168244,1.562574 -0.07133,2.472712 -0.0233,0.08845 -0.04748,0.188595 -0.05375,0.222553 l -0.0114,0.06175 0.08537,-0.0072 c 0.04695,-0.0039 0.144795,-0.02081 0.217416,-0.03743 0.164535,-0.03765 0.327529,-0.07081 0.382253,-0.07775 0.02294,-0.003 0.09098,-0.01275 0.151221,-0.02175 0.116757,-0.01755 0.447439,-0.0065 0.460874,0.01557 0.0041,0.0066 0.01809,0.008 0.03123,0.003 0.0216,-0.0081 0.02189,-0.0066 0.003,0.01691 -0.01962,0.02442 -0.0191,0.02483 0.0096,0.0068 0.133438,-0.08389 0.614797,0.253537 0.891659,0.62504 0.269385,0.361472 0.678197,1.162702 0.704815,1.381365 0.01842,0.151289 -0.123162,0.226089 -0.382832,0.202258 z"
       id="path977-8" /><path
       style="fill:#000000;stroke-width:0.0139069"
       d="m 78.942038,39.064956 c -0.412436,-0.03785 -1.75334,-0.450858 -2.255348,-0.694658 -0.435819,-0.211659 -0.989634,-0.685721 -1.019207,-0.872436 -0.01859,-0.117282 0.132973,-0.303345 0.322074,-0.395424 0.05187,-0.02526 0.09607,-0.047 0.09819,-0.0483 0.0066,-0.0041 0.110441,-0.371031 0.134233,-0.474312 0.216801,-0.941399 0.230279,-1.495406 0.05423,-2.228706 -0.08248,-0.343523 -0.06613,-0.307408 -0.139094,-0.307408 -0.05626,0 -0.283147,-0.0156 -1.311308,-0.09028 -0.151463,-0.0111 -0.280372,-0.02505 -0.286463,-0.03122 -0.0061,-0.0062 -0.114776,-0.212442 -0.241519,-0.458369 -0.126748,-0.245926 -0.27742,-0.538313 -0.334835,-0.649748 -0.05743,-0.111431 -0.115257,-0.221475 -0.128533,-0.244531 -0.02256,-0.03914 -0.08735,-0.164422 -0.317979,-0.614814 -0.05116,-0.09991 -0.132494,-0.257104 -0.180765,-0.349328 -0.225353,-0.430615 -0.436943,-0.8396 -0.515069,-0.99558 -0.09932,-0.198288 -0.08674,-0.189753 -0.14853,-0.10081 -0.02664,0.03834 -0.08651,0.121512 -0.133064,0.184827 -0.04655,0.06331 -0.132103,0.181127 -0.190132,0.26182 -0.05804,0.08069 -0.133438,0.184446 -0.167574,0.230557 -0.03413,0.04611 -0.152762,0.209596 -0.263609,0.363298 -0.184145,0.255338 -0.457472,0.631583 -0.61712,0.849486 -0.111026,0.151549 -0.35557,0.488354 -0.448587,0.617848 -0.03044,0.04239 -0.08962,0.123283 -0.131503,0.179754 -0.04187,0.05648 -0.119727,0.1641 -0.173012,0.239171 -0.05329,0.07507 -0.112466,0.154626 -0.131503,0.176792 l -0.03459,0.04031 -0.152251,-0.01335 c -0.320389,-0.0281 -1.070948,-0.07454 -1.088691,-0.06736 -0.02468,0.01005 -0.118631,0.19958 -0.226755,0.457579 -0.356821,0.851431 -0.299385,1.582904 0.192,2.445289 0.03722,0.06532 0.08338,0.14706 0.102595,0.181651 0.0508,0.09145 0.0535,0.09374 0.132253,0.112466 0.158199,0.03761 0.367516,0.183072 0.413076,0.287054 0.100735,0.229915 -0.574577,0.881174 -1.204279,1.161372 -0.278438,0.123897 -0.273737,0.121887 -0.382505,0.163702 -0.05329,0.02048 -0.112451,0.04398 -0.131488,0.05221 -0.06505,0.02811 -0.394344,0.153906 -0.470594,0.179772 -0.04187,0.01425 -0.140114,0.04838 -0.218339,0.07595 -0.496605,0.175039 -0.905173,0.204958 -0.939033,0.06875 -0.0045,-0.0183 -0.01455,-0.03327 -0.02202,-0.03327 -0.01833,0 -1.54e-4,-0.185086 0.02538,-0.258505 0.0108,-0.03074 0.03492,-0.101635 0.05387,-0.157536 0.03863,-0.114087 0.125833,-0.342129 0.144524,-0.377942 0.0068,-0.0129 0.02924,-0.0659 0.05003,-0.117807 0.02079,-0.05189 0.04613,-0.101335 0.05632,-0.109886 0.0102,-0.0086 0.01532,-0.02073 0.0114,-0.02712 -0.01305,-0.02126 0.209124,-0.426014 0.266712,-0.485975 0.0099,-0.01035 0.03459,-0.0417 0.05495,-0.06986 0.04166,-0.0576 0.259258,-0.281744 0.273511,-0.281744 0.0051,0 0.02907,-0.01527 0.0533,-0.03392 0.05621,-0.04326 0.199892,-0.115316 0.297732,-0.149295 0.0875,-0.03039 0.08975,-0.03077 0.0791,-0.01335 -0.0044,0.0072 0.01095,0.0035 0.03389,-0.0081 0.133828,-0.0674 0.736628,-0.05753 0.816646,0.0135 0.03195,0.02832 0.03272,0.02841 0.01035,0.0013 l -0.02426,-0.02919 0.10048,0.02547 c 0.105431,0.02672 0.218127,0.03408 0.218127,0.0144 0,-0.0065 -0.04902,-0.111911 -0.108941,-0.234468 -0.415882,-0.850654 -0.481178,-1.526416 -0.218574,-2.262053 0.01922,-0.0538 0.04839,-0.135539 0.0649,-0.18165 0.01649,-0.04612 0.06685,-0.161812 0.111911,-0.257114 0.04507,-0.0953 0.07961,-0.175627 0.07676,-0.178501 -0.0029,-0.003 -0.197584,-0.01766 -0.432753,-0.03287 -0.235165,-0.01521 -0.598857,-0.03993 -0.808203,-0.05494 -0.209344,-0.01503 -0.486399,-0.03428 -0.615678,-0.0428 -0.278087,-0.01835 -0.258606,-0.0078 -0.184761,-0.100975 0.07412,-0.09364 0.168758,-0.218239 0.384709,-0.506546 0.09211,-0.122967 0.231561,-0.308457 0.309907,-0.412206 0.321617,-0.425912 0.780747,-1.033299 0.850273,-1.124834 0.252193,-0.332028 0.383862,-0.506465 0.586365,-0.776809 0.06674,-0.08911 0.130948,-0.170033 0.142664,-0.179865 0.0117,-0.0099 0.02133,-0.02408 0.02133,-0.0317 0,-0.0077 0.0236,-0.04298 0.05246,-0.07864 0.02886,-0.03566 0.06157,-0.07837 0.07267,-0.09491 0.0225,-0.03351 0.320669,-0.42742 0.409,-0.540308 0.03114,-0.0398 0.124378,-0.163535 0.207182,-0.27497 0.08281,-0.111431 0.155483,-0.208898 0.1615,-0.216585 0.06446,-0.08234 0.121407,-0.158661 0.121407,-0.16269 0,-0.0029 -0.119892,-0.0053 -0.266437,-0.0054 -0.767583,-10e-4 -1.156298,-0.250922 -2.142091,-1.376614 l -0.07633,-0.08716 -0.09668,0.07298 c -0.249636,0.188446 -0.498942,0.234761 -0.761734,0.141524 -0.10177,-0.03611 -0.178333,-0.03657 -0.272161,-0.0015 -0.04026,0.015 -0.179067,0.05852 -0.308481,0.09678 -0.57208,0.169019 -0.686599,0.15959 -0.786318,-0.06475 -0.152801,-0.343737 -0.09517,-0.416651 0.433374,-0.548255 0.231413,-0.05764 0.357037,-0.09595 0.366795,-0.111881 0.0098,-0.01577 0.02135,-0.0129 -0.366795,-0.09004 -0.573776,-0.114012 -0.635488,-0.152136 -0.647936,-0.40027 -0.02036,-0.405899 0.106871,-0.470845 0.694304,-0.354429 0.457376,0.09064 0.415051,0.08827 0.341179,0.01908 -0.03425,-0.03209 -0.116127,-0.09995 -0.181922,-0.150804 -0.0658,-0.05085 -0.168477,-0.130198 -0.228171,-0.176309 -0.311743,-0.240815 -0.364934,-0.366106 -0.255726,-0.602362 0.161008,-0.348315 0.269317,-0.320954 0.967671,0.244456 0.297902,0.241188 0.399928,0.28711 0.570129,0.25663 0.07147,-0.0129 0.07538,-0.01868 0.164769,-0.248052 0.08158,-0.209304 0.153194,-0.3582 0.167876,-0.349039 0.0072,0.0045 0.0096,-0.001 0.0053,-0.0126 -0.01895,-0.04984 0.147509,-0.249452 0.224184,-0.268881 0.06277,-0.0159 0.177785,0.005 0.276051,0.04985 0.236647,0.108326 0.253644,0.206665 0.09569,0.553695 -0.0713,0.156662 -0.07691,0.170132 -0.107306,0.25743 -0.01215,0.03458 -0.04467,0.122607 -0.0725,0.195624 -0.06073,0.159249 -0.0728,0.268467 -0.04176,0.377274 0.10849,0.38032 0.118301,0.546112 0.04472,0.755599 -0.02045,0.05821 -0.03717,0.109676 -0.03717,0.114326 0,0.0084 0.194957,0.242315 0.363703,0.43655 0.698878,0.804449 1.211218,1.080525 1.913973,1.031359 l 0.212627,-0.015 0.0386,-0.04614 c 0.02123,-0.02537 0.118362,-0.152211 0.215848,-0.281851 l 0.17725,-0.235716 -0.0423,-0.0694 c -0.02327,-0.03816 -0.0423,-0.07285 -0.0423,-0.07708 0,-0.0042 -0.04361,-0.08231 -0.09688,-0.173547 -0.05329,-0.09122 -0.09688,-0.168834 -0.09688,-0.17246 0,-0.0036 -0.03737,-0.07013 -0.08303,-0.147795 -0.04568,-0.07766 -0.08305,-0.144074 -0.08305,-0.147585 0,-0.0035 -0.03023,-0.05846 -0.06718,-0.122097 -0.03695,-0.06364 -0.09407,-0.166011 -0.126973,-0.227491 -0.03288,-0.06148 -0.08362,-0.151195 -0.112751,-0.199363 -0.02913,-0.04817 -0.05297,-0.09136 -0.05297,-0.09599 0,-0.0047 -0.02121,-0.04382 -0.04715,-0.08708 -0.02594,-0.04328 -0.07783,-0.135284 -0.115317,-0.204439 -0.061,-0.112481 -0.113321,-0.206287 -0.304055,-0.544951 -0.03029,-0.0538 -0.07406,-0.132388 -0.09725,-0.174662 -0.02318,-0.04227 -0.0934,-0.168027 -0.156023,-0.279464 -0.06262,-0.111432 -0.132494,-0.237038 -0.155293,-0.279115 -0.04355,-0.08038 -0.16815,-0.302998 -0.301319,-0.53831 -0.0435,-0.07685 -0.09775,-0.174314 -0.120582,-0.216582 -0.02283,-0.04227 -0.136633,-0.246625 -0.252899,-0.454127 -0.116262,-0.207499 -0.228524,-0.408711 -0.249462,-0.447139 -0.02094,-0.03842 -0.07198,-0.129598 -0.113396,-0.202609 -0.04142,-0.07301 -0.124123,-0.220773 -0.183746,-0.328366 -0.05963,-0.107591 -0.133153,-0.238877 -0.163362,-0.29174 -0.03021,-0.05287 -0.07193,-0.128323 -0.09271,-0.167677 -0.02078,-0.03936 -0.05177,-0.09514 -0.06889,-0.123957 -0.01712,-0.02882 -0.0248,-0.0524 -0.01704,-0.0524 0.0078,0 0.287086,0.0248 0.620752,0.05513 0.333666,0.03032 0.725004,0.06515 0.869643,0.07742 0.144644,0.0123 0.543258,0.04714 0.885823,0.07754 0.342562,0.03038 0.821685,0.07258 1.064717,0.09374 l 0.44187,0.03851 0.0653,0.139724 c 0.169847,0.363452 0.289727,0.623185 0.289727,0.627735 0,0.0028 0.04359,0.09623 0.09688,0.207724 0.05329,0.111491 0.09688,0.206281 0.09688,0.210637 0,0.0044 0.03357,0.07888 0.0746,0.165596 0.04103,0.08671 0.112046,0.239415 0.157809,0.339323 0.07678,0.167626 0.193637,0.419396 0.356688,0.768518 0.0359,0.07685 0.10105,0.21833 0.144794,0.314394 0.305174,0.67016 0.437957,0.951559 0.448955,0.951454 0.0051,-5.6e-5 0.06155,-0.08053 0.125442,-0.178842 0.06391,-0.09832 0.135119,-0.204522 0.158278,-0.236014 0.02313,-0.03149 0.04209,-0.0619 0.04209,-0.06758 0,-0.0057 0.01812,-0.03651 0.04025,-0.0685 0.02213,-0.032 0.123748,-0.187079 0.22578,-0.344625 0.160504,-0.247801 0.309897,-0.47688 0.600528,-0.920867 0.03723,-0.0569 0.07981,-0.122922 0.09458,-0.146715 0.03032,-0.04884 0.247583,-0.383577 0.545021,-0.839742 0.110246,-0.169074 0.238435,-0.366174 0.284868,-0.437997 l 0.08443,-0.130588 0.173012,0.0086 c 0.160018,0.008 0.425105,0.03051 0.747414,0.06377 0.112646,0.0117 1.039256,0.09307 1.591716,0.139934 0.752978,0.06386 1.219565,0.108731 1.228956,0.118212 0.0035,0.0035 -0.06947,0.105551 -0.161911,0.226964 -0.09244,0.121422 -0.215777,0.283642 -0.274102,0.360492 -0.126537,0.16674 -0.194904,0.256083 -0.287749,0.376054 -0.03806,0.04918 -0.122143,0.16012 -0.186853,0.246531 -0.0647,0.08641 -0.155018,0.205789 -0.200695,0.265292 -0.04568,0.05951 -0.126642,0.165684 -0.179932,0.235956 -0.05329,0.07027 -0.122322,0.160552 -0.153407,0.200621 -0.03108,0.04007 -0.117912,0.154598 -0.192967,0.254508 -0.07505,0.09991 -0.162424,0.213088 -0.194184,0.251515 -0.03176,0.03842 -0.07261,0.09268 -0.09077,0.120567 -0.01817,0.02787 -0.08909,0.122877 -0.157601,0.211102 -0.06853,0.08822 -0.140144,0.181255 -0.159172,0.206738 -0.01904,0.02547 -0.08132,0.10735 -0.138419,0.181938 -0.0571,0.07459 -0.136424,0.178813 -0.176298,0.231623 -0.123402,0.163449 -0.291786,0.384899 -0.370505,0.487264 -0.149025,0.193796 -0.252199,0.32938 -0.435906,0.572884 -0.189051,0.250585 -0.344517,0.454382 -0.405065,0.530989 -0.206128,0.260798 -0.196975,0.222186 -0.09716,0.410054 0.0435,0.08188 0.09832,0.187591 0.121812,0.234919 0.02349,0.04733 0.04928,0.09448 0.05726,0.1048 0.0081,0.01035 0.03228,0.05333 0.05399,0.0956 0.05441,0.105955 0.07063,0.122847 0.163314,0.170123 0.414209,0.211264 0.928616,0.05621 1.607604,-0.484556 0.0533,-0.04244 0.138929,-0.109031 0.190313,-0.147975 0.103466,-0.07843 0.102356,-0.07496 0.07136,-0.222274 -0.03521,-0.1674 -0.0062,-0.369335 0.08056,-0.558923 0.07831,-0.17129 0.107591,-0.256881 0.107336,-0.313551 -4.86e-4,-0.09163 -0.08716,-0.568159 -0.148965,-0.81827 -0.05715,-0.231371 0.0509,-0.36928 0.304453,-0.38853 0.260412,-0.01976 0.343597,0.110696 0.474958,0.744846 0.04085,0.197233 0.04889,0.207136 0.187343,0.230712 0.124542,0.0212 0.188411,0.0062 0.338018,-0.08005 0.061,-0.03512 0.163836,-0.09433 0.228539,-0.131593 0.62626,-0.360632 0.756178,-0.38013 0.876731,-0.131578 0.151959,0.313308 0.06881,0.436126 -0.496101,0.73285 -0.04568,0.02397 -0.101725,0.0547 -0.124572,0.06824 -0.02285,0.01365 -0.07477,0.04308 -0.115392,0.06565 -0.0997,0.05536 -0.08453,0.05803 0.263519,0.04621 0.612216,-0.02079 0.695168,0.01947 0.693065,0.336415 -0.0023,0.354022 -0.118272,0.401279 -0.99772,0.406728 -0.04673,2.56e-4 -0.07028,0.0057 -0.06469,0.01485 0.0099,0.01616 0.230124,0.129838 0.283495,0.146325 0.118062,0.0365 0.42745,0.20231 0.461476,0.247348 0.06434,0.08515 0.03779,0.231474 -0.07093,0.390982 -0.134818,0.197819 -0.269358,0.171451 -0.992055,-0.194422 -0.164314,-0.08318 -0.165985,-0.08347 -0.38901,-0.06649 -0.294119,0.0224 -0.551332,-0.09431 -0.702506,-0.318758 -0.02414,-0.03584 -0.01748,-0.03881 -0.205245,0.09128 -0.06358,0.04405 -0.149865,0.103796 -0.19173,0.132779 -0.679162,0.470042 -1.097118,0.623373 -1.460163,0.535675 -0.128743,-0.0311 -0.129478,-0.03086 -0.09331,0.02972 0.03578,0.0599 0.10258,0.183184 0.142349,0.26273 0.01728,0.03458 0.06385,0.122607 0.10345,0.195622 0.0396,0.07301 0.117357,0.21763 0.172804,0.321382 0.05543,0.103735 0.136514,0.254658 0.180156,0.335356 0.04364,0.08069 0.110396,0.206449 0.14835,0.279459 0.142994,0.275161 0.202658,0.38741 0.261412,0.491901 0.03329,0.0592 0.06053,0.110831 0.06053,0.114747 0,0.0063 0.06569,0.130573 0.218552,0.413378 0.04688,0.08671 0.08126,0.151201 0.327789,0.614814 0.05926,0.111431 0.147419,0.276494 0.195927,0.366795 0.203246,0.378385 0.267743,0.499117 0.330319,0.61831 0.03632,0.06916 0.111911,0.211644 0.168007,0.316617 0.122712,0.229659 0.121887,0.223665 0.02933,0.214023 -0.08677,-0.009 -1.46798,-0.104455 -1.511998,-0.104455 h -0.0306 l 0.03792,0.150211 c 0.190636,0.754885 0.167528,1.555929 -0.07103,2.462196 -0.02319,0.08807 -0.04727,0.187794 -0.05353,0.221607 l -0.0114,0.06148 0.08501,-0.0072 c 0.04676,-0.0039 0.144179,-0.02072 0.216491,-0.03726 0.163835,-0.03749 0.326136,-0.07051 0.380627,-0.07742 0.02285,-0.003 0.09059,-0.01275 0.150578,-0.02166 0.116261,-0.01748 0.445537,-0.0065 0.458915,0.01551 0.0041,0.0066 0.01802,0.008 0.0311,0.003 0.02151,-0.0081 0.0218,-0.0066 0.003,0.01683 -0.01953,0.02432 -0.01902,0.02472 0.0096,0.0068 0.132869,-0.08353 0.612183,0.25246 0.887867,0.622382 0.26824,0.359936 0.675314,1.157757 0.701818,1.375491 0.01835,0.150645 -0.122637,0.225127 -0.381203,0.201398 z"
       id="path977-2" /><path
       style="fill:#000000;stroke-width:0.0139069"
       d="m 90.814032,27.98334 c -0.412436,-0.03785 -1.753342,-0.450858 -2.255348,-0.694658 -0.435819,-0.211659 -0.989635,-0.685721 -1.019207,-0.872436 -0.01859,-0.117282 0.132973,-0.303345 0.322074,-0.395425 0.05188,-0.02526 0.09607,-0.047 0.09819,-0.0483 0.0066,-0.0041 0.110441,-0.371031 0.134234,-0.474312 0.2168,-0.941399 0.230279,-1.495406 0.05423,-2.228706 -0.08246,-0.343523 -0.06613,-0.307408 -0.139094,-0.307408 -0.05626,0 -0.283147,-0.0156 -1.311308,-0.09028 -0.151463,-0.0111 -0.280372,-0.02505 -0.286463,-0.03122 -0.0061,-0.0062 -0.114776,-0.212443 -0.241519,-0.45837 -0.126748,-0.245925 -0.27742,-0.538312 -0.334835,-0.649747 -0.05743,-0.111432 -0.115257,-0.221475 -0.128533,-0.244531 -0.02256,-0.03914 -0.08735,-0.164422 -0.317978,-0.614814 -0.05115,-0.09991 -0.132493,-0.257105 -0.180766,-0.349328 -0.225351,-0.430615 -0.436941,-0.839601 -0.515068,-0.99558 -0.09932,-0.198289 -0.08674,-0.189753 -0.14853,-0.10081 -0.02664,0.03834 -0.08651,0.121512 -0.133063,0.184827 -0.04655,0.06331 -0.132103,0.181127 -0.190132,0.26182 -0.05804,0.08069 -0.133438,0.184446 -0.167574,0.230556 -0.03413,0.04612 -0.152762,0.209597 -0.263609,0.363299 -0.184145,0.255338 -0.457473,0.631583 -0.61712,0.849486 -0.111026,0.151549 -0.35557,0.488354 -0.448587,0.617848 -0.03044,0.04239 -0.08963,0.123283 -0.131503,0.179754 -0.04187,0.05648 -0.119727,0.1641 -0.173012,0.239171 -0.05329,0.07507 -0.112467,0.154626 -0.131504,0.176792 l -0.03459,0.04031 -0.152252,-0.01335 c -0.32039,-0.0281 -1.070948,-0.07454 -1.08869,-0.06736 -0.02468,0.01005 -0.118632,0.19958 -0.226757,0.457579 -0.356819,0.851431 -0.299383,1.582904 0.192002,2.445289 0.03722,0.06532 0.08338,0.14706 0.102595,0.18165 0.05079,0.09145 0.05349,0.09375 0.132253,0.112467 0.158198,0.03761 0.367516,0.183072 0.413075,0.287053 0.100735,0.229916 -0.574577,0.881175 -1.204278,1.161373 -0.278438,0.123897 -0.273737,0.121887 -0.382505,0.163702 -0.05329,0.02048 -0.112451,0.04398 -0.131488,0.05221 -0.06506,0.02811 -0.394345,0.153907 -0.470594,0.179772 -0.04187,0.01425 -0.140114,0.04838 -0.21834,0.07595 -0.496605,0.175039 -0.905172,0.204958 -0.939032,0.06875 -0.0045,-0.0183 -0.01455,-0.03327 -0.02202,-0.03327 -0.01833,0 -1.55e-4,-0.185086 0.02538,-0.258505 0.0108,-0.03074 0.03492,-0.101635 0.05387,-0.157537 0.03863,-0.114086 0.125832,-0.342128 0.144524,-0.377941 0.0068,-0.0129 0.02924,-0.0659 0.05003,-0.117807 0.02079,-0.05189 0.04613,-0.101335 0.05632,-0.109886 0.0102,-0.0086 0.01532,-0.02073 0.0114,-0.02712 -0.01305,-0.02126 0.209124,-0.426014 0.266712,-0.485975 0.0099,-0.01035 0.03459,-0.0417 0.05495,-0.06986 0.04166,-0.05761 0.259257,-0.281744 0.27351,-0.281744 0.0051,0 0.02907,-0.01527 0.0533,-0.03392 0.05621,-0.04326 0.199893,-0.115316 0.297733,-0.149295 0.0875,-0.03039 0.08975,-0.03077 0.07909,-0.01335 -0.0044,0.0072 0.01095,0.0035 0.03389,-0.0081 0.133829,-0.0674 0.736628,-0.05753 0.816646,0.0135 0.03195,0.02832 0.03272,0.02841 0.01035,0.0013 l -0.02426,-0.02919 0.10048,0.02547 c 0.105431,0.02672 0.218127,0.03408 0.218127,0.0144 0,-0.0065 -0.04903,-0.111912 -0.108941,-0.234468 -0.415882,-0.850654 -0.481178,-1.526416 -0.218573,-2.262053 0.01922,-0.0538 0.04839,-0.135539 0.0649,-0.18165 0.01649,-0.04612 0.06685,-0.161813 0.111911,-0.257114 0.04507,-0.0953 0.07961,-0.175627 0.07676,-0.178501 -0.0028,-0.003 -0.197583,-0.01766 -0.432753,-0.03287 -0.235165,-0.01521 -0.598857,-0.03993 -0.808203,-0.05494 -0.209344,-0.01503 -0.486399,-0.03428 -0.615678,-0.0428 -0.278087,-0.01835 -0.258607,-0.0078 -0.184761,-0.100976 0.07412,-0.09364 0.168758,-0.218238 0.384709,-0.506545 0.09211,-0.122967 0.231561,-0.308458 0.309905,-0.412206 0.321619,-0.425912 0.780749,-1.033299 0.850275,-1.124834 0.252193,-0.332028 0.383863,-0.506465 0.586365,-0.776809 0.06674,-0.08911 0.130948,-0.170033 0.142664,-0.179865 0.0117,-0.0099 0.02133,-0.02408 0.02133,-0.0317 0,-0.0077 0.0236,-0.04298 0.05246,-0.07864 0.02886,-0.03566 0.06157,-0.07837 0.07267,-0.09491 0.0225,-0.03351 0.320669,-0.42742 0.409001,-0.540308 0.03114,-0.0398 0.124377,-0.163536 0.207181,-0.27497 0.08281,-0.111431 0.155483,-0.208899 0.1615,-0.216585 0.06446,-0.08234 0.121407,-0.158661 0.121407,-0.16269 0,-0.0029 -0.119892,-0.0053 -0.266437,-0.0054 -0.767583,-0.001 -1.156298,-0.250922 -2.142091,-1.376614 l -0.07633,-0.08716 -0.0967,0.07298 c -0.249637,0.188444 -0.498943,0.234761 -0.761734,0.141524 -0.101771,-0.03611 -0.178334,-0.03657 -0.272162,-0.0015 -0.04026,0.015 -0.179067,0.05852 -0.30848,0.09677 -0.572081,0.169019 -0.6866,0.159591 -0.786319,-0.06475 -0.152801,-0.343737 -0.09517,-0.416652 0.433374,-0.548255 0.231413,-0.05764 0.357035,-0.09595 0.366795,-0.111881 0.0098,-0.01577 0.02135,-0.0129 -0.366795,-0.09004 -0.573776,-0.114027 -0.635488,-0.152137 -0.647936,-0.40027 -0.02036,-0.405899 0.106871,-0.470845 0.694304,-0.354429 0.457376,0.09064 0.415051,0.08827 0.341179,0.01908 -0.03425,-0.03209 -0.116127,-0.09996 -0.181922,-0.150804 -0.0658,-0.05087 -0.168477,-0.130198 -0.228171,-0.17631 -0.311743,-0.240814 -0.364934,-0.366105 -0.255726,-0.602361 0.161008,-0.348315 0.269316,-0.320954 0.967672,0.244456 0.297901,0.241188 0.399928,0.28711 0.570129,0.25663 0.07147,-0.0129 0.07538,-0.01868 0.164769,-0.248053 0.08158,-0.209303 0.153193,-0.358199 0.167875,-0.349038 0.0072,0.0045 0.0096,-10e-4 0.0053,-0.0126 -0.01895,-0.04983 0.14751,-0.249453 0.224184,-0.268881 0.06277,-0.0159 0.177784,0.0049 0.276051,0.04985 0.236647,0.108326 0.253644,0.206665 0.0957,0.553695 -0.0713,0.156662 -0.07691,0.170132 -0.107306,0.25743 -0.01215,0.03458 -0.04467,0.122607 -0.0725,0.195624 -0.06073,0.159248 -0.0728,0.268467 -0.04176,0.377274 0.108491,0.38032 0.118302,0.546112 0.04472,0.755599 -0.02045,0.05821 -0.03717,0.109676 -0.03717,0.114326 0,0.0084 0.194956,0.242315 0.363702,0.43655 0.698876,0.804449 1.211218,1.080525 1.913974,1.031359 l 0.212625,-0.015 0.0386,-0.04614 c 0.02123,-0.02537 0.118362,-0.152212 0.215847,-0.281851 l 0.177249,-0.235716 -0.0423,-0.0694 c -0.02327,-0.03816 -0.04231,-0.07285 -0.04231,-0.07708 0,-0.0042 -0.04361,-0.08233 -0.09688,-0.173546 -0.05329,-0.09122 -0.09688,-0.168834 -0.09688,-0.17246 0,-0.0036 -0.03737,-0.07013 -0.08303,-0.147795 -0.04568,-0.07766 -0.08305,-0.144074 -0.08305,-0.147585 0,-0.0035 -0.03023,-0.05846 -0.06718,-0.122097 -0.03695,-0.06364 -0.09408,-0.166011 -0.126973,-0.227492 -0.03288,-0.06149 -0.08362,-0.151194 -0.112751,-0.199362 -0.02913,-0.04817 -0.05297,-0.09136 -0.05297,-0.096 0,-0.0046 -0.02121,-0.04382 -0.04713,-0.08708 -0.02594,-0.04328 -0.07783,-0.135284 -0.115317,-0.204439 -0.061,-0.112482 -0.113321,-0.206287 -0.304055,-0.544951 -0.03029,-0.0538 -0.07406,-0.132388 -0.09725,-0.174662 -0.02318,-0.04227 -0.0934,-0.168027 -0.156023,-0.279465 -0.06262,-0.111431 -0.132494,-0.237037 -0.155293,-0.279114 -0.04355,-0.08038 -0.16815,-0.302998 -0.301318,-0.53831 -0.04351,-0.07685 -0.09775,-0.174314 -0.120582,-0.216582 -0.02285,-0.04228 -0.136634,-0.246625 -0.2529,-0.454127 -0.116262,-0.207501 -0.228524,-0.408713 -0.249463,-0.447141 -0.02094,-0.03842 -0.07196,-0.129598 -0.113397,-0.202609 -0.04142,-0.07301 -0.124122,-0.220772 -0.183747,-0.328366 -0.05963,-0.107591 -0.133153,-0.238876 -0.16336,-0.29174 -0.03021,-0.05287 -0.07193,-0.128323 -0.09271,-0.167676 -0.02078,-0.03936 -0.05177,-0.09514 -0.06889,-0.123958 -0.01712,-0.02882 -0.0248,-0.0524 -0.01704,-0.0524 0.0078,0 0.287085,0.0248 0.620751,0.05513 0.333667,0.03032 0.725005,0.06517 0.869643,0.07742 0.144645,0.0123 0.543259,0.04715 0.885824,0.07754 0.342561,0.03038 0.821684,0.07258 1.064715,0.09374 l 0.441872,0.03851 0.06529,0.139724 c 0.169849,0.363452 0.289729,0.623185 0.289729,0.627735 0,0.0028 0.04358,0.09623 0.09688,0.207724 0.05329,0.111491 0.09688,0.206281 0.09688,0.210638 0,0.0044 0.03357,0.07888 0.0746,0.165597 0.04103,0.08671 0.112046,0.239415 0.157811,0.339323 0.07678,0.167625 0.193636,0.419395 0.356688,0.768518 0.0359,0.07685 0.10105,0.21833 0.144794,0.314394 0.305174,0.67016 0.437957,0.951558 0.448956,0.951453 0.0051,-5.5e-5 0.06155,-0.08053 0.125442,-0.178842 0.06391,-0.09832 0.135119,-0.204521 0.158278,-0.236014 0.02313,-0.03149 0.04209,-0.0619 0.04209,-0.06758 0,-0.0057 0.01812,-0.03651 0.04025,-0.06851 0.02213,-0.032 0.123748,-0.187079 0.225781,-0.344625 0.160504,-0.247801 0.309896,-0.47688 0.600528,-0.920867 0.03723,-0.0569 0.07981,-0.122922 0.09458,-0.146715 0.03032,-0.04885 0.247583,-0.383578 0.545021,-0.839745 0.110246,-0.169073 0.238434,-0.366173 0.284868,-0.437997 l 0.08443,-0.130588 0.173013,0.0086 c 0.160018,0.008 0.425105,0.03051 0.747413,0.06377 0.112647,0.0117 1.039255,0.09309 1.591715,0.139934 0.752979,0.06386 1.219566,0.108731 1.228956,0.118212 0.0035,0.0035 -0.06947,0.105551 -0.161912,0.226965 -0.09244,0.121407 -0.215775,0.283643 -0.274099,0.360494 -0.126538,0.16674 -0.194904,0.256083 -0.28775,0.376054 -0.03806,0.04917 -0.122142,0.16012 -0.186853,0.24653 -0.06472,0.08641 -0.155019,0.205789 -0.200696,0.265293 -0.04568,0.05951 -0.126643,0.165684 -0.179931,0.235955 -0.05329,0.07027 -0.122322,0.160553 -0.153407,0.200622 -0.03108,0.04007 -0.117912,0.154597 -0.192967,0.254507 -0.07505,0.0999 -0.162426,0.213089 -0.194184,0.251516 -0.03176,0.03842 -0.07261,0.09268 -0.09077,0.120567 -0.01817,0.02787 -0.08909,0.122877 -0.157601,0.211102 -0.06853,0.08822 -0.140144,0.181254 -0.159172,0.206737 -0.01905,0.02547 -0.08132,0.107351 -0.138419,0.181939 -0.0571,0.07459 -0.136424,0.178813 -0.176298,0.231623 -0.123402,0.163449 -0.291786,0.384899 -0.370505,0.487263 -0.14904,0.193797 -0.252199,0.329381 -0.435906,0.572885 -0.189052,0.250585 -0.344517,0.454382 -0.405066,0.530989 -0.206127,0.260798 -0.196974,0.222185 -0.09717,0.410054 0.0435,0.08188 0.09832,0.18759 0.121812,0.234919 0.02349,0.04731 0.04928,0.09448 0.05726,0.1048 0.0081,0.01035 0.03228,0.05333 0.05399,0.09561 0.05441,0.105955 0.07063,0.122847 0.163314,0.170123 0.41421,0.211264 0.928617,0.05621 1.607603,-0.484556 0.0533,-0.04244 0.138929,-0.109031 0.190315,-0.147975 0.103465,-0.07843 0.102355,-0.07496 0.07136,-0.222274 -0.03521,-0.1674 -0.0062,-0.369336 0.08056,-0.558923 0.07831,-0.17129 0.107591,-0.256881 0.107336,-0.313551 -4.86e-4,-0.09163 -0.08716,-0.568159 -0.148965,-0.81827 -0.05716,-0.231371 0.0509,-0.36928 0.304452,-0.38853 0.260411,-0.01976 0.343598,0.110681 0.474958,0.744845 0.04085,0.197234 0.04889,0.207137 0.187344,0.230713 0.124542,0.0212 0.188411,0.0062 0.338018,-0.08005 0.061,-0.03512 0.163834,-0.09433 0.228539,-0.131593 0.62626,-0.360632 0.756177,-0.380131 0.876731,-0.131578 0.151957,0.313307 0.06881,0.436126 -0.496103,0.73285 -0.04568,0.02397 -0.101725,0.0547 -0.124557,0.06826 -0.02285,0.01365 -0.07477,0.04308 -0.115392,0.06565 -0.0997,0.05536 -0.08453,0.05801 0.263518,0.04621 0.612217,-0.02079 0.695169,0.01947 0.693066,0.336414 -0.0022,0.354022 -0.118272,0.40128 -0.997719,0.406729 -0.04673,2.56e-4 -0.07028,0.0057 -0.06469,0.01485 0.0099,0.01616 0.230125,0.129838 0.283495,0.146325 0.118062,0.0365 0.42745,0.20231 0.461477,0.247347 0.06434,0.08515 0.03779,0.231475 -0.07093,0.390983 -0.134818,0.197819 -0.269357,0.171451 -0.992055,-0.194422 -0.164314,-0.08318 -0.165985,-0.08347 -0.38901,-0.06649 -0.294119,0.0224 -0.551332,-0.09431 -0.702506,-0.318758 -0.02414,-0.03584 -0.01748,-0.03881 -0.205246,0.09128 -0.06358,0.04406 -0.149865,0.103811 -0.191728,0.132778 -0.679163,0.470042 -1.097118,0.623374 -1.460165,0.535676 -0.128743,-0.0311 -0.129478,-0.03086 -0.09329,0.02972 0.03578,0.0599 0.102581,0.183185 0.14235,0.262731 0.01728,0.03458 0.06385,0.122607 0.10345,0.195622 0.0396,0.07301 0.117372,0.21763 0.172804,0.321382 0.05543,0.103735 0.136513,0.254658 0.180156,0.335355 0.04365,0.08069 0.110411,0.20645 0.14835,0.27946 0.142994,0.275161 0.202658,0.38741 0.261411,0.491901 0.03329,0.0592 0.06053,0.110831 0.06053,0.114746 0,0.0063 0.06569,0.130573 0.218554,0.413379 0.04688,0.08671 0.08126,0.151201 0.327789,0.614814 0.05926,0.111431 0.14742,0.276494 0.195927,0.366795 0.203245,0.378385 0.267744,0.499117 0.330319,0.61831 0.03632,0.06916 0.111912,0.211644 0.168005,0.316617 0.122712,0.229659 0.121887,0.223665 0.02933,0.214023 -0.08677,-0.009 -1.467982,-0.104455 -1.511998,-0.104455 h -0.0306 l 0.03792,0.150211 c 0.190636,0.754885 0.167528,1.555929 -0.07103,2.462196 -0.02319,0.08807 -0.04727,0.187793 -0.05353,0.221607 l -0.0114,0.06148 0.08501,-0.0072 c 0.04676,-0.0039 0.144179,-0.02072 0.216489,-0.03726 0.163836,-0.03749 0.326137,-0.07051 0.380629,-0.07742 0.02285,-0.003 0.09059,-0.01275 0.150577,-0.02166 0.116262,-0.01748 0.445536,-0.0065 0.458914,0.01551 0.0041,0.0066 0.01802,0.008 0.0311,0.003 0.02151,-0.0081 0.0218,-0.0066 0.003,0.01683 -0.01953,0.02432 -0.01902,0.02472 0.0096,0.0068 0.132868,-0.08353 0.612182,0.25246 0.887866,0.622382 0.268241,0.359935 0.675314,1.157757 0.701818,1.37549 0.01835,0.150645 -0.122637,0.225128 -0.381204,0.201399 z"
       id="path977-6" /><path
       style="fill:#000000;stroke-width:0.0139663"
       d="m 31.258075,83.678062 c -0.414196,-0.03801 -1.76083,-0.452784 -2.264981,-0.697625 -0.43768,-0.212562 -0.99386,-0.68865 -1.02356,-0.876163 -0.01866,-0.117776 0.133544,-0.30464 0.323451,-0.397113 0.0521,-0.02537 0.09647,-0.0472 0.0986,-0.04851 0.0066,-0.0041 0.110906,-0.372616 0.134803,-0.476338 0.217726,-0.94542 0.231265,-1.501793 0.05446,-2.238225 -0.08282,-0.34499 -0.06641,-0.308721 -0.139694,-0.308721 -0.0565,0 -0.284357,-0.01568 -1.316908,-0.09067 -0.15211,-0.0111 -0.28157,-0.02516 -0.287687,-0.03135 -0.0062,-0.0062 -0.115272,-0.21335 -0.24255,-0.460327 -0.127288,-0.246976 -0.278607,-0.540612 -0.336268,-0.652523 -0.05767,-0.111911 -0.115752,-0.222421 -0.129088,-0.245575 -0.02265,-0.0393 -0.08773,-0.165124 -0.319335,-0.61744 -0.05138,-0.10033 -0.133064,-0.258203 -0.181539,-0.350819 -0.226315,-0.432455 -0.438809,-0.843188 -0.517269,-0.999834 -0.09974,-0.199134 -0.08711,-0.190562 -0.14916,-0.101245 -0.02676,0.03851 -0.08689,0.122037 -0.133633,0.185617 -0.04675,0.06358 -0.132673,0.1819 -0.190944,0.262938 -0.05828,0.08104 -0.134008,0.185234 -0.168288,0.231541 -0.03428,0.04631 -0.153414,0.210492 -0.264737,0.364851 -0.18493,0.256427 -0.459426,0.63428 -0.619756,0.853113 -0.111506,0.152198 -0.357088,0.490441 -0.450502,0.620488 -0.03057,0.04257 -0.09001,0.123807 -0.132058,0.180522 -0.04205,0.05672 -0.120237,0.1648 -0.173752,0.240192 -0.05351,0.07538 -0.112947,0.155286 -0.132058,0.177547 l -0.03474,0.04047 -0.152901,-0.01335 c -0.321758,-0.02822 -1.075522,-0.07486 -1.093341,-0.06764 -0.02478,0.01005 -0.119142,0.200433 -0.227724,0.459533 -0.358344,0.855068 -0.300663,1.589666 0.19282,2.455734 0.03738,0.0656 0.08374,0.147689 0.10303,0.182425 0.051,0.09184 0.05372,0.09415 0.132824,0.112947 0.158873,0.03777 0.369085,0.183854 0.414839,0.288279 0.10117,0.230897 -0.577031,0.884938 -1.209422,1.166332 -0.279628,0.124422 -0.274906,0.122412 -0.384139,0.164403 -0.05351,0.02057 -0.112931,0.04416 -0.132043,0.05243 -0.06533,0.02823 -0.396029,0.154564 -0.472605,0.18054 -0.04205,0.01425 -0.140714,0.04859 -0.219272,0.07628 -0.498726,0.175787 -0.909038,0.205834 -0.943042,0.06905 -0.0045,-0.01838 -0.01455,-0.03341 -0.02211,-0.03341 -0.01841,0 -1.55e-4,-0.185876 0.02549,-0.259608 0.0108,-0.03087 0.03507,-0.10207 0.0541,-0.158209 0.03879,-0.114566 0.126372,-0.34359 0.145139,-0.379556 0.0068,-0.0129 0.02936,-0.06619 0.05024,-0.118317 0.02088,-0.05212 0.04632,-0.10177 0.05656,-0.110351 0.0102,-0.0085 0.01538,-0.02082 0.0114,-0.02724 -0.01305,-0.02135 0.210018,-0.427834 0.267852,-0.48805 0.0099,-0.01035 0.03474,-0.04188 0.05519,-0.07016 0.04184,-0.05785 0.260365,-0.282948 0.274679,-0.282948 0.0051,0 0.02919,-0.01533 0.05353,-0.03407 0.05645,-0.04345 0.200748,-0.115812 0.299004,-0.14994 0.08788,-0.03053 0.09014,-0.0309 0.07943,-0.01335 -0.0043,0.0072 0.01095,0.0035 0.03404,-0.0081 0.134398,-0.06769 0.739773,-0.05777 0.820133,0.0135 0.03209,0.02844 0.03285,0.02853 0.01035,0.0013 l -0.02436,-0.02931 0.100915,0.02558 c 0.10588,0.02684 0.219058,0.03423 0.219058,0.0144 0,-0.0065 -0.04924,-0.112391 -0.109406,-0.235468 -0.417658,-0.854287 -0.483233,-1.532936 -0.219507,-2.271716 0.01929,-0.05402 0.0486,-0.136123 0.06517,-0.182426 0.01656,-0.04631 0.06713,-0.162503 0.112391,-0.258211 0.04526,-0.09571 0.07996,-0.176377 0.07709,-0.179264 -0.0029,-0.003 -0.198428,-0.01773 -0.434601,-0.033 -0.23617,-0.01527 -0.601415,-0.0401 -0.811655,-0.05518 -0.210238,-0.01509 -0.488477,-0.03443 -0.618308,-0.04298 -0.279275,-0.01842 -0.259711,-0.0078 -0.18555,-0.10141 0.07444,-0.09404 0.169478,-0.219172 0.386352,-0.50871 0.0925,-0.123492 0.23255,-0.309775 0.31123,-0.413966 0.322991,-0.427732 0.784081,-1.037712 0.853904,-1.129639 0.253271,-0.333445 0.385503,-0.508628 0.588871,-0.780126 0.06703,-0.08948 0.131503,-0.17076 0.143279,-0.180634 0.0117,-0.0099 0.02142,-0.02418 0.02142,-0.03183 0,-0.0077 0.0237,-0.04316 0.05269,-0.07897 0.02898,-0.03581 0.06182,-0.0787 0.07298,-0.09532 0.02259,-0.03366 0.322038,-0.429245 0.410747,-0.542614 0.03128,-0.03996 0.124902,-0.164235 0.208066,-0.276145 0.08317,-0.111911 0.156148,-0.209791 0.16219,-0.217511 0.06473,-0.08269 0.121932,-0.159337 0.121932,-0.163385 0,-0.0029 -0.120402,-0.0053 -0.267575,-0.0054 -0.770861,-0.001 -1.161236,-0.251995 -2.151241,-1.382495 l -0.07666,-0.08753 -0.0971,0.0733 c -0.250704,0.18925 -0.501074,0.235763 -0.764988,0.142124 -0.102205,-0.03626 -0.179095,-0.03672 -0.273324,-0.0015 -0.04043,0.01503 -0.179832,0.05878 -0.309798,0.09718 -0.574524,0.16974 -0.689532,0.160273 -0.789677,-0.06502 -0.153453,-0.345205 -0.09558,-0.418431 0.435225,-0.550597 0.232402,-0.05788 0.358561,-0.09635 0.368362,-0.112361 0.0098,-0.01584 0.02144,-0.0129 -0.368362,-0.09043 -0.576227,-0.114507 -0.638201,-0.152786 -0.650704,-0.40198 -0.02045,-0.407631 0.107321,-0.472855 0.69727,-0.355942 0.459329,0.09103 0.416824,0.08864 0.342636,0.01917 -0.0344,-0.03222 -0.116622,-0.100375 -0.182699,-0.15145 -0.06608,-0.05108 -0.169196,-0.130753 -0.229145,-0.177062 -0.313075,-0.241842 -0.366493,-0.367669 -0.256818,-0.604934 0.161695,-0.349802 0.270466,-0.322325 0.971805,0.245499 0.299173,0.242219 0.401635,0.288338 0.572563,0.257728 0.07177,-0.0129 0.0757,-0.01875 0.165473,-0.249112 0.08192,-0.210198 0.153848,-0.35973 0.168593,-0.35053 0.0072,0.0045 0.0096,-0.001 0.0053,-0.0126 -0.01902,-0.05005 0.14814,-0.250518 0.225141,-0.270029 0.06304,-0.01598 0.178545,0.005 0.277231,0.05006 0.237658,0.108791 0.254727,0.207548 0.0961,0.55606 -0.0716,0.157331 -0.07724,0.170858 -0.10777,0.258529 -0.01215,0.03473 -0.04487,0.123133 -0.07282,0.19646 -0.06098,0.159928 -0.07312,0.269613 -0.04194,0.378885 0.108956,0.381944 0.118812,0.548445 0.04491,0.758826 -0.02054,0.05846 -0.03734,0.110141 -0.03734,0.114821 0,0.0084 0.195789,0.24335 0.365256,0.438414 0.701862,0.807885 1.216391,1.08514 1.922148,1.035764 l 0.213535,-0.015 0.03876,-0.04634 c 0.02132,-0.02547 0.118872,-0.152861 0.21677,-0.283055 l 0.178006,-0.236722 -0.04248,-0.0697 c -0.02337,-0.03833 -0.04248,-0.07316 -0.04248,-0.07741 0,-0.0042 -0.04379,-0.08267 -0.0973,-0.174288 -0.05351,-0.09161 -0.0973,-0.169556 -0.0973,-0.173197 0,-0.0036 -0.03753,-0.07043 -0.08339,-0.148424 -0.04588,-0.07799 -0.08341,-0.14469 -0.08341,-0.148215 0,-0.0035 -0.03036,-0.05872 -0.06746,-0.122622 -0.0371,-0.06391 -0.09448,-0.166721 -0.127513,-0.228464 -0.03302,-0.06175 -0.08398,-0.151839 -0.113231,-0.200213 -0.02925,-0.04838 -0.0532,-0.09175 -0.0532,-0.0964 0,-0.0046 -0.0213,-0.044 -0.04734,-0.08746 -0.02604,-0.04346 -0.07816,-0.135853 -0.115812,-0.205312 -0.06125,-0.112961 -0.113801,-0.207167 -0.305354,-0.547277 -0.03042,-0.05402 -0.07438,-0.132958 -0.09767,-0.175409 -0.02328,-0.04246 -0.0938,-0.168745 -0.156689,-0.280657 -0.06289,-0.111912 -0.133063,-0.23805 -0.155955,-0.280308 -0.04373,-0.08072 -0.168869,-0.304292 -0.302606,-0.540607 -0.04368,-0.07718 -0.09817,-0.17506 -0.121092,-0.217509 -0.02294,-0.04245 -0.137219,-0.247677 -0.25398,-0.456066 -0.116757,-0.208386 -0.229501,-0.410458 -0.250528,-0.449049 -0.02103,-0.03858 -0.07228,-0.130153 -0.113876,-0.203474 -0.0416,-0.07333 -0.124648,-0.221717 -0.184532,-0.329769 -0.05989,-0.108056 -0.133724,-0.239897 -0.16406,-0.292987 -0.03035,-0.05309 -0.07223,-0.128863 -0.0931,-0.168392 -0.02087,-0.03953 -0.05199,-0.09555 -0.06919,-0.124482 -0.01719,-0.02894 -0.0249,-0.05263 -0.01712,-0.05263 0.0078,0 0.288311,0.0249 0.623403,0.05537 0.335091,0.03045 0.7281,0.06544 0.873357,0.07775 0.145259,0.0123 0.545579,0.04734 0.889607,0.07787 0.344025,0.03051 0.825195,0.07289 1.069263,0.09415 l 0.443759,0.03867 0.06557,0.140324 c 0.170573,0.365003 0.290964,0.625846 0.290964,0.630415 0,0.0028 0.04378,0.09664 0.0973,0.208611 0.05351,0.111971 0.0973,0.207163 0.0973,0.211538 0,0.0044 0.03372,0.07921 0.07492,0.166302 0.04121,0.08708 0.112527,0.240438 0.158485,0.340772 0.07711,0.168343 0.194463,0.421188 0.358211,0.771802 0.03605,0.07718 0.101485,0.219262 0.145409,0.315736 0.306478,0.673023 0.439828,0.955623 0.450873,0.955518 0.0051,-5.7e-5 0.06181,-0.08087 0.125983,-0.179607 0.06418,-0.09874 0.135703,-0.205395 0.158954,-0.237022 0.02324,-0.03162 0.04227,-0.06217 0.04227,-0.06787 0,-0.0057 0.0182,-0.03666 0.04041,-0.0688 0.02222,-0.03213 0.124273,-0.187879 0.226745,-0.346096 0.16119,-0.24886 0.31122,-0.478917 0.603093,-0.924801 0.0374,-0.05714 0.08015,-0.123447 0.09499,-0.147345 0.03045,-0.04905 0.248641,-0.385216 0.547349,-0.843328 0.110711,-0.169796 0.239452,-0.367738 0.286085,-0.439868 l 0.08479,-0.131143 0.173752,0.0086 c 0.1607,0.0079 0.42692,0.03065 0.750606,0.06404 0.113126,0.0117 1.043693,0.09347 1.598513,0.140534 0.756194,0.06413 1.224775,0.109196 1.234205,0.118722 0.0035,0.0035 -0.06977,0.106 -0.162603,0.227934 -0.09283,0.121932 -0.216698,0.284853 -0.275271,0.362031 -0.127078,0.167453 -0.195737,0.257177 -0.288979,0.377661 -0.03822,0.04939 -0.122667,0.160803 -0.187651,0.247582 -0.06499,0.08678 -0.155681,0.206668 -0.201552,0.266427 -0.04587,0.05977 -0.127183,0.166392 -0.180701,0.236964 -0.05351,0.07057 -0.122847,0.161237 -0.154062,0.201477 -0.03122,0.04023 -0.118422,0.155258 -0.193791,0.255594 -0.07537,0.10033 -0.163119,0.214 -0.195013,0.252591 -0.03189,0.03858 -0.07292,0.09307 -0.09117,0.121077 -0.01824,0.02799 -0.08947,0.123402 -0.158274,0.212004 -0.06881,0.0886 -0.140744,0.182028 -0.159852,0.207619 -0.01913,0.02558 -0.08167,0.107816 -0.139004,0.182716 -0.05734,0.0749 -0.137008,0.179578 -0.17705,0.232613 -0.123928,0.164146 -0.293034,0.386544 -0.372089,0.489344 -0.14967,0.194625 -0.253276,0.330788 -0.437767,0.575332 -0.189859,0.251656 -0.345989,0.456323 -0.406796,0.533257 -0.207007,0.261912 -0.197816,0.223135 -0.09758,0.411806 0.04368,0.08222 0.09874,0.188392 0.122338,0.235921 0.0236,0.04752 0.04949,0.09488 0.0575,0.10525 0.0081,0.01035 0.03242,0.05356 0.05422,0.09601 0.05463,0.106406 0.07093,0.123372 0.164011,0.170849 0.41598,0.212168 0.932583,0.05645 1.61447,-0.486625 0.05353,-0.04262 0.139529,-0.109496 0.191127,-0.148604 0.1039,-0.07876 0.10279,-0.07528 0.07166,-0.223223 -0.03536,-0.168116 -0.0062,-0.370913 0.0809,-0.561311 0.07864,-0.172021 0.108056,-0.257978 0.107786,-0.314889 -4.88e-4,-0.09202 -0.08753,-0.570586 -0.149595,-0.821765 -0.0574,-0.23236 0.05112,-0.370858 0.305753,-0.390189 0.261524,-0.01985 0.345065,0.111161 0.476986,0.748025 0.04103,0.198077 0.0491,0.208022 0.188145,0.231698 0.125067,0.02129 0.189215,0.0062 0.339461,-0.08039 0.06125,-0.03527 0.164535,-0.09473 0.229515,-0.132148 0.628935,-0.362172 0.759408,-0.381755 0.880476,-0.132148 0.152607,0.314646 0.06911,0.43799 -0.498221,0.73598 -0.04587,0.02408 -0.10216,0.05494 -0.125097,0.06854 -0.02294,0.01365 -0.07508,0.04327 -0.115887,0.06593 -0.10012,0.0556 -0.08489,0.05827 0.264644,0.0464 0.614832,-0.02088 0.698139,0.01956 0.696026,0.337851 -0.0023,0.355534 -0.118781,0.402995 -1.001981,0.408466 -0.04693,2.58e-4 -0.07058,0.0057 -0.06496,0.01485 0.0099,0.01623 0.231107,0.130393 0.284706,0.146955 0.118572,0.03665 0.429276,0.203174 0.463448,0.248404 0.06461,0.08551 0.03795,0.232463 -0.07123,0.392652 -0.135388,0.198663 -0.270508,0.172183 -0.996291,-0.195252 -0.165017,-0.08354 -0.166695,-0.08383 -0.390672,-0.06677 -0.295375,0.02249 -0.553687,-0.09472 -0.705507,-0.320118 -0.02424,-0.03599 -0.01755,-0.03897 -0.206122,0.09167 -0.06385,0.04424 -0.1505,0.104245 -0.192547,0.133348 -0.682065,0.472049 -1.101805,0.626037 -1.466401,0.537963 -0.129298,-0.03123 -0.130033,-0.03099 -0.0937,0.02984 0.03593,0.06016 0.103016,0.183968 0.14295,0.263852 0.01736,0.03473 0.06412,0.123133 0.103885,0.196458 0.03977,0.07333 0.117867,0.21856 0.173542,0.322755 0.05567,0.104185 0.137098,0.255747 0.180925,0.336788 0.04384,0.08104 0.110876,0.207331 0.14898,0.280654 0.14361,0.276335 0.203524,0.389064 0.262528,0.494001 0.03344,0.05945 0.06079,0.111311 0.06079,0.115241 0,0.0063 0.06598,0.131128 0.219487,0.415144 0.04707,0.08708 0.08161,0.151848 0.329188,0.617441 0.05951,0.111911 0.14805,0.277675 0.196764,0.368362 0.204114,0.38 0.268887,0.501248 0.33173,0.620949 0.03647,0.06946 0.112391,0.212549 0.168723,0.317971 0.123238,0.23064 0.122413,0.224618 0.02945,0.214937 -0.08714,-0.009 -1.474251,-0.104906 -1.518456,-0.104906 h -0.03074 l 0.03809,0.150852 c 0.191451,0.75811 0.168243,1.562574 -0.07133,2.472712 -0.0233,0.08845 -0.04748,0.188596 -0.05375,0.222553 l -0.0114,0.06175 0.08537,-0.0072 c 0.04696,-0.0039 0.144794,-0.02081 0.217415,-0.03743 0.164535,-0.03765 0.327529,-0.07081 0.382253,-0.07775 0.02294,-0.003 0.09098,-0.01275 0.151221,-0.02175 0.116757,-0.01755 0.44744,-0.0065 0.460875,0.01557 0.0041,0.0066 0.01809,0.008 0.03123,0.003 0.0216,-0.0081 0.02189,-0.0066 0.003,0.01691 -0.01962,0.02442 -0.0191,0.02483 0.0096,0.0067 0.133439,-0.08389 0.614798,0.253538 0.891659,0.625041 0.269385,0.361471 0.678197,1.162701 0.704816,1.381365 0.01842,0.151288 -0.123163,0.226089 -0.382832,0.202258 z"
       id="path977-9" /><path
       style="fill:#000000;stroke-width:0.0139663"
       d="m 19.322371,94.831358 c -0.414198,-0.03801 -1.76083,-0.452784 -2.264981,-0.697625 -0.437681,-0.212562 -0.993861,-0.68865 -1.023561,-0.876162 -0.01866,-0.117777 0.133543,-0.30464 0.32345,-0.397114 0.0521,-0.02537 0.09648,-0.0472 0.09861,-0.04851 0.0066,-0.0041 0.110906,-0.372616 0.134804,-0.476338 0.217725,-0.94542 0.231263,-1.501793 0.05446,-2.238225 -0.08282,-0.34499 -0.06641,-0.30872 -0.139694,-0.30872 -0.0565,0 -0.284356,-0.01568 -1.316908,-0.09067 -0.152109,-0.0111 -0.281569,-0.02516 -0.287687,-0.03135 -0.0061,-0.0061 -0.115271,-0.213349 -0.24255,-0.460327 -0.127288,-0.246975 -0.278605,-0.540612 -0.336266,-0.652523 -0.05767,-0.111911 -0.115752,-0.222421 -0.129088,-0.245574 -0.02265,-0.0393 -0.08773,-0.165125 -0.319337,-0.617441 -0.05138,-0.10033 -0.133063,-0.258203 -0.181538,-0.350819 -0.226314,-0.432454 -0.438808,-0.843188 -0.517268,-0.999833 -0.09974,-0.199135 -0.08711,-0.190563 -0.14916,-0.101246 -0.02676,0.03851 -0.08689,0.122038 -0.133633,0.185617 -0.04674,0.06358 -0.132673,0.181901 -0.190944,0.262939 -0.05828,0.08104 -0.134008,0.185234 -0.168289,0.23154 -0.03428,0.04631 -0.153415,0.210492 -0.264736,0.364852 -0.184931,0.256426 -0.459426,0.63428 -0.619756,0.853113 -0.111506,0.152197 -0.357088,0.490441 -0.450502,0.620487 -0.03057,0.04257 -0.09001,0.123807 -0.132058,0.180522 -0.04205,0.05672 -0.120237,0.164801 -0.173752,0.240192 -0.05351,0.07538 -0.112947,0.155287 -0.132058,0.177547 l -0.03474,0.04047 -0.152901,-0.01335 C 10.25053,89.35459 9.4967658,89.30795 9.4789471,89.31517 c -0.024783,0.01005 -0.1191419,0.200434 -0.2277243,0.459534 -0.3583438,0.855067 -0.300663,1.589665 0.1928203,2.455733 0.037384,0.0656 0.083738,0.14769 0.1030303,0.182426 0.051005,0.09184 0.05372,0.09415 0.1328232,0.112946 0.1588734,0.03777 0.3690854,0.183854 0.4148394,0.288279 0.10117,0.230897 -0.5770311,0.884939 -1.2094223,1.166332 -0.2796279,0.124423 -0.2749054,0.122413 -0.3841388,0.164403 -0.05351,0.02057 -0.1129313,0.04416 -0.1320432,0.05243 -0.065332,0.02823 -0.3960291,0.154563 -0.4726042,0.18054 -0.042049,0.01425 -0.1407141,0.04859 -0.2192725,0.07628 -0.4987263,0.175788 -0.9090383,0.205834 -0.9430422,0.06905 -0.0045,-0.01838 -0.014551,-0.03341 -0.022112,-0.03341 -0.018407,0 -1.545e-4,-0.185876 0.025488,-0.259609 0.010801,-0.03087 0.035074,-0.10207 0.054095,-0.158208 0.038794,-0.114567 0.1263726,-0.34359 0.1451395,-0.379556 0.00675,-0.0129 0.029358,-0.06619 0.05024,-0.118317 0.020882,-0.05212 0.046325,-0.10177 0.056556,-0.110351 0.010201,-0.0086 0.015377,-0.02082 0.011401,-0.02724 -0.013051,-0.02135 0.210018,-0.427834 0.2678517,-0.48805 0.0099,-0.01035 0.034744,-0.04188 0.055191,-0.07016 0.041839,-0.05785 0.2603645,-0.282948 0.2746789,-0.282948 0.0051,0 0.029193,-0.01533 0.053525,-0.03407 0.056451,-0.04344 0.2007471,-0.115812 0.2990039,-0.14994 0.087879,-0.03053 0.090144,-0.0309 0.079433,-0.01335 -0.00435,0.0072 0.010951,0.0035 0.034038,-0.0081 0.1343984,-0.06769 0.7397734,-0.05777 0.8201334,0.0135 0.032088,0.02844 0.032853,0.02853 0.010351,0.0013 l -0.024362,-0.02931 0.1009151,0.02558 c 0.1058806,0.02684 0.2190579,0.03423 0.2190579,0.0144 0,-0.0065 -0.049235,-0.112391 -0.109406,-0.235468 C 8.717773,91.325529 8.6521985,90.646881 8.9159248,89.9081 c 0.019292,-0.05402 0.048605,-0.136123 0.065167,-0.182425 0.016562,-0.04631 0.067132,-0.162504 0.1123912,-0.258212 C 9.138743,89.371753 9.173441,89.291086 9.170576,89.2882 9.167726,89.2852 8.9721482,89.27047 8.7359751,89.2552 8.499805,89.23993 8.1345605,89.2151 7.9243205,89.20003 7.714082,89.18494 7.4358432,89.1656 7.3060128,89.15705 7.0267374,89.13863 7.0463008,89.14925 7.1204622,89.05564 7.1949002,88.9616 7.2899402,88.836468 7.5068138,88.54693 7.5993128,88.423438 7.7393641,88.237156 7.8180439,88.132964 8.1410352,87.705232 8.6021258,87.095252 8.6719487,87.003326 8.925219,86.66988 9.0574512,86.494697 9.2608191,86.2232 c 0.067027,-0.08948 0.1315031,-0.170761 0.1432793,-0.180635 0.011701,-0.0099 0.021422,-0.02418 0.021422,-0.03183 0,-0.0077 0.023702,-0.04316 0.052685,-0.07897 0.028983,-0.03581 0.061821,-0.0787 0.072982,-0.09532 0.022592,-0.03366 0.3220386,-0.429246 0.410747,-0.542615 0.031278,-0.03996 0.1249026,-0.164235 0.2080666,-0.276145 0.08317,-0.111911 0.156148,-0.209791 0.16219,-0.217511 0.06473,-0.08269 0.121932,-0.159337 0.121932,-0.163384 0,-0.0028 -0.120402,-0.0053 -0.267575,-0.0054 -0.7708617,-0.0011 -1.1612367,-0.251995 -2.1512411,-1.382494 l -0.076658,-0.08753 -0.097105,0.0733 c -0.2507036,0.18925 -0.5010741,0.235764 -0.764988,0.142124 -0.1022052,-0.03626 -0.1790954,-0.03672 -0.2733243,-0.0015 -0.040429,0.01503 -0.1798319,0.05878 -0.3097974,0.09718 -0.5745244,0.16974 -0.6895319,0.160273 -0.7896774,-0.06502 -0.1534534,-0.345206 -0.095575,-0.418431 0.435225,-0.550598 0.2324017,-0.05788 0.3585613,-0.09635 0.3683618,-0.112361 0.00975,-0.01584 0.021437,-0.0129 -0.3683618,-0.09043 C 5.5827408,82.53951 5.5207666,82.50123 5.5082643,82.252036 5.4878173,81.844405 5.6155851,81.779181 6.205534,81.896094 c 0.4593294,0.09103 0.4168242,0.08864 0.3426357,0.01917 C 6.5137713,81.883043 6.4315481,81.814891 6.365471,81.763817 6.2993894,81.712737 6.1962751,81.633064 6.1363261,81.586754 5.8232508,81.344912 5.7698335,81.219085 5.8795079,80.98182 c 0.1616952,-0.349802 0.2704666,-0.322325 0.9718046,0.2455 0.2991734,0.242218 0.4016352,0.288337 0.5725637,0.257727 0.071767,-0.0129 0.075698,-0.01875 0.1654726,-0.249112 0.081923,-0.210198 0.1538478,-0.35973 0.1685928,-0.350529 0.0072,0.0045 0.0096,-0.0011 0.00525,-0.0126 -0.019022,-0.05004 0.1481398,-0.250517 0.225141,-0.270028 0.063036,-0.01598 0.1785449,0.0049 0.2772307,0.05006 0.2376583,0.108791 0.254727,0.207547 0.0961,0.556059 -0.071602,0.157331 -0.077243,0.170858 -0.1077707,0.25853 -0.012151,0.03473 -0.044869,0.123132 -0.072817,0.196459 -0.060981,0.159928 -0.073117,0.269613 -0.041944,0.378886 0.1089559,0.381944 0.1188119,0.548444 0.044915,0.758825 -0.020537,0.05846 -0.037339,0.110141 -0.037339,0.114821 0,0.0084 0.195789,0.24335 0.3652564,0.438415 0.7018617,0.807884 1.2163906,1.085139 1.922148,1.035763 l 0.213535,-0.015 0.03876,-0.04634 c 0.02132,-0.02547 0.118872,-0.152861 0.21677,-0.283054 l 0.178006,-0.236722 -0.04248,-0.0697 c -0.02337,-0.03833 -0.04248,-0.07316 -0.04248,-0.07741 0,-0.0042 -0.04379,-0.08267 -0.0973,-0.174287 -0.05351,-0.09162 -0.0973,-0.169556 -0.0973,-0.173197 0,-0.0036 -0.03753,-0.07043 -0.08339,-0.148425 -0.04588,-0.07799 -0.08341,-0.14469 -0.08341,-0.148215 0,-0.0035 -0.03036,-0.05872 -0.06746,-0.122622 -0.0371,-0.06391 -0.09448,-0.166721 -0.127513,-0.228464 -0.03302,-0.06175 -0.08398,-0.151839 -0.113231,-0.200213 -0.02925,-0.04838 -0.0532,-0.09175 -0.0532,-0.0964 0,-0.0046 -0.0213,-0.044 -0.04734,-0.08746 -0.02604,-0.04346 -0.07816,-0.135854 -0.115812,-0.205312 C 10.049008,81.964817 9.9964578,81.870611 9.8049051,81.530501 9.7744821,81.476481 9.7305277,81.397543 9.7072304,81.355092 9.683948,81.312638 9.613426,81.186348 9.5505412,81.074435 9.4876549,80.962524 9.4174779,80.836385 9.3945856,80.794127 9.3508563,80.713404 9.2257168,80.489836 9.0919799,80.25352 9.0482955,80.176337 8.9938101,80.07846 8.9708878,80.036012 8.9479505,79.993557 8.8336691,79.788334 8.7169079,79.579945 8.6001513,79.371559 8.4874075,79.169488 8.4663799,79.130896 8.4453478,79.092312 8.3941027,79.000743 8.3525035,78.927422 8.3109044,78.854095 8.2278561,78.705706 8.1679716,78.597653 8.1080856,78.489597 8.0342482,78.357756 8.0039122,78.304666 7.9735642,78.251576 7.93168,78.175803 7.9108129,78.136274 c -0.020867,-0.03953 -0.051995,-0.09554 -0.069187,-0.124482 -0.017192,-0.02894 -0.024902,-0.05263 -0.017117,-0.05263 0.0078,0 0.2883108,0.0249 0.6234022,0.05537 0.3350915,0.03045 0.7281008,0.06544 0.8733573,0.07775 0.1452595,0.0123 0.545579,0.04734 0.8896076,0.07787 0.344025,0.03051 0.825195,0.07289 1.069263,0.09415 l 0.443759,0.03867 0.06557,0.140324 c 0.170573,0.365003 0.290964,0.625846 0.290964,0.630416 0,0.0029 0.04378,0.09664 0.0973,0.20861 0.05351,0.111972 0.0973,0.207164 0.0973,0.211538 0,0.0043 0.03372,0.07921 0.07492,0.166302 0.04121,0.08708 0.112527,0.240438 0.158485,0.340773 0.07711,0.168342 0.194463,0.421188 0.358211,0.771801 0.03605,0.07718 0.101485,0.219262 0.145409,0.315737 0.306478,0.673023 0.439827,0.955622 0.450873,0.955517 0.0051,-5.7e-5 0.06181,-0.08087 0.125983,-0.179607 0.06418,-0.09874 0.135703,-0.205394 0.158954,-0.237022 0.02324,-0.03162 0.04227,-0.06217 0.04227,-0.06787 0,-0.0057 0.0182,-0.03666 0.04041,-0.0688 0.02222,-0.03213 0.124273,-0.187879 0.226745,-0.346097 0.16119,-0.24886 0.31122,-0.478917 0.603093,-0.9248 0.0374,-0.05714 0.08015,-0.123448 0.09499,-0.147345 0.03045,-0.04905 0.248641,-0.385216 0.547349,-0.843329 0.110711,-0.169796 0.239452,-0.367738 0.286085,-0.439868 l 0.08479,-0.131143 0.173752,0.0086 c 0.1607,0.008 0.42692,0.03065 0.750606,0.06404 0.113126,0.0117 1.043693,0.09347 1.598513,0.140534 0.756194,0.06413 1.224775,0.109196 1.234205,0.118722 0.0035,0.0035 -0.06977,0.106001 -0.162603,0.227934 -0.09283,0.121933 -0.216698,0.284853 -0.275271,0.362032 -0.127078,0.167452 -0.195737,0.257176 -0.288979,0.377661 -0.03822,0.04939 -0.122667,0.160802 -0.187651,0.247582 -0.06499,0.08678 -0.155681,0.206668 -0.201552,0.266426 -0.04587,0.05977 -0.127183,0.166392 -0.180701,0.236964 -0.05351,0.07057 -0.122847,0.161237 -0.154062,0.201477 -0.03122,0.04023 -0.118422,0.155259 -0.193791,0.255595 -0.07537,0.10033 -0.163119,0.213999 -0.195013,0.25259 -0.03189,0.03858 -0.07292,0.09307 -0.09117,0.121077 -0.01824,0.02799 -0.08947,0.123403 -0.158274,0.212005 -0.06881,0.0886 -0.140744,0.182028 -0.159852,0.207619 -0.01913,0.02558 -0.08167,0.107816 -0.139004,0.182715 -0.05733,0.0749 -0.137008,0.179578 -0.17705,0.232613 -0.123928,0.164147 -0.293034,0.386544 -0.372089,0.489345 -0.14967,0.194625 -0.253276,0.330787 -0.437767,0.575331 -0.189859,0.251656 -0.345989,0.456323 -0.406796,0.533257 -0.207007,0.261913 -0.197816,0.223135 -0.09759,0.411806 0.04368,0.08222 0.09874,0.188392 0.122337,0.235921 0.0236,0.04752 0.04949,0.09489 0.0575,0.105251 0.0081,0.01035 0.03242,0.05356 0.05422,0.09601 0.05463,0.106406 0.07093,0.123373 0.164011,0.170849 0.41598,0.212168 0.932583,0.05645 1.61447,-0.486624 0.05353,-0.04262 0.139529,-0.109496 0.191127,-0.148605 0.1039,-0.07876 0.10279,-0.07528 0.07166,-0.223222 -0.03536,-0.168116 -0.0062,-0.370914 0.0809,-0.561312 0.07864,-0.17202 0.108056,-0.257977 0.107786,-0.314888 -4.88e-4,-0.09202 -0.08753,-0.570587 -0.149595,-0.821766 -0.0574,-0.23236 0.05112,-0.370858 0.305753,-0.390189 0.261524,-0.01985 0.345065,0.111161 0.476986,0.748026 0.04103,0.198076 0.0491,0.208021 0.188145,0.231698 0.125067,0.02129 0.189215,0.0062 0.339461,-0.08039 0.06125,-0.03527 0.164535,-0.09474 0.229515,-0.132148 0.628935,-0.362173 0.759408,-0.381756 0.880476,-0.132149 0.152607,0.314646 0.06911,0.43799 -0.498221,0.73598 -0.04588,0.02408 -0.10216,0.05494 -0.125097,0.06854 -0.02294,0.01365 -0.07508,0.04326 -0.115887,0.06593 -0.10012,0.0556 -0.08489,0.05827 0.264644,0.0464 0.614832,-0.02088 0.698139,0.01956 0.696026,0.337852 -0.0023,0.355534 -0.118781,0.402994 -1.001981,0.408465 -0.04693,2.58e-4 -0.07058,0.0057 -0.06496,0.01485 0.0099,0.01623 0.231107,0.130393 0.284706,0.146954 0.118572,0.03665 0.429276,0.203175 0.463448,0.248404 0.06461,0.08551 0.03795,0.232463 -0.07123,0.392652 -0.135388,0.198664 -0.270508,0.172183 -0.996291,-0.195252 -0.165017,-0.08354 -0.166695,-0.08383 -0.390672,-0.06677 -0.295375,0.02249 -0.553687,-0.09472 -0.705507,-0.320119 -0.02424,-0.03599 -0.01755,-0.03897 -0.206122,0.09167 -0.06385,0.04424 -0.1505,0.104246 -0.192547,0.133349 -0.682065,0.472049 -1.101805,0.626036 -1.466401,0.537962 -0.129298,-0.03123 -0.130033,-0.03099 -0.0937,0.02984 0.03593,0.06016 0.103016,0.183968 0.14295,0.263853 0.01736,0.03473 0.06412,0.123132 0.103885,0.196458 0.03977,0.07333 0.117867,0.21856 0.173542,0.322754 0.05567,0.104185 0.137098,0.255747 0.180925,0.336788 0.04384,0.08104 0.110876,0.207331 0.14898,0.280654 0.14361,0.276335 0.203524,0.389064 0.262528,0.494001 0.03344,0.05945 0.06079,0.111311 0.06079,0.115242 0,0.0063 0.06598,0.131128 0.219487,0.415144 0.04707,0.08708 0.08161,0.151848 0.329188,0.61744 0.05951,0.111911 0.14805,0.277675 0.196764,0.368362 0.204114,0.38 0.268887,0.501248 0.33173,0.62095 0.03647,0.06946 0.112391,0.212548 0.168723,0.31797 0.123238,0.23064 0.122413,0.224619 0.02945,0.214937 -0.08714,-0.009 -1.474251,-0.104906 -1.518456,-0.104906 h -0.03074 l 0.03809,0.150852 c 0.191451,0.75811 0.168243,1.562575 -0.07133,2.472712 -0.0233,0.08845 -0.04748,0.188596 -0.05375,0.222554 l -0.0114,0.06175 0.08537,-0.0072 c 0.04696,-0.0039 0.144794,-0.02081 0.217415,-0.03743 0.164535,-0.03765 0.327529,-0.07081 0.382253,-0.07775 0.02294,-0.003 0.09098,-0.01275 0.151221,-0.02175 0.116757,-0.01755 0.44744,-0.0065 0.460875,0.01557 0.004,0.0066 0.01809,0.008 0.03123,0.003 0.0216,-0.0081 0.02189,-0.0066 0.003,0.01691 -0.01962,0.02442 -0.0191,0.02483 0.0096,0.0068 0.133439,-0.08389 0.614798,0.253537 0.891659,0.62504 0.269385,0.361472 0.678197,1.162702 0.704816,1.381365 0.01842,0.151289 -0.123163,0.226089 -0.382832,0.202258 z"
       id="path977-14" /></g></svg>
