<?xml version="1.0" encoding="UTF-8" standalone="no"?>
<!-- Created with Inkscape (http://www.inkscape.org/) -->

<svg
   width="210mm"
   height="297mm"
   viewBox="0 0 210 297"
   version="1.1"
   id="svg5"
   xml:space="preserve"
   inkscape:version="1.2.1 (9c6d41e410, 2022-07-14)"
   sodipodi:docname="wide_network.svg"
   xmlns:inkscape="http://www.inkscape.org/namespaces/inkscape"
   xmlns:sodipodi="http://sodipodi.sourceforge.net/DTD/sodipodi-0.dtd"
   xmlns="http://www.w3.org/2000/svg"
   xmlns:svg="http://www.w3.org/2000/svg"><sodipodi:namedview
     id="namedview7"
     pagecolor="#ffffff"
     bordercolor="#000000"
     borderopacity="0.25"
     inkscape:showpageshadow="2"
     inkscape:pageopacity="0.0"
     inkscape:pagecheckerboard="0"
     inkscape:deskcolor="#d1d1d1"
     inkscape:document-units="mm"
     showgrid="false"
     inkscape:zoom="0.3581229"
     inkscape:cx="-344.85368"
     inkscape:cy="794.42003"
     inkscape:window-width="1920"
     inkscape:window-height="991"
     inkscape:window-x="-9"
     inkscape:window-y="-9"
     inkscape:window-maximized="1"
     inkscape:current-layer="svg5" /><defs
     id="defs2" /><g
     inkscape:label="Layer 1"
     inkscape:groupmode="layer"
     id="layer1" /><g
     id="g908"
     transform="translate(-8.7437855)"><path
       d="M 105.69506,291.3152 V 5.6847961 h 15.26582 V 291.3152 Z"
       style="fill:none;stroke:#ffffff;stroke-width:0.277581;stroke-linecap:butt;stroke-linejoin:miter;stroke-miterlimit:10;stroke-dasharray:none;stroke-opacity:1"
       id="path194"
       sodipodi:nodetypes="ccccc" /><path
       d="m 62.947651,142.8096 c 2.759429,0 4.996451,2.23702 4.996451,4.99645 0,2.75943 -2.237022,4.99645 -4.996451,4.99645 -2.759428,0 -4.99645,-2.23702 -4.99645,-4.99645 0,-2.75943 2.237022,-4.99645 4.99645,-4.99645"
       style="fill:#2ecc71;fill-opacity:1;fill-rule:nonzero;stroke:#2ecc71;stroke-width:0.277581;stroke-linecap:butt;stroke-linejoin:miter;stroke-miterlimit:10;stroke-dasharray:none;stroke-opacity:1"
       id="path210"
       sodipodi:nodetypes="csssc" /><path
       d="m 113.32853,7.9054407 c 2.75831,0 4.99645,2.2370213 4.99645,4.9964503 0,2.759428 -2.23814,4.99645 -4.99645,4.99645 -2.75943,0 -4.99645,-2.237022 -4.99645,-4.99645 0,-2.759429 2.23702,-4.9964503 4.99645,-4.9964503"
       style="fill:#3498db;fill-opacity:1;fill-rule:nonzero;stroke:#3498db;stroke-width:0.277581;stroke-linecap:butt;stroke-linejoin:miter;stroke-miterlimit:10;stroke-dasharray:none;stroke-opacity:1"
       id="path216"
       sodipodi:nodetypes="csssc" /><path
       d="M 64.94068,143.16213 C 72.598018,122.42908 103.62181,38.430698 111.31718,17.595778"
       style="fill:none;stroke:#707070;stroke-width:0.277581;stroke-linecap:butt;stroke-linejoin:miter;stroke-miterlimit:10;stroke-dasharray:none;stroke-opacity:1"
       id="path222"
       sodipodi:nodetypes="cc" /><path
       d="m 113.32853,37.884142 c 2.75831,0 4.99645,2.237022 4.99645,4.99645 0,2.759429 -2.23814,4.996451 -4.99645,4.996451 -2.75943,0 -4.99645,-2.237022 -4.99645,-4.996451 0,-2.759428 2.23702,-4.99645 4.99645,-4.99645"
       style="fill:#3498db;fill-opacity:1;fill-rule:nonzero;stroke:#3498db;stroke-width:0.277581;stroke-linecap:butt;stroke-linejoin:miter;stroke-miterlimit:10;stroke-dasharray:none;stroke-opacity:1"
       id="path224"
       sodipodi:nodetypes="csssc" /><path
       d="M 65.365656,143.29758 C 73.543457,126.07787 102.75437,64.563244 110.91691,47.372956"
       style="fill:none;stroke:#707070;stroke-width:0.277581;stroke-linecap:butt;stroke-linejoin:miter;stroke-miterlimit:10;stroke-dasharray:none;stroke-opacity:1"
       id="path230"
       sodipodi:nodetypes="cc" /><path
       d="m 113.32853,67.862844 c 2.75831,0 4.99645,2.237022 4.99645,4.99645 0,2.759428 -2.23814,4.99645 -4.99645,4.99645 -2.75943,0 -4.99645,-2.237022 -4.99645,-4.99645 0,-2.759428 2.23702,-4.99645 4.99645,-4.99645"
       style="fill:#3498db;fill-opacity:1;fill-rule:nonzero;stroke:#3498db;stroke-width:0.277581;stroke-linecap:butt;stroke-linejoin:miter;stroke-miterlimit:10;stroke-dasharray:none;stroke-opacity:1"
       id="path232"
       sodipodi:nodetypes="csssc" /><path
       d="M 65.974945,143.66954 C 74.686257,130.56691 101.60935,90.068179 110.30873,76.982753"
       style="fill:none;stroke:#707070;stroke-width:0.277581;stroke-linecap:butt;stroke-linejoin:miter;stroke-miterlimit:10;stroke-dasharray:none;stroke-opacity:1"
       id="path238"
       sodipodi:nodetypes="cc" /><path
       d="m 113.32853,97.841545 c 2.75831,0 4.99645,2.237025 4.99645,4.996455 0,2.75942 -2.23814,4.99645 -4.99645,4.99645 -2.75943,0 -4.99645,-2.23703 -4.99645,-4.99645 0,-2.75943 2.23702,-4.996455 4.99645,-4.996455"
       style="fill:#3498db;fill-opacity:1;fill-rule:nonzero;stroke:#3498db;stroke-width:0.277581;stroke-linecap:butt;stroke-linejoin:miter;stroke-miterlimit:10;stroke-dasharray:none;stroke-opacity:1"
       id="path240"
       sodipodi:nodetypes="csssc" /><path
       d="m 66.808797,144.57168 c 9.192636,-8.29605 33.533123,-30.26406 42.691063,-38.52846"
       style="fill:none;stroke:#707070;stroke-width:0.277581;stroke-linecap:butt;stroke-linejoin:miter;stroke-miterlimit:10;stroke-dasharray:none;stroke-opacity:1"
       id="path246"
       sodipodi:nodetypes="cc" /><path
       d="m 113.32853,127.82025 c 2.75831,0 4.99645,2.23702 4.99645,4.99645 0,2.75943 -2.23814,4.99645 -4.99645,4.99645 -2.75943,0 -4.99645,-2.23702 -4.99645,-4.99645 0,-2.75943 2.23702,-4.99645 4.99645,-4.99645"
       style="fill:#3498db;fill-opacity:1;fill-rule:nonzero;stroke:#3498db;stroke-width:0.277581;stroke-linecap:butt;stroke-linejoin:miter;stroke-miterlimit:10;stroke-dasharray:none;stroke-opacity:1"
       id="path248"
       sodipodi:nodetypes="csssc" /><path
       d="m 67.823632,146.42259 c 9.467163,-2.84854 31.047943,-9.34031 40.567018,-12.20383"
       style="fill:none;stroke:#707070;stroke-width:0.277581;stroke-linecap:butt;stroke-linejoin:miter;stroke-miterlimit:10;stroke-dasharray:none;stroke-opacity:1"
       id="path254"
       sodipodi:nodetypes="cc" /><path
       d="m 113.32853,157.79895 c 2.75831,0 4.99645,2.23702 4.99645,4.99645 0,2.75943 -2.23814,4.99645 -4.99645,4.99645 -2.75943,0 -4.99645,-2.23702 -4.99645,-4.99645 0,-2.75943 2.23702,-4.99645 4.99645,-4.99645"
       style="fill:#3498db;fill-opacity:1;fill-rule:nonzero;stroke:#3498db;stroke-width:0.277581;stroke-linecap:butt;stroke-linejoin:miter;stroke-miterlimit:10;stroke-dasharray:none;stroke-opacity:1"
       id="path256"
       sodipodi:nodetypes="csssc" /><path
       d="m 67.823632,149.18951 c 9.467163,2.84853 31.047943,9.34031 40.567018,12.20383"
       style="fill:none;stroke:#707070;stroke-width:0.277581;stroke-linecap:butt;stroke-linejoin:miter;stroke-miterlimit:10;stroke-dasharray:none;stroke-opacity:1"
       id="path262"
       sodipodi:nodetypes="cc" /><path
       d="m 113.32853,187.77765 c 2.75831,0 4.99645,2.23702 4.99645,4.99645 0,2.75943 -2.23814,4.99645 -4.99645,4.99645 -2.75943,0 -4.99645,-2.23702 -4.99645,-4.99645 0,-2.75943 2.23702,-4.99645 4.99645,-4.99645"
       style="fill:#3498db;fill-opacity:1;fill-rule:nonzero;stroke:#3498db;stroke-width:0.277581;stroke-linecap:butt;stroke-linejoin:miter;stroke-miterlimit:10;stroke-dasharray:none;stroke-opacity:1"
       id="path264"
       sodipodi:nodetypes="csssc" /><path
       d="m 66.808797,151.04042 c 9.192636,8.29605 33.533123,30.26405 42.691063,38.52846"
       style="fill:none;stroke:#707070;stroke-width:0.277581;stroke-linecap:butt;stroke-linejoin:miter;stroke-miterlimit:10;stroke-dasharray:none;stroke-opacity:1"
       id="path270"
       sodipodi:nodetypes="cc" /><path
       d="m 113.32853,217.75635 c 2.75831,0 4.99645,2.23702 4.99645,4.99645 0,2.75943 -2.23814,4.99645 -4.99645,4.99645 -2.75943,0 -4.99645,-2.23702 -4.99645,-4.99645 0,-2.75943 2.23702,-4.99645 4.99645,-4.99645"
       style="fill:#3498db;fill-opacity:1;fill-rule:nonzero;stroke:#3498db;stroke-width:0.277581;stroke-linecap:butt;stroke-linejoin:miter;stroke-miterlimit:10;stroke-dasharray:none;stroke-opacity:1"
       id="path272"
       sodipodi:nodetypes="csssc" /><path
       d="m 65.974945,151.94255 c 8.711312,13.10264 35.634405,53.60137 44.333785,66.68679"
       style="fill:none;stroke:#707070;stroke-width:0.277581;stroke-linecap:butt;stroke-linejoin:miter;stroke-miterlimit:10;stroke-dasharray:none;stroke-opacity:1"
       id="path278"
       sodipodi:nodetypes="cc" /><path
       d="m 113.32853,247.59737 c 2.98843,0 5.41171,2.42217 5.41171,5.41171 0,2.98955 -2.42328,5.41171 -5.41171,5.41171 -2.98955,0 -5.41282,-2.42216 -5.41282,-5.41171 0,-2.98954 2.42327,-5.41171 5.41282,-5.41171"
       style="fill:#3498db;fill-opacity:1;fill-rule:nonzero;stroke:#3498db;stroke-width:0.277581;stroke-linecap:butt;stroke-linejoin:miter;stroke-miterlimit:10;stroke-dasharray:none;stroke-opacity:1"
       id="path280"
       sodipodi:nodetypes="csssc" /><path
       d="m 65.365656,152.32645 c 8.121453,17.14726 36.989834,78.10201 45.381094,95.81942"
       style="fill:none;stroke:#707070;stroke-width:0.277581;stroke-linecap:butt;stroke-linejoin:miter;stroke-miterlimit:10;stroke-dasharray:none;stroke-opacity:1"
       id="path286"
       sodipodi:nodetypes="cc" /><path
       d="m 113.32853,278.40882 c 2.98843,0 5.41171,2.42216 5.41171,5.41171 0,2.98954 -2.42328,5.41171 -5.41171,5.41171 -2.98955,0 -5.41282,-2.42217 -5.41282,-5.41171 0,-2.98955 2.42327,-5.41171 5.41282,-5.41171"
       style="fill:#3498db;fill-opacity:1;fill-rule:nonzero;stroke:#3498db;stroke-width:0.277581;stroke-linecap:butt;stroke-linejoin:miter;stroke-miterlimit:10;stroke-dasharray:none;stroke-opacity:1"
       id="path288"
       sodipodi:nodetypes="csssc" /><path
       d="m 64.94068,152.488 c 7.614868,20.78718 38.33527,104.65009 46.2452,126.2417"
       style="fill:none;stroke:#707070;stroke-width:0.277581;stroke-linecap:butt;stroke-linejoin:miter;stroke-miterlimit:10;stroke-dasharray:none;stroke-opacity:1"
       id="path294"
       sodipodi:nodetypes="cc" /><path
       d="m 164.12466,142.39434 c 2.98844,0 5.41171,2.42217 5.41171,5.41171 0,2.98954 -2.42327,5.41171 -5.41171,5.41171 -2.98926,0 -5.41171,-2.42217 -5.41171,-5.41171 0,-2.98954 2.42245,-5.41171 5.41171,-5.41171"
       style="fill:#e74c3c;fill-opacity:1;fill-rule:nonzero;stroke:#e74c3c;stroke-width:0.277581;stroke-linecap:butt;stroke-linejoin:miter;stroke-miterlimit:10;stroke-dasharray:none;stroke-opacity:1"
       id="path296"
       sodipodi:nodetypes="csssc" /><path
       d="m 115.33543,17.545814 c 7.67816,20.617019 38.65532,103.794596 46.6316,125.211596"
       style="fill:none;stroke:#707070;stroke-width:0.277581;stroke-linecap:butt;stroke-linejoin:miter;stroke-miterlimit:10;stroke-dasharray:none;stroke-opacity:1"
       id="path302"
       sodipodi:nodetypes="cc" /><path
       d="m 115.76485,47.389056 c 8.18863,17.102572 37.29795,77.894934 45.75972,95.566824"
       style="fill:none;stroke:#707070;stroke-width:0.277581;stroke-linecap:butt;stroke-linejoin:miter;stroke-miterlimit:10;stroke-dasharray:none;stroke-opacity:1"
       id="path304"
       sodipodi:nodetypes="cc" /><path
       d="m 116.30697,76.888654 c 8.64191,12.892229 35.57278,53.065356 44.57555,66.495536"
       style="fill:none;stroke:#707070;stroke-width:0.277581;stroke-linecap:butt;stroke-linejoin:miter;stroke-miterlimit:10;stroke-dasharray:none;stroke-opacity:1"
       id="path306"
       sodipodi:nodetypes="cc" /><path
       d="m 117.2191,106.07236 c 9.15682,8.1964 33.21945,29.73277 42.70383,38.22174"
       style="fill:none;stroke:#707070;stroke-width:0.277581;stroke-linecap:butt;stroke-linejoin:miter;stroke-miterlimit:10;stroke-dasharray:none;stroke-opacity:1"
       id="path308"
       sodipodi:nodetypes="cc" /><path
       d="m 118.24254,134.20016 c 9.44967,2.81938 30.86474,9.2079 40.6092,12.11611"
       style="fill:none;stroke:#707070;stroke-width:0.277581;stroke-linecap:butt;stroke-linejoin:miter;stroke-miterlimit:10;stroke-dasharray:none;stroke-opacity:1"
       id="path310"
       sodipodi:nodetypes="cc" /><path
       d="m 118.24254,161.41194 c 9.44967,-2.81939 30.86474,-9.20791 40.6092,-12.11612"
       style="fill:none;stroke:#707070;stroke-width:0.277581;stroke-linecap:butt;stroke-linejoin:miter;stroke-miterlimit:10;stroke-dasharray:none;stroke-opacity:1"
       id="path312"
       sodipodi:nodetypes="cc" /><path
       d="m 117.2191,189.53973 c 9.15682,-8.1964 33.21945,-29.73276 42.70383,-38.22173"
       style="fill:none;stroke:#707070;stroke-width:0.277581;stroke-linecap:butt;stroke-linejoin:miter;stroke-miterlimit:10;stroke-dasharray:none;stroke-opacity:1"
       id="path314"
       sodipodi:nodetypes="cc" /><path
       d="m 116.30697,218.72344 c 8.64191,-12.89223 35.57278,-53.06563 44.57555,-66.49553"
       style="fill:none;stroke:#707070;stroke-width:0.277581;stroke-linecap:butt;stroke-linejoin:miter;stroke-miterlimit:10;stroke-dasharray:none;stroke-opacity:1"
       id="path316"
       sodipodi:nodetypes="cc" /><path
       d="m 115.92751,248.14587 c 8.41541,-17.61859 37.24688,-77.99237 45.62093,-95.52769"
       style="fill:none;stroke:#707070;stroke-width:0.277581;stroke-linecap:butt;stroke-linejoin:miter;stroke-miterlimit:10;stroke-dasharray:none;stroke-opacity:1"
       id="path318"
       sodipodi:nodetypes="cc" /><path
       d="m 115.48311,278.73719 c 7.91854,-21.43754 38.54012,-104.33643 46.47615,-125.82199"
       style="fill:none;stroke:#707070;stroke-width:0.277581;stroke-linecap:butt;stroke-linejoin:miter;stroke-miterlimit:10;stroke-dasharray:none;stroke-opacity:1"
       id="path320"
       sodipodi:nodetypes="cc" /></g></svg>
