<?xml version="1.0" encoding="UTF-8" standalone="no"?>
<!-- Created with Inkscape (http://www.inkscape.org/) -->

<svg
   width="160mm"
   height="90mm"
   viewBox="0 0 160 90"
   version="1.1"
   id="svg5"
   inkscape:version="1.2.2 (732a01da63, 2022-12-09)"
   sodipodi:docname="width_vs_depth.svg"
   xmlns:inkscape="http://www.inkscape.org/namespaces/inkscape"
   xmlns:sodipodi="http://sodipodi.sourceforge.net/DTD/sodipodi-0.dtd"
   xmlns="http://www.w3.org/2000/svg"
   xmlns:svg="http://www.w3.org/2000/svg">
  <sodipodi:namedview
     id="namedview7"
     pagecolor="#ffffff"
     bordercolor="#000000"
     borderopacity="0.25"
     inkscape:showpageshadow="2"
     inkscape:pageopacity="0.0"
     inkscape:pagecheckerboard="0"
     inkscape:deskcolor="#d1d1d1"
     inkscape:document-units="mm"
     showgrid="false"
     inkscape:zoom="1.5233586"
     inkscape:cx="405.02611"
     inkscape:cy="144.41774"
     inkscape:window-width="1920"
     inkscape:window-height="1009"
     inkscape:window-x="-8"
     inkscape:window-y="-8"
     inkscape:window-maximized="1"
     inkscape:current-layer="layer1" />
  <defs
     id="defs2" />
  <g
     inkscape:label="Layer 1"
     inkscape:groupmode="layer"
     id="layer1">
    <path
       d="M 89.635232,52.307268 V 37.78363 h 4.748926 v 14.523638 z"
       stroke="#ffffff"
       stroke-width="0.0910489"
       stroke-miterlimit="10"
       fill="none"
       id="path736" />
    <path
       d="M 106.07357,52.307268 V 37.78363 h 4.74906 v 14.523638 z"
       stroke="#ffffff"
       stroke-width="0.0910489"
       stroke-miterlimit="10"
       fill="none"
       id="path738" />
    <path
       d="M 122.51204,52.307268 V 37.78363 h 4.74906 v 14.523638 z"
       stroke="#ffffff"
       stroke-width="0.0910489"
       stroke-miterlimit="10"
       fill="none"
       id="path740" />
    <path
       d="M 138.95051,52.488937 V 37.511062 h 5.02262 v 14.977875 z"
       stroke="#ffffff"
       stroke-width="0.0910489"
       stroke-miterlimit="10"
       fill="none"
       id="path742" />
    <path
       d="M 73.196765,52.307268 V 37.78363 h 4.749056 v 14.523638 z"
       stroke="#ffffff"
       stroke-width="0.0910489"
       stroke-miterlimit="10"
       fill="none"
       id="path744" />
    <path
       d="m 59.13276,44.591602 c 0.907849,0 1.643899,0.73148 1.643899,1.633851 0,0.902372 -0.73605,1.633981 -1.643899,1.633981 -0.907848,0 -1.643807,-0.73161 -1.643807,-1.633981 0,-0.902371 0.735959,-1.633851 1.643807,-1.633851"
       stroke="#2ecc71"
       stroke-width="0.0910489"
       stroke-miterlimit="10"
       fill="#2ecc71"
       id="path746"
       style="fill:#44aa00;stroke:#55d400" />
    <path
       d="m 75.571097,38.509786 c 0.907848,0 1.643899,0.73148 1.643899,1.633851 0,0.902371 -0.736051,1.633981 -1.643899,1.633981 -0.907587,0 -1.643768,-0.73161 -1.643768,-1.633981 0,-0.902371 0.736181,-1.633851 1.643768,-1.633851"
       stroke="#3498db"
       stroke-width="0.0910489"
       stroke-miterlimit="10"
       fill="#3498db"
       id="path748"
       style="stroke:#00aad4;fill:#00aad4" />
    <path
       d="m 60.724271,45.664084 c 3.096796,-1.158187 10.165444,-3.803098 13.259235,-4.960507"
       stroke="#707070"
       stroke-width="0.0910489"
       stroke-miterlimit="10"
       fill="none"
       id="path750" />
    <path
       d="m 75.571097,48.313281 c 0.907848,0 1.643899,0.73161 1.643899,1.633981 0,0.90237 -0.736051,1.63385 -1.643899,1.63385 -0.907587,0 -1.643768,-0.73148 -1.643768,-1.63385 0,-0.902371 0.736181,-1.633981 1.643768,-1.633981"
       stroke="#3498db"
       stroke-width="0.0910489"
       stroke-miterlimit="10"
       fill="#3498db"
       id="path752"
       style="stroke:#00aad4;fill:#00aad4" />
    <path
       d="m 60.782669,46.582168 c 3.107247,0.711612 10.039895,2.298714 13.143353,3.009417"
       stroke="#707070"
       stroke-width="0.0910489"
       stroke-miterlimit="10"
       fill="none"
       id="path754" />
    <path
       d="m 92.009564,38.509786 c 0.907849,0 1.643899,0.73148 1.643899,1.633851 0,0.902371 -0.73605,1.633981 -1.643899,1.633981 -0.907587,0 -1.643899,-0.73161 -1.643899,-1.633981 0,-0.902371 0.736312,-1.633851 1.643899,-1.633851"
       stroke="#3498db"
       stroke-width="0.0910489"
       stroke-miterlimit="10"
       fill="#3498db"
       id="path756"
       style="stroke:#00aad4;fill:#00aad4" />
    <path
       d="M 77.250662,40.143637 H 90.323729"
       stroke="#707070"
       stroke-width="0.0910489"
       stroke-miterlimit="10"
       fill="none"
       id="path758" />
    <path
       d="m 92.009564,48.313281 c 0.907849,0 1.643899,0.73161 1.643899,1.633981 0,0.90237 -0.73605,1.63385 -1.643899,1.63385 -0.907587,0 -1.643899,-0.73148 -1.643899,-1.63385 0,-0.902371 0.736312,-1.633981 1.643899,-1.633981"
       stroke="#3498db"
       stroke-width="0.0910489"
       stroke-miterlimit="10"
       fill="#3498db"
       id="path760"
       style="stroke:#00aad4;fill:#00aad4" />
    <path
       d="m 77.020597,40.96264 c 3.067662,1.849802 10.501853,6.333737 13.555014,8.174579"
       stroke="#707070"
       stroke-width="0.0910489"
       stroke-miterlimit="10"
       fill="none"
       id="path762" />
    <path
       d="M 77.020597,49.128259 C 80.088259,47.278327 87.52245,42.794522 90.575611,40.953421"
       stroke="#707070"
       stroke-width="0.0910489"
       stroke-miterlimit="10"
       fill="none"
       id="path764" />
    <path
       d="M 77.250662,49.947262 H 90.323729"
       stroke="#707070"
       stroke-width="0.0910489"
       stroke-miterlimit="10"
       fill="none"
       id="path766" />
    <path
       d="m 108.44804,38.509786 c 0.90784,0 1.64376,0.73148 1.64376,1.633851 0,0.902371 -0.73592,1.633981 -1.64376,1.633981 -0.90759,0 -1.6439,-0.73161 -1.6439,-1.633981 0,-0.902371 0.73631,-1.633851 1.6439,-1.633851"
       stroke="#3498db"
       stroke-width="0.0910489"
       stroke-miterlimit="10"
       fill="#3498db"
       id="path768"
       style="stroke:#00aad4;fill:#00aad4" />
    <path
       d="M 93.689129,40.143637 H 106.7622"
       stroke="#707070"
       stroke-width="0.0910489"
       stroke-miterlimit="10"
       fill="none"
       id="path770" />
    <path
       d="m 108.44804,48.313281 c 0.90784,0 1.64376,0.73161 1.64376,1.633981 0,0.90237 -0.73592,1.63385 -1.64376,1.63385 -0.90759,0 -1.6439,-0.73148 -1.6439,-1.63385 0,-0.902371 0.73631,-1.633981 1.6439,-1.633981"
       stroke="#3498db"
       stroke-width="0.0910489"
       stroke-miterlimit="10"
       fill="#3498db"
       id="path772"
       style="stroke:#00aad4;fill:#00aad4" />
    <path
       d="m 93.458934,40.96264 c 3.067662,1.849802 10.501986,6.333737 13.555146,8.174579"
       stroke="#707070"
       stroke-width="0.0910489"
       stroke-miterlimit="10"
       fill="none"
       id="path774" />
    <path
       d="m 93.458934,49.128259 c 3.067662,-1.849932 10.501986,-6.333737 13.555146,-8.174838"
       stroke="#707070"
       stroke-width="0.0910489"
       stroke-miterlimit="10"
       fill="none"
       id="path776" />
    <path
       d="M 93.689129,49.947262 H 106.7622"
       stroke="#707070"
       stroke-width="0.0910489"
       stroke-miterlimit="10"
       fill="none"
       id="path778" />
    <path
       d="m 124.8865,38.509786 c 0.90785,0 1.64377,0.73148 1.64377,1.633851 0,0.902371 -0.73592,1.633981 -1.64377,1.633981 -0.90771,0 -1.6439,-0.73161 -1.6439,-1.633981 0,-0.902371 0.73619,-1.633851 1.6439,-1.633851"
       stroke="#3498db"
       stroke-width="0.0910489"
       stroke-miterlimit="10"
       fill="#3498db"
       id="path780"
       style="stroke:#00aad4;fill:#00aad4" />
    <path
       d="m 110.1276,40.143637 h 13.07307"
       stroke="#707070"
       stroke-width="0.0910489"
       stroke-miterlimit="10"
       fill="none"
       id="path782" />
    <path
       d="m 124.8865,48.313281 c 0.90785,0 1.64377,0.73161 1.64377,1.633981 0,0.90237 -0.73592,1.63385 -1.64377,1.63385 -0.90771,0 -1.6439,-0.73148 -1.6439,-1.63385 0,-0.902371 0.73619,-1.633981 1.6439,-1.633981"
       stroke="#3498db"
       stroke-width="0.0910489"
       stroke-miterlimit="10"
       fill="#3498db"
       id="path784"
       style="stroke:#00aad4;fill:#00aad4" />
    <path
       d="m 109.89741,40.96264 c 3.06766,1.849802 10.50198,6.333737 13.55514,8.174579"
       stroke="#707070"
       stroke-width="0.0910489"
       stroke-miterlimit="10"
       fill="none"
       id="path786" />
    <path
       d="m 109.89741,49.128259 c 3.06766,-1.849932 10.50198,-6.333737 13.55514,-8.174838"
       stroke="#707070"
       stroke-width="0.0910489"
       stroke-miterlimit="10"
       fill="none"
       id="path788" />
    <path
       d="m 110.1276,49.947262 h 13.07307"
       stroke="#707070"
       stroke-width="0.0910489"
       stroke-miterlimit="10"
       fill="none"
       id="path790" />
    <path
       d="m 141.46215,38.192418 c 0.9831,0 1.78029,0.792123 1.78029,1.76955 0,0.977818 -0.79719,1.769811 -1.78029,1.769811 -0.98376,0 -1.78108,-0.791993 -1.78108,-1.769811 0,-0.977427 0.79732,-1.76955 1.78108,-1.76955"
       stroke="#3498db"
       stroke-width="0.0910489"
       stroke-miterlimit="10"
       fill="#3498db"
       id="path792"
       style="stroke:#00aad4;fill:#00aad4" />
    <path
       d="m 126.54974,40.126366 c 3.0849,-0.03415 9.91068,-0.110118 13.10677,-0.145049"
       stroke="#707070"
       stroke-width="0.0910489"
       stroke-miterlimit="10"
       fill="none"
       id="path794" />
    <path
       d="m 141.46215,48.268221 c 0.9831,0 1.78029,0.791993 1.78029,1.76981 0,0.977558 -0.79719,1.769551 -1.78029,1.769551 -0.98376,0 -1.78108,-0.791993 -1.78108,-1.769551 0,-0.977817 0.79732,-1.76981 1.78108,-1.76981"
       stroke="#3498db"
       stroke-width="0.0910489"
       stroke-miterlimit="10"
       fill="#3498db"
       id="path796"
       style="stroke:#00aad4;fill:#00aad4" />
    <path
       d="m 126.34724,40.970172 c 3.05499,1.843828 10.40465,6.280236 13.55227,8.179902"
       stroke="#707070"
       stroke-width="0.0910489"
       stroke-miterlimit="10"
       fill="none"
       id="path798" />
    <path
       d="m 126.34724,49.113325 c 3.05499,-1.860969 10.40465,-6.337892 13.55227,-8.255089"
       stroke="#707070"
       stroke-width="0.0910489"
       stroke-miterlimit="10"
       fill="none"
       id="path800" />
    <path
       d="m 126.54974,49.955962 c 3.0849,0.01701 9.91068,0.05454 13.10677,0.07259"
       stroke="#707070"
       stroke-width="0.0910489"
       stroke-miterlimit="10"
       fill="none"
       id="path802" />
    <path
       d="m 158.17418,43.275639 c 0.98323,0 1.7803,0.791993 1.7803,1.76981 0,0.977558 -0.79707,1.769811 -1.7803,1.769811 -0.98375,0 -1.78055,-0.792253 -1.78055,-1.769811 0,-0.977817 0.7968,-1.76981 1.78055,-1.76981"
       stroke="#e74c3c"
       stroke-width="0.0910489"
       stroke-miterlimit="10"
       fill="#e74c3c"
       id="path804"
       style="fill:#d40000;stroke:#d40000" />
    <path
       d="m 143.19867,40.468148 c 3.168,0.974441 10.08196,3.100317 13.24526,4.073459"
       stroke="#707070"
       stroke-width="0.0910489"
       stroke-miterlimit="10"
       fill="none"
       id="path806" />
    <path
       d="m 143.19867,49.540682 c 3.16003,-0.954054 10.04656,-3.033961 13.22057,-3.992689"
       stroke="#707070"
       stroke-width="0.0910489"
       stroke-miterlimit="10"
       fill="none"
       id="path808" />
    <path
       d="M 15.148393,89.956311 V 0.04368919 h 4.829713 V 89.956311 Z"
       stroke="#ffffff"
       stroke-width="0.0875979"
       stroke-miterlimit="10"
       fill="none"
       id="path816" />
    <path
       d="m 1.624623,43.208854 c 0.8729686,0 1.580714,0.704211 1.580714,1.572689 0,0.868478 -0.7077454,1.573078 -1.580714,1.573078 -0.87309914,0 -1.58071401,-0.7046 -1.58071401,-1.573078 0,-0.868478 0.70761487,-1.572689 1.58071401,-1.572689"
       stroke="#2ecc71"
       stroke-width="0.0875979"
       stroke-miterlimit="10"
       fill="#2ecc71"
       id="path818"
       style="fill:#44aa00;stroke:#55d400" />
    <path
       d="m 17.563576,0.74271815 c 0.872577,0 1.580583,0.70419725 1.580583,1.57281845 0,0.8686341 -0.708006,1.5728054 -1.580583,1.5728054 -0.87323,0 -1.580844,-0.7041713 -1.580844,-1.5728054 0,-0.8686212 0.707614,-1.57281845 1.580844,-1.57281845"
       stroke="#3498db"
       stroke-width="0.0875979"
       stroke-miterlimit="10"
       fill="#3498db"
       id="path820"
       style="stroke:#00aad4;fill:#00aad4" />
    <path
       d="M 2.2551076,43.319752 C 4.6775987,36.793178 14.49259,10.351675 16.927088,3.7931184"
       stroke="#707070"
       stroke-width="0.0875979"
       stroke-miterlimit="10"
       fill="none"
       id="path822" />
    <path
       d="m 17.563576,10.179616 c 0.872577,0 1.580583,0.70421 1.580583,1.57287 0,0.868608 -0.708006,1.572818 -1.580583,1.572818 -0.87323,0 -1.580844,-0.70421 -1.580844,-1.572818 0,-0.86866 0.707614,-1.57287 1.580844,-1.57287"
       stroke="#3498db"
       stroke-width="0.0875979"
       stroke-miterlimit="10"
       fill="#3498db"
       id="path824"
       style="stroke:#00aad4;fill:#00aad4" />
    <path
       d="M 2.3895309,43.362474 C 4.9767233,37.941886 14.218001,18.577858 16.800495,13.16662"
       stroke="#707070"
       stroke-width="0.0875979"
       stroke-miterlimit="10"
       fill="none"
       id="path826" />
    <path
       d="m 17.563576,19.616578 c 0.872577,0 1.580583,0.70408 1.580583,1.572819 0,0.868608 -0.708006,1.572688 -1.580583,1.572688 -0.87323,0 -1.580844,-0.70408 -1.580844,-1.572688 0,-0.868739 0.707614,-1.572819 1.580844,-1.572819"
       stroke="#3498db"
       stroke-width="0.0875979"
       stroke-miterlimit="10"
       fill="#3498db"
       id="path828"
       style="stroke:#00aad4;fill:#00aad4" />
    <path
       d="M 2.5822913,43.479605 C 5.3382307,39.354982 13.855711,26.606478 16.608126,22.487309"
       stroke="#707070"
       stroke-width="0.0875979"
       stroke-miterlimit="10"
       fill="none"
       id="path830" />
    <path
       d="m 17.563576,29.053359 c 0.872577,0 1.580583,0.70434 1.580583,1.572948 0,0.868478 -0.708006,1.572559 -1.580583,1.572559 -0.87323,0 -1.580844,-0.704081 -1.580844,-1.572559 0,-0.868608 0.707614,-1.572948 1.580844,-1.572948"
       stroke="#3498db"
       stroke-width="0.0875979"
       stroke-miterlimit="10"
       fill="#3498db"
       id="path832"
       style="stroke:#00aad4;fill:#00aad4" />
    <path
       d="M 2.8460482,43.7636 C 5.7542905,41.152062 13.45492,34.236829 16.3522,31.63516"
       stroke="#707070"
       stroke-width="0.0875979"
       stroke-miterlimit="10"
       fill="none"
       id="path834" />
    <path
       d="m 17.563576,38.490269 c 0.872577,0 1.580583,0.70421 1.580583,1.572948 0,0.868479 -0.708006,1.572689 -1.580583,1.572689 -0.87323,0 -1.580844,-0.70421 -1.580844,-1.572689 0,-0.868738 0.707614,-1.572948 1.580844,-1.572948"
       stroke="#3498db"
       stroke-width="0.0875979"
       stroke-miterlimit="10"
       fill="#3498db"
       id="path836"
       style="stroke:#00aad4;fill:#00aad4" />
    <path
       d="M 3.1670981,44.346265 C 6.1622588,43.449348 12.989789,41.405801 16.001394,40.504599"
       stroke="#707070"
       stroke-width="0.0875979"
       stroke-miterlimit="10"
       fill="none"
       id="path838" />
    <path
       d="m 17.563576,47.92731 c 0.872577,0 1.580583,0.70408 1.580583,1.572558 0,0.868868 -0.708006,1.573078 -1.580583,1.573078 -0.87323,0 -1.580844,-0.70421 -1.580844,-1.573078 0,-0.868478 0.707614,-1.572558 1.580844,-1.572558"
       stroke="#3498db"
       stroke-width="0.0875979"
       stroke-miterlimit="10"
       fill="#3498db"
       id="path840"
       style="stroke:#00aad4;fill:#00aad4" />
    <path
       d="m 3.1670981,45.21721 c 2.9951607,0.896528 9.8226909,2.940205 12.8342959,3.841407"
       stroke="#707070"
       stroke-width="0.0875979"
       stroke-miterlimit="10"
       fill="none"
       id="path842" />
    <path
       d="m 17.563576,57.36422 c 0.872577,0 1.580583,0.70421 1.580583,1.572689 0,0.868868 -0.708006,1.572948 -1.580583,1.572948 -0.87323,0 -1.580844,-0.70408 -1.580844,-1.572948 0,-0.868479 0.707614,-1.572689 1.580844,-1.572689"
       stroke="#3498db"
       stroke-width="0.0875979"
       stroke-miterlimit="10"
       fill="#3498db"
       id="path844"
       style="stroke:#00aad4;fill:#00aad4" />
    <path
       d="M 2.8460482,45.799616 C 5.7542905,48.411024 13.45492,55.326257 16.3522,57.928056"
       stroke="#707070"
       stroke-width="0.0875979"
       stroke-miterlimit="10"
       fill="none"
       id="path846" />
    <path
       d="m 17.563576,66.800871 c 0.872577,0 1.580583,0.70421 1.580583,1.573078 0,0.868478 -0.708006,1.572689 -1.580583,1.572689 -0.87323,0 -1.580844,-0.704211 -1.580844,-1.572689 0,-0.868868 0.707614,-1.573078 1.580844,-1.573078"
       stroke="#3498db"
       stroke-width="0.0875979"
       stroke-miterlimit="10"
       fill="#3498db"
       id="path848"
       style="stroke:#00aad4;fill:#00aad4" />
    <path
       d="M 2.5822913,46.083871 C 5.3382307,50.208234 13.855711,62.956737 16.608126,67.075776"
       stroke="#707070"
       stroke-width="0.0875979"
       stroke-miterlimit="10"
       fill="none"
       id="path850" />
    <path
       d="m 17.563576,76.194539 c 0.94527,0 1.711875,0.762646 1.711875,1.703584 0,0.941198 -0.766605,1.703583 -1.711875,1.703583 -0.945923,0 -1.712527,-0.762385 -1.712527,-1.703583 0,-0.940938 0.766604,-1.703584 1.712527,-1.703584"
       stroke="#3498db"
       stroke-width="0.0875979"
       stroke-miterlimit="10"
       fill="#3498db"
       id="path852"
       style="stroke:#00aad4;fill:#00aad4" />
    <path
       d="M 2.3895309,46.204377 C 4.9588437,51.60237 14.0918,70.789924 16.746726,76.367248"
       stroke="#707070"
       stroke-width="0.0875979"
       stroke-miterlimit="10"
       fill="none"
       id="path854" />
    <path
       d="m 17.563576,85.893759 c 0.94527,0 1.711875,0.762386 1.711875,1.703584 0,0.940938 -0.766605,1.703324 -1.711875,1.703324 -0.945923,0 -1.712527,-0.762386 -1.712527,-1.703324 0,-0.941198 0.766604,-1.703584 1.712527,-1.703584"
       stroke="#3498db"
       stroke-width="0.0875979"
       stroke-miterlimit="10"
       fill="#3498db"
       id="path856"
       style="stroke:#00aad4;fill:#00aad4" />
    <path
       d="M 2.2551076,46.255411 C 4.6641564,52.798865 14.383094,79.197854 16.885586,85.994787"
       stroke="#707070"
       stroke-width="0.0875979"
       stroke-miterlimit="10"
       fill="none"
       id="path858" />
    <path
       d="m 33.63382,43.077959 c 0.94527,0 1.711744,0.762776 1.711744,1.703584 0,0.941198 -0.766474,1.703713 -1.711744,1.703713 -0.946053,0 -1.712266,-0.762515 -1.712266,-1.703713 0,-0.940808 0.766213,-1.703584 1.712266,-1.703584"
       stroke="#e74c3c"
       stroke-width="0.0875979"
       stroke-miterlimit="10"
       fill="#e74c3c"
       id="path860"
       style="fill:#d40000;stroke:#d40000" />
    <path
       d="M 18.198237,3.7773799 C 20.627645,10.267347 30.427758,36.450488 32.951002,43.192233"
       stroke="#707070"
       stroke-width="0.0875979"
       stroke-miterlimit="10"
       fill="none"
       id="path862" />
    <path
       d="m 18.334226,13.171685 c 2.590455,5.383578 11.799889,24.520228 14.477002,30.083138"
       stroke="#707070"
       stroke-width="0.0875979"
       stroke-miterlimit="10"
       fill="none"
       id="path864" />
    <path
       d="m 18.505714,22.457702 c 2.734014,4.058396 11.254104,16.704313 14.102443,20.931912"
       stroke="#707070"
       stroke-width="0.0875979"
       stroke-miterlimit="10"
       fill="none"
       id="path866" />
    <path
       d="m 18.794267,31.64425 c 2.896888,2.580373 10.509686,9.359516 13.510067,12.031827"
       stroke="#707070"
       stroke-width="0.0875979"
       stroke-miterlimit="10"
       fill="none"
       id="path868" />
    <path
       d="m 19.118188,40.498625 c 2.989419,0.887697 9.764355,2.898521 12.847347,3.813877"
       stroke="#707070"
       stroke-width="0.0875979"
       stroke-miterlimit="10"
       fill="none"
       id="path870" />
    <path
       d="m 19.118188,49.06459 c 2.989419,-0.887437 9.764355,-2.89852 12.847347,-3.814006"
       stroke="#707070"
       stroke-width="0.0875979"
       stroke-miterlimit="10"
       fill="none"
       id="path872" />
    <path
       d="M 18.794267,57.918836 C 21.691155,55.338593 29.303953,48.55932 32.304334,45.887139"
       stroke="#707070"
       stroke-width="0.0875979"
       stroke-miterlimit="10"
       fill="none"
       id="path874" />
    <path
       d="M 18.505714,67.105384 C 21.239728,63.047117 29.759818,50.4012 32.608157,46.173601"
       stroke="#707070"
       stroke-width="0.0875979"
       stroke-miterlimit="10"
       fill="none"
       id="path876" />
    <path
       d="M 18.385777,76.367248 C 21.048012,70.821089 30.169222,51.816503 32.818536,46.296316"
       stroke="#707070"
       stroke-width="0.0875979"
       stroke-miterlimit="10"
       fill="none"
       id="path878" />
    <path
       d="M 18.245089,85.996995 C 20.750323,79.248887 30.437808,53.153373 32.948522,46.389812"
       stroke="#707070"
       stroke-width="0.0875979"
       stroke-miterlimit="10"
       fill="none"
       id="path880" />
    <text
       fill="#7f7f7f"
       font-family="Calibri, Calibri_MSFontService, sans-serif"
       font-weight="400"
       font-size="12.2875px"
       id="text888"
       x="43.827419"
       y="32.405773"
       style="stroke-width:0.127994;fill:#666666">?</text>
    <text
       font-family="Calibri, Calibri_MSFontService, sans-serif"
       font-weight="400"
       font-size="28.2868px"
       id="text890"
       x="39.596428"
       y="48.917084"
       style="stroke-width:0.127994">&lt;</text>
    <text
       font-family="Calibri, Calibri_MSFontService, sans-serif"
       font-weight="400"
       font-size="28.2868px"
       id="text892"
       x="39.144478"
       y="61.844543"
       style="stroke-width:0.127994">&gt;</text>
    <text
       xml:space="preserve"
       style="font-style:normal;font-variant:normal;font-weight:normal;font-stretch:normal;font-size:12.7px;font-family:'Comic Sans MS';-inkscape-font-specification:'Comic Sans MS';fill:#999999;stroke:none;stroke-width:0.600001;stroke-linecap:round;paint-order:markers stroke fill"
       x="57.142105"
       y="77.984207"
       id="text3773"><tspan
         sodipodi:role="line"
         id="tspan3771"
         style="font-style:normal;font-variant:normal;font-weight:normal;font-stretch:normal;font-size:12.7px;font-family:'Comic Sans MS';-inkscape-font-specification:'Comic Sans MS';fill:#999999;stroke:none;stroke-width:0.6"
         x="57.142105"
         y="77.984207">width vs depth</tspan></text>
  </g>
</svg>
