<?xml version="1.0" encoding="UTF-8" standalone="no"?>
<svg
   id="svg"
   width="800"
   height="400"
   version="1.1"
   sodipodi:docname="plot.svg"
   inkscape:version="1.2.1 (9c6d41e410, 2022-07-14)"
   xmlns:inkscape="http://www.inkscape.org/namespaces/inkscape"
   xmlns:sodipodi="http://sodipodi.sourceforge.net/DTD/sodipodi-0.dtd"
   xmlns="http://www.w3.org/2000/svg"
   xmlns:svg="http://www.w3.org/2000/svg">
  <defs
     id="defs21" />
  <sodipodi:namedview
     id="namedview19"
     pagecolor="#ffffff"
     bordercolor="#000000"
     borderopacity="0.25"
     inkscape:showpageshadow="2"
     inkscape:pageopacity="0.0"
     inkscape:pagecheckerboard="0"
     inkscape:deskcolor="#d1d1d1"
     showgrid="false"
     inkscape:zoom="1.6375"
     inkscape:cx="329.77099"
     inkscape:cy="200"
     inkscape:window-width="2400"
     inkscape:window-height="1261"
     inkscape:window-x="-9"
     inkscape:window-y="0"
     inkscape:window-maximized="1"
     inkscape:current-layer="svg" />
  <rect
     x="0"
     y="0"
     width="800"
     height="400"
     fill="white"
     fill-opacity="1"
     fill-rule="nonzero"
     id="rect2" />
  <g
     stroke="#a9a9a9"
     fill="none"
     stroke-width="2"
     stroke-linejoin="miter"
     stroke-linecap="butt"
     id="g8">
    <path
       d=" M 50,400 L 50,2 L 42,10 L 50,2 L 58,10 L 50,2"
       id="path4" />
    <path
       d=" M 0,350 L 798,350 L 790,342 L 798,350 L 790,358 L 798,350"
       id="path6" />
  </g>
  <g
     stroke="#808080"
     fill="none"
     stroke-width="3"
     stroke-linejoin="miter"
     stroke-linecap="butt"
     id="g14">
    <path
       d=" M 150,0 L 150,400"
       id="path10" />
    <path
       d=" M 650,0 L 650,400"
       id="path12" />
  </g>
  <path
     d="m 8,387.62793 1,-1.54486 1,-1.54428 1,-1.54364 1,-1.54291 1,-1.54218 1,-1.54132 1,-1.5404 1,-1.53943 1,-1.53842 1,-1.53732 1,-1.53617 1,-1.53494 1,-1.53363 1,-1.53232 1,-1.53088 1,-1.52939 1,-1.52789 1,-1.52625 1,-1.5246 1,-1.52285 1,-1.52109 1,-1.5192 1,-1.5173 1,-1.51532 1,-1.51325 1,-1.51116 1,-1.50898 1,-1.50677 1,-1.50446 1,-1.5021 1,-1.49967 1,-1.49722 1,-1.49466 1,-1.49207 1,-1.48938 1,-1.48669 1,-1.48386 1,-1.48104 1,-1.47815 1,-1.47516 1,-1.47214 1,-1.46902 1,-1.46592 1,-1.4627 1,-1.45942 1,-1.45611 1,-1.4527 1,-1.44928 1,-1.44577 1,-1.44223 1,-1.43857 1,-1.43493 1,-1.43119 1,-1.4274 1,-1.42352 1,-1.41965 1,-1.41568 1,-1.41165 1,-1.40759 1,-1.40344 1,-1.39926 1,-1.39502 1,-1.39072 1,-1.38638 1,-1.38196 1,-1.3775 1,-1.37299 1,-1.36844 1,-1.3638 1,-1.3591 1,-1.3544 1,-1.34961 1,-1.34479 1,-1.33987 1,-1.33496 1,-1.32996 1,-1.32492 1,-1.31982 1,-1.31467 1,-1.30951 1,-1.30426 1,-1.29895 1,-1.29361 1,-1.28824 1,-1.28277 1,-1.27732 1,-1.27175 1,-1.26618 1,-1.26056 1,-1.25485 1,-1.24918 1,-1.24336 1,-1.23756 1,-1.23171 1,-1.2258 1,-1.21985 1,-1.21385 1,-1.20781 1,-1.20173 1,-1.19561 1,-1.18942 1,-1.18323 1,-1.17695 1,-1.17067 1,-1.16434 1,-1.15796 1,-1.15153 1,-1.14508 1,-1.13858 1,-1.13204 1,-1.12547 1,-1.11884 1,-1.11219 1,-1.1055 1,-1.09879 1,-1.09199 1,-1.08521 1,-1.07837 1,-1.07149 1,-1.06459 1,-1.05763 1,-1.05066 1,-1.04365 1,-1.03661 1,-1.02951 1,-1.02242 1,-1.01525 1,-1.00811 1,-1.00087 1,-0.99365 1,-0.98637 1,-0.97908 1,-0.97174 1,-0.9644 1,-0.95701 1,-0.94958 1,-0.94215 1,-0.93468 1,-0.92719 1,-0.91966 1,-0.91212 1,-0.90454 1,-0.89695 1,-0.88931 1,-0.88167 1,-0.87401 1,-0.8663 1,-0.8586 1,-0.85084 1,-0.84309 1,-0.83532 1,-0.82751 1,-0.81969 1,-0.81184 1,-0.80399 1,-0.79609 1,-0.78821 1,-0.78029 1,-0.77237 1,-0.7644 1,-0.75644 1,-0.74846 1,-0.74047 1,-0.73245 1,-0.72442 1,-0.71637 1,-0.70835 1,-0.70025 1,-0.69219 1,-0.6841 1,-0.67598 1,-0.66787 1,-0.65976 1,-0.65163 1,-0.64348 1,-0.63533 1,-0.62716 1,-0.61899 1,-0.61083 1,-0.60264 1,-0.59445 1,-0.58628 1,-0.57805 1,-0.56987 1,-0.56164 1,-0.55344 1,-0.54523 1,-0.537 1,-0.52878 1,-0.52055 1,-0.51234 1,-0.50411 1,-0.49589 1,-0.48766 1,-0.47945 1,-0.47122 1,-0.463 1,-0.45477 1,-0.44656 1,-0.43836 1,-0.43013 1,-0.42195 1,-0.41372 1,-0.40555 1,-0.39736 1,-0.38917 1,-0.38101 1,-0.37284 1,-0.36467 1,-0.35652 1,-0.34837 1,-0.34024 1,-0.33213 1,-0.32402 1,-0.3159 1,-0.30781 1,-0.29975 1,-0.29165 1,-0.28363 1,-0.27558 1,-0.26755 1,-0.25953 1,-0.25154 1,-0.24356 1,-0.2356 1,-0.22763 1,-0.21971 1,-0.21179 1,-0.20391 1,-0.19601 1,-0.18816 1,-0.18031 1,-0.17249 1,-0.16468 1,-0.15691 1,-0.14916 1,-0.1414 1,-0.1337 1,-0.12599 1,-0.11833 1,-0.11069 1,-0.10305 1,-0.0955 1,-0.0879 1,-0.0803 1,-0.0728 1,-0.0653 1,-0.0579 1,-0.0504 1,-0.043 1,-0.0356 1,-0.0283 1,-0.0209 1,-0.0136 1,-0.006 1,8.7e-4 1,0.008 1,0.0152 1,0.0224 1,0.0295 1,0.0366 1,0.0437 1,0.0507 1,0.0576 1,0.0646 1,0.0715 1,0.0784 1,0.0852 1,0.092 1,0.0988 1,0.1055 1,0.11219 1,0.11884 1,0.12547 1,0.13204 1,0.13858 1,0.14508 1,0.15153 1,0.15796 1,0.16434 1,0.17067 1,0.17695 1,0.18323 1,0.18942 1,0.19561 1,0.20173 1,0.20781 1,0.21385 1,0.21985 1,0.2258 1,0.23171 1,0.23756 1,0.24338 1,0.24914 1,0.25489 1,0.26054 1,0.26619 1,0.27176 1,0.2773 1,0.28279 1,0.28822 1,0.29361 1,0.29897 1,0.30424 1,0.3095 1,0.31468 1,0.31984 1,0.3249 1,0.32997 1,0.33495 1,0.33989 1,0.34477 1,0.34961 1,0.35439 1,0.35913 1,0.36378 1,0.36843 1,0.37298 1,0.37752 1,0.38196 1,0.38636 1,0.39074 1,0.39502 1,0.39926 1,0.40346 1,0.40757 1,0.41165 1,0.41568 1,0.41965 1,0.42354 1,0.42738 1,0.43119 1,0.43492 1,0.4386 1,0.44221 1,0.44577 1,0.44927 1,0.45272 1,0.4561 1,0.45943 1,0.46269 1,0.4659 1,0.46906 1,0.47213 1,0.47516 1,0.47814 1,0.48103 1,0.48389 1,0.48666 1,0.48939 1,0.49207 1,0.49466 1,0.49721 1,0.49968 1,0.5021 1,0.50447 1,0.50675 1,0.50899 1,0.51115 1,0.51327 1,0.51531 1,0.51729 1,0.51921 1,0.52107 1,0.52287 1,0.5246 1,0.52626 1,0.52786 1,0.52941 1,0.5309 1,0.53228 1,0.53366 1,0.53493 1,0.53617 1,0.53732 1,0.5384 1,0.53946 1,0.54041 1,0.54132 1,0.54214 1,0.54293 1,0.54364 1,0.54428 1,0.54486 1,0.54538 1,0.54584 1,0.5462 1,0.54655 1,0.5468 1,0.54699 1,0.54713 1,0.54718 1,0.54718 1,0.54713 1,0.54699 1,0.5468 1,0.54655 1,0.5462 1,0.54584 1,0.54538 1,0.54486 1,0.54428 1,0.54364 1,0.54293 1,0.54214 1,0.54132 1,0.54041 1,0.53946 1,0.5384 1,0.53732 1,0.53617 1,0.53493 1,0.53366 1,0.53228 1,0.5309 1,0.52941 1,0.52786 1,0.52626 1,0.5246 1,0.52287 1,0.52107 1,0.51921 1,0.51729 1,0.51531 1,0.51327 1,0.51115 1,0.50899 1,0.50675 1,0.50447 1,0.5021 1,0.49968 1,0.49721 1,0.49466 1,0.49207 1,0.48939 1,0.48666 1,0.48389 1,0.48103 1,0.47814 1,0.47516 1,0.47213 1,0.46906 1,0.4659 1,0.46269 1,0.45943 1,0.4561 1,0.45272 1,0.44927 1,0.44577 1,0.44221 1,0.4386 1,0.43492 1,0.43119 1,0.42738 1,0.42354 1,0.41965 1,0.41568 1,0.41165 1,0.40757 1,0.40346 1,0.39926 1,0.39502 1,0.39074 1,0.38636 1,0.38196 1,0.37752 1,0.37298 1,0.36843 1,0.36378 1,0.35913 1,0.35439 1,0.34961 1,0.34477 1,0.33989 1,0.33495 1,0.32997 1,0.3249 1,0.31984 1,0.31468 1,0.3095 1,0.30424 1,0.29897 1,0.29361 1,0.28822 1,0.28279 1,0.2773 1,0.27176 1,0.26619 1,0.26054 1,0.25489 1,0.24914 1,0.24338 1,0.23756 1,0.23171 1,0.2258 1,0.21985 1,0.21385 1,0.20781 1,0.20173 1,0.19561 1,0.18942 1,0.18323 1,0.17695 1,0.17067 1,0.16434 1,0.15796 1,0.15153 1,0.14508 1,0.13858 1,0.13204 1,0.12547 1,0.11884 1,0.11219 1,0.1055 1,0.0988 1,0.092 1,0.0852 1,0.0784 1,0.0715 1,0.0646 1,0.0576 1,0.0507 1,0.0437 1,0.0366 1,0.0295 1,0.0224 1,0.0152 1,0.008 1,8.7e-4 1,-0.006 1,-0.0136 1,-0.0209 1,-0.0283 1,-0.0356 1,-0.043 1,-0.0504 1,-0.0579 1,-0.0653 1,-0.0728 1,-0.0803 1,-0.0879 1,-0.0955 1,-0.10305 1,-0.11069 1,-0.11833 1,-0.12599 1,-0.1337 1,-0.1414 1,-0.14916 1,-0.15691 1,-0.16468 1,-0.17249 1,-0.18031 1,-0.18816 1,-0.19601 1,-0.20391 1,-0.21179 1,-0.21971 1,-0.22763 1,-0.2356 1,-0.24356 1,-0.25154 1,-0.25953 1,-0.26755 1,-0.27558 1,-0.28363 1,-0.29165 1,-0.29975 1,-0.30781 1,-0.3159 1,-0.32402 1,-0.33213 1,-0.34024 1,-0.34837 1,-0.35652 1,-0.36467 1,-0.37284 1,-0.38101 1,-0.38917 1,-0.39736 1,-0.40555 1,-0.41372 1,-0.42195 1,-0.43013 1,-0.43836 1,-0.44656 1,-0.45477 1,-0.463 1,-0.47122 1,-0.47945 1,-0.48766 1,-0.49589 1,-0.50411 1,-0.51234 1,-0.52055 1,-0.52878 1,-0.537 1,-0.54523 1,-0.55344 1,-0.56164 1,-0.56987 1,-0.57805 1,-0.58628 1,-0.59445 1,-0.60264 1,-0.61083 1,-0.61899 1,-0.62716 1,-0.63533 1,-0.64348 1,-0.65163 1,-0.65976 1,-0.66787 1,-0.67598 1,-0.6841 1,-0.69219 1,-0.70025 1,-0.70835 1,-0.71637 1,-0.72442 1,-0.73245 1,-0.74047 1,-0.74846 1,-0.75644 1,-0.7644 1,-0.77237 1,-0.78029 1,-0.78821 1,-0.79609 1,-0.80399 1,-0.81184 1,-0.81969 1,-0.82751 1,-0.83532 1,-0.84309 1,-0.85084 1,-0.8586 1,-0.8663 1,-0.87401 1,-0.88167 1,-0.88931 1,-0.89695 1,-0.90454 1,-0.91212 1,-0.91966 1,-0.92719 1,-0.93468 1,-0.94215 1,-0.94958 1,-0.95701 1,-0.9644 1,-0.97174 1,-0.97908 1,-0.98637 1,-0.99365 1,-1.00087 1,-1.00811 1,-1.01525 1,-1.02242 1,-1.02951 1,-1.03661 1,-1.04365 1,-1.05066 1,-1.05763 1,-1.06459 1,-1.07149 1,-1.07837 1,-1.08521 1,-1.09199 1,-1.09879 1,-1.1055 1,-1.11219 1,-1.11884 1,-1.12547 1,-1.13204 1,-1.13858 1,-1.14508 1,-1.15153 1,-1.15796 1,-1.16434 1,-1.17067 1,-1.17695 1,-1.18323 1,-1.18942 1,-1.19561 1,-1.20173 1,-1.20781 1,-1.21385 1,-1.21985 1,-1.2258 1,-1.23171 1,-1.23756 1,-1.24338 1,-1.24914 1,-1.25489 1,-1.26054 1,-1.26619 1,-1.27176 1,-1.2773 1,-1.28279 1,-1.28822 1,-1.29361 1,-1.29897 1,-1.30424 1,-1.3095 1,-1.31469 1,-1.31982 1,-1.32492 1,-1.32996 1,-1.33495 1,-1.33989 1,-1.34477 1,-1.34961 1,-1.35439 1,-1.35912 1,-1.3638 1,-1.36842 1,-1.37299 1,-1.3775 1,-1.38197 1,-1.38637 1,-1.39073 1,-1.39502 1,-1.39926 1,-1.40346 1,-1.407573 1,-1.411659 1,-1.415672 1,-1.41964 1,-1.423546 1,-1.427391 1,-1.431183 1,-1.434913 1,-1.438599 1,-1.442207 1,-1.445778 1,-1.449272 1,-1.452713 1,-1.456101 1,-1.459434 1,-1.462693 1,-1.465896 1,-1.469048 1,-1.472137 1,-1.475166 1,-1.478127 1,-1.481041 1,-1.483887 1,-1.486671 1,-1.489395 1,-1.492058 1,-1.494663 1,-1.497204 1,-1.499687 1,-1.502102 1,-1.50446 1,-1.506755 1,-1.508984 1,-1.511158 1,-1.513264 1,-1.515312 1,-1.517292 1,-1.519215 1,-1.521068 1,-1.522865 1,-1.524594 1,-1.526264 1,-1.527866 1,-1.529412 1,-1.530883 1,-1.532303 1,-1.53365 1,-1.534939 1,-1.536159 1,-1.537319 1,-1.538414 1,-1.539444 1,-1.540413 1,-1.541313 1,-1.542153 1,-1.542927 1,-1.543635 1,-1.544282 1,-1.544862 1,-1.545378 1,-1.5458311"
     stroke="#000000"
     fill="none"
     stroke-width="5"
     stroke-linejoin="miter"
     stroke-linecap="butt"
     id="path16"
     sodipodi:nodetypes="ccccccccccccccccccccccccccccccccccccccccccccccccccccccccccccccccccccccccccccccccccccccccccccccccccccccccccccccccccccccccccccccccccccccccccccccccccccccccccccccccccccccccccccccccccccccccccccccccccccccccccccccccccccccccccccccccccccccccccccccccccccccccccccccccccccccccccccccccccccccccccccccccccccccccccccccccccccccccccccccccccccccccccccccccccccccccccccccccccccccccccccccccccccccccccccccccccccccccccccccccccccccccccccccccccccccccccccccccccccccccccccccccccccccccccccccccccccccccccccccccccccccccccccccccccccccccccccccccccccccccccccccccccccccccccccccccccccccccccccccccccccccccccccccccccccccccccccccccccccccccccccccccccccccccccccccccccccccccccccccccccccccccccccccccccccccccccccccccccccccccccccccccccccccccccccccccccccccccccccccccccccccccccccccccccccccccccccccccccccccccccccccccccccccccccccccccccc" />
</svg>
